<svg width="2550" height="2297" viewBox="0 0 2550 2297" fill="none" xmlns="http://www.w3.org/2000/svg">
<path d="M735.443 2009.7C783.194 1579.05 974.2 1244.1 1403.96 1052.7" stroke="#5B21B6" stroke-width="150" stroke-linecap="round" stroke-linejoin="round"/>
<path fill-rule="evenodd" clip-rule="evenodd" d="M840.596 577.408C1038.39 405.475 1345.22 307.8 1784.64 307.8H2167.99C2209.41 307.8 2242.99 341.378 2242.99 382.8V574.2C2242.99 575.63 2242.95 577.06 2242.87 578.488C2235.89 700.217 2221.36 812.216 2199.51 914.785L2045.92 914.519C2069.55 813.351 2085.58 699.586 2092.99 572.038V457.8H1784.64C1364.53 457.8 1099.01 551.524 939.003 690.616C801.901 809.794 733.617 969.899 717.433 1156.39L566.988 1156.13C583.749 935.085 664.14 730.795 840.596 577.408ZM2018.89 1014.47C1966.27 1184.13 1889.35 1312.91 1794.41 1408.08C1630.26 1572.64 1401.34 1647.6 1117.45 1647.6H1116.12H861.632C720.084 1493.04 713.886 1344.4 713.615 1256.38L563.616 1256.12C563.934 1362.02 572.013 1570.65 776.521 1775.58C790.591 1789.68 809.691 1797.6 829.609 1797.6H1116.12H1117.45C1427.41 1797.6 1699.88 1715.23 1900.6 1514.02C2024.56 1389.76 2116.94 1224.36 2175.1 1014.74L2018.89 1014.47Z" fill="#5B21B6"/>
<path d="M1095.42 501.509L520.896 501.508" stroke="#5B21B6" stroke-width="100" stroke-linecap="round"/>
<path d="M697.488 852.331L50 853.506" stroke="#5B21B6" stroke-width="100" stroke-linecap="round"/>
<path d="M403.171 1206.68L96.7397 1205.75" stroke="#5B21B6" stroke-width="100" stroke-linecap="round"/>
<path d="M1933.6 965.297L1698.15 964.17" stroke="#5B21B6" stroke-width="100" stroke-linecap="round"/>
<path d="M1858.26 1442.13H1580.42" stroke="#5B21B6" stroke-width="100" stroke-linecap="round"/>
</svg>
