<svg width="500" height="500" viewBox="0 0 500 500" fill="none" xmlns="http://www.w3.org/2000/svg">
<rect width="500" height="500" fill="url(#paint0_linear_41_8)"/>
<g clip-path="url(#clip0_41_8)">
<path d="M249.5 126C269.97 126 289.981 132.012 307.001 143.274C324.022 154.537 337.288 170.546 345.121 189.275C352.955 208.004 355.005 228.614 351.011 248.497C347.018 268.38 337.16 286.644 322.685 300.978C308.211 315.313 289.769 325.075 269.692 329.03C249.615 332.985 228.804 330.956 209.892 323.198C190.98 315.44 174.816 302.302 163.443 285.446C152.07 268.59 146 248.773 146 228.5L146.104 224.051C147.261 197.663 158.66 172.735 177.924 154.468C197.188 136.2 222.829 126.002 249.5 126Z" fill="white"/>
<path d="M290.5 373C317.685 373 343.756 383.799 362.978 403.022C382.201 422.244 393 448.315 393 475.5V496C393 506.874 388.68 517.302 380.991 524.991C373.302 532.68 362.874 537 352 537H147C136.126 537 125.698 532.68 118.009 524.991C110.32 517.302 106 506.874 106 496V475.5C106 448.315 116.799 422.244 136.022 403.022C155.244 383.799 181.315 373 208.5 373H290.5Z" fill="white"/>
</g>
<defs>
<linearGradient id="paint0_linear_41_8" x1="250" y1="0" x2="250" y2="500" gradientUnits="userSpaceOnUse">
<stop stop-color="#5B21B6"/>
<stop offset="1" stop-color="#9333EA"/>
</linearGradient>
<clipPath id="clip0_41_8">
<rect width="415" height="415" fill="white" transform="translate(42 85)"/>
</clipPath>
</defs>
</svg>
