<svg width="1153" height="384" viewBox="0 0 1153 384" fill="none" xmlns="http://www.w3.org/2000/svg">
<g clip-path="url(#clip0_14_261)">
<rect width="1152" height="384" fill="url(#paint0_radial_14_261)"/>
<g opacity="0.12">
<line x1="212" y1="125.5" x2="1257" y2="125.5" stroke="white"/>
<line x1="96" y1="381.5" x2="1373" y2="381.5" stroke="white"/>
<line x1="212" y1="61.5" x2="1257" y2="61.5001" stroke="white"/>
<line x1="212" y1="317.5" x2="1257" y2="317.5" stroke="white"/>
<line x1="212" y1="253.5" x2="1257" y2="253.5" stroke="white"/>
<line x1="212" y1="189.5" x2="1257" y2="189.5" stroke="white"/>
<line x1="96.5001" y1="664" x2="96.5001" y2="-267" stroke="white"/>
<line x1="676.5" y1="446" x2="676.5" y2="189" stroke="white"/>
<line x1="1024.5" y1="446" x2="1024.5" y2="189" stroke="white"/>
<line x1="444.5" y1="446" x2="444.5" y2="189" stroke="white"/>
<line x1="328.5" y1="574" x2="328.5" y2="62.9999" stroke="white"/>
<line x1="212.5" y1="664" x2="212.5" y2="-99.0001" stroke="white"/>
<line x1="792.5" y1="446" x2="792.5" y2="189" stroke="white"/>
<line x1="1140.5" y1="574" x2="1140.5" y2="63" stroke="white"/>
<g clip-path="url(#clip1_14_261)">
<mask id="path-16-inside-1_14_261" fill="white">
<path d="M-22 -3H97V382H-22V-3Z"/>
</mask>
<line x1="-82.3501" y1="42.1236" x2="113.129" y2="-49.0299" stroke="white"/>
<line x1="-82.3501" y1="273.512" x2="113.129" y2="182.359" stroke="white"/>
<line x1="-82.3501" y1="157.818" x2="113.129" y2="66.6646" stroke="white"/>
<line x1="-82.3501" y1="389.207" x2="113.129" y2="298.053" stroke="white"/>
<line x1="-82.3501" y1="58.6513" x2="113.129" y2="-32.5021" stroke="white"/>
<line x1="-82.3501" y1="290.04" x2="113.129" y2="198.887" stroke="white"/>
<line x1="-82.3501" y1="174.346" x2="113.129" y2="83.1924" stroke="white"/>
<line x1="-82.3501" y1="405.735" x2="113.129" y2="314.581" stroke="white"/>
<line x1="-82.3501" y1="75.1791" x2="113.129" y2="-15.9744" stroke="white"/>
<line x1="-82.3501" y1="306.568" x2="113.129" y2="215.414" stroke="white"/>
<line x1="-82.3501" y1="190.874" x2="113.129" y2="99.7202" stroke="white"/>
<line x1="-82.3501" y1="422.262" x2="113.129" y2="331.109" stroke="white"/>
<line x1="-82.3501" y1="91.7069" x2="113.129" y2="0.553402" stroke="white"/>
<line x1="-82.3501" y1="323.096" x2="113.129" y2="231.942" stroke="white"/>
<line x1="-82.3501" y1="207.401" x2="113.129" y2="116.248" stroke="white"/>
<line x1="-82.3501" y1="438.79" x2="113.129" y2="347.637" stroke="white"/>
<line x1="-82.3501" y1="108.235" x2="113.129" y2="17.0812" stroke="white"/>
<line x1="-82.3501" y1="339.624" x2="113.129" y2="248.47" stroke="white"/>
<line x1="-82.3501" y1="223.929" x2="113.129" y2="132.776" stroke="white"/>
<line x1="-82.3501" y1="455.318" x2="113.129" y2="364.164" stroke="white"/>
<line x1="-82.3501" y1="124.763" x2="113.129" y2="33.6091" stroke="white"/>
<line x1="-82.3501" y1="356.151" x2="113.129" y2="264.998" stroke="white"/>
<line x1="-82.3501" y1="240.457" x2="113.129" y2="149.303" stroke="white"/>
<line x1="-82.3501" y1="471.846" x2="113.129" y2="380.692" stroke="white"/>
<line x1="-82.3501" y1="141.29" x2="113.129" y2="50.1368" stroke="white"/>
<line x1="-82.3501" y1="372.679" x2="113.129" y2="281.526" stroke="white"/>
<line x1="-82.3501" y1="256.985" x2="113.129" y2="165.831" stroke="white"/>
</g>
<path d="M-22 -2H97V-4H-22V-2ZM97 381H-22V383H97V381Z" fill="white" mask="url(#path-16-inside-1_14_261)"/>
</g>
<g filter="url(#filter0_d_14_261)">
<path d="M229.784 185V154.328H237.128V185H229.784ZM231.968 185V178.736H251.264V185H231.968ZM234.08 172.448V166.424H250.688V172.448H234.08ZM231.944 160.52V154.328H251.048V160.52H231.944ZM253.636 185L260.452 171.728V173.72L253.804 161.408H261.7L265.684 169.664H266.14L270.1 161.408H277.972L271.348 173.72V171.728L278.164 185H270.268L266.14 176.336H265.684L261.532 185H253.636ZM295.481 185.552C294.073 185.552 292.889 185.32 291.929 184.856C290.969 184.392 290.201 183.736 289.625 182.888C289.065 182.024 288.665 181.024 288.425 179.888H286.529L288.257 174.944C288.289 175.92 288.473 176.744 288.809 177.416C289.161 178.088 289.657 178.608 290.297 178.976C290.953 179.328 291.729 179.504 292.625 179.504C293.969 179.504 294.985 179.112 295.673 178.328C296.377 177.528 296.729 176.344 296.729 174.776V171.416C296.729 169.848 296.385 168.672 295.697 167.888C295.025 167.104 294.017 166.712 292.673 166.712C291.921 166.712 291.233 166.856 290.609 167.144C290.001 167.432 289.481 167.816 289.049 168.296C288.633 168.76 288.329 169.296 288.137 169.904L286.457 166.52H288.401C288.641 165.464 289.041 164.512 289.601 163.664C290.161 162.8 290.937 162.12 291.929 161.624C292.921 161.112 294.185 160.856 295.721 160.856C298.473 160.856 300.553 161.76 301.961 163.568C303.385 165.36 304.097 168.056 304.097 171.656V174.536C304.097 178.168 303.385 180.912 301.961 182.768C300.553 184.624 298.393 185.552 295.481 185.552ZM281.057 193.256V161.408H288.353L288.113 167.768L288.257 168.608V177.68L288.161 178.928L288.353 185.24V193.256H281.057ZM308.269 185V153.296H315.613V185H308.269ZM331.206 185.672C327.398 185.672 324.518 184.728 322.566 182.84C320.63 180.936 319.662 178.264 319.662 174.824V171.728C319.662 168.24 320.638 165.536 322.59 163.616C324.542 161.68 327.414 160.712 331.206 160.712C334.998 160.712 337.862 161.68 339.798 163.616C341.75 165.536 342.726 168.24 342.726 171.728V174.824C342.726 178.264 341.758 180.936 339.822 182.84C337.886 184.728 335.014 185.672 331.206 185.672ZM331.206 179.888C332.566 179.888 333.598 179.48 334.302 178.664C335.022 177.832 335.382 176.656 335.382 175.136V171.416C335.382 169.816 335.022 168.6 334.302 167.768C333.598 166.936 332.566 166.52 331.206 166.52C329.846 166.52 328.806 166.936 328.086 167.768C327.382 168.6 327.03 169.816 327.03 171.416V175.136C327.03 176.656 327.382 177.832 328.086 178.664C328.806 179.48 329.846 179.888 331.206 179.888ZM353.976 171.752L351.96 167.288H353.688C354.072 165.336 354.816 163.808 355.92 162.704C357.04 161.584 358.616 161.024 360.648 161.024C361 161.024 361.32 161.048 361.608 161.096C361.912 161.144 362.2 161.2 362.472 161.264L362.832 168.68C362.496 168.584 362.104 168.52 361.656 168.488C361.208 168.44 360.752 168.416 360.288 168.416C358.72 168.416 357.4 168.712 356.328 169.304C355.256 169.88 354.472 170.696 353.976 171.752ZM346.776 185V161.408H353.688L353.376 168.944L354.12 169.04V185H346.776ZM377.238 185.6C372.95 185.6 369.782 184.648 367.734 182.744C365.686 180.824 364.662 178.032 364.662 174.368V171.92C364.662 168.304 365.622 165.536 367.542 163.616C369.462 161.68 372.254 160.712 375.918 160.712C378.382 160.712 380.43 161.136 382.062 161.984C383.71 162.816 384.942 164.008 385.758 165.56C386.59 167.112 387.006 168.976 387.006 171.152V171.944C387.006 172.552 386.974 173.176 386.91 173.816C386.862 174.44 386.79 175.024 386.694 175.568H380.07C380.134 174.64 380.174 173.768 380.19 172.952C380.206 172.12 380.214 171.368 380.214 170.696C380.214 169.72 380.062 168.904 379.758 168.248C379.454 167.576 378.982 167.064 378.342 166.712C377.718 166.36 376.91 166.184 375.918 166.184C374.446 166.184 373.366 166.584 372.678 167.384C372.006 168.168 371.67 169.288 371.67 170.744V172.904L371.718 173.696V175.376C371.718 175.984 371.814 176.56 372.006 177.104C372.214 177.648 372.566 178.128 373.062 178.544C373.574 178.944 374.27 179.264 375.15 179.504C376.046 179.728 377.182 179.84 378.558 179.84C380.014 179.84 381.414 179.704 382.758 179.432C384.102 179.144 385.39 178.76 386.622 178.28L386.022 183.8C384.934 184.36 383.646 184.8 382.158 185.12C380.67 185.44 379.03 185.6 377.238 185.6ZM368.55 175.568V171.032H385.206V175.568H368.55ZM413.097 185.672C409.289 185.672 406.409 184.728 404.457 182.84C402.521 180.936 401.553 178.264 401.553 174.824V171.728C401.553 168.24 402.529 165.536 404.481 163.616C406.433 161.68 409.305 160.712 413.097 160.712C416.889 160.712 419.753 161.68 421.689 163.616C423.641 165.536 424.617 168.24 424.617 171.728V174.824C424.617 178.264 423.649 180.936 421.713 182.84C419.777 184.728 416.905 185.672 413.097 185.672ZM413.097 179.888C414.457 179.888 415.489 179.48 416.193 178.664C416.913 177.832 417.273 176.656 417.273 175.136V171.416C417.273 169.816 416.913 168.6 416.193 167.768C415.489 166.936 414.457 166.52 413.097 166.52C411.737 166.52 410.697 166.936 409.977 167.768C409.273 168.6 408.921 169.816 408.921 171.416V175.136C408.921 176.656 409.273 177.832 409.977 178.664C410.697 179.48 411.737 179.888 413.097 179.888ZM437.067 185.576C435.195 185.576 433.507 185.408 432.003 185.072C430.499 184.752 429.211 184.376 428.139 183.944L427.515 177.776C428.747 178.288 430.107 178.752 431.595 179.168C433.099 179.568 434.723 179.768 436.467 179.768C437.859 179.768 438.843 179.624 439.419 179.336C440.011 179.032 440.307 178.568 440.307 177.944V177.848C440.307 177.416 440.155 177.064 439.851 176.792C439.563 176.504 439.051 176.248 438.315 176.024C437.595 175.8 436.579 175.536 435.267 175.232C433.299 174.768 431.739 174.224 430.587 173.6C429.435 172.96 428.611 172.184 428.115 171.272C427.635 170.344 427.395 169.248 427.395 167.984V167.792C427.395 165.456 428.227 163.712 429.891 162.56C431.555 161.392 434.003 160.808 437.235 160.808C439.059 160.808 440.699 160.976 442.155 161.312C443.611 161.648 444.835 162.048 445.827 162.512L446.451 168.248C445.299 167.736 444.011 167.312 442.587 166.976C441.179 166.64 439.699 166.472 438.147 166.472C437.203 166.472 436.459 166.536 435.915 166.664C435.387 166.792 435.011 166.976 434.787 167.216C434.579 167.456 434.475 167.752 434.475 168.104V168.176C434.475 168.56 434.603 168.888 434.859 169.16C435.115 169.432 435.579 169.688 436.251 169.928C436.939 170.168 437.923 170.44 439.203 170.744C441.187 171.176 442.787 171.672 444.003 172.232C445.219 172.776 446.107 173.488 446.667 174.368C447.227 175.232 447.507 176.384 447.507 177.824V178.04C447.507 180.584 446.651 182.48 444.939 183.728C443.227 184.96 440.603 185.576 437.067 185.576ZM467.84 176.288V170.216H475.112C476.68 170.216 477.808 169.872 478.496 169.184C479.2 168.48 479.552 167.432 479.552 166.04V164.552C479.552 163.144 479.208 162.096 478.52 161.408C477.832 160.72 476.704 160.376 475.136 160.376H467.816V154.328H475.688C479.592 154.328 482.448 155.192 484.256 156.92C486.08 158.648 486.992 161.12 486.992 164.336V166.28C486.992 169.512 486.08 171.992 484.256 173.72C482.448 175.432 479.6 176.288 475.712 176.288H467.84ZM462.8 185V154.328H470.144V171.92L470.192 175.328V185H462.8ZM498.023 171.752L496.007 167.288H497.735C498.119 165.336 498.863 163.808 499.967 162.704C501.087 161.584 502.663 161.024 504.695 161.024C505.047 161.024 505.367 161.048 505.655 161.096C505.959 161.144 506.247 161.2 506.519 161.264L506.879 168.68C506.543 168.584 506.151 168.52 505.703 168.488C505.255 168.44 504.799 168.416 504.335 168.416C502.767 168.416 501.447 168.712 500.375 169.304C499.303 169.88 498.519 170.696 498.023 171.752ZM490.823 185V161.408H497.735L497.423 168.944L498.167 169.04V185H490.823ZM520.253 185.672C516.445 185.672 513.565 184.728 511.613 182.84C509.677 180.936 508.709 178.264 508.709 174.824V171.728C508.709 168.24 509.685 165.536 511.637 163.616C513.589 161.68 516.461 160.712 520.253 160.712C524.045 160.712 526.909 161.68 528.845 163.616C530.797 165.536 531.773 168.24 531.773 171.728V174.824C531.773 178.264 530.805 180.936 528.869 182.84C526.933 184.728 524.061 185.672 520.253 185.672ZM520.253 179.888C521.613 179.888 522.645 179.48 523.349 178.664C524.069 177.832 524.429 176.656 524.429 175.136V171.416C524.429 169.816 524.069 168.6 523.349 167.768C522.645 166.936 521.613 166.52 520.253 166.52C518.893 166.52 517.853 166.936 517.133 167.768C516.429 168.6 516.077 169.816 516.077 171.416V175.136C516.077 176.656 516.429 177.832 517.133 178.664C517.853 179.48 518.893 179.888 520.253 179.888ZM536.09 181.064V161.408H543.434V181.064H536.09ZM539.762 159.176C538.402 159.176 537.41 158.864 536.786 158.24C536.162 157.6 535.85 156.744 535.85 155.672V155.504C535.85 154.432 536.162 153.584 536.786 152.96C537.41 152.336 538.402 152.024 539.762 152.024C541.122 152.024 542.114 152.336 542.738 152.96C543.378 153.584 543.698 154.432 543.698 155.504V155.672C543.698 156.76 543.378 157.616 542.738 158.24C542.114 158.864 541.122 159.176 539.762 159.176ZM535.226 193.664C534.506 193.664 533.842 193.616 533.234 193.52C532.61 193.44 532.066 193.336 531.602 193.208L531.074 187.376C531.394 187.488 531.73 187.576 532.082 187.64C532.418 187.704 532.77 187.736 533.138 187.736C534.322 187.736 535.106 187.424 535.49 186.8C535.89 186.176 536.09 185.312 536.09 184.208V179.648H543.434V184.712C543.434 186.52 543.17 188.088 542.642 189.416C542.13 190.76 541.274 191.8 540.074 192.536C538.874 193.288 537.258 193.664 535.226 193.664ZM560.051 185.6C555.763 185.6 552.595 184.648 550.547 182.744C548.499 180.824 547.475 178.032 547.475 174.368V171.92C547.475 168.304 548.435 165.536 550.355 163.616C552.275 161.68 555.067 160.712 558.731 160.712C561.195 160.712 563.243 161.136 564.875 161.984C566.523 162.816 567.755 164.008 568.571 165.56C569.403 167.112 569.819 168.976 569.819 171.152V171.944C569.819 172.552 569.787 173.176 569.723 173.816C569.675 174.44 569.603 175.024 569.507 175.568H562.883C562.947 174.64 562.987 173.768 563.003 172.952C563.019 172.12 563.027 171.368 563.027 170.696C563.027 169.72 562.875 168.904 562.571 168.248C562.267 167.576 561.795 167.064 561.155 166.712C560.531 166.36 559.723 166.184 558.731 166.184C557.259 166.184 556.179 166.584 555.491 167.384C554.819 168.168 554.483 169.288 554.483 170.744V172.904L554.531 173.696V175.376C554.531 175.984 554.627 176.56 554.819 177.104C555.027 177.648 555.379 178.128 555.875 178.544C556.387 178.944 557.083 179.264 557.963 179.504C558.859 179.728 559.995 179.84 561.371 179.84C562.827 179.84 564.227 179.704 565.571 179.432C566.915 179.144 568.203 178.76 569.435 178.28L568.835 183.8C567.747 184.36 566.459 184.8 564.971 185.12C563.483 185.44 561.843 185.6 560.051 185.6ZM551.363 175.568V171.032H568.019V175.568H551.363ZM583.364 185.528C581.268 185.528 579.596 185.216 578.348 184.592C577.116 183.952 576.228 183 575.684 181.736C575.14 180.472 574.868 178.912 574.868 177.056V163.88H582.164V175.88C582.164 177.032 582.42 177.88 582.932 178.424C583.46 178.952 584.436 179.216 585.86 179.216C586.644 179.216 587.42 179.128 588.188 178.952C588.956 178.776 589.652 178.552 590.276 178.28L589.652 184.352C588.836 184.704 587.892 184.984 586.82 185.192C585.764 185.416 584.612 185.528 583.364 185.528ZM571.7 167.264V161.504H590.06L589.412 167.264H571.7ZM574.964 162.032L574.94 155.936L582.212 155.24L581.948 162.032H574.964ZM603.737 185.672C599.929 185.672 597.049 184.728 595.097 182.84C593.161 180.936 592.193 178.264 592.193 174.824V171.728C592.193 168.24 593.169 165.536 595.121 163.616C597.073 161.68 599.945 160.712 603.737 160.712C607.529 160.712 610.393 161.68 612.329 163.616C614.281 165.536 615.257 168.24 615.257 171.728V174.824C615.257 178.264 614.289 180.936 612.353 182.84C610.417 184.728 607.545 185.672 603.737 185.672ZM603.737 179.888C605.097 179.888 606.129 179.48 606.833 178.664C607.553 177.832 607.913 176.656 607.913 175.136V171.416C607.913 169.816 607.553 168.6 606.833 167.768C606.129 166.936 605.097 166.52 603.737 166.52C602.377 166.52 601.337 166.936 600.617 167.768C599.913 168.6 599.561 169.816 599.561 171.416V175.136C599.561 176.656 599.913 177.832 600.617 178.664C601.337 179.48 602.377 179.888 603.737 179.888ZM627.707 185.576C625.835 185.576 624.147 185.408 622.643 185.072C621.139 184.752 619.851 184.376 618.779 183.944L618.155 177.776C619.387 178.288 620.747 178.752 622.235 179.168C623.739 179.568 625.363 179.768 627.107 179.768C628.499 179.768 629.483 179.624 630.059 179.336C630.651 179.032 630.947 178.568 630.947 177.944V177.848C630.947 177.416 630.795 177.064 630.491 176.792C630.203 176.504 629.691 176.248 628.955 176.024C628.235 175.8 627.219 175.536 625.907 175.232C623.939 174.768 622.379 174.224 621.227 173.6C620.075 172.96 619.251 172.184 618.755 171.272C618.275 170.344 618.035 169.248 618.035 167.984V167.792C618.035 165.456 618.867 163.712 620.531 162.56C622.195 161.392 624.643 160.808 627.875 160.808C629.699 160.808 631.339 160.976 632.795 161.312C634.251 161.648 635.475 162.048 636.467 162.512L637.091 168.248C635.939 167.736 634.651 167.312 633.227 166.976C631.819 166.64 630.339 166.472 628.787 166.472C627.843 166.472 627.099 166.536 626.555 166.664C626.027 166.792 625.651 166.976 625.427 167.216C625.219 167.456 625.115 167.752 625.115 168.104V168.176C625.115 168.56 625.243 168.888 625.499 169.16C625.755 169.432 626.219 169.688 626.891 169.928C627.579 170.168 628.563 170.44 629.843 170.744C631.827 171.176 633.427 171.672 634.643 172.232C635.859 172.776 636.747 173.488 637.307 174.368C637.867 175.232 638.147 176.384 638.147 177.824V178.04C638.147 180.584 637.291 182.48 635.579 183.728C633.867 184.96 631.243 185.576 627.707 185.576ZM662.968 185.648C661.544 185.648 660.208 185.552 658.96 185.36C657.728 185.184 656.6 184.952 655.576 184.664C654.568 184.36 653.68 184.048 652.912 183.728L652.264 176.816C653.528 177.408 655.024 177.96 656.752 178.472C658.48 178.968 660.312 179.216 662.248 179.216C664.12 179.216 665.448 178.984 666.232 178.52C667.032 178.04 667.432 177.296 667.432 176.288V176.12C667.432 175.448 667.248 174.904 666.88 174.488C666.528 174.056 665.928 173.664 665.08 173.312C664.248 172.944 663.12 172.552 661.696 172.136C659.552 171.496 657.76 170.784 656.32 170C654.896 169.216 653.832 168.24 653.128 167.072C652.424 165.888 652.072 164.392 652.072 162.584V162.272C652.072 159.488 653.016 157.36 654.904 155.888C656.808 154.416 659.6 153.68 663.28 153.68C665.488 153.68 667.392 153.872 668.992 154.256C670.608 154.64 671.976 155.096 673.096 155.624L673.744 162.056C672.512 161.464 671.112 160.968 669.544 160.568C667.992 160.152 666.328 159.944 664.552 159.944C663.304 159.944 662.32 160.048 661.6 160.256C660.896 160.464 660.4 160.768 660.112 161.168C659.824 161.552 659.68 162.024 659.68 162.584V162.68C659.68 163.256 659.84 163.76 660.16 164.192C660.496 164.624 661.088 165.04 661.936 165.44C662.8 165.84 664.024 166.272 665.608 166.736C667.736 167.36 669.496 168.032 670.888 168.752C672.296 169.456 673.344 170.376 674.032 171.512C674.736 172.632 675.088 174.128 675.088 176V176.384C675.088 179.472 674.088 181.792 672.088 183.344C670.088 184.88 667.048 185.648 662.968 185.648ZM686.06 161.408V175.28C686.06 176.144 686.172 176.896 686.396 177.536C686.62 178.16 686.996 178.648 687.524 179C688.052 179.336 688.772 179.504 689.684 179.504C690.452 179.504 691.116 179.368 691.676 179.096C692.252 178.824 692.732 178.456 693.116 177.992C693.516 177.528 693.812 177.016 694.004 176.456L695.132 179.888H693.884C693.628 180.944 693.204 181.904 692.612 182.768C692.036 183.632 691.236 184.312 690.212 184.808C689.204 185.304 687.908 185.552 686.324 185.552C684.58 185.552 683.14 185.216 682.004 184.544C680.884 183.856 680.052 182.84 679.508 181.496C678.98 180.152 678.716 178.472 678.716 176.456V161.408H686.06ZM701.228 161.408V185H693.932L694.172 179.096L693.884 178.424V161.408H701.228ZM714.52 185.576C712.648 185.576 710.96 185.408 709.456 185.072C707.952 184.752 706.664 184.376 705.592 183.944L704.968 177.776C706.2 178.288 707.56 178.752 709.048 179.168C710.552 179.568 712.176 179.768 713.92 179.768C715.312 179.768 716.296 179.624 716.872 179.336C717.464 179.032 717.76 178.568 717.76 177.944V177.848C717.76 177.416 717.608 177.064 717.304 176.792C717.016 176.504 716.504 176.248 715.768 176.024C715.048 175.8 714.032 175.536 712.72 175.232C710.752 174.768 709.192 174.224 708.04 173.6C706.888 172.96 706.064 172.184 705.568 171.272C705.088 170.344 704.848 169.248 704.848 167.984V167.792C704.848 165.456 705.68 163.712 707.344 162.56C709.008 161.392 711.456 160.808 714.688 160.808C716.512 160.808 718.152 160.976 719.608 161.312C721.064 161.648 722.288 162.048 723.28 162.512L723.904 168.248C722.752 167.736 721.464 167.312 720.04 166.976C718.632 166.64 717.152 166.472 715.6 166.472C714.656 166.472 713.912 166.536 713.368 166.664C712.84 166.792 712.464 166.976 712.24 167.216C712.032 167.456 711.928 167.752 711.928 168.104V168.176C711.928 168.56 712.056 168.888 712.312 169.16C712.568 169.432 713.032 169.688 713.704 169.928C714.392 170.168 715.376 170.44 716.656 170.744C718.64 171.176 720.24 171.672 721.456 172.232C722.672 172.776 723.56 173.488 724.12 174.368C724.68 175.232 724.96 176.384 724.96 177.824V178.04C724.96 180.584 724.104 182.48 722.392 183.728C720.68 184.96 718.056 185.576 714.52 185.576ZM737.63 185.528C735.534 185.528 733.862 185.216 732.614 184.592C731.382 183.952 730.494 183 729.95 181.736C729.406 180.472 729.134 178.912 729.134 177.056V163.88H736.43V175.88C736.43 177.032 736.686 177.88 737.198 178.424C737.726 178.952 738.702 179.216 740.126 179.216C740.91 179.216 741.686 179.128 742.454 178.952C743.222 178.776 743.918 178.552 744.542 178.28L743.918 184.352C743.102 184.704 742.158 184.984 741.086 185.192C740.03 185.416 738.878 185.528 737.63 185.528ZM725.966 167.264V161.504H744.326L743.678 167.264H725.966ZM729.23 162.032L729.206 155.936L736.478 155.24L736.214 162.032H729.23ZM759.035 185.6C754.747 185.6 751.579 184.648 749.531 182.744C747.483 180.824 746.459 178.032 746.459 174.368V171.92C746.459 168.304 747.419 165.536 749.339 163.616C751.259 161.68 754.051 160.712 757.715 160.712C760.179 160.712 762.227 161.136 763.859 161.984C765.507 162.816 766.739 164.008 767.555 165.56C768.387 167.112 768.803 168.976 768.803 171.152V171.944C768.803 172.552 768.771 173.176 768.707 173.816C768.659 174.44 768.587 175.024 768.491 175.568H761.867C761.931 174.64 761.971 173.768 761.987 172.952C762.003 172.12 762.011 171.368 762.011 170.696C762.011 169.72 761.859 168.904 761.555 168.248C761.251 167.576 760.779 167.064 760.139 166.712C759.515 166.36 758.707 166.184 757.715 166.184C756.243 166.184 755.163 166.584 754.475 167.384C753.803 168.168 753.467 169.288 753.467 170.744V172.904L753.515 173.696V175.376C753.515 175.984 753.611 176.56 753.803 177.104C754.011 177.648 754.363 178.128 754.859 178.544C755.371 178.944 756.067 179.264 756.947 179.504C757.843 179.728 758.979 179.84 760.355 179.84C761.811 179.84 763.211 179.704 764.555 179.432C765.899 179.144 767.187 178.76 768.419 178.28L767.819 183.8C766.731 184.36 765.443 184.8 763.955 185.12C762.467 185.44 760.827 185.6 759.035 185.6ZM750.347 175.568V171.032H767.003V175.568H750.347ZM787.944 185V171.128C787.944 170.264 787.832 169.52 787.608 168.896C787.384 168.256 787.008 167.768 786.48 167.432C785.952 167.096 785.232 166.928 784.32 166.928C783.568 166.928 782.904 167.064 782.328 167.336C781.752 167.592 781.264 167.952 780.864 168.416C780.48 168.864 780.192 169.376 780 169.952L778.872 166.52H780.12C780.376 165.448 780.792 164.488 781.368 163.64C781.96 162.792 782.768 162.12 783.792 161.624C784.816 161.112 786.112 160.856 787.68 160.856C789.44 160.856 790.88 161.2 792 161.888C793.12 162.56 793.944 163.568 794.472 164.912C795.016 166.256 795.288 167.936 795.288 169.952V185H787.944ZM772.776 185V161.408H780.072L779.832 167.312L780.12 168.008V185H772.776ZM809.302 185.528C807.206 185.528 805.534 185.216 804.286 184.592C803.054 183.952 802.166 183 801.622 181.736C801.078 180.472 800.806 178.912 800.806 177.056V163.88H808.102V175.88C808.102 177.032 808.358 177.88 808.87 178.424C809.398 178.952 810.374 179.216 811.798 179.216C812.582 179.216 813.358 179.128 814.126 178.952C814.894 178.776 815.59 178.552 816.214 178.28L815.59 184.352C814.774 184.704 813.83 184.984 812.758 185.192C811.702 185.416 810.55 185.528 809.302 185.528ZM797.638 167.264V161.504H815.998L815.35 167.264H797.638ZM800.902 162.032L800.878 155.936L808.15 155.24L807.886 162.032H800.902ZM833.116 185L833.332 179.096L833.164 178.736V171.368L833.116 170.408C833.116 169.096 832.732 168.128 831.964 167.504C831.196 166.88 829.908 166.568 828.1 166.568C826.516 166.568 825.012 166.768 823.588 167.168C822.164 167.568 820.82 168.024 819.556 168.536L820.18 162.848C820.932 162.496 821.772 162.168 822.7 161.864C823.644 161.544 824.684 161.288 825.82 161.096C826.956 160.904 828.172 160.808 829.468 160.808C831.532 160.808 833.26 161.048 834.652 161.528C836.044 162.008 837.156 162.688 837.988 163.568C838.82 164.448 839.42 165.504 839.788 166.736C840.156 167.952 840.34 169.296 840.34 170.768V185H833.116ZM825.604 185.552C823.252 185.552 821.468 184.96 820.252 183.776C819.036 182.592 818.428 180.904 818.428 178.712V178.064C818.428 175.744 819.14 174.032 820.564 172.928C822.004 171.808 824.284 171.048 827.404 170.648L833.74 169.808L834.172 174.224L828.556 175.04C827.42 175.184 826.62 175.448 826.156 175.832C825.692 176.216 825.46 176.784 825.46 177.536V177.704C825.46 178.424 825.692 179 826.156 179.432C826.62 179.848 827.364 180.056 828.388 180.056C829.284 180.056 830.052 179.92 830.692 179.648C831.348 179.376 831.884 179.024 832.3 178.592C832.716 178.144 833.028 177.648 833.236 177.104L834.268 180.08H833.068C832.812 181.104 832.412 182.032 831.868 182.864C831.34 183.696 830.572 184.352 829.564 184.832C828.556 185.312 827.236 185.552 825.604 185.552ZM830.668 152.024H838.3V152.12L832.516 159.08H826.468V159.008L830.668 152.024ZM854.585 180.2L858.881 161.408H866.417L860.153 185H848.393L842.081 161.408H849.665L854.009 180.2H854.585ZM880.348 185.6C876.06 185.6 872.892 184.648 870.844 182.744C868.796 180.824 867.771 178.032 867.771 174.368V171.92C867.771 168.304 868.732 165.536 870.652 163.616C872.572 161.68 875.364 160.712 879.028 160.712C881.492 160.712 883.54 161.136 885.172 161.984C886.82 162.816 888.052 164.008 888.868 165.56C889.7 167.112 890.116 168.976 890.116 171.152V171.944C890.116 172.552 890.084 173.176 890.02 173.816C889.972 174.44 889.9 175.024 889.804 175.568H883.18C883.244 174.64 883.284 173.768 883.3 172.952C883.316 172.12 883.324 171.368 883.324 170.696C883.324 169.72 883.172 168.904 882.868 168.248C882.564 167.576 882.092 167.064 881.452 166.712C880.828 166.36 880.02 166.184 879.028 166.184C877.556 166.184 876.476 166.584 875.788 167.384C875.116 168.168 874.78 169.288 874.78 170.744V172.904L874.828 173.696V175.376C874.828 175.984 874.924 176.56 875.116 177.104C875.324 177.648 875.676 178.128 876.172 178.544C876.684 178.944 877.38 179.264 878.26 179.504C879.156 179.728 880.292 179.84 881.668 179.84C883.124 179.84 884.524 179.704 885.868 179.432C887.212 179.144 888.5 178.76 889.732 178.28L889.132 183.8C888.044 184.36 886.756 184.8 885.268 185.12C883.78 185.44 882.14 185.6 880.348 185.6ZM871.66 175.568V171.032H888.316V175.568H871.66ZM894.113 185V161.408H901.457V185H894.113ZM897.785 159.176C896.409 159.176 895.409 158.864 894.785 158.24C894.161 157.6 893.849 156.744 893.849 155.672V155.504C893.849 154.432 894.161 153.584 894.785 152.96C895.409 152.336 896.409 152.024 897.785 152.024C899.129 152.024 900.113 152.336 900.737 152.96C901.377 153.584 901.697 154.432 901.697 155.504V155.672C901.697 156.76 901.377 157.616 900.737 158.24C900.113 158.864 899.129 159.176 897.785 159.176ZM914.723 185.576C912.851 185.576 911.163 185.408 909.659 185.072C908.155 184.752 906.867 184.376 905.795 183.944L905.171 177.776C906.403 178.288 907.763 178.752 909.251 179.168C910.755 179.568 912.379 179.768 914.123 179.768C915.515 179.768 916.499 179.624 917.075 179.336C917.667 179.032 917.963 178.568 917.963 177.944V177.848C917.963 177.416 917.811 177.064 917.507 176.792C917.219 176.504 916.707 176.248 915.971 176.024C915.251 175.8 914.235 175.536 912.923 175.232C910.955 174.768 909.395 174.224 908.243 173.6C907.091 172.96 906.267 172.184 905.771 171.272C905.291 170.344 905.051 169.248 905.051 167.984V167.792C905.051 165.456 905.883 163.712 907.547 162.56C909.211 161.392 911.659 160.808 914.891 160.808C916.715 160.808 918.355 160.976 919.811 161.312C921.267 161.648 922.491 162.048 923.483 162.512L924.107 168.248C922.955 167.736 921.667 167.312 920.243 166.976C918.835 166.64 917.355 166.472 915.803 166.472C914.859 166.472 914.115 166.536 913.571 166.664C913.043 166.792 912.667 166.976 912.443 167.216C912.235 167.456 912.131 167.752 912.131 168.104V168.176C912.131 168.56 912.259 168.888 912.515 169.16C912.771 169.432 913.235 169.688 913.907 169.928C914.595 170.168 915.579 170.44 916.859 170.744C918.843 171.176 920.443 171.672 921.659 172.232C922.875 172.776 923.763 173.488 924.323 174.368C924.883 175.232 925.163 176.384 925.163 177.824V178.04C925.163 180.584 924.307 182.48 922.595 183.728C920.883 184.96 918.259 185.576 914.723 185.576Z" fill="#FAF5FF"/>
<path d="M283 233H280.76L275.688 225.336V233H273.448V221.816H275.688L280.76 229.496V221.816H283V233ZM284.637 228.536C284.637 227.64 284.813 226.845 285.165 226.152C285.528 225.459 286.013 224.925 286.621 224.552C287.24 224.179 287.928 223.992 288.685 223.992C289.347 223.992 289.923 224.125 290.413 224.392C290.915 224.659 291.315 224.995 291.613 225.4V224.136H293.869V233H291.613V231.704C291.325 232.12 290.925 232.467 290.413 232.744C289.912 233.011 289.331 233.144 288.669 233.144C287.923 233.144 287.24 232.952 286.621 232.568C286.013 232.184 285.528 231.645 285.165 230.952C284.813 230.248 284.637 229.443 284.637 228.536ZM291.613 228.568C291.613 228.024 291.507 227.56 291.293 227.176C291.08 226.781 290.792 226.483 290.429 226.28C290.067 226.067 289.677 225.96 289.261 225.96C288.845 225.96 288.461 226.061 288.109 226.264C287.757 226.467 287.469 226.765 287.245 227.16C287.032 227.544 286.925 228.003 286.925 228.536C286.925 229.069 287.032 229.539 287.245 229.944C287.469 230.339 287.757 230.643 288.109 230.856C288.472 231.069 288.856 231.176 289.261 231.176C289.677 231.176 290.067 231.075 290.429 230.872C290.792 230.659 291.08 230.36 291.293 229.976C291.507 229.581 291.613 229.112 291.613 228.568ZM299.753 230.936L301.993 224.136H304.377L301.097 233H298.377L295.113 224.136H297.513L299.753 230.936ZM313.875 228.376C313.875 228.696 313.854 228.984 313.811 229.24H307.331C307.385 229.88 307.609 230.381 308.003 230.744C308.398 231.107 308.883 231.288 309.459 231.288C310.291 231.288 310.883 230.931 311.235 230.216H313.651C313.395 231.069 312.905 231.773 312.179 232.328C311.454 232.872 310.563 233.144 309.507 233.144C308.654 233.144 307.886 232.957 307.203 232.584C306.531 232.2 306.003 231.661 305.619 230.968C305.246 230.275 305.059 229.475 305.059 228.568C305.059 227.651 305.246 226.845 305.619 226.152C305.993 225.459 306.515 224.925 307.187 224.552C307.859 224.179 308.633 223.992 309.507 223.992C310.35 223.992 311.102 224.173 311.763 224.536C312.435 224.899 312.953 225.416 313.315 226.088C313.689 226.749 313.875 227.512 313.875 228.376ZM311.555 227.736C311.545 227.16 311.337 226.701 310.931 226.36C310.526 226.008 310.03 225.832 309.443 225.832C308.889 225.832 308.419 226.003 308.035 226.344C307.662 226.675 307.433 227.139 307.347 227.736H311.555ZM318.982 223.992C319.644 223.992 320.225 224.125 320.726 224.392C321.228 224.648 321.622 224.984 321.91 225.4V224.136H324.166V233.064C324.166 233.885 324.001 234.616 323.67 235.256C323.34 235.907 322.844 236.419 322.182 236.792C321.521 237.176 320.721 237.368 319.782 237.368C318.524 237.368 317.489 237.075 316.678 236.488C315.878 235.901 315.425 235.101 315.318 234.088H317.542C317.66 234.493 317.91 234.813 318.294 235.048C318.689 235.293 319.164 235.416 319.718 235.416C320.369 235.416 320.897 235.219 321.302 234.824C321.708 234.44 321.91 233.853 321.91 233.064V231.688C321.622 232.104 321.222 232.451 320.71 232.728C320.209 233.005 319.633 233.144 318.982 233.144C318.236 233.144 317.553 232.952 316.934 232.568C316.316 232.184 315.825 231.645 315.462 230.952C315.11 230.248 314.934 229.443 314.934 228.536C314.934 227.64 315.11 226.845 315.462 226.152C315.825 225.459 316.31 224.925 316.918 224.552C317.537 224.179 318.225 223.992 318.982 223.992ZM321.91 228.568C321.91 228.024 321.804 227.56 321.59 227.176C321.377 226.781 321.089 226.483 320.726 226.28C320.364 226.067 319.974 225.96 319.558 225.96C319.142 225.96 318.758 226.061 318.406 226.264C318.054 226.467 317.766 226.765 317.542 227.16C317.329 227.544 317.222 228.003 317.222 228.536C317.222 229.069 317.329 229.539 317.542 229.944C317.766 230.339 318.054 230.643 318.406 230.856C318.769 231.069 319.153 231.176 319.558 231.176C319.974 231.176 320.364 231.075 320.726 230.872C321.089 230.659 321.377 230.36 321.59 229.976C321.804 229.581 321.91 229.112 321.91 228.568ZM334.722 224.136V233H332.466V231.88C332.178 232.264 331.799 232.568 331.33 232.792C330.871 233.005 330.37 233.112 329.826 233.112C329.133 233.112 328.519 232.968 327.986 232.68C327.453 232.381 327.031 231.949 326.722 231.384C326.423 230.808 326.274 230.125 326.274 229.336V224.136H328.514V229.016C328.514 229.72 328.69 230.264 329.042 230.648C329.394 231.021 329.874 231.208 330.482 231.208C331.101 231.208 331.586 231.021 331.938 230.648C332.29 230.264 332.466 229.72 332.466 229.016V224.136H334.722ZM345.172 228.376C345.172 228.696 345.151 228.984 345.108 229.24H338.628C338.681 229.88 338.905 230.381 339.3 230.744C339.695 231.107 340.18 231.288 340.756 231.288C341.588 231.288 342.18 230.931 342.532 230.216H344.948C344.692 231.069 344.201 231.773 343.476 232.328C342.751 232.872 341.86 233.144 340.804 233.144C339.951 233.144 339.183 232.957 338.5 232.584C337.828 232.2 337.3 231.661 336.916 230.968C336.543 230.275 336.356 229.475 336.356 228.568C336.356 227.651 336.543 226.845 336.916 226.152C337.289 225.459 337.812 224.925 338.484 224.552C339.156 224.179 339.929 223.992 340.804 223.992C341.647 223.992 342.399 224.173 343.06 224.536C343.732 224.899 344.249 225.416 344.612 226.088C344.985 226.749 345.172 227.512 345.172 228.376ZM342.852 227.736C342.841 227.16 342.633 226.701 342.228 226.36C341.823 226.008 341.327 225.832 340.74 225.832C340.185 225.832 339.716 226.003 339.332 226.344C338.959 226.675 338.729 227.139 338.644 227.736H342.852ZM352.86 225.416C353.148 225.011 353.542 224.675 354.044 224.408C354.556 224.131 355.137 223.992 355.788 223.992C356.545 223.992 357.228 224.179 357.836 224.552C358.454 224.925 358.94 225.459 359.292 226.152C359.654 226.835 359.836 227.629 359.836 228.536C359.836 229.443 359.654 230.248 359.292 230.952C358.94 231.645 358.454 232.184 357.836 232.568C357.228 232.952 356.545 233.144 355.788 233.144C355.137 233.144 354.561 233.011 354.06 232.744C353.569 232.477 353.169 232.141 352.86 231.736V237.224H350.62V224.136H352.86V225.416ZM357.548 228.536C357.548 228.003 357.436 227.544 357.212 227.16C356.998 226.765 356.71 226.467 356.348 226.264C355.996 226.061 355.612 225.96 355.196 225.96C354.79 225.96 354.406 226.067 354.044 226.28C353.692 226.483 353.404 226.781 353.18 227.176C352.966 227.571 352.86 228.035 352.86 228.568C352.86 229.101 352.966 229.565 353.18 229.96C353.404 230.355 353.692 230.659 354.044 230.872C354.406 231.075 354.79 231.176 355.196 231.176C355.612 231.176 355.996 231.069 356.348 230.856C356.71 230.643 356.998 230.339 357.212 229.944C357.436 229.549 357.548 229.08 357.548 228.536ZM369.703 228.376C369.703 228.696 369.682 228.984 369.639 229.24H363.159C363.213 229.88 363.437 230.381 363.831 230.744C364.226 231.107 364.711 231.288 365.287 231.288C366.119 231.288 366.711 230.931 367.063 230.216H369.479C369.223 231.069 368.733 231.773 368.007 232.328C367.282 232.872 366.391 233.144 365.335 233.144C364.482 233.144 363.714 232.957 363.031 232.584C362.359 232.2 361.831 231.661 361.447 230.968C361.074 230.275 360.887 229.475 360.887 228.568C360.887 227.651 361.074 226.845 361.447 226.152C361.821 225.459 362.343 224.925 363.015 224.552C363.687 224.179 364.461 223.992 365.335 223.992C366.178 223.992 366.93 224.173 367.591 224.536C368.263 224.899 368.781 225.416 369.143 226.088C369.517 226.749 369.703 227.512 369.703 228.376ZM367.383 227.736C367.373 227.16 367.165 226.701 366.759 226.36C366.354 226.008 365.858 225.832 365.271 225.832C364.717 225.832 364.247 226.003 363.863 226.344C363.49 226.675 363.261 227.139 363.175 227.736H367.383ZM373.578 221.16V233H371.338V221.16H373.578ZM375.215 228.536C375.215 227.64 375.391 226.845 375.743 226.152C376.106 225.459 376.592 224.925 377.2 224.552C377.818 224.179 378.506 223.992 379.264 223.992C379.925 223.992 380.501 224.125 380.992 224.392C381.493 224.659 381.893 224.995 382.192 225.4V224.136H384.448V233H382.192V231.704C381.904 232.12 381.504 232.467 380.992 232.744C380.49 233.011 379.909 233.144 379.248 233.144C378.501 233.144 377.818 232.952 377.2 232.568C376.592 232.184 376.106 231.645 375.743 230.952C375.391 230.248 375.215 229.443 375.215 228.536ZM382.192 228.568C382.192 228.024 382.085 227.56 381.872 227.176C381.658 226.781 381.37 226.483 381.008 226.28C380.645 226.067 380.256 225.96 379.84 225.96C379.424 225.96 379.04 226.061 378.688 226.264C378.336 226.467 378.048 226.765 377.824 227.16C377.61 227.544 377.504 228.003 377.504 228.536C377.504 229.069 377.61 229.539 377.824 229.944C378.048 230.339 378.336 230.643 378.688 230.856C379.05 231.069 379.434 231.176 379.84 231.176C380.256 231.176 380.645 231.075 381.008 230.872C381.37 230.659 381.658 230.36 381.872 229.976C382.085 229.581 382.192 229.112 382.192 228.568ZM392.688 225.416C392.976 225.011 393.37 224.675 393.872 224.408C394.384 224.131 394.965 223.992 395.616 223.992C396.373 223.992 397.056 224.179 397.664 224.552C398.282 224.925 398.768 225.459 399.12 226.152C399.482 226.835 399.664 227.629 399.664 228.536C399.664 229.443 399.482 230.248 399.12 230.952C398.768 231.645 398.282 232.184 397.664 232.568C397.056 232.952 396.373 233.144 395.616 233.144C394.965 233.144 394.389 233.011 393.888 232.744C393.397 232.477 392.997 232.141 392.688 231.736V237.224H390.448V224.136H392.688V225.416ZM397.376 228.536C397.376 228.003 397.264 227.544 397.04 227.16C396.826 226.765 396.538 226.467 396.176 226.264C395.824 226.061 395.44 225.96 395.024 225.96C394.618 225.96 394.234 226.067 393.872 226.28C393.52 226.483 393.232 226.781 393.008 227.176C392.794 227.571 392.688 228.035 392.688 228.568C392.688 229.101 392.794 229.565 393.008 229.96C393.232 230.355 393.52 230.659 393.872 230.872C394.234 231.075 394.618 231.176 395.024 231.176C395.44 231.176 395.824 231.069 396.176 230.856C396.538 230.643 396.826 230.339 397.04 229.944C397.264 229.549 397.376 229.08 397.376 228.536ZM403.532 221.16V233H401.292V221.16H403.532ZM405.169 228.536C405.169 227.64 405.345 226.845 405.697 226.152C406.059 225.459 406.545 224.925 407.153 224.552C407.771 224.179 408.459 223.992 409.217 223.992C409.878 223.992 410.454 224.125 410.945 224.392C411.446 224.659 411.846 224.995 412.145 225.4V224.136H414.401V233H412.145V231.704C411.857 232.12 411.457 232.467 410.945 232.744C410.443 233.011 409.862 233.144 409.201 233.144C408.454 233.144 407.771 232.952 407.153 232.568C406.545 232.184 406.059 231.645 405.697 230.952C405.345 230.248 405.169 229.443 405.169 228.536ZM412.145 228.568C412.145 228.024 412.038 227.56 411.825 227.176C411.611 226.781 411.323 226.483 410.961 226.28C410.598 226.067 410.209 225.96 409.793 225.96C409.377 225.96 408.993 226.061 408.641 226.264C408.289 226.467 408.001 226.765 407.777 227.16C407.563 227.544 407.457 228.003 407.457 228.536C407.457 229.069 407.563 229.539 407.777 229.944C408.001 230.339 408.289 230.643 408.641 230.856C409.003 231.069 409.387 231.176 409.793 231.176C410.209 231.176 410.598 231.075 410.961 230.872C411.323 230.659 411.611 230.36 411.825 229.976C412.038 229.581 412.145 229.112 412.145 228.568ZM419.196 225.976V230.264C419.196 230.563 419.266 230.781 419.404 230.92C419.554 231.048 419.799 231.112 420.14 231.112H421.18V233H419.772C417.884 233 416.94 232.083 416.94 230.248V225.976H415.884V224.136H416.94V221.944H419.196V224.136H421.18V225.976H419.196ZM422.215 228.536C422.215 227.64 422.391 226.845 422.743 226.152C423.106 225.459 423.592 224.925 424.2 224.552C424.818 224.179 425.506 223.992 426.264 223.992C426.925 223.992 427.501 224.125 427.992 224.392C428.493 224.659 428.893 224.995 429.192 225.4V224.136H431.448V233H429.192V231.704C428.904 232.12 428.504 232.467 427.992 232.744C427.49 233.011 426.909 233.144 426.248 233.144C425.501 233.144 424.818 232.952 424.2 232.568C423.592 232.184 423.106 231.645 422.743 230.952C422.391 230.248 422.215 229.443 422.215 228.536ZM429.192 228.568C429.192 228.024 429.085 227.56 428.872 227.176C428.658 226.781 428.37 226.483 428.008 226.28C427.645 226.067 427.256 225.96 426.84 225.96C426.424 225.96 426.04 226.061 425.688 226.264C425.336 226.467 425.048 226.765 424.824 227.16C424.61 227.544 424.504 228.003 424.504 228.536C424.504 229.069 424.61 229.539 424.824 229.944C425.048 230.339 425.336 230.643 425.688 230.856C426.05 231.069 426.434 231.176 426.84 231.176C427.256 231.176 427.645 231.075 428.008 230.872C428.37 230.659 428.658 230.36 428.872 229.976C429.085 229.581 429.192 229.112 429.192 228.568ZM437.699 225.976H436.147V233H433.875V225.976H432.867V224.136H433.875V223.688C433.875 222.6 434.185 221.8 434.803 221.288C435.422 220.776 436.355 220.536 437.603 220.568V222.456C437.059 222.445 436.681 222.536 436.467 222.728C436.254 222.92 436.147 223.267 436.147 223.768V224.136H437.699V225.976ZM443.087 233.144C442.234 233.144 441.466 232.957 440.783 232.584C440.1 232.2 439.562 231.661 439.167 230.968C438.783 230.275 438.591 229.475 438.591 228.568C438.591 227.661 438.788 226.861 439.183 226.168C439.588 225.475 440.138 224.941 440.831 224.568C441.524 224.184 442.298 223.992 443.151 223.992C444.004 223.992 444.778 224.184 445.471 224.568C446.164 224.941 446.708 225.475 447.103 226.168C447.508 226.861 447.711 227.661 447.711 228.568C447.711 229.475 447.503 230.275 447.087 230.968C446.682 231.661 446.127 232.2 445.423 232.584C444.73 232.957 443.951 233.144 443.087 233.144ZM443.087 231.192C443.492 231.192 443.871 231.096 444.223 230.904C444.586 230.701 444.874 230.403 445.087 230.008C445.3 229.613 445.407 229.133 445.407 228.568C445.407 227.725 445.183 227.08 444.735 226.632C444.298 226.173 443.759 225.944 443.119 225.944C442.479 225.944 441.94 226.173 441.503 226.632C441.076 227.08 440.863 227.725 440.863 228.568C440.863 229.411 441.071 230.061 441.487 230.52C441.914 230.968 442.447 231.192 443.087 231.192ZM451.594 225.512C451.882 225.043 452.255 224.675 452.714 224.408C453.183 224.141 453.717 224.008 454.314 224.008V226.36H453.722C453.018 226.36 452.485 226.525 452.122 226.856C451.77 227.187 451.594 227.763 451.594 228.584V233H449.354V224.136H451.594V225.512ZM466.831 224.008C467.919 224.008 468.793 224.344 469.455 225.016C470.127 225.677 470.463 226.605 470.463 227.8V233H468.223V228.104C468.223 227.411 468.047 226.883 467.695 226.52C467.343 226.147 466.863 225.96 466.255 225.96C465.647 225.96 465.161 226.147 464.799 226.52C464.447 226.883 464.271 227.411 464.271 228.104V233H462.031V228.104C462.031 227.411 461.855 226.883 461.503 226.52C461.151 226.147 460.671 225.96 460.063 225.96C459.444 225.96 458.953 226.147 458.591 226.52C458.239 226.883 458.063 227.411 458.063 228.104V233H455.823V224.136H458.063V225.208C458.351 224.835 458.719 224.541 459.167 224.328C459.625 224.115 460.127 224.008 460.671 224.008C461.364 224.008 461.983 224.157 462.527 224.456C463.071 224.744 463.492 225.16 463.791 225.704C464.079 225.192 464.495 224.781 465.039 224.472C465.593 224.163 466.191 224.008 466.831 224.008ZM472.012 228.536C472.012 227.64 472.188 226.845 472.54 226.152C472.903 225.459 473.388 224.925 473.996 224.552C474.615 224.179 475.303 223.992 476.06 223.992C476.722 223.992 477.298 224.125 477.788 224.392C478.29 224.659 478.69 224.995 478.988 225.4V224.136H481.244V233H478.988V231.704C478.7 232.12 478.3 232.467 477.788 232.744C477.287 233.011 476.706 233.144 476.044 233.144C475.298 233.144 474.615 232.952 473.996 232.568C473.388 232.184 472.903 231.645 472.54 230.952C472.188 230.248 472.012 229.443 472.012 228.536ZM478.988 228.568C478.988 228.024 478.882 227.56 478.668 227.176C478.455 226.781 478.167 226.483 477.804 226.28C477.442 226.067 477.052 225.96 476.636 225.96C476.22 225.96 475.836 226.061 475.484 226.264C475.132 226.467 474.844 226.765 474.62 227.16C474.407 227.544 474.3 228.003 474.3 228.536C474.3 229.069 474.407 229.539 474.62 229.944C474.844 230.339 475.132 230.643 475.484 230.856C475.847 231.069 476.231 231.176 476.636 231.176C477.052 231.176 477.442 231.075 477.804 230.872C478.167 230.659 478.455 230.36 478.668 229.976C478.882 229.581 478.988 229.112 478.988 228.568ZM495.485 228.376C495.485 228.696 495.463 228.984 495.421 229.24H488.941C488.994 229.88 489.218 230.381 489.613 230.744C490.007 231.107 490.493 231.288 491.069 231.288C491.901 231.288 492.493 230.931 492.845 230.216H495.261C495.005 231.069 494.514 231.773 493.789 232.328C493.063 232.872 492.173 233.144 491.117 233.144C490.263 233.144 489.495 232.957 488.813 232.584C488.141 232.2 487.613 231.661 487.229 230.968C486.855 230.275 486.669 229.475 486.669 228.568C486.669 227.651 486.855 226.845 487.229 226.152C487.602 225.459 488.125 224.925 488.797 224.552C489.469 224.179 490.242 223.992 491.117 223.992C491.959 223.992 492.711 224.173 493.373 224.536C494.045 224.899 494.562 225.416 494.925 226.088C495.298 226.749 495.485 227.512 495.485 228.376ZM493.165 227.736C493.154 227.16 492.946 226.701 492.541 226.36C492.135 226.008 491.639 225.832 491.053 225.832C490.498 225.832 490.029 226.003 489.645 226.344C489.271 226.675 489.042 227.139 488.957 227.736H493.165ZM500.356 228.568C500.356 227.651 500.543 226.851 500.916 226.168C501.289 225.475 501.807 224.941 502.468 224.568C503.129 224.184 503.887 223.992 504.74 223.992C505.839 223.992 506.745 224.269 507.46 224.824C508.185 225.368 508.671 226.136 508.916 227.128H506.5C506.372 226.744 506.153 226.445 505.844 226.232C505.545 226.008 505.172 225.896 504.724 225.896C504.084 225.896 503.577 226.131 503.204 226.6C502.831 227.059 502.644 227.715 502.644 228.568C502.644 229.411 502.831 230.067 503.204 230.536C503.577 230.995 504.084 231.224 504.724 231.224C505.631 231.224 506.223 230.819 506.5 230.008H508.916C508.671 230.968 508.185 231.731 507.46 232.296C506.735 232.861 505.828 233.144 504.74 233.144C503.887 233.144 503.129 232.957 502.468 232.584C501.807 232.2 501.289 231.667 500.916 230.984C500.543 230.291 500.356 229.485 500.356 228.568ZM514.493 233.144C513.64 233.144 512.872 232.957 512.189 232.584C511.506 232.2 510.968 231.661 510.573 230.968C510.189 230.275 509.997 229.475 509.997 228.568C509.997 227.661 510.194 226.861 510.589 226.168C510.994 225.475 511.544 224.941 512.237 224.568C512.93 224.184 513.704 223.992 514.557 223.992C515.41 223.992 516.184 224.184 516.877 224.568C517.57 224.941 518.114 225.475 518.509 226.168C518.914 226.861 519.117 227.661 519.117 228.568C519.117 229.475 518.909 230.275 518.493 230.968C518.088 231.661 517.533 232.2 516.829 232.584C516.136 232.957 515.357 233.144 514.493 233.144ZM514.493 231.192C514.898 231.192 515.277 231.096 515.629 230.904C515.992 230.701 516.28 230.403 516.493 230.008C516.706 229.613 516.813 229.133 516.813 228.568C516.813 227.725 516.589 227.08 516.141 226.632C515.704 226.173 515.165 225.944 514.525 225.944C513.885 225.944 513.346 226.173 512.909 226.632C512.482 227.08 512.269 227.725 512.269 228.568C512.269 229.411 512.477 230.061 512.893 230.52C513.32 230.968 513.853 231.192 514.493 231.192ZM525.672 224.008C526.728 224.008 527.582 224.344 528.232 225.016C528.883 225.677 529.208 226.605 529.208 227.8V233H526.968V228.104C526.968 227.4 526.792 226.861 526.44 226.488C526.088 226.104 525.608 225.912 525 225.912C524.382 225.912 523.891 226.104 523.528 226.488C523.176 226.861 523 227.4 523 228.104V233H520.76V224.136H523V225.24C523.299 224.856 523.678 224.557 524.136 224.344C524.606 224.12 525.118 224.008 525.672 224.008ZM536.33 224.008C537.002 224.008 537.6 224.157 538.122 224.456C538.645 224.744 539.05 225.176 539.338 225.752C539.637 226.317 539.786 227 539.786 227.8V233H537.546V228.104C537.546 227.4 537.37 226.861 537.018 226.488C536.666 226.104 536.186 225.912 535.578 225.912C534.96 225.912 534.469 226.104 534.106 226.488C533.754 226.861 533.578 227.4 533.578 228.104V233H531.338V221.16H533.578V225.24C533.866 224.856 534.25 224.557 534.73 224.344C535.21 224.12 535.744 224.008 536.33 224.008ZM550.157 228.376C550.157 228.696 550.135 228.984 550.093 229.24H543.613C543.666 229.88 543.89 230.381 544.285 230.744C544.679 231.107 545.165 231.288 545.741 231.288C546.573 231.288 547.165 230.931 547.517 230.216H549.933C549.677 231.069 549.186 231.773 548.461 232.328C547.735 232.872 546.845 233.144 545.789 233.144C544.935 233.144 544.167 232.957 543.485 232.584C542.813 232.2 542.285 231.661 541.901 230.968C541.527 230.275 541.34 229.475 541.34 228.568C541.34 227.651 541.527 226.845 541.901 226.152C542.274 225.459 542.797 224.925 543.469 224.552C544.141 224.179 544.914 223.992 545.789 223.992C546.631 223.992 547.383 224.173 548.045 224.536C548.717 224.899 549.234 225.416 549.597 226.088C549.97 226.749 550.157 227.512 550.157 228.376ZM547.837 227.736C547.826 227.16 547.618 226.701 547.213 226.36C546.807 226.008 546.311 225.832 545.725 225.832C545.17 225.832 544.701 226.003 544.317 226.344C543.943 226.675 543.714 227.139 543.629 227.736H547.837ZM555.584 231.224C556.49 231.224 557.082 230.819 557.36 230.008H559.776C559.552 230.872 559.136 231.576 558.528 232.12C557.93 232.664 557.178 232.989 556.272 233.096V233.72C556.858 233.72 557.349 233.869 557.744 234.168C558.149 234.467 558.352 234.899 558.352 235.464C558.352 236.04 558.144 236.483 557.728 236.792C557.322 237.101 556.821 237.256 556.224 237.256H553.952V235.944H555.856C556.112 235.944 556.304 235.907 556.432 235.832C556.57 235.757 556.64 235.624 556.64 235.432C556.64 235.24 556.57 235.107 556.432 235.032C556.304 234.968 556.112 234.936 555.856 234.936H554.864V233.096C554.138 232.989 553.498 232.739 552.944 232.344C552.4 231.939 551.973 231.416 551.664 230.776C551.365 230.125 551.215 229.389 551.215 228.568C551.215 227.651 551.402 226.851 551.776 226.168C552.149 225.475 552.666 224.941 553.328 224.568C553.989 224.184 554.746 223.992 555.6 223.992C556.698 223.992 557.605 224.269 558.32 224.824C559.045 225.368 559.53 226.136 559.776 227.128H557.36C557.232 226.744 557.013 226.445 556.704 226.232C556.405 226.008 556.032 225.896 555.584 225.896C554.944 225.896 554.437 226.131 554.064 226.6C553.69 227.059 553.504 227.715 553.504 228.568C553.504 229.411 553.69 230.067 554.064 230.536C554.437 230.995 554.944 231.224 555.584 231.224ZM560.84 228.536C560.84 227.64 561.016 226.845 561.368 226.152C561.731 225.459 562.217 224.925 562.825 224.552C563.443 224.179 564.131 223.992 564.889 223.992C565.55 223.992 566.126 224.125 566.617 224.392C567.118 224.659 567.518 224.995 567.817 225.4V224.136H570.073V233H567.817V231.704C567.529 232.12 567.129 232.467 566.617 232.744C566.115 233.011 565.534 233.144 564.873 233.144C564.126 233.144 563.443 232.952 562.825 232.568C562.217 232.184 561.731 231.645 561.368 230.952C561.016 230.248 560.84 229.443 560.84 228.536ZM567.817 228.568C567.817 228.024 567.71 227.56 567.497 227.176C567.283 226.781 566.995 226.483 566.633 226.28C566.27 226.067 565.881 225.96 565.465 225.96C565.049 225.96 564.665 226.061 564.312 226.264C563.961 226.467 563.673 226.765 563.449 227.16C563.235 227.544 563.129 228.003 563.129 228.536C563.129 229.069 563.235 229.539 563.449 229.944C563.673 230.339 563.961 230.643 564.312 230.856C564.675 231.069 565.059 231.176 565.465 231.176C565.881 231.176 566.27 231.075 566.633 230.872C566.995 230.659 567.283 230.36 567.497 229.976C567.71 229.581 567.817 229.112 567.817 228.568ZM580.009 233.144C579.155 233.144 578.387 232.957 577.705 232.584C577.022 232.2 576.483 231.661 576.089 230.968C575.705 230.275 575.513 229.475 575.513 228.568C575.513 227.661 575.71 226.861 576.105 226.168C576.51 225.475 577.059 224.941 577.753 224.568C578.446 224.184 579.219 223.992 580.073 223.992C580.926 223.992 581.699 224.184 582.393 224.568C583.086 224.941 583.63 225.475 584.025 226.168C584.43 226.861 584.633 227.661 584.633 228.568C584.633 229.475 584.425 230.275 584.009 230.968C583.603 231.661 583.049 232.2 582.345 232.584C581.651 232.957 580.873 233.144 580.009 233.144ZM580.009 231.192C580.414 231.192 580.793 231.096 581.145 230.904C581.507 230.701 581.795 230.403 582.009 230.008C582.222 229.613 582.329 229.133 582.329 228.568C582.329 227.725 582.105 227.08 581.657 226.632C581.219 226.173 580.681 225.944 580.041 225.944C579.401 225.944 578.862 226.173 578.425 226.632C577.998 227.08 577.785 227.725 577.785 228.568C577.785 229.411 577.993 230.061 578.409 230.52C578.835 230.968 579.369 231.192 580.009 231.192ZM589.668 233.144C588.943 233.144 588.292 233.016 587.716 232.76C587.14 232.493 586.681 232.136 586.34 231.688C586.009 231.24 585.828 230.744 585.796 230.2H588.052C588.095 230.541 588.26 230.824 588.548 231.048C588.847 231.272 589.215 231.384 589.652 231.384C590.079 231.384 590.409 231.299 590.644 231.128C590.889 230.957 591.012 230.739 591.012 230.472C591.012 230.184 590.863 229.971 590.564 229.832C590.276 229.683 589.812 229.523 589.172 229.352C588.511 229.192 587.967 229.027 587.54 228.856C587.124 228.685 586.761 228.424 586.452 228.072C586.153 227.72 586.004 227.245 586.004 226.648C586.004 226.157 586.143 225.709 586.42 225.304C586.708 224.899 587.113 224.579 587.636 224.344C588.169 224.109 588.793 223.992 589.508 223.992C590.564 223.992 591.407 224.259 592.036 224.792C592.665 225.315 593.012 226.024 593.076 226.92H590.932C590.9 226.568 590.751 226.291 590.484 226.088C590.228 225.875 589.881 225.768 589.444 225.768C589.039 225.768 588.724 225.843 588.5 225.992C588.287 226.141 588.18 226.349 588.18 226.616C588.18 226.915 588.329 227.144 588.628 227.304C588.927 227.453 589.391 227.608 590.02 227.768C590.66 227.928 591.188 228.093 591.604 228.264C592.02 228.435 592.377 228.701 592.676 229.064C592.985 229.416 593.145 229.885 593.156 230.472C593.156 230.984 593.012 231.443 592.724 231.848C592.447 232.253 592.041 232.573 591.508 232.808C590.985 233.032 590.372 233.144 589.668 233.144ZM601.047 225.416C601.335 225.011 601.73 224.675 602.231 224.408C602.743 224.131 603.324 223.992 603.975 223.992C604.732 223.992 605.415 224.179 606.023 224.552C606.642 224.925 607.127 225.459 607.479 226.152C607.842 226.835 608.023 227.629 608.023 228.536C608.023 229.443 607.842 230.248 607.479 230.952C607.127 231.645 606.642 232.184 606.023 232.568C605.415 232.952 604.732 233.144 603.975 233.144C603.324 233.144 602.748 233.011 602.247 232.744C601.756 232.477 601.356 232.141 601.047 231.736V237.224H598.807V224.136H601.047V225.416ZM605.735 228.536C605.735 228.003 605.623 227.544 605.399 227.16C605.186 226.765 604.898 226.467 604.535 226.264C604.183 226.061 603.799 225.96 603.383 225.96C602.978 225.96 602.594 226.067 602.231 226.28C601.879 226.483 601.591 226.781 601.367 227.176C601.154 227.571 601.047 228.035 601.047 228.568C601.047 229.101 601.154 229.565 601.367 229.96C601.591 230.355 601.879 230.659 602.231 230.872C602.594 231.075 602.978 231.176 603.383 231.176C603.799 231.176 604.183 231.069 604.535 230.856C604.898 230.643 605.186 230.339 605.399 229.944C605.623 229.549 605.735 229.08 605.735 228.536ZM611.891 225.512C612.179 225.043 612.552 224.675 613.011 224.408C613.48 224.141 614.014 224.008 614.611 224.008V226.36H614.019C613.315 226.36 612.782 226.525 612.419 226.856C612.067 227.187 611.891 227.763 611.891 228.584V233H609.651V224.136H611.891V225.512ZM620.056 233.144C619.202 233.144 618.434 232.957 617.752 232.584C617.069 232.2 616.53 231.661 616.136 230.968C615.752 230.275 615.56 229.475 615.56 228.568C615.56 227.661 615.757 226.861 616.152 226.168C616.557 225.475 617.106 224.941 617.8 224.568C618.493 224.184 619.266 223.992 620.12 223.992C620.973 223.992 621.746 224.184 622.44 224.568C623.133 224.941 623.677 225.475 624.072 226.168C624.477 226.861 624.68 227.661 624.68 228.568C624.68 229.475 624.472 230.275 624.056 230.968C623.65 231.661 623.096 232.2 622.392 232.584C621.698 232.957 620.92 233.144 620.056 233.144ZM620.056 231.192C620.461 231.192 620.84 231.096 621.192 230.904C621.554 230.701 621.842 230.403 622.056 230.008C622.269 229.613 622.376 229.133 622.376 228.568C622.376 227.725 622.152 227.08 621.704 226.632C621.266 226.173 620.728 225.944 620.088 225.944C619.448 225.944 618.909 226.173 618.472 226.632C618.045 227.08 617.832 227.725 617.832 228.568C617.832 229.411 618.04 230.061 618.456 230.52C618.882 230.968 619.416 231.192 620.056 231.192ZM627.459 223.08C627.053 223.08 626.717 222.957 626.451 222.712C626.195 222.456 626.067 222.141 626.067 221.768C626.067 221.395 626.195 221.085 626.451 220.84C626.717 220.584 627.053 220.456 627.459 220.456C627.853 220.456 628.179 220.584 628.435 220.84C628.691 221.085 628.819 221.395 628.819 221.768C628.819 222.141 628.691 222.456 628.435 222.712C628.179 222.957 627.853 223.08 627.459 223.08ZM628.563 234.456C628.563 235.437 628.317 236.141 627.827 236.568C627.347 237.005 626.653 237.224 625.747 237.224H624.755V235.32H625.395C625.736 235.32 625.976 235.251 626.115 235.112C626.253 234.984 626.323 234.771 626.323 234.472V224.136H628.563V234.456ZM639.016 228.376C639.016 228.696 638.995 228.984 638.952 229.24H632.472C632.525 229.88 632.749 230.381 633.144 230.744C633.539 231.107 634.024 231.288 634.6 231.288C635.432 231.288 636.024 230.931 636.376 230.216H638.792C638.536 231.069 638.045 231.773 637.32 232.328C636.595 232.872 635.704 233.144 634.648 233.144C633.795 233.144 633.027 232.957 632.344 232.584C631.672 232.2 631.144 231.661 630.76 230.968C630.387 230.275 630.2 229.475 630.2 228.568C630.2 227.651 630.387 226.845 630.76 226.152C631.133 225.459 631.656 224.925 632.328 224.552C633 224.179 633.773 223.992 634.648 223.992C635.491 223.992 636.243 224.173 636.904 224.536C637.576 224.899 638.093 225.416 638.456 226.088C638.829 226.749 639.016 227.512 639.016 228.376ZM636.696 227.736C636.685 227.16 636.477 226.701 636.072 226.36C635.667 226.008 635.171 225.832 634.584 225.832C634.029 225.832 633.56 226.003 633.176 226.344C632.803 226.675 632.573 227.139 632.488 227.736H636.696ZM643.259 225.976V230.264C643.259 230.563 643.328 230.781 643.467 230.92C643.616 231.048 643.862 231.112 644.203 231.112H645.243V233H643.835C641.947 233 641.003 232.083 641.003 230.248V225.976H639.947V224.136H641.003V221.944H643.259V224.136H645.243V225.976H643.259ZM650.79 233.144C649.937 233.144 649.169 232.957 648.486 232.584C647.803 232.2 647.265 231.661 646.87 230.968C646.486 230.275 646.294 229.475 646.294 228.568C646.294 227.661 646.491 226.861 646.886 226.168C647.291 225.475 647.841 224.941 648.534 224.568C649.227 224.184 650.001 223.992 650.854 223.992C651.707 223.992 652.481 224.184 653.174 224.568C653.867 224.941 654.411 225.475 654.806 226.168C655.211 226.861 655.414 227.661 655.414 228.568C655.414 229.475 655.206 230.275 654.79 230.968C654.385 231.661 653.83 232.2 653.126 232.584C652.433 232.957 651.654 233.144 650.79 233.144ZM650.79 231.192C651.195 231.192 651.574 231.096 651.926 230.904C652.289 230.701 652.577 230.403 652.79 230.008C653.003 229.613 653.11 229.133 653.11 228.568C653.11 227.725 652.886 227.08 652.438 226.632C652.001 226.173 651.462 225.944 650.822 225.944C650.182 225.944 649.643 226.173 649.206 226.632C648.779 227.08 648.566 227.725 648.566 228.568C648.566 229.411 648.774 230.061 649.19 230.52C649.617 230.968 650.15 231.192 650.79 231.192ZM660.449 233.144C659.724 233.144 659.073 233.016 658.497 232.76C657.921 232.493 657.462 232.136 657.121 231.688C656.79 231.24 656.609 230.744 656.577 230.2H658.833C658.876 230.541 659.041 230.824 659.329 231.048C659.628 231.272 659.996 231.384 660.433 231.384C660.86 231.384 661.19 231.299 661.425 231.128C661.67 230.957 661.793 230.739 661.793 230.472C661.793 230.184 661.644 229.971 661.345 229.832C661.057 229.683 660.593 229.523 659.953 229.352C659.292 229.192 658.748 229.027 658.321 228.856C657.905 228.685 657.542 228.424 657.233 228.072C656.934 227.72 656.785 227.245 656.785 226.648C656.785 226.157 656.924 225.709 657.201 225.304C657.489 224.899 657.894 224.579 658.417 224.344C658.95 224.109 659.574 223.992 660.289 223.992C661.345 223.992 662.188 224.259 662.817 224.792C663.446 225.315 663.793 226.024 663.857 226.92H661.713C661.681 226.568 661.532 226.291 661.265 226.088C661.009 225.875 660.662 225.768 660.225 225.768C659.82 225.768 659.505 225.843 659.281 225.992C659.068 226.141 658.961 226.349 658.961 226.616C658.961 226.915 659.11 227.144 659.409 227.304C659.708 227.453 660.172 227.608 660.801 227.768C661.441 227.928 661.969 228.093 662.385 228.264C662.801 228.435 663.158 228.701 663.457 229.064C663.766 229.416 663.926 229.885 663.937 230.472C663.937 230.984 663.793 231.443 663.505 231.848C663.228 232.253 662.822 232.573 662.289 232.808C661.766 233.032 661.153 233.144 660.449 233.144ZM669.012 228.536C669.012 227.64 669.188 226.845 669.54 226.152C669.903 225.459 670.394 224.925 671.012 224.552C671.631 224.179 672.319 223.992 673.076 223.992C673.652 223.992 674.202 224.12 674.724 224.376C675.247 224.621 675.663 224.952 675.972 225.368V221.16H678.244V233H675.972V231.688C675.695 232.125 675.306 232.477 674.804 232.744C674.303 233.011 673.722 233.144 673.06 233.144C672.314 233.144 671.631 232.952 671.012 232.568C670.394 232.184 669.903 231.645 669.54 230.952C669.188 230.248 669.012 229.443 669.012 228.536ZM675.988 228.568C675.988 228.024 675.882 227.56 675.668 227.176C675.455 226.781 675.167 226.483 674.804 226.28C674.442 226.067 674.052 225.96 673.636 225.96C673.22 225.96 672.836 226.061 672.484 226.264C672.132 226.467 671.844 226.765 671.62 227.16C671.407 227.544 671.3 228.003 671.3 228.536C671.3 229.069 671.407 229.539 671.62 229.944C671.844 230.339 672.132 230.643 672.484 230.856C672.847 231.069 673.231 231.176 673.636 231.176C674.052 231.176 674.442 231.075 674.804 230.872C675.167 230.659 675.455 230.36 675.668 229.976C675.882 229.581 675.988 229.112 675.988 228.568ZM688.672 228.376C688.672 228.696 688.651 228.984 688.608 229.24H682.128C682.181 229.88 682.405 230.381 682.8 230.744C683.195 231.107 683.68 231.288 684.256 231.288C685.088 231.288 685.68 230.931 686.032 230.216H688.448C688.192 231.069 687.701 231.773 686.976 232.328C686.251 232.872 685.36 233.144 684.304 233.144C683.451 233.144 682.683 232.957 682 232.584C681.328 232.2 680.8 231.661 680.416 230.968C680.043 230.275 679.856 229.475 679.856 228.568C679.856 227.651 680.043 226.845 680.416 226.152C680.789 225.459 681.312 224.925 681.984 224.552C682.656 224.179 683.429 223.992 684.304 223.992C685.147 223.992 685.899 224.173 686.56 224.536C687.232 224.899 687.749 225.416 688.112 226.088C688.485 226.749 688.672 227.512 688.672 228.376ZM686.352 227.736C686.341 227.16 686.133 226.701 685.728 226.36C685.323 226.008 684.827 225.832 684.24 225.832C683.685 225.832 683.216 226.003 682.832 226.344C682.459 226.675 682.229 227.139 682.144 227.736H686.352ZM693.699 233.144C692.974 233.144 692.323 233.016 691.747 232.76C691.171 232.493 690.712 232.136 690.371 231.688C690.04 231.24 689.859 230.744 689.827 230.2H692.083C692.126 230.541 692.291 230.824 692.579 231.048C692.878 231.272 693.246 231.384 693.683 231.384C694.11 231.384 694.44 231.299 694.675 231.128C694.92 230.957 695.043 230.739 695.043 230.472C695.043 230.184 694.894 229.971 694.595 229.832C694.307 229.683 693.843 229.523 693.203 229.352C692.542 229.192 691.998 229.027 691.571 228.856C691.155 228.685 690.792 228.424 690.483 228.072C690.184 227.72 690.035 227.245 690.035 226.648C690.035 226.157 690.174 225.709 690.451 225.304C690.739 224.899 691.144 224.579 691.667 224.344C692.2 224.109 692.824 223.992 693.539 223.992C694.595 223.992 695.438 224.259 696.067 224.792C696.696 225.315 697.043 226.024 697.107 226.92H694.963C694.931 226.568 694.782 226.291 694.515 226.088C694.259 225.875 693.912 225.768 693.475 225.768C693.07 225.768 692.755 225.843 692.531 225.992C692.318 226.141 692.211 226.349 692.211 226.616C692.211 226.915 692.36 227.144 692.659 227.304C692.958 227.453 693.422 227.608 694.051 227.768C694.691 227.928 695.219 228.093 695.635 228.264C696.051 228.435 696.408 228.701 696.707 229.064C697.016 229.416 697.176 229.885 697.187 230.472C697.187 230.984 697.043 231.443 696.755 231.848C696.478 232.253 696.072 232.573 695.539 232.808C695.016 233.032 694.403 233.144 693.699 233.144ZM707.266 228.376C707.266 228.696 707.245 228.984 707.202 229.24H700.722C700.775 229.88 700.999 230.381 701.394 230.744C701.789 231.107 702.274 231.288 702.85 231.288C703.682 231.288 704.274 230.931 704.626 230.216H707.042C706.786 231.069 706.295 231.773 705.57 232.328C704.845 232.872 703.954 233.144 702.898 233.144C702.045 233.144 701.277 232.957 700.594 232.584C699.922 232.2 699.394 231.661 699.01 230.968C698.637 230.275 698.45 229.475 698.45 228.568C698.45 227.651 698.637 226.845 699.01 226.152C699.383 225.459 699.906 224.925 700.578 224.552C701.25 224.179 702.023 223.992 702.898 223.992C703.741 223.992 704.493 224.173 705.154 224.536C705.826 224.899 706.343 225.416 706.706 226.088C707.079 226.749 707.266 227.512 707.266 228.376ZM704.946 227.736C704.935 227.16 704.727 226.701 704.322 226.36C703.917 226.008 703.421 225.832 702.834 225.832C702.279 225.832 701.81 226.003 701.426 226.344C701.053 226.675 700.823 227.139 700.738 227.736H704.946ZM713.813 224.008C714.869 224.008 715.722 224.344 716.373 225.016C717.024 225.677 717.349 226.605 717.349 227.8V233H715.109V228.104C715.109 227.4 714.933 226.861 714.581 226.488C714.229 226.104 713.749 225.912 713.141 225.912C712.522 225.912 712.032 226.104 711.669 226.488C711.317 226.861 711.141 227.4 711.141 228.104V233H708.901V224.136H711.141V225.24C711.44 224.856 711.818 224.557 712.277 224.344C712.746 224.12 713.258 224.008 713.813 224.008ZM723.175 230.936L725.415 224.136H727.799L724.519 233H721.799L718.535 224.136H720.935L723.175 230.936ZM732.993 233.144C732.14 233.144 731.372 232.957 730.689 232.584C730.006 232.2 729.468 231.661 729.073 230.968C728.689 230.275 728.497 229.475 728.497 228.568C728.497 227.661 728.694 226.861 729.089 226.168C729.494 225.475 730.044 224.941 730.737 224.568C731.43 224.184 732.204 223.992 733.057 223.992C733.91 223.992 734.684 224.184 735.377 224.568C736.07 224.941 736.614 225.475 737.009 226.168C737.414 226.861 737.617 227.661 737.617 228.568C737.617 229.475 737.409 230.275 736.993 230.968C736.588 231.661 736.033 232.2 735.329 232.584C734.636 232.957 733.857 233.144 732.993 233.144ZM732.993 231.192C733.398 231.192 733.777 231.096 734.129 230.904C734.492 230.701 734.78 230.403 734.993 230.008C735.206 229.613 735.313 229.133 735.313 228.568C735.313 227.725 735.089 227.08 734.641 226.632C734.204 226.173 733.665 225.944 733.025 225.944C732.385 225.944 731.846 226.173 731.409 226.632C730.982 227.08 730.769 227.725 730.769 228.568C730.769 229.411 730.977 230.061 731.393 230.52C731.82 230.968 732.353 231.192 732.993 231.192ZM741.5 221.16V233H739.26V221.16H741.5ZM747.409 230.936L749.649 224.136H752.033L748.753 233H746.033L742.769 224.136H745.169L747.409 230.936ZM754.428 223.08C754.033 223.08 753.702 222.957 753.436 222.712C753.18 222.456 753.052 222.141 753.052 221.768C753.052 221.395 753.18 221.085 753.436 220.84C753.702 220.584 754.033 220.456 754.428 220.456C754.822 220.456 755.148 220.584 755.404 220.84C755.67 221.085 755.804 221.395 755.804 221.768C755.804 222.141 755.67 222.456 755.404 222.712C755.148 222.957 754.822 223.08 754.428 223.08ZM755.532 224.136V233H753.292V224.136H755.532ZM757.169 228.536C757.169 227.64 757.345 226.845 757.697 226.152C758.059 225.459 758.55 224.925 759.169 224.552C759.787 224.179 760.475 223.992 761.233 223.992C761.809 223.992 762.358 224.12 762.881 224.376C763.403 224.621 763.819 224.952 764.129 225.368V221.16H766.401V233H764.129V231.688C763.851 232.125 763.462 232.477 762.961 232.744C762.459 233.011 761.878 233.144 761.217 233.144C760.47 233.144 759.787 232.952 759.169 232.568C758.55 232.184 758.059 231.645 757.697 230.952C757.345 230.248 757.169 229.443 757.169 228.536ZM764.145 228.568C764.145 228.024 764.038 227.56 763.825 227.176C763.611 226.781 763.323 226.483 762.961 226.28C762.598 226.067 762.209 225.96 761.793 225.96C761.377 225.96 760.993 226.061 760.641 226.264C760.289 226.467 760.001 226.765 759.777 227.16C759.563 227.544 759.457 228.003 759.457 228.536C759.457 229.069 759.563 229.539 759.777 229.944C760.001 230.339 760.289 230.643 760.641 230.856C761.003 231.069 761.387 231.176 761.793 231.176C762.209 231.176 762.598 231.075 762.961 230.872C763.323 230.659 763.611 230.36 763.825 229.976C764.038 229.581 764.145 229.112 764.145 228.568ZM772.524 233.144C771.671 233.144 770.903 232.957 770.22 232.584C769.538 232.2 768.999 231.661 768.604 230.968C768.22 230.275 768.028 229.475 768.028 228.568C768.028 227.661 768.226 226.861 768.62 226.168C769.026 225.475 769.575 224.941 770.268 224.568C770.962 224.184 771.735 223.992 772.588 223.992C773.442 223.992 774.215 224.184 774.908 224.568C775.602 224.941 776.146 225.475 776.54 226.168C776.946 226.861 777.148 227.661 777.148 228.568C777.148 229.475 776.94 230.275 776.524 230.968C776.119 231.661 775.564 232.2 774.86 232.584C774.167 232.957 773.388 233.144 772.524 233.144ZM772.524 231.192C772.93 231.192 773.308 231.096 773.66 230.904C774.023 230.701 774.311 230.403 774.524 230.008C774.738 229.613 774.844 229.133 774.844 228.568C774.844 227.725 774.62 227.08 774.172 226.632C773.735 226.173 773.196 225.944 772.556 225.944C771.916 225.944 771.378 226.173 770.94 226.632C770.514 227.08 770.3 227.725 770.3 228.568C770.3 229.411 770.508 230.061 770.924 230.52C771.351 230.968 771.884 231.192 772.524 231.192ZM782.184 233.144C781.458 233.144 780.808 233.016 780.232 232.76C779.656 232.493 779.197 232.136 778.856 231.688C778.525 231.24 778.344 230.744 778.312 230.2H780.568C780.61 230.541 780.776 230.824 781.064 231.048C781.362 231.272 781.73 231.384 782.168 231.384C782.594 231.384 782.925 231.299 783.16 231.128C783.405 230.957 783.528 230.739 783.528 230.472C783.528 230.184 783.378 229.971 783.08 229.832C782.792 229.683 782.328 229.523 781.688 229.352C781.026 229.192 780.482 229.027 780.056 228.856C779.64 228.685 779.277 228.424 778.968 228.072C778.669 227.72 778.52 227.245 778.52 226.648C778.52 226.157 778.658 225.709 778.936 225.304C779.224 224.899 779.629 224.579 780.152 224.344C780.685 224.109 781.309 223.992 782.024 223.992C783.08 223.992 783.922 224.259 784.552 224.792C785.181 225.315 785.528 226.024 785.592 226.92H783.448C783.416 226.568 783.266 226.291 783 226.088C782.744 225.875 782.397 225.768 781.96 225.768C781.554 225.768 781.24 225.843 781.016 225.992C780.802 226.141 780.696 226.349 780.696 226.616C780.696 226.915 780.845 227.144 781.144 227.304C781.442 227.453 781.906 227.608 782.536 227.768C783.176 227.928 783.704 228.093 784.12 228.264C784.536 228.435 784.893 228.701 785.192 229.064C785.501 229.416 785.661 229.885 785.672 230.472C785.672 230.984 785.528 231.443 785.24 231.848C784.962 232.253 784.557 232.573 784.024 232.808C783.501 233.032 782.888 233.144 782.184 233.144ZM793.563 225.416C793.851 225.011 794.245 224.675 794.747 224.408C795.259 224.131 795.84 223.992 796.491 223.992C797.248 223.992 797.931 224.179 798.539 224.552C799.157 224.925 799.643 225.459 799.995 226.152C800.357 226.835 800.539 227.629 800.539 228.536C800.539 229.443 800.357 230.248 799.995 230.952C799.643 231.645 799.157 232.184 798.539 232.568C797.931 232.952 797.248 233.144 796.491 233.144C795.84 233.144 795.264 233.011 794.763 232.744C794.272 232.477 793.872 232.141 793.563 231.736V237.224H791.323V224.136H793.563V225.416ZM798.251 228.536C798.251 228.003 798.139 227.544 797.915 227.16C797.701 226.765 797.413 226.467 797.051 226.264C796.699 226.061 796.315 225.96 795.899 225.96C795.493 225.96 795.109 226.067 794.747 226.28C794.395 226.483 794.107 226.781 793.883 227.176C793.669 227.571 793.563 228.035 793.563 228.568C793.563 229.101 793.669 229.565 793.883 229.96C794.107 230.355 794.395 230.659 794.747 230.872C795.109 231.075 795.493 231.176 795.899 231.176C796.315 231.176 796.699 231.069 797.051 230.856C797.413 230.643 797.701 230.339 797.915 229.944C798.139 229.549 798.251 229.08 798.251 228.536ZM810.407 228.376C810.407 228.696 810.385 228.984 810.343 229.24H803.863C803.916 229.88 804.14 230.381 804.535 230.744C804.929 231.107 805.415 231.288 805.991 231.288C806.823 231.288 807.415 230.931 807.767 230.216H810.183C809.927 231.069 809.436 231.773 808.711 232.328C807.985 232.872 807.095 233.144 806.039 233.144C805.185 233.144 804.417 232.957 803.735 232.584C803.063 232.2 802.535 231.661 802.151 230.968C801.777 230.275 801.59 229.475 801.59 228.568C801.59 227.651 801.777 226.845 802.151 226.152C802.524 225.459 803.047 224.925 803.719 224.552C804.391 224.179 805.164 223.992 806.039 223.992C806.881 223.992 807.633 224.173 808.295 224.536C808.967 224.899 809.484 225.416 809.847 226.088C810.22 226.749 810.407 227.512 810.407 228.376ZM808.087 227.736C808.076 227.16 807.868 226.701 807.463 226.36C807.057 226.008 806.561 225.832 805.975 225.832C805.42 225.832 804.951 226.003 804.567 226.344C804.193 226.675 803.964 227.139 803.879 227.736H808.087ZM814.282 221.16V233H812.042V221.16H814.282ZM820.431 233.144C819.577 233.144 818.809 232.957 818.127 232.584C817.444 232.2 816.905 231.661 816.511 230.968C816.127 230.275 815.935 229.475 815.935 228.568C815.935 227.661 816.132 226.861 816.527 226.168C816.932 225.475 817.481 224.941 818.175 224.568C818.868 224.184 819.641 223.992 820.495 223.992C821.348 223.992 822.121 224.184 822.815 224.568C823.508 224.941 824.052 225.475 824.447 226.168C824.852 226.861 825.055 227.661 825.055 228.568C825.055 229.475 824.847 230.275 824.431 230.968C824.025 231.661 823.471 232.2 822.767 232.584C822.073 232.957 821.295 233.144 820.431 233.144ZM820.431 231.192C820.836 231.192 821.215 231.096 821.567 230.904C821.929 230.701 822.217 230.403 822.431 230.008C822.644 229.613 822.751 229.133 822.751 228.568C822.751 227.725 822.527 227.08 822.079 226.632C821.641 226.173 821.103 225.944 820.463 225.944C819.823 225.944 819.284 226.173 818.847 226.632C818.42 227.08 818.207 227.725 818.207 228.568C818.207 229.411 818.415 230.061 818.831 230.52C819.257 230.968 819.791 231.192 820.431 231.192ZM830.09 233.144C829.364 233.144 828.714 233.016 828.138 232.76C827.562 232.493 827.103 232.136 826.762 231.688C826.431 231.24 826.25 230.744 826.218 230.2H828.474C828.516 230.541 828.682 230.824 828.97 231.048C829.268 231.272 829.636 231.384 830.074 231.384C830.5 231.384 830.831 231.299 831.066 231.128C831.311 230.957 831.434 230.739 831.434 230.472C831.434 230.184 831.284 229.971 830.986 229.832C830.698 229.683 830.234 229.523 829.594 229.352C828.932 229.192 828.388 229.027 827.962 228.856C827.546 228.685 827.183 228.424 826.874 228.072C826.575 227.72 826.426 227.245 826.426 226.648C826.426 226.157 826.564 225.709 826.842 225.304C827.13 224.899 827.535 224.579 828.058 224.344C828.591 224.109 829.215 223.992 829.93 223.992C830.986 223.992 831.828 224.259 832.458 224.792C833.087 225.315 833.434 226.024 833.498 226.92H831.354C831.322 226.568 831.172 226.291 830.906 226.088C830.65 225.875 830.303 225.768 829.866 225.768C829.46 225.768 829.146 225.843 828.922 225.992C828.708 226.141 828.602 226.349 828.602 226.616C828.602 226.915 828.751 227.144 829.05 227.304C829.348 227.453 829.812 227.608 830.442 227.768C831.082 227.928 831.61 228.093 832.026 228.264C832.442 228.435 832.799 228.701 833.098 229.064C833.407 229.416 833.567 229.885 833.578 230.472C833.578 230.984 833.434 231.443 833.146 231.848C832.868 232.253 832.463 232.573 831.93 232.808C831.407 233.032 830.794 233.144 830.09 233.144ZM838.653 228.536C838.653 227.64 838.829 226.845 839.181 226.152C839.544 225.459 840.029 224.925 840.637 224.552C841.256 224.179 841.944 223.992 842.701 223.992C843.362 223.992 843.938 224.125 844.429 224.392C844.93 224.659 845.33 224.995 845.629 225.4V224.136H847.885V233H845.629V231.704C845.341 232.12 844.941 232.467 844.429 232.744C843.928 233.011 843.346 233.144 842.685 233.144C841.938 233.144 841.256 232.952 840.637 232.568C840.029 232.184 839.544 231.645 839.181 230.952C838.829 230.248 838.653 229.443 838.653 228.536ZM845.629 228.568C845.629 228.024 845.522 227.56 845.309 227.176C845.096 226.781 844.808 226.483 844.445 226.28C844.082 226.067 843.693 225.96 843.277 225.96C842.861 225.96 842.477 226.061 842.125 226.264C841.773 226.467 841.485 226.765 841.261 227.16C841.048 227.544 840.941 228.003 840.941 228.536C840.941 229.069 841.048 229.539 841.261 229.944C841.485 230.339 841.773 230.643 842.125 230.856C842.488 231.069 842.872 231.176 843.277 231.176C843.693 231.176 844.082 231.075 844.445 230.872C844.808 230.659 845.096 230.36 845.309 229.976C845.522 229.581 845.629 229.112 845.629 228.568ZM852.313 221.16V233H850.073V221.16H852.313ZM862.894 224.136V233H860.638V231.88C860.35 232.264 859.971 232.568 859.502 232.792C859.043 233.005 858.542 233.112 857.998 233.112C857.305 233.112 856.691 232.968 856.158 232.68C855.625 232.381 855.203 231.949 854.894 231.384C854.595 230.808 854.446 230.125 854.446 229.336V224.136H856.686V229.016C856.686 229.72 856.862 230.264 857.214 230.648C857.566 231.021 858.046 231.208 858.654 231.208C859.273 231.208 859.758 231.021 860.11 230.648C860.462 230.264 860.638 229.72 860.638 229.016V224.136H862.894ZM870.016 224.008C871.072 224.008 871.925 224.344 872.576 225.016C873.227 225.677 873.552 226.605 873.552 227.8V233H871.312V228.104C871.312 227.4 871.136 226.861 870.784 226.488C870.432 226.104 869.952 225.912 869.344 225.912C868.725 225.912 868.235 226.104 867.872 226.488C867.52 226.861 867.344 227.4 867.344 228.104V233H865.104V224.136H867.344V225.24C867.643 224.856 868.021 224.557 868.48 224.344C868.949 224.12 869.461 224.008 870.016 224.008ZM879.618 233.144C878.765 233.144 877.997 232.957 877.314 232.584C876.631 232.2 876.093 231.661 875.698 230.968C875.314 230.275 875.122 229.475 875.122 228.568C875.122 227.661 875.319 226.861 875.714 226.168C876.119 225.475 876.669 224.941 877.362 224.568C878.055 224.184 878.829 223.992 879.682 223.992C880.535 223.992 881.309 224.184 882.002 224.568C882.695 224.941 883.239 225.475 883.634 226.168C884.039 226.861 884.242 227.661 884.242 228.568C884.242 229.475 884.034 230.275 883.618 230.968C883.213 231.661 882.658 232.2 881.954 232.584C881.261 232.957 880.482 233.144 879.618 233.144ZM879.618 231.192C880.023 231.192 880.402 231.096 880.754 230.904C881.117 230.701 881.405 230.403 881.618 230.008C881.831 229.613 881.938 229.133 881.938 228.568C881.938 227.725 881.714 227.08 881.266 226.632C880.829 226.173 880.29 225.944 879.65 225.944C879.01 225.944 878.471 226.173 878.034 226.632C877.607 227.08 877.394 227.725 877.394 228.568C877.394 229.411 877.602 230.061 878.018 230.52C878.445 230.968 878.978 231.192 879.618 231.192ZM889.277 233.144C888.552 233.144 887.901 233.016 887.325 232.76C886.749 232.493 886.291 232.136 885.949 231.688C885.619 231.24 885.437 230.744 885.405 230.2H887.661C887.704 230.541 887.869 230.824 888.157 231.048C888.456 231.272 888.824 231.384 889.261 231.384C889.688 231.384 890.019 231.299 890.253 231.128C890.499 230.957 890.621 230.739 890.621 230.472C890.621 230.184 890.472 229.971 890.173 229.832C889.885 229.683 889.421 229.523 888.781 229.352C888.12 229.192 887.576 229.027 887.149 228.856C886.733 228.685 886.371 228.424 886.061 228.072C885.763 227.72 885.613 227.245 885.613 226.648C885.613 226.157 885.752 225.709 886.029 225.304C886.317 224.899 886.723 224.579 887.245 224.344C887.779 224.109 888.403 223.992 889.117 223.992C890.173 223.992 891.016 224.259 891.645 224.792C892.275 225.315 892.621 226.024 892.685 226.92H890.541C890.509 226.568 890.36 226.291 890.093 226.088C889.837 225.875 889.491 225.768 889.053 225.768C888.648 225.768 888.333 225.843 888.109 225.992C887.896 226.141 887.789 226.349 887.789 226.616C887.789 226.915 887.939 227.144 888.237 227.304C888.536 227.453 889 227.608 889.629 227.768C890.269 227.928 890.797 228.093 891.213 228.264C891.629 228.435 891.987 228.701 892.285 229.064C892.595 229.416 892.755 229.885 892.765 230.472C892.765 230.984 892.621 231.443 892.333 231.848C892.056 232.253 891.651 232.573 891.117 232.808C890.595 233.032 889.981 233.144 889.277 233.144ZM895.596 233.112C895.191 233.112 894.855 232.989 894.588 232.744C894.332 232.488 894.204 232.173 894.204 231.8C894.204 231.427 894.332 231.117 894.588 230.872C894.855 230.616 895.191 230.488 895.596 230.488C895.991 230.488 896.316 230.616 896.572 230.872C896.828 231.117 896.956 231.427 896.956 231.8C896.956 232.173 896.828 232.488 896.572 232.744C896.316 232.989 895.991 233.112 895.596 233.112Z" fill="#F3E8FF"/>
</g>
</g>
<defs>
<filter id="filter0_d_14_261" x="225.784" y="152.024" width="703.379" height="93.3441" filterUnits="userSpaceOnUse" color-interpolation-filters="sRGB">
<feFlood flood-opacity="0" result="BackgroundImageFix"/>
<feColorMatrix in="SourceAlpha" type="matrix" values="0 0 0 0 0 0 0 0 0 0 0 0 0 0 0 0 0 0 127 0" result="hardAlpha"/>
<feOffset dy="4"/>
<feGaussianBlur stdDeviation="2"/>
<feComposite in2="hardAlpha" operator="out"/>
<feColorMatrix type="matrix" values="0 0 0 0 0 0 0 0 0 0 0 0 0 0 0 0 0 0 0.25 0"/>
<feBlend mode="normal" in2="BackgroundImageFix" result="effect1_dropShadow_14_261"/>
<feBlend mode="normal" in="SourceGraphic" in2="effect1_dropShadow_14_261" result="shape"/>
</filter>
<radialGradient id="paint0_radial_14_261" cx="0" cy="0" r="1" gradientUnits="userSpaceOnUse" gradientTransform="translate(576 192) rotate(90) scale(448 1344)">
<stop/>
<stop offset="1" stop-color="#202020"/>
</radialGradient>
<clipPath id="clip0_14_261">
<rect width="1153" height="384" fill="white"/>
</clipPath>
<clipPath id="clip1_14_261">
<path d="M-22 -3H97V382H-22V-3Z" fill="white"/>
</clipPath>
</defs>
</svg>
