<svg width="1000" height="384" viewBox="0 0 1000 384" fill="none" xmlns="http://www.w3.org/2000/svg">
<g clip-path="url(#clip0_36_139)">
<rect width="1152" height="384" fill="url(#paint0_radial_36_139)"/>
<g opacity="0.12">
<line x1="234" y1="125.5" x2="1279" y2="125.5" stroke="white"/>
<line x1="118" y1="381.5" x2="1395" y2="381.5" stroke="white"/>
<line x1="234" y1="61.5" x2="1279" y2="61.5001" stroke="white"/>
<line x1="234" y1="317.5" x2="1279" y2="317.5" stroke="white"/>
<line x1="234" y1="253.5" x2="1279" y2="253.5" stroke="white"/>
<line x1="234" y1="189.5" x2="1279" y2="189.5" stroke="white"/>
<line x1="118.5" y1="664" x2="118.5" y2="-267" stroke="white"/>
<line x1="698.5" y1="446" x2="698.5" y2="189" stroke="white"/>
<line x1="466.5" y1="446" x2="466.5" y2="189" stroke="white"/>
<line x1="350.5" y1="574" x2="350.5" y2="62.9999" stroke="white"/>
<line x1="234.5" y1="664" x2="234.5" y2="-99.0001" stroke="white"/>
<line x1="814.5" y1="446" x2="814.5" y2="189" stroke="white"/>
<g clip-path="url(#clip1_36_139)">
<mask id="path-14-inside-1_36_139" fill="white">
<path d="M0 -3H119V382H0V-3Z"/>
</mask>
<line x1="-60.3501" y1="42.1236" x2="135.129" y2="-49.0299" stroke="white"/>
<line x1="-60.3501" y1="273.512" x2="135.129" y2="182.359" stroke="white"/>
<line x1="-60.3501" y1="157.818" x2="135.129" y2="66.6646" stroke="white"/>
<line x1="-60.3501" y1="389.207" x2="135.129" y2="298.053" stroke="white"/>
<line x1="-60.3501" y1="58.6513" x2="135.129" y2="-32.5021" stroke="white"/>
<line x1="-60.3501" y1="290.04" x2="135.129" y2="198.887" stroke="white"/>
<line x1="-60.3501" y1="174.346" x2="135.129" y2="83.1924" stroke="white"/>
<line x1="-60.3501" y1="405.735" x2="135.129" y2="314.581" stroke="white"/>
<line x1="-60.3501" y1="75.1791" x2="135.129" y2="-15.9744" stroke="white"/>
<line x1="-60.3501" y1="306.568" x2="135.129" y2="215.414" stroke="white"/>
<line x1="-60.3501" y1="190.874" x2="135.129" y2="99.7202" stroke="white"/>
<line x1="-60.3501" y1="422.262" x2="135.129" y2="331.109" stroke="white"/>
<line x1="-60.3501" y1="91.7069" x2="135.129" y2="0.553402" stroke="white"/>
<line x1="-60.3501" y1="323.096" x2="135.129" y2="231.942" stroke="white"/>
<line x1="-60.3501" y1="207.401" x2="135.129" y2="116.248" stroke="white"/>
<line x1="-60.3501" y1="438.79" x2="135.129" y2="347.637" stroke="white"/>
<line x1="-60.3501" y1="108.235" x2="135.129" y2="17.0812" stroke="white"/>
<line x1="-60.3501" y1="339.624" x2="135.129" y2="248.47" stroke="white"/>
<line x1="-60.3501" y1="223.929" x2="135.129" y2="132.776" stroke="white"/>
<line x1="-60.3501" y1="455.318" x2="135.129" y2="364.164" stroke="white"/>
<line x1="-60.3501" y1="124.763" x2="135.129" y2="33.6091" stroke="white"/>
<line x1="-60.3501" y1="356.151" x2="135.129" y2="264.998" stroke="white"/>
<line x1="-60.3501" y1="240.457" x2="135.129" y2="149.303" stroke="white"/>
<line x1="-60.3501" y1="471.846" x2="135.129" y2="380.692" stroke="white"/>
<line x1="-60.3501" y1="141.29" x2="135.129" y2="50.1368" stroke="white"/>
<line x1="-60.3501" y1="372.679" x2="135.129" y2="281.526" stroke="white"/>
<line x1="-60.3501" y1="256.985" x2="135.129" y2="165.831" stroke="white"/>
</g>
<path d="M0 -2H119V-4H0V-2ZM119 381H0V383H119V381Z" fill="white" mask="url(#path-14-inside-1_36_139)"/>
</g>
<path d="M373.422 138V118.83H378.012V138H373.422ZM374.787 138V134.085H386.847V138H374.787ZM376.107 130.155V126.39H386.487V130.155H376.107ZM374.772 122.7V118.83H386.712V122.7H374.772ZM388.329 138L392.589 129.705V130.95L388.434 123.255H393.369L395.859 128.415H396.144L398.619 123.255H403.539L399.399 130.95V129.705L403.659 138H398.724L396.144 132.585H395.859L393.264 138H388.329ZM414.483 138.345C413.603 138.345 412.863 138.2 412.263 137.91C411.663 137.62 411.183 137.21 410.823 136.68C410.473 136.14 410.223 135.515 410.073 134.805H408.888L409.968 131.715C409.988 132.325 410.103 132.84 410.313 133.26C410.533 133.68 410.843 134.005 411.243 134.235C411.653 134.455 412.138 134.565 412.698 134.565C413.538 134.565 414.173 134.32 414.603 133.83C415.043 133.33 415.263 132.59 415.263 131.61V129.51C415.263 128.53 415.048 127.795 414.618 127.305C414.198 126.815 413.568 126.57 412.728 126.57C412.258 126.57 411.828 126.66 411.438 126.84C411.058 127.02 410.733 127.26 410.463 127.56C410.203 127.85 410.013 128.185 409.893 128.565L408.843 126.45H410.058C410.208 125.79 410.458 125.195 410.808 124.665C411.158 124.125 411.643 123.7 412.263 123.39C412.883 123.07 413.673 122.91 414.633 122.91C416.353 122.91 417.653 123.475 418.533 124.605C419.423 125.725 419.868 127.41 419.868 129.66V131.46C419.868 133.73 419.423 135.445 418.533 136.605C417.653 137.765 416.303 138.345 414.483 138.345ZM405.468 143.16V123.255H410.028L409.878 127.23L409.968 127.755V133.425L409.908 134.205L410.028 138.15V143.16H405.468ZM422.475 138V118.185H427.065V138H422.475ZM436.81 138.42C434.43 138.42 432.63 137.83 431.41 136.65C430.2 135.46 429.595 133.79 429.595 131.64V129.705C429.595 127.525 430.205 125.835 431.425 124.635C432.645 123.425 434.44 122.82 436.81 122.82C439.18 122.82 440.97 123.425 442.18 124.635C443.4 125.835 444.01 127.525 444.01 129.705V131.64C444.01 133.79 443.405 135.46 442.195 136.65C440.985 137.83 439.19 138.42 436.81 138.42ZM436.81 134.805C437.66 134.805 438.305 134.55 438.745 134.04C439.195 133.52 439.42 132.785 439.42 131.835V129.51C439.42 128.51 439.195 127.75 438.745 127.23C438.305 126.71 437.66 126.45 436.81 126.45C435.96 126.45 435.31 126.71 434.86 127.23C434.42 127.75 434.2 128.51 434.2 129.51V131.835C434.2 132.785 434.42 133.52 434.86 134.04C435.31 134.55 435.96 134.805 436.81 134.805ZM451.042 129.72L449.782 126.93H450.862C451.102 125.71 451.567 124.755 452.257 124.065C452.957 123.365 453.942 123.015 455.212 123.015C455.432 123.015 455.632 123.03 455.812 123.06C456.002 123.09 456.182 123.125 456.352 123.165L456.577 127.8C456.367 127.74 456.122 127.7 455.842 127.68C455.562 127.65 455.277 127.635 454.987 127.635C454.007 127.635 453.182 127.82 452.512 128.19C451.842 128.55 451.352 129.06 451.042 129.72ZM446.542 138V123.255H450.862L450.667 127.965L451.132 128.025V138H446.542ZM465.58 138.375C462.9 138.375 460.92 137.78 459.64 136.59C458.36 135.39 457.72 133.645 457.72 131.355V129.825C457.72 127.565 458.32 125.835 459.52 124.635C460.72 123.425 462.465 122.82 464.755 122.82C466.295 122.82 467.575 123.085 468.595 123.615C469.625 124.135 470.395 124.88 470.905 125.85C471.425 126.82 471.685 127.985 471.685 129.345V129.84C471.685 130.22 471.665 130.61 471.625 131.01C471.595 131.4 471.55 131.765 471.49 132.105H467.35C467.39 131.525 467.415 130.98 467.425 130.47C467.435 129.95 467.44 129.48 467.44 129.06C467.44 128.45 467.345 127.94 467.155 127.53C466.965 127.11 466.67 126.79 466.27 126.57C465.88 126.35 465.375 126.24 464.755 126.24C463.835 126.24 463.16 126.49 462.73 126.99C462.31 127.48 462.1 128.18 462.1 129.09V130.44L462.13 130.935V131.985C462.13 132.365 462.19 132.725 462.31 133.065C462.44 133.405 462.66 133.705 462.97 133.965C463.29 134.215 463.725 134.415 464.275 134.565C464.835 134.705 465.545 134.775 466.405 134.775C467.315 134.775 468.19 134.69 469.03 134.52C469.87 134.34 470.675 134.1 471.445 133.8L471.07 137.25C470.39 137.6 469.585 137.875 468.655 138.075C467.725 138.275 466.7 138.375 465.58 138.375ZM460.15 132.105V129.27H470.56V132.105H460.15ZM487.992 138.42C485.612 138.42 483.812 137.83 482.592 136.65C481.382 135.46 480.777 133.79 480.777 131.64V129.705C480.777 127.525 481.387 125.835 482.607 124.635C483.827 123.425 485.622 122.82 487.992 122.82C490.362 122.82 492.152 123.425 493.362 124.635C494.582 125.835 495.192 127.525 495.192 129.705V131.64C495.192 133.79 494.587 135.46 493.377 136.65C492.167 137.83 490.372 138.42 487.992 138.42ZM487.992 134.805C488.842 134.805 489.487 134.55 489.927 134.04C490.377 133.52 490.602 132.785 490.602 131.835V129.51C490.602 128.51 490.377 127.75 489.927 127.23C489.487 126.71 488.842 126.45 487.992 126.45C487.142 126.45 486.492 126.71 486.042 127.23C485.602 127.75 485.382 128.51 485.382 129.51V131.835C485.382 132.785 485.602 133.52 486.042 134.04C486.492 134.55 487.142 134.805 487.992 134.805ZM502.973 138.36C501.803 138.36 500.748 138.255 499.808 138.045C498.868 137.845 498.063 137.61 497.393 137.34L497.003 133.485C497.773 133.805 498.623 134.095 499.553 134.355C500.493 134.605 501.508 134.73 502.598 134.73C503.468 134.73 504.083 134.64 504.443 134.46C504.813 134.27 504.998 133.98 504.998 133.59V133.53C504.998 133.26 504.903 133.04 504.713 132.87C504.533 132.69 504.213 132.53 503.753 132.39C503.303 132.25 502.668 132.085 501.848 131.895C500.618 131.605 499.643 131.265 498.923 130.875C498.203 130.475 497.688 129.99 497.378 129.42C497.078 128.84 496.928 128.155 496.928 127.365V127.245C496.928 125.785 497.448 124.695 498.488 123.975C499.528 123.245 501.058 122.88 503.078 122.88C504.218 122.88 505.243 122.985 506.153 123.195C507.063 123.405 507.828 123.655 508.448 123.945L508.838 127.53C508.118 127.21 507.313 126.945 506.423 126.735C505.543 126.525 504.618 126.42 503.648 126.42C503.058 126.42 502.593 126.46 502.253 126.54C501.923 126.62 501.688 126.735 501.548 126.885C501.418 127.035 501.353 127.22 501.353 127.44V127.485C501.353 127.725 501.433 127.93 501.593 128.1C501.753 128.27 502.043 128.43 502.463 128.58C502.893 128.73 503.508 128.9 504.308 129.09C505.548 129.36 506.548 129.67 507.308 130.02C508.068 130.36 508.623 130.805 508.973 131.355C509.323 131.895 509.498 132.615 509.498 133.515V133.65C509.498 135.24 508.963 136.425 507.893 137.205C506.823 137.975 505.183 138.36 502.973 138.36ZM522.206 132.555V128.76H526.751C527.731 128.76 528.436 128.545 528.866 128.115C529.306 127.675 529.526 127.02 529.526 126.15V125.22C529.526 124.34 529.311 123.685 528.881 123.255C528.451 122.825 527.746 122.61 526.766 122.61H522.191V118.83H527.111C529.551 118.83 531.336 119.37 532.466 120.45C533.606 121.53 534.176 123.075 534.176 125.085V126.3C534.176 128.32 533.606 129.87 532.466 130.95C531.336 132.02 529.556 132.555 527.126 132.555H522.206ZM519.056 138V118.83H523.646V129.825L523.676 131.955V138H519.056ZM541.071 129.72L539.811 126.93H540.891C541.131 125.71 541.596 124.755 542.286 124.065C542.986 123.365 543.971 123.015 545.241 123.015C545.461 123.015 545.661 123.03 545.841 123.06C546.031 123.09 546.211 123.125 546.381 123.165L546.606 127.8C546.396 127.74 546.151 127.7 545.871 127.68C545.591 127.65 545.306 127.635 545.016 127.635C544.036 127.635 543.211 127.82 542.541 128.19C541.871 128.55 541.381 129.06 541.071 129.72ZM536.571 138V123.255H540.891L540.696 127.965L541.161 128.025V138H536.571ZM554.965 138.42C552.585 138.42 550.785 137.83 549.565 136.65C548.355 135.46 547.75 133.79 547.75 131.64V129.705C547.75 127.525 548.36 125.835 549.58 124.635C550.8 123.425 552.595 122.82 554.965 122.82C557.335 122.82 559.125 123.425 560.335 124.635C561.555 125.835 562.165 127.525 562.165 129.705V131.64C562.165 133.79 561.56 135.46 560.35 136.65C559.14 137.83 557.345 138.42 554.965 138.42ZM554.965 134.805C555.815 134.805 556.46 134.55 556.9 134.04C557.35 133.52 557.575 132.785 557.575 131.835V129.51C557.575 128.51 557.35 127.75 556.9 127.23C556.46 126.71 555.815 126.45 554.965 126.45C554.115 126.45 553.465 126.71 553.015 127.23C552.575 127.75 552.355 128.51 552.355 129.51V131.835C552.355 132.785 552.575 133.52 553.015 134.04C553.465 134.55 554.115 134.805 554.965 134.805ZM564.863 135.54V123.255H569.453V135.54H564.863ZM567.158 121.86C566.308 121.86 565.688 121.665 565.298 121.275C564.908 120.875 564.713 120.34 564.713 119.67V119.565C564.713 118.895 564.908 118.365 565.298 117.975C565.688 117.585 566.308 117.39 567.158 117.39C568.008 117.39 568.628 117.585 569.018 117.975C569.418 118.365 569.618 118.895 569.618 119.565V119.67C569.618 120.35 569.418 120.885 569.018 121.275C568.628 121.665 568.008 121.86 567.158 121.86ZM564.323 143.415C563.873 143.415 563.458 143.385 563.078 143.325C562.688 143.275 562.348 143.21 562.058 143.13L561.728 139.485C561.928 139.555 562.138 139.61 562.358 139.65C562.568 139.69 562.788 139.71 563.018 139.71C563.758 139.71 564.248 139.515 564.488 139.125C564.738 138.735 564.863 138.195 564.863 137.505V134.655H569.453V137.82C569.453 138.95 569.288 139.93 568.958 140.76C568.638 141.6 568.103 142.25 567.353 142.71C566.603 143.18 565.593 143.415 564.323 143.415ZM579.838 138.375C577.158 138.375 575.178 137.78 573.898 136.59C572.618 135.39 571.978 133.645 571.978 131.355V129.825C571.978 127.565 572.578 125.835 573.778 124.635C574.978 123.425 576.723 122.82 579.013 122.82C580.553 122.82 581.833 123.085 582.853 123.615C583.883 124.135 584.653 124.88 585.163 125.85C585.683 126.82 585.943 127.985 585.943 129.345V129.84C585.943 130.22 585.923 130.61 585.883 131.01C585.853 131.4 585.808 131.765 585.748 132.105H581.608C581.648 131.525 581.673 130.98 581.683 130.47C581.693 129.95 581.698 129.48 581.698 129.06C581.698 128.45 581.603 127.94 581.413 127.53C581.223 127.11 580.928 126.79 580.528 126.57C580.138 126.35 579.633 126.24 579.013 126.24C578.093 126.24 577.418 126.49 576.988 126.99C576.568 127.48 576.358 128.18 576.358 129.09V130.44L576.388 130.935V131.985C576.388 132.365 576.448 132.725 576.568 133.065C576.698 133.405 576.918 133.705 577.228 133.965C577.548 134.215 577.983 134.415 578.533 134.565C579.093 134.705 579.803 134.775 580.663 134.775C581.573 134.775 582.448 134.69 583.288 134.52C584.128 134.34 584.933 134.1 585.703 133.8L585.328 137.25C584.648 137.6 583.843 137.875 582.913 138.075C581.983 138.275 580.958 138.375 579.838 138.375ZM574.408 132.105V129.27H584.818V132.105H574.408ZM594.409 138.33C593.099 138.33 592.054 138.135 591.274 137.745C590.504 137.345 589.949 136.75 589.609 135.96C589.269 135.17 589.099 134.195 589.099 133.035V124.8H593.659V132.3C593.659 133.02 593.819 133.55 594.139 133.89C594.469 134.22 595.079 134.385 595.969 134.385C596.459 134.385 596.944 134.33 597.424 134.22C597.904 134.11 598.339 133.97 598.729 133.8L598.339 137.595C597.829 137.815 597.239 137.99 596.569 138.12C595.909 138.26 595.189 138.33 594.409 138.33ZM587.119 126.915V123.315H598.594L598.189 126.915H587.119ZM589.159 123.645L589.144 119.835L593.689 119.4L593.524 123.645H589.159ZM607.143 138.42C604.763 138.42 602.963 137.83 601.743 136.65C600.533 135.46 599.927 133.79 599.927 131.64V129.705C599.927 127.525 600.538 125.835 601.758 124.635C602.978 123.425 604.773 122.82 607.143 122.82C609.513 122.82 611.303 123.425 612.513 124.635C613.733 125.835 614.343 127.525 614.343 129.705V131.64C614.343 133.79 613.738 135.46 612.528 136.65C611.318 137.83 609.523 138.42 607.143 138.42ZM607.143 134.805C607.993 134.805 608.638 134.55 609.078 134.04C609.528 133.52 609.753 132.785 609.753 131.835V129.51C609.753 128.51 609.528 127.75 609.078 127.23C608.638 126.71 607.993 126.45 607.143 126.45C606.293 126.45 605.643 126.71 605.193 127.23C604.753 127.75 604.533 128.51 604.533 129.51V131.835C604.533 132.785 604.753 133.52 605.193 134.04C605.643 134.55 606.293 134.805 607.143 134.805ZM622.124 138.36C620.954 138.36 619.899 138.255 618.959 138.045C618.019 137.845 617.214 137.61 616.544 137.34L616.154 133.485C616.924 133.805 617.774 134.095 618.704 134.355C619.644 134.605 620.659 134.73 621.749 134.73C622.619 134.73 623.234 134.64 623.594 134.46C623.964 134.27 624.149 133.98 624.149 133.59V133.53C624.149 133.26 624.054 133.04 623.864 132.87C623.684 132.69 623.364 132.53 622.904 132.39C622.454 132.25 621.819 132.085 620.999 131.895C619.769 131.605 618.794 131.265 618.074 130.875C617.354 130.475 616.839 129.99 616.529 129.42C616.229 128.84 616.079 128.155 616.079 127.365V127.245C616.079 125.785 616.599 124.695 617.639 123.975C618.679 123.245 620.209 122.88 622.229 122.88C623.369 122.88 624.394 122.985 625.304 123.195C626.214 123.405 626.979 123.655 627.599 123.945L627.989 127.53C627.269 127.21 626.464 126.945 625.574 126.735C624.694 126.525 623.769 126.42 622.799 126.42C622.209 126.42 621.744 126.46 621.404 126.54C621.074 126.62 620.839 126.735 620.699 126.885C620.569 127.035 620.504 127.22 620.504 127.44V127.485C620.504 127.725 620.584 127.93 620.744 128.1C620.904 128.27 621.194 128.43 621.614 128.58C622.044 128.73 622.659 128.9 623.459 129.09C624.699 129.36 625.699 129.67 626.459 130.02C627.219 130.36 627.774 130.805 628.124 131.355C628.474 131.895 628.649 132.615 628.649 133.515V133.65C628.649 135.24 628.114 136.425 627.044 137.205C625.974 137.975 624.334 138.36 622.124 138.36ZM422.077 183.405C421.187 183.405 420.352 183.345 419.572 183.225C418.802 183.115 418.097 182.97 417.457 182.79C416.827 182.6 416.272 182.405 415.792 182.205L415.387 177.885C416.177 178.255 417.112 178.6 418.192 178.92C419.272 179.23 420.417 179.385 421.627 179.385C422.797 179.385 423.627 179.24 424.117 178.95C424.617 178.65 424.867 178.185 424.867 177.555V177.45C424.867 177.03 424.752 176.69 424.522 176.43C424.302 176.16 423.927 175.915 423.397 175.695C422.877 175.465 422.172 175.22 421.282 174.96C419.942 174.56 418.822 174.115 417.922 173.625C417.032 173.135 416.367 172.525 415.927 171.795C415.487 171.055 415.267 170.12 415.267 168.99V168.795C415.267 167.055 415.857 165.725 417.037 164.805C418.227 163.885 419.972 163.425 422.272 163.425C423.652 163.425 424.842 163.545 425.842 163.785C426.852 164.025 427.707 164.31 428.407 164.64L428.812 168.66C428.042 168.29 427.167 167.98 426.187 167.73C425.217 167.47 424.177 167.34 423.067 167.34C422.287 167.34 421.672 167.405 421.222 167.535C420.782 167.665 420.472 167.855 420.292 168.105C420.112 168.345 420.022 168.64 420.022 168.99V169.05C420.022 169.41 420.122 169.725 420.322 169.995C420.532 170.265 420.902 170.525 421.432 170.775C421.972 171.025 422.737 171.295 423.727 171.585C425.057 171.975 426.157 172.395 427.027 172.845C427.907 173.285 428.562 173.86 428.992 174.57C429.432 175.27 429.652 176.205 429.652 177.375V177.615C429.652 179.545 429.027 180.995 427.777 181.965C426.527 182.925 424.627 183.405 422.077 183.405ZM436.509 168.255V176.925C436.509 177.465 436.579 177.935 436.719 178.335C436.859 178.725 437.094 179.03 437.424 179.25C437.754 179.46 438.204 179.565 438.774 179.565C439.254 179.565 439.669 179.48 440.019 179.31C440.379 179.14 440.679 178.91 440.919 178.62C441.169 178.33 441.354 178.01 441.474 177.66L442.179 179.805H441.399C441.239 180.465 440.974 181.065 440.604 181.605C440.244 182.145 439.744 182.57 439.104 182.88C438.474 183.19 437.664 183.345 436.674 183.345C435.584 183.345 434.684 183.135 433.974 182.715C433.274 182.285 432.754 181.65 432.414 180.81C432.084 179.97 431.919 178.92 431.919 177.66V168.255H436.509ZM445.989 168.255V183H441.429L441.579 179.31L441.399 178.89V168.255H445.989ZM454.297 183.36C453.127 183.36 452.072 183.255 451.132 183.045C450.192 182.845 449.387 182.61 448.717 182.34L448.327 178.485C449.097 178.805 449.947 179.095 450.877 179.355C451.817 179.605 452.832 179.73 453.922 179.73C454.792 179.73 455.407 179.64 455.767 179.46C456.137 179.27 456.322 178.98 456.322 178.59V178.53C456.322 178.26 456.227 178.04 456.037 177.87C455.857 177.69 455.537 177.53 455.077 177.39C454.627 177.25 453.992 177.085 453.172 176.895C451.942 176.605 450.967 176.265 450.247 175.875C449.527 175.475 449.012 174.99 448.702 174.42C448.402 173.84 448.252 173.155 448.252 172.365V172.245C448.252 170.785 448.772 169.695 449.812 168.975C450.852 168.245 452.382 167.88 454.402 167.88C455.542 167.88 456.567 167.985 457.477 168.195C458.387 168.405 459.152 168.655 459.772 168.945L460.162 172.53C459.442 172.21 458.637 171.945 457.747 171.735C456.867 171.525 455.942 171.42 454.972 171.42C454.382 171.42 453.917 171.46 453.577 171.54C453.247 171.62 453.012 171.735 452.872 171.885C452.742 172.035 452.677 172.22 452.677 172.44V172.485C452.677 172.725 452.757 172.93 452.917 173.1C453.077 173.27 453.367 173.43 453.787 173.58C454.217 173.73 454.832 173.9 455.632 174.09C456.872 174.36 457.872 174.67 458.632 175.02C459.392 175.36 459.947 175.805 460.297 176.355C460.647 176.895 460.822 177.615 460.822 178.515V178.65C460.822 180.24 460.287 181.425 459.217 182.205C458.147 182.975 456.507 183.36 454.297 183.36ZM468.74 183.33C467.43 183.33 466.385 183.135 465.605 182.745C464.835 182.345 464.28 181.75 463.94 180.96C463.6 180.17 463.43 179.195 463.43 178.035V169.8H467.99V177.3C467.99 178.02 468.15 178.55 468.47 178.89C468.8 179.22 469.41 179.385 470.3 179.385C470.79 179.385 471.275 179.33 471.755 179.22C472.235 179.11 472.67 178.97 473.06 178.8L472.67 182.595C472.16 182.815 471.57 182.99 470.9 183.12C470.24 183.26 469.52 183.33 468.74 183.33ZM461.45 171.915V168.315H472.925L472.52 171.915H461.45ZM463.49 168.645L463.475 164.835L468.02 164.4L467.855 168.645H463.49ZM482.119 183.375C479.439 183.375 477.459 182.78 476.179 181.59C474.899 180.39 474.259 178.645 474.259 176.355V174.825C474.259 172.565 474.859 170.835 476.059 169.635C477.259 168.425 479.004 167.82 481.294 167.82C482.834 167.82 484.114 168.085 485.134 168.615C486.164 169.135 486.934 169.88 487.444 170.85C487.964 171.82 488.224 172.985 488.224 174.345V174.84C488.224 175.22 488.204 175.61 488.164 176.01C488.134 176.4 488.089 176.765 488.029 177.105H483.889C483.929 176.525 483.954 175.98 483.964 175.47C483.974 174.95 483.979 174.48 483.979 174.06C483.979 173.45 483.884 172.94 483.694 172.53C483.504 172.11 483.209 171.79 482.809 171.57C482.419 171.35 481.914 171.24 481.294 171.24C480.374 171.24 479.699 171.49 479.269 171.99C478.849 172.48 478.639 173.18 478.639 174.09V175.44L478.669 175.935V176.985C478.669 177.365 478.729 177.725 478.849 178.065C478.979 178.405 479.199 178.705 479.509 178.965C479.829 179.215 480.264 179.415 480.814 179.565C481.374 179.705 482.084 179.775 482.944 179.775C483.854 179.775 484.729 179.69 485.569 179.52C486.409 179.34 487.214 179.1 487.984 178.8L487.609 182.25C486.929 182.6 486.124 182.875 485.194 183.075C484.264 183.275 483.239 183.375 482.119 183.375ZM476.689 177.105V174.27H487.099V177.105H476.689ZM500.187 183V174.33C500.187 173.79 500.117 173.325 499.977 172.935C499.837 172.535 499.602 172.23 499.272 172.02C498.942 171.81 498.492 171.705 497.922 171.705C497.452 171.705 497.037 171.79 496.677 171.96C496.317 172.12 496.012 172.345 495.762 172.635C495.522 172.915 495.342 173.235 495.222 173.595L494.517 171.45H495.297C495.457 170.78 495.717 170.18 496.077 169.65C496.447 169.12 496.952 168.7 497.592 168.39C498.232 168.07 499.042 167.91 500.022 167.91C501.122 167.91 502.022 168.125 502.722 168.555C503.422 168.975 503.937 169.605 504.267 170.445C504.607 171.285 504.777 172.335 504.777 173.595V183H500.187ZM490.707 183V168.255H495.267L495.117 171.945L495.297 172.38V183H490.707ZM513.535 183.33C512.225 183.33 511.18 183.135 510.4 182.745C509.63 182.345 509.075 181.75 508.735 180.96C508.395 180.17 508.225 179.195 508.225 178.035V169.8H512.785V177.3C512.785 178.02 512.945 178.55 513.265 178.89C513.595 179.22 514.205 179.385 515.095 179.385C515.585 179.385 516.07 179.33 516.55 179.22C517.03 179.11 517.465 178.97 517.855 178.8L517.465 182.595C516.955 182.815 516.365 182.99 515.695 183.12C515.035 183.26 514.315 183.33 513.535 183.33ZM506.245 171.915V168.315H517.72L517.315 171.915H506.245ZM508.285 168.645L508.27 164.835L512.815 164.4L512.65 168.645H508.285ZM528.419 183L528.554 179.31L528.449 179.085V174.48L528.419 173.88C528.419 173.06 528.179 172.455 527.699 172.065C527.219 171.675 526.414 171.48 525.284 171.48C524.294 171.48 523.354 171.605 522.464 171.855C521.574 172.105 520.734 172.39 519.944 172.71L520.334 169.155C520.804 168.935 521.329 168.73 521.909 168.54C522.499 168.34 523.149 168.18 523.859 168.06C524.569 167.94 525.329 167.88 526.139 167.88C527.429 167.88 528.509 168.03 529.379 168.33C530.249 168.63 530.944 169.055 531.464 169.605C531.984 170.155 532.359 170.815 532.589 171.585C532.819 172.345 532.934 173.185 532.934 174.105V183H528.419ZM523.724 183.345C522.254 183.345 521.139 182.975 520.379 182.235C519.619 181.495 519.239 180.44 519.239 179.07V178.665C519.239 177.215 519.684 176.145 520.574 175.455C521.474 174.755 522.899 174.28 524.849 174.03L528.809 173.505L529.079 176.265L525.569 176.775C524.859 176.865 524.359 177.03 524.069 177.27C523.779 177.51 523.634 177.865 523.634 178.335V178.44C523.634 178.89 523.779 179.25 524.069 179.52C524.359 179.78 524.824 179.91 525.464 179.91C526.024 179.91 526.504 179.825 526.904 179.655C527.314 179.485 527.649 179.265 527.909 178.995C528.169 178.715 528.364 178.405 528.494 178.065L529.139 179.925H528.389C528.229 180.565 527.979 181.145 527.639 181.665C527.309 182.185 526.829 182.595 526.199 182.895C525.569 183.195 524.744 183.345 523.724 183.345ZM526.889 162.39H531.659V162.45L528.044 166.8H524.264V166.755L526.889 162.39ZM541.837 180L544.522 168.255H549.232L545.317 183H537.967L534.022 168.255H538.762L541.477 180H541.837ZM557.939 183.375C555.259 183.375 553.279 182.78 551.999 181.59C550.719 180.39 550.079 178.645 550.079 176.355V174.825C550.079 172.565 550.679 170.835 551.879 169.635C553.079 168.425 554.824 167.82 557.114 167.82C558.654 167.82 559.934 168.085 560.954 168.615C561.984 169.135 562.754 169.88 563.264 170.85C563.784 171.82 564.044 172.985 564.044 174.345V174.84C564.044 175.22 564.024 175.61 563.984 176.01C563.954 176.4 563.909 176.765 563.849 177.105H559.709C559.749 176.525 559.774 175.98 559.784 175.47C559.794 174.95 559.799 174.48 559.799 174.06C559.799 173.45 559.704 172.94 559.514 172.53C559.324 172.11 559.029 171.79 558.629 171.57C558.239 171.35 557.734 171.24 557.114 171.24C556.194 171.24 555.519 171.49 555.089 171.99C554.669 172.48 554.459 173.18 554.459 174.09V175.44L554.489 175.935V176.985C554.489 177.365 554.549 177.725 554.669 178.065C554.799 178.405 555.019 178.705 555.329 178.965C555.649 179.215 556.084 179.415 556.634 179.565C557.194 179.705 557.904 179.775 558.764 179.775C559.674 179.775 560.549 179.69 561.389 179.52C562.229 179.34 563.034 179.1 563.804 178.8L563.429 182.25C562.749 182.6 561.944 182.875 561.014 183.075C560.084 183.275 559.059 183.375 557.939 183.375ZM552.509 177.105V174.27H562.919V177.105H552.509ZM566.542 183V168.255H571.132V183H566.542ZM568.837 166.86C567.977 166.86 567.352 166.665 566.962 166.275C566.572 165.875 566.377 165.34 566.377 164.67V164.565C566.377 163.895 566.572 163.365 566.962 162.975C567.352 162.585 567.977 162.39 568.837 162.39C569.677 162.39 570.292 162.585 570.682 162.975C571.082 163.365 571.282 163.895 571.282 164.565V164.67C571.282 165.35 571.082 165.885 570.682 166.275C570.292 166.665 569.677 166.86 568.837 166.86ZM579.424 183.36C578.254 183.36 577.199 183.255 576.259 183.045C575.319 182.845 574.514 182.61 573.844 182.34L573.454 178.485C574.224 178.805 575.074 179.095 576.004 179.355C576.944 179.605 577.959 179.73 579.049 179.73C579.919 179.73 580.534 179.64 580.894 179.46C581.264 179.27 581.449 178.98 581.449 178.59V178.53C581.449 178.26 581.354 178.04 581.164 177.87C580.984 177.69 580.664 177.53 580.204 177.39C579.754 177.25 579.119 177.085 578.299 176.895C577.069 176.605 576.094 176.265 575.374 175.875C574.654 175.475 574.139 174.99 573.829 174.42C573.529 173.84 573.379 173.155 573.379 172.365V172.245C573.379 170.785 573.899 169.695 574.939 168.975C575.979 168.245 577.509 167.88 579.529 167.88C580.669 167.88 581.694 167.985 582.604 168.195C583.514 168.405 584.279 168.655 584.899 168.945L585.289 172.53C584.569 172.21 583.764 171.945 582.874 171.735C581.994 171.525 581.069 171.42 580.099 171.42C579.509 171.42 579.044 171.46 578.704 171.54C578.374 171.62 578.139 171.735 577.999 171.885C577.869 172.035 577.804 172.22 577.804 172.44V172.485C577.804 172.725 577.884 172.93 578.044 173.1C578.204 173.27 578.494 173.43 578.914 173.58C579.344 173.73 579.959 173.9 580.759 174.09C581.999 174.36 582.999 174.67 583.759 175.02C584.519 175.36 585.074 175.805 585.424 176.355C585.774 176.895 585.949 177.615 585.949 178.515V178.65C585.949 180.24 585.414 181.425 584.344 182.205C583.274 182.975 581.634 183.36 579.424 183.36Z" fill="#FAF5FF"/>
<path d="M368.471 231H366.077L362.073 224.938V231H359.679V221.172H362.073L366.077 227.262V221.172H368.471V231ZM369.73 227.08C369.73 226.277 369.879 225.573 370.178 224.966C370.486 224.359 370.901 223.893 371.424 223.566C371.947 223.239 372.53 223.076 373.174 223.076C373.725 223.076 374.205 223.188 374.616 223.412C375.036 223.636 375.358 223.93 375.582 224.294V223.188H377.976V231H375.582V229.894C375.349 230.258 375.022 230.552 374.602 230.776C374.191 231 373.711 231.112 373.16 231.112C372.525 231.112 371.947 230.949 371.424 230.622C370.901 230.286 370.486 229.815 370.178 229.208C369.879 228.592 369.73 227.883 369.73 227.08ZM375.582 227.094C375.582 226.497 375.414 226.025 375.078 225.68C374.751 225.335 374.35 225.162 373.874 225.162C373.398 225.162 372.992 225.335 372.656 225.68C372.329 226.016 372.166 226.483 372.166 227.08C372.166 227.677 372.329 228.153 372.656 228.508C372.992 228.853 373.398 229.026 373.874 229.026C374.35 229.026 374.751 228.853 375.078 228.508C375.414 228.163 375.582 227.691 375.582 227.094ZM383.222 228.76L384.916 223.188H387.464L384.692 231H381.738L378.966 223.188H381.528L383.222 228.76ZM395.836 226.968C395.836 227.192 395.822 227.425 395.794 227.668H390.376C390.413 228.153 390.567 228.527 390.838 228.788C391.118 229.04 391.458 229.166 391.86 229.166C392.457 229.166 392.872 228.914 393.106 228.41H395.654C395.523 228.923 395.285 229.385 394.94 229.796C394.604 230.207 394.179 230.529 393.666 230.762C393.152 230.995 392.578 231.112 391.944 231.112C391.178 231.112 390.497 230.949 389.9 230.622C389.302 230.295 388.836 229.829 388.5 229.222C388.164 228.615 387.996 227.906 387.996 227.094C387.996 226.282 388.159 225.573 388.486 224.966C388.822 224.359 389.288 223.893 389.886 223.566C390.483 223.239 391.169 223.076 391.944 223.076C392.7 223.076 393.372 223.235 393.96 223.552C394.548 223.869 395.005 224.322 395.332 224.91C395.668 225.498 395.836 226.184 395.836 226.968ZM393.386 226.338C393.386 225.927 393.246 225.601 392.966 225.358C392.686 225.115 392.336 224.994 391.916 224.994C391.514 224.994 391.174 225.111 390.894 225.344C390.623 225.577 390.455 225.909 390.39 226.338H393.386ZM400.066 223.076C400.617 223.076 401.098 223.188 401.508 223.412C401.928 223.636 402.25 223.93 402.474 224.294V223.188H404.868V230.986C404.868 231.705 404.724 232.353 404.434 232.932C404.154 233.52 403.72 233.987 403.132 234.332C402.554 234.677 401.83 234.85 400.962 234.85C399.805 234.85 398.867 234.575 398.148 234.024C397.43 233.483 397.019 232.745 396.916 231.812H399.282C399.357 232.111 399.534 232.344 399.814 232.512C400.094 232.689 400.44 232.778 400.85 232.778C401.345 232.778 401.737 232.633 402.026 232.344C402.325 232.064 402.474 231.611 402.474 230.986V229.88C402.241 230.244 401.919 230.543 401.508 230.776C401.098 231 400.617 231.112 400.066 231.112C399.422 231.112 398.839 230.949 398.316 230.622C397.794 230.286 397.378 229.815 397.07 229.208C396.772 228.592 396.622 227.883 396.622 227.08C396.622 226.277 396.772 225.573 397.07 224.966C397.378 224.359 397.794 223.893 398.316 223.566C398.839 223.239 399.422 223.076 400.066 223.076ZM402.474 227.094C402.474 226.497 402.306 226.025 401.97 225.68C401.644 225.335 401.242 225.162 400.766 225.162C400.29 225.162 399.884 225.335 399.548 225.68C399.222 226.016 399.058 226.483 399.058 227.08C399.058 227.677 399.222 228.153 399.548 228.508C399.884 228.853 400.29 229.026 400.766 229.026C401.242 229.026 401.644 228.853 401.97 228.508C402.306 228.163 402.474 227.691 402.474 227.094ZM414.314 223.188V231H411.92V229.936C411.678 230.281 411.346 230.561 410.926 230.776C410.516 230.981 410.058 231.084 409.554 231.084C408.957 231.084 408.43 230.953 407.972 230.692C407.515 230.421 407.16 230.034 406.908 229.53C406.656 229.026 406.53 228.433 406.53 227.752V223.188H408.91V227.43C408.91 227.953 409.046 228.359 409.316 228.648C409.587 228.937 409.951 229.082 410.408 229.082C410.875 229.082 411.244 228.937 411.514 228.648C411.785 228.359 411.92 227.953 411.92 227.43V223.188H414.314ZM423.398 226.968C423.398 227.192 423.384 227.425 423.356 227.668H417.938C417.975 228.153 418.129 228.527 418.4 228.788C418.68 229.04 419.021 229.166 419.422 229.166C420.019 229.166 420.435 228.914 420.668 228.41H423.216C423.085 228.923 422.847 229.385 422.502 229.796C422.166 230.207 421.741 230.529 421.228 230.762C420.715 230.995 420.141 231.112 419.506 231.112C418.741 231.112 418.059 230.949 417.462 230.622C416.865 230.295 416.398 229.829 416.062 229.222C415.726 228.615 415.558 227.906 415.558 227.094C415.558 226.282 415.721 225.573 416.048 224.966C416.384 224.359 416.851 223.893 417.448 223.566C418.045 223.239 418.731 223.076 419.506 223.076C420.262 223.076 420.934 223.235 421.522 223.552C422.11 223.869 422.567 224.322 422.894 224.91C423.23 225.498 423.398 226.184 423.398 226.968ZM420.948 226.338C420.948 225.927 420.808 225.601 420.528 225.358C420.248 225.115 419.898 224.994 419.478 224.994C419.077 224.994 418.736 225.111 418.456 225.344C418.185 225.577 418.017 225.909 417.952 226.338H420.948ZM430.022 224.294C430.255 223.93 430.577 223.636 430.988 223.412C431.398 223.188 431.879 223.076 432.43 223.076C433.074 223.076 433.657 223.239 434.18 223.566C434.702 223.893 435.113 224.359 435.412 224.966C435.72 225.573 435.874 226.277 435.874 227.08C435.874 227.883 435.72 228.592 435.412 229.208C435.113 229.815 434.702 230.286 434.18 230.622C433.657 230.949 433.074 231.112 432.43 231.112C431.888 231.112 431.408 231 430.988 230.776C430.577 230.552 430.255 230.263 430.022 229.908V234.724H427.628V223.188H430.022V224.294ZM433.438 227.08C433.438 226.483 433.27 226.016 432.934 225.68C432.607 225.335 432.201 225.162 431.716 225.162C431.24 225.162 430.834 225.335 430.498 225.68C430.171 226.025 430.008 226.497 430.008 227.094C430.008 227.691 430.171 228.163 430.498 228.508C430.834 228.853 431.24 229.026 431.716 229.026C432.192 229.026 432.598 228.853 432.934 228.508C433.27 228.153 433.438 227.677 433.438 227.08ZM444.494 226.968C444.494 227.192 444.48 227.425 444.452 227.668H439.034C439.071 228.153 439.225 228.527 439.496 228.788C439.776 229.04 440.116 229.166 440.518 229.166C441.115 229.166 441.53 228.914 441.764 228.41H444.312C444.181 228.923 443.943 229.385 443.598 229.796C443.262 230.207 442.837 230.529 442.324 230.762C441.81 230.995 441.236 231.112 440.602 231.112C439.836 231.112 439.155 230.949 438.558 230.622C437.96 230.295 437.494 229.829 437.158 229.222C436.822 228.615 436.654 227.906 436.654 227.094C436.654 226.282 436.817 225.573 437.144 224.966C437.48 224.359 437.946 223.893 438.544 223.566C439.141 223.239 439.827 223.076 440.602 223.076C441.358 223.076 442.03 223.235 442.618 223.552C443.206 223.869 443.663 224.322 443.99 224.91C444.326 225.498 444.494 226.184 444.494 226.968ZM442.044 226.338C442.044 225.927 441.904 225.601 441.624 225.358C441.344 225.115 440.994 224.994 440.574 224.994C440.172 224.994 439.832 225.111 439.552 225.344C439.281 225.577 439.113 225.909 439.048 226.338H442.044ZM448.151 220.64V231H445.757V220.64H448.151ZM449.41 227.08C449.41 226.277 449.559 225.573 449.858 224.966C450.166 224.359 450.581 223.893 451.104 223.566C451.626 223.239 452.21 223.076 452.854 223.076C453.404 223.076 453.885 223.188 454.296 223.412C454.716 223.636 455.038 223.93 455.262 224.294V223.188H457.656V231H455.262V229.894C455.028 230.258 454.702 230.552 454.282 230.776C453.871 231 453.39 231.112 452.84 231.112C452.205 231.112 451.626 230.949 451.104 230.622C450.581 230.286 450.166 229.815 449.858 229.208C449.559 228.592 449.41 227.883 449.41 227.08ZM455.262 227.094C455.262 226.497 455.094 226.025 454.758 225.68C454.431 225.335 454.03 225.162 453.554 225.162C453.078 225.162 452.672 225.335 452.336 225.68C452.009 226.016 451.846 226.483 451.846 227.08C451.846 227.677 452.009 228.153 452.336 228.508C452.672 228.853 453.078 229.026 453.554 229.026C454.03 229.026 454.431 228.853 454.758 228.508C455.094 228.163 455.262 227.691 455.262 227.094ZM464.748 224.294C464.982 223.93 465.304 223.636 465.714 223.412C466.125 223.188 466.606 223.076 467.156 223.076C467.8 223.076 468.384 223.239 468.906 223.566C469.429 223.893 469.84 224.359 470.138 224.966C470.446 225.573 470.6 226.277 470.6 227.08C470.6 227.883 470.446 228.592 470.138 229.208C469.84 229.815 469.429 230.286 468.906 230.622C468.384 230.949 467.8 231.112 467.156 231.112C466.615 231.112 466.134 231 465.714 230.776C465.304 230.552 464.982 230.263 464.748 229.908V234.724H462.354V223.188H464.748V224.294ZM468.164 227.08C468.164 226.483 467.996 226.016 467.66 225.68C467.334 225.335 466.928 225.162 466.442 225.162C465.966 225.162 465.56 225.335 465.224 225.68C464.898 226.025 464.734 226.497 464.734 227.094C464.734 227.691 464.898 228.163 465.224 228.508C465.56 228.853 465.966 229.026 466.442 229.026C466.918 229.026 467.324 228.853 467.66 228.508C467.996 228.153 468.164 227.677 468.164 227.08ZM474.25 220.64V231H471.856V220.64H474.25ZM475.509 227.08C475.509 226.277 475.659 225.573 475.957 224.966C476.265 224.359 476.681 223.893 477.203 223.566C477.726 223.239 478.309 223.076 478.953 223.076C479.504 223.076 479.985 223.188 480.395 223.412C480.815 223.636 481.137 223.93 481.361 224.294V223.188H483.755V231H481.361V229.894C481.128 230.258 480.801 230.552 480.381 230.776C479.971 231 479.49 231.112 478.939 231.112C478.305 231.112 477.726 230.949 477.203 230.622C476.681 230.286 476.265 229.815 475.957 229.208C475.659 228.592 475.509 227.883 475.509 227.08ZM481.361 227.094C481.361 226.497 481.193 226.025 480.857 225.68C480.531 225.335 480.129 225.162 479.653 225.162C479.177 225.162 478.771 225.335 478.435 225.68C478.109 226.016 477.945 226.483 477.945 227.08C477.945 227.677 478.109 228.153 478.435 228.508C478.771 228.853 479.177 229.026 479.653 229.026C480.129 229.026 480.531 228.853 480.857 228.508C481.193 228.163 481.361 227.691 481.361 227.094ZM489.841 228.97V231H488.623C487.755 231 487.078 230.79 486.593 230.37C486.108 229.941 485.865 229.245 485.865 228.284V225.176H484.913V223.188H485.865V221.284H488.259V223.188H489.827V225.176H488.259V228.312C488.259 228.545 488.315 228.713 488.427 228.816C488.539 228.919 488.726 228.97 488.987 228.97H489.841ZM490.699 227.08C490.699 226.277 490.848 225.573 491.147 224.966C491.455 224.359 491.87 223.893 492.393 223.566C492.915 223.239 493.499 223.076 494.143 223.076C494.693 223.076 495.174 223.188 495.585 223.412C496.005 223.636 496.327 223.93 496.551 224.294V223.188H498.945V231H496.551V229.894C496.317 230.258 495.991 230.552 495.571 230.776C495.16 231 494.679 231.112 494.129 231.112C493.494 231.112 492.915 230.949 492.393 230.622C491.87 230.286 491.455 229.815 491.147 229.208C490.848 228.592 490.699 227.883 490.699 227.08ZM496.551 227.094C496.551 226.497 496.383 226.025 496.047 225.68C495.72 225.335 495.319 225.162 494.843 225.162C494.367 225.162 493.961 225.335 493.625 225.68C493.298 226.016 493.135 226.483 493.135 227.08C493.135 227.677 493.298 228.153 493.625 228.508C493.961 228.853 494.367 229.026 494.843 229.026C495.319 229.026 495.72 228.853 496.047 228.508C496.383 228.163 496.551 227.691 496.551 227.094ZM504.597 225.176H503.309V231H500.915V225.176H500.047V223.188H500.915V222.964C500.915 222.003 501.19 221.275 501.741 220.78C502.291 220.276 503.099 220.024 504.163 220.024C504.34 220.024 504.471 220.029 504.555 220.038V222.068C504.097 222.04 503.775 222.105 503.589 222.264C503.402 222.423 503.309 222.707 503.309 223.118V223.188H504.597V225.176ZM509.278 231.112C508.512 231.112 507.822 230.949 507.206 230.622C506.599 230.295 506.118 229.829 505.764 229.222C505.418 228.615 505.246 227.906 505.246 227.094C505.246 226.291 505.423 225.587 505.778 224.98C506.132 224.364 506.618 223.893 507.234 223.566C507.85 223.239 508.54 223.076 509.306 223.076C510.071 223.076 510.762 223.239 511.378 223.566C511.994 223.893 512.479 224.364 512.834 224.98C513.188 225.587 513.366 226.291 513.366 227.094C513.366 227.897 513.184 228.606 512.82 229.222C512.465 229.829 511.975 230.295 511.35 230.622C510.734 230.949 510.043 231.112 509.278 231.112ZM509.278 229.04C509.735 229.04 510.122 228.872 510.44 228.536C510.766 228.2 510.93 227.719 510.93 227.094C510.93 226.469 510.771 225.988 510.454 225.652C510.146 225.316 509.763 225.148 509.306 225.148C508.839 225.148 508.452 225.316 508.144 225.652C507.836 225.979 507.682 226.459 507.682 227.094C507.682 227.719 507.831 228.2 508.13 228.536C508.438 228.872 508.82 229.04 509.278 229.04ZM517.03 224.49C517.31 224.061 517.66 223.725 518.08 223.482C518.5 223.23 518.966 223.104 519.48 223.104V225.638H518.822C518.224 225.638 517.776 225.769 517.478 226.03C517.179 226.282 517.03 226.73 517.03 227.374V231H514.636V223.188H517.03V224.49ZM530.592 223.104C531.563 223.104 532.333 223.398 532.902 223.986C533.481 224.574 533.77 225.391 533.77 226.436V231H531.39V226.758C531.39 226.254 531.255 225.867 530.984 225.596C530.723 225.316 530.359 225.176 529.892 225.176C529.425 225.176 529.057 225.316 528.786 225.596C528.525 225.867 528.394 226.254 528.394 226.758V231H526.014V226.758C526.014 226.254 525.879 225.867 525.608 225.596C525.347 225.316 524.983 225.176 524.516 225.176C524.049 225.176 523.681 225.316 523.41 225.596C523.149 225.867 523.018 226.254 523.018 226.758V231H520.624V223.188H523.018V224.168C523.261 223.841 523.578 223.585 523.97 223.398C524.362 223.202 524.805 223.104 525.3 223.104C525.888 223.104 526.411 223.23 526.868 223.482C527.335 223.734 527.699 224.093 527.96 224.56C528.231 224.131 528.599 223.781 529.066 223.51C529.533 223.239 530.041 223.104 530.592 223.104ZM534.968 227.08C534.968 226.277 535.118 225.573 535.416 224.966C535.724 224.359 536.14 223.893 536.662 223.566C537.185 223.239 537.768 223.076 538.412 223.076C538.963 223.076 539.444 223.188 539.854 223.412C540.274 223.636 540.596 223.93 540.82 224.294V223.188H543.214V231H540.82V229.894C540.587 230.258 540.26 230.552 539.84 230.776C539.43 231 538.949 231.112 538.398 231.112C537.764 231.112 537.185 230.949 536.662 230.622C536.14 230.286 535.724 229.815 535.416 229.208C535.118 228.592 534.968 227.883 534.968 227.08ZM540.82 227.094C540.82 226.497 540.652 226.025 540.316 225.68C539.99 225.335 539.588 225.162 539.112 225.162C538.636 225.162 538.23 225.335 537.894 225.68C537.568 226.016 537.404 226.483 537.404 227.08C537.404 227.677 537.568 228.153 537.894 228.508C538.23 228.853 538.636 229.026 539.112 229.026C539.588 229.026 539.99 228.853 540.316 228.508C540.652 228.163 540.82 227.691 540.82 227.094ZM555.277 226.968C555.277 227.192 555.263 227.425 555.235 227.668H549.817C549.854 228.153 550.008 228.527 550.279 228.788C550.559 229.04 550.9 229.166 551.301 229.166C551.898 229.166 552.314 228.914 552.547 228.41H555.095C554.964 228.923 554.726 229.385 554.381 229.796C554.045 230.207 553.62 230.529 553.107 230.762C552.594 230.995 552.02 231.112 551.385 231.112C550.62 231.112 549.938 230.949 549.341 230.622C548.744 230.295 548.277 229.829 547.941 229.222C547.605 228.615 547.437 227.906 547.437 227.094C547.437 226.282 547.6 225.573 547.927 224.966C548.263 224.359 548.73 223.893 549.327 223.566C549.924 223.239 550.61 223.076 551.385 223.076C552.141 223.076 552.813 223.235 553.401 223.552C553.989 223.869 554.446 224.322 554.773 224.91C555.109 225.498 555.277 226.184 555.277 226.968ZM552.827 226.338C552.827 225.927 552.687 225.601 552.407 225.358C552.127 225.115 551.777 224.994 551.357 224.994C550.956 224.994 550.615 225.111 550.335 225.344C550.064 225.577 549.896 225.909 549.831 226.338H552.827ZM559.031 227.094C559.031 226.282 559.194 225.573 559.521 224.966C559.857 224.359 560.319 223.893 560.907 223.566C561.504 223.239 562.185 223.076 562.951 223.076C563.931 223.076 564.747 223.333 565.401 223.846C566.063 224.359 566.497 225.083 566.703 226.016H564.155C563.94 225.419 563.525 225.12 562.909 225.12C562.47 225.12 562.12 225.293 561.859 225.638C561.597 225.974 561.467 226.459 561.467 227.094C561.467 227.729 561.597 228.219 561.859 228.564C562.12 228.9 562.47 229.068 562.909 229.068C563.525 229.068 563.94 228.769 564.155 228.172H566.703C566.497 229.087 566.063 229.805 565.401 230.328C564.738 230.851 563.921 231.112 562.951 231.112C562.185 231.112 561.504 230.949 560.907 230.622C560.319 230.295 559.857 229.829 559.521 229.222C559.194 228.615 559.031 227.906 559.031 227.094ZM571.539 231.112C570.774 231.112 570.083 230.949 569.467 230.622C568.861 230.295 568.38 229.829 568.025 229.222C567.68 228.615 567.507 227.906 567.507 227.094C567.507 226.291 567.685 225.587 568.039 224.98C568.394 224.364 568.879 223.893 569.495 223.566C570.111 223.239 570.802 223.076 571.567 223.076C572.333 223.076 573.023 223.239 573.639 223.566C574.255 223.893 574.741 224.364 575.095 224.98C575.45 225.587 575.627 226.291 575.627 227.094C575.627 227.897 575.445 228.606 575.081 229.222C574.727 229.829 574.237 230.295 573.611 230.622C572.995 230.949 572.305 231.112 571.539 231.112ZM571.539 229.04C571.997 229.04 572.384 228.872 572.701 228.536C573.028 228.2 573.191 227.719 573.191 227.094C573.191 226.469 573.033 225.988 572.715 225.652C572.407 225.316 572.025 225.148 571.567 225.148C571.101 225.148 570.713 225.316 570.405 225.652C570.097 225.979 569.943 226.459 569.943 227.094C569.943 227.719 570.093 228.2 570.391 228.536C570.699 228.872 571.082 229.04 571.539 229.04ZM581.657 223.104C582.572 223.104 583.3 223.403 583.841 224C584.392 224.588 584.667 225.4 584.667 226.436V231H582.287V226.758C582.287 226.235 582.152 225.829 581.881 225.54C581.611 225.251 581.247 225.106 580.789 225.106C580.332 225.106 579.968 225.251 579.697 225.54C579.427 225.829 579.291 226.235 579.291 226.758V231H576.897V223.188H579.291V224.224C579.534 223.879 579.861 223.608 580.271 223.412C580.682 223.207 581.144 223.104 581.657 223.104ZM591.133 223.104C592.029 223.104 592.748 223.403 593.289 224C593.83 224.588 594.101 225.4 594.101 226.436V231H591.721V226.758C591.721 226.235 591.586 225.829 591.315 225.54C591.044 225.251 590.68 225.106 590.223 225.106C589.766 225.106 589.402 225.251 589.131 225.54C588.86 225.829 588.725 226.235 588.725 226.758V231H586.331V220.64H588.725V224.238C588.968 223.893 589.299 223.617 589.719 223.412C590.139 223.207 590.61 223.104 591.133 223.104ZM603.128 226.968C603.128 227.192 603.114 227.425 603.086 227.668H597.668C597.706 228.153 597.86 228.527 598.13 228.788C598.41 229.04 598.751 229.166 599.152 229.166C599.75 229.166 600.165 228.914 600.398 228.41H602.946C602.816 228.923 602.578 229.385 602.232 229.796C601.896 230.207 601.472 230.529 600.958 230.762C600.445 230.995 599.871 231.112 599.236 231.112C598.471 231.112 597.79 230.949 597.192 230.622C596.595 230.295 596.128 229.829 595.792 229.222C595.456 228.615 595.288 227.906 595.288 227.094C595.288 226.282 595.452 225.573 595.778 224.966C596.114 224.359 596.581 223.893 597.178 223.566C597.776 223.239 598.462 223.076 599.236 223.076C599.992 223.076 600.664 223.235 601.252 223.552C601.84 223.869 602.298 224.322 602.624 224.91C602.96 225.498 603.128 226.184 603.128 226.968ZM600.678 226.338C600.678 225.927 600.538 225.601 600.258 225.358C599.978 225.115 599.628 224.994 599.208 224.994C598.807 224.994 598.466 225.111 598.186 225.344C597.916 225.577 597.748 225.909 597.682 226.338H600.678ZM607.793 229.068C608.409 229.068 608.825 228.769 609.039 228.172H611.587C611.41 228.965 611.055 229.614 610.523 230.118C609.991 230.622 609.329 230.935 608.535 231.056V231.574C609.021 231.574 609.445 231.705 609.809 231.966C610.173 232.237 610.355 232.638 610.355 233.17C610.355 233.702 610.164 234.103 609.781 234.374C609.399 234.654 608.941 234.794 608.409 234.794H606.253V233.478H608.087C608.274 233.478 608.414 233.45 608.507 233.394C608.601 233.338 608.647 233.245 608.647 233.114C608.647 232.983 608.601 232.89 608.507 232.834C608.414 232.787 608.274 232.764 608.087 232.764H607.093V231.056C606.132 230.907 605.362 230.482 604.783 229.782C604.205 229.073 603.915 228.177 603.915 227.094C603.915 226.282 604.079 225.573 604.405 224.966C604.741 224.359 605.203 223.893 605.791 223.566C606.389 223.239 607.07 223.076 607.835 223.076C608.815 223.076 609.632 223.333 610.285 223.846C610.948 224.359 611.382 225.083 611.587 226.016H609.039C608.825 225.419 608.409 225.12 607.793 225.12C607.355 225.12 607.005 225.293 606.743 225.638C606.482 225.974 606.351 226.459 606.351 227.094C606.351 227.729 606.482 228.219 606.743 228.564C607.005 228.9 607.355 229.068 607.793 229.068ZM612.392 227.08C612.392 226.277 612.541 225.573 612.84 224.966C613.148 224.359 613.563 223.893 614.086 223.566C614.609 223.239 615.192 223.076 615.836 223.076C616.387 223.076 616.867 223.188 617.278 223.412C617.698 223.636 618.02 223.93 618.244 224.294V223.188H620.638V231H618.244V229.894C618.011 230.258 617.684 230.552 617.264 230.776C616.853 231 616.373 231.112 615.822 231.112C615.187 231.112 614.609 230.949 614.086 230.622C613.563 230.286 613.148 229.815 612.84 229.208C612.541 228.592 612.392 227.883 612.392 227.08ZM618.244 227.094C618.244 226.497 618.076 226.025 617.74 225.68C617.413 225.335 617.012 225.162 616.536 225.162C616.06 225.162 615.654 225.335 615.318 225.68C614.991 226.016 614.828 226.483 614.828 227.08C614.828 227.677 614.991 228.153 615.318 228.508C615.654 228.853 616.06 229.026 616.536 229.026C617.012 229.026 617.413 228.853 617.74 228.508C618.076 228.163 618.244 227.691 618.244 227.094ZM628.893 231.112C628.127 231.112 627.437 230.949 626.821 230.622C626.214 230.295 625.733 229.829 625.379 229.222C625.033 228.615 624.861 227.906 624.861 227.094C624.861 226.291 625.038 225.587 625.393 224.98C625.747 224.364 626.233 223.893 626.849 223.566C627.465 223.239 628.155 223.076 628.921 223.076C629.686 223.076 630.377 223.239 630.993 223.566C631.609 223.893 632.094 224.364 632.449 224.98C632.803 225.587 632.981 226.291 632.981 227.094C632.981 227.897 632.799 228.606 632.435 229.222C632.08 229.829 631.59 230.295 630.965 230.622C630.349 230.949 629.658 231.112 628.893 231.112ZM628.893 229.04C629.35 229.04 629.737 228.872 630.055 228.536C630.381 228.2 630.545 227.719 630.545 227.094C630.545 226.469 630.386 225.988 630.069 225.652C629.761 225.316 629.378 225.148 628.921 225.148C628.454 225.148 628.067 225.316 627.759 225.652C627.451 225.979 627.297 226.459 627.297 227.094C627.297 227.719 627.446 228.2 627.745 228.536C628.053 228.872 628.435 229.04 628.893 229.04ZM637.429 231.112C636.747 231.112 636.141 230.995 635.609 230.762C635.077 230.529 634.657 230.211 634.349 229.81C634.041 229.399 633.868 228.942 633.831 228.438H636.197C636.225 228.709 636.351 228.928 636.575 229.096C636.799 229.264 637.074 229.348 637.401 229.348C637.699 229.348 637.928 229.292 638.087 229.18C638.255 229.059 638.339 228.905 638.339 228.718C638.339 228.494 638.222 228.331 637.989 228.228C637.755 228.116 637.377 227.995 636.855 227.864C636.295 227.733 635.828 227.598 635.455 227.458C635.081 227.309 634.759 227.08 634.489 226.772C634.218 226.455 634.083 226.03 634.083 225.498C634.083 225.05 634.204 224.644 634.447 224.28C634.699 223.907 635.063 223.613 635.539 223.398C636.024 223.183 636.598 223.076 637.261 223.076C638.241 223.076 639.011 223.319 639.571 223.804C640.14 224.289 640.467 224.933 640.551 225.736H638.339C638.301 225.465 638.18 225.251 637.975 225.092C637.779 224.933 637.517 224.854 637.191 224.854C636.911 224.854 636.696 224.91 636.547 225.022C636.397 225.125 636.323 225.269 636.323 225.456C636.323 225.68 636.439 225.848 636.673 225.96C636.915 226.072 637.289 226.184 637.793 226.296C638.371 226.445 638.843 226.595 639.207 226.744C639.571 226.884 639.888 227.117 640.159 227.444C640.439 227.761 640.583 228.191 640.593 228.732C640.593 229.189 640.462 229.6 640.201 229.964C639.949 230.319 639.58 230.599 639.095 230.804C638.619 231.009 638.063 231.112 637.429 231.112ZM370.501 245.294C370.735 244.93 371.057 244.636 371.467 244.412C371.878 244.188 372.359 244.076 372.909 244.076C373.553 244.076 374.137 244.239 374.659 244.566C375.182 244.893 375.593 245.359 375.891 245.966C376.199 246.573 376.353 247.277 376.353 248.08C376.353 248.883 376.199 249.592 375.891 250.208C375.593 250.815 375.182 251.286 374.659 251.622C374.137 251.949 373.553 252.112 372.909 252.112C372.368 252.112 371.887 252 371.467 251.776C371.057 251.552 370.735 251.263 370.501 250.908V255.724H368.107V244.188H370.501V245.294ZM373.917 248.08C373.917 247.483 373.749 247.016 373.413 246.68C373.087 246.335 372.681 246.162 372.195 246.162C371.719 246.162 371.313 246.335 370.977 246.68C370.651 247.025 370.487 247.497 370.487 248.094C370.487 248.691 370.651 249.163 370.977 249.508C371.313 249.853 371.719 250.026 372.195 250.026C372.671 250.026 373.077 249.853 373.413 249.508C373.749 249.153 373.917 248.677 373.917 248.08ZM380.003 245.49C380.283 245.061 380.633 244.725 381.053 244.482C381.473 244.23 381.94 244.104 382.453 244.104V246.638H381.795C381.198 246.638 380.75 246.769 380.451 247.03C380.153 247.282 380.003 247.73 380.003 248.374V252H377.609V244.188H380.003V245.49ZM387.153 252.112C386.388 252.112 385.697 251.949 385.081 251.622C384.475 251.295 383.994 250.829 383.639 250.222C383.294 249.615 383.121 248.906 383.121 248.094C383.121 247.291 383.299 246.587 383.653 245.98C384.008 245.364 384.493 244.893 385.109 244.566C385.725 244.239 386.416 244.076 387.181 244.076C387.947 244.076 388.637 244.239 389.253 244.566C389.869 244.893 390.355 245.364 390.709 245.98C391.064 246.587 391.241 247.291 391.241 248.094C391.241 248.897 391.059 249.606 390.695 250.222C390.341 250.829 389.851 251.295 389.225 251.622C388.609 251.949 387.919 252.112 387.153 252.112ZM387.153 250.04C387.611 250.04 387.998 249.872 388.315 249.536C388.642 249.2 388.805 248.719 388.805 248.094C388.805 247.469 388.647 246.988 388.329 246.652C388.021 246.316 387.639 246.148 387.181 246.148C386.715 246.148 386.327 246.316 386.019 246.652C385.711 246.979 385.557 247.459 385.557 248.094C385.557 248.719 385.707 249.2 386.005 249.536C386.313 249.872 386.696 250.04 387.153 250.04ZM393.702 243.376C393.282 243.376 392.936 243.255 392.666 243.012C392.404 242.76 392.274 242.452 392.274 242.088C392.274 241.715 392.404 241.407 392.666 241.164C392.936 240.912 393.282 240.786 393.702 240.786C394.112 240.786 394.448 240.912 394.71 241.164C394.98 241.407 395.116 241.715 395.116 242.088C395.116 242.452 394.98 242.76 394.71 243.012C394.448 243.255 394.112 243.376 393.702 243.376ZM394.906 253.008C394.906 253.969 394.663 254.66 394.178 255.08C393.692 255.509 393.016 255.724 392.148 255.724H391.21V253.694H391.784C392.045 253.694 392.232 253.643 392.344 253.54C392.456 253.437 392.512 253.269 392.512 253.036V244.188H394.906V253.008ZM403.991 247.968C403.991 248.192 403.977 248.425 403.949 248.668H398.531C398.568 249.153 398.722 249.527 398.993 249.788C399.273 250.04 399.613 250.166 400.015 250.166C400.612 250.166 401.027 249.914 401.261 249.41H403.809C403.678 249.923 403.44 250.385 403.095 250.796C402.759 251.207 402.334 251.529 401.821 251.762C401.307 251.995 400.733 252.112 400.099 252.112C399.333 252.112 398.652 251.949 398.055 251.622C397.457 251.295 396.991 250.829 396.655 250.222C396.319 249.615 396.151 248.906 396.151 248.094C396.151 247.282 396.314 246.573 396.641 245.966C396.977 245.359 397.443 244.893 398.041 244.566C398.638 244.239 399.324 244.076 400.099 244.076C400.855 244.076 401.527 244.235 402.115 244.552C402.703 244.869 403.16 245.322 403.487 245.91C403.823 246.498 403.991 247.184 403.991 247.968ZM401.541 247.338C401.541 246.927 401.401 246.601 401.121 246.358C400.841 246.115 400.491 245.994 400.071 245.994C399.669 245.994 399.329 246.111 399.049 246.344C398.778 246.577 398.61 246.909 398.545 247.338H401.541ZM409.608 249.97V252H408.39C407.522 252 406.845 251.79 406.36 251.37C405.874 250.941 405.632 250.245 405.632 249.284V246.176H404.68V244.188H405.632V242.284H408.026V244.188H409.594V246.176H408.026V249.312C408.026 249.545 408.082 249.713 408.194 249.816C408.306 249.919 408.492 249.97 408.754 249.97H409.608ZM414.497 252.112C413.732 252.112 413.041 251.949 412.425 251.622C411.819 251.295 411.338 250.829 410.983 250.222C410.638 249.615 410.465 248.906 410.465 248.094C410.465 247.291 410.643 246.587 410.997 245.98C411.352 245.364 411.837 244.893 412.453 244.566C413.069 244.239 413.76 244.076 414.525 244.076C415.291 244.076 415.981 244.239 416.597 244.566C417.213 244.893 417.699 245.364 418.053 245.98C418.408 246.587 418.585 247.291 418.585 248.094C418.585 248.897 418.403 249.606 418.039 250.222C417.685 250.829 417.195 251.295 416.569 251.622C415.953 251.949 415.263 252.112 414.497 252.112ZM414.497 250.04C414.955 250.04 415.342 249.872 415.659 249.536C415.986 249.2 416.149 248.719 416.149 248.094C416.149 247.469 415.991 246.988 415.673 246.652C415.365 246.316 414.983 246.148 414.525 246.148C414.059 246.148 413.671 246.316 413.363 246.652C413.055 246.979 412.901 247.459 412.901 248.094C412.901 248.719 413.051 249.2 413.349 249.536C413.657 249.872 414.04 250.04 414.497 250.04ZM423.033 252.112C422.352 252.112 421.745 251.995 421.213 251.762C420.681 251.529 420.261 251.211 419.953 250.81C419.645 250.399 419.473 249.942 419.435 249.438H421.801C421.829 249.709 421.955 249.928 422.179 250.096C422.403 250.264 422.679 250.348 423.005 250.348C423.304 250.348 423.533 250.292 423.691 250.18C423.859 250.059 423.943 249.905 423.943 249.718C423.943 249.494 423.827 249.331 423.593 249.228C423.36 249.116 422.982 248.995 422.459 248.864C421.899 248.733 421.433 248.598 421.059 248.458C420.686 248.309 420.364 248.08 420.093 247.772C419.823 247.455 419.687 247.03 419.687 246.498C419.687 246.05 419.809 245.644 420.051 245.28C420.303 244.907 420.667 244.613 421.143 244.398C421.629 244.183 422.203 244.076 422.865 244.076C423.845 244.076 424.615 244.319 425.175 244.804C425.745 245.289 426.071 245.933 426.155 246.736H423.943C423.906 246.465 423.785 246.251 423.579 246.092C423.383 245.933 423.122 245.854 422.795 245.854C422.515 245.854 422.301 245.91 422.151 246.022C422.002 246.125 421.927 246.269 421.927 246.456C421.927 246.68 422.044 246.848 422.277 246.96C422.52 247.072 422.893 247.184 423.397 247.296C423.976 247.445 424.447 247.595 424.811 247.744C425.175 247.884 425.493 248.117 425.763 248.444C426.043 248.761 426.188 249.191 426.197 249.732C426.197 250.189 426.067 250.6 425.805 250.964C425.553 251.319 425.185 251.599 424.699 251.804C424.223 252.009 423.668 252.112 423.033 252.112ZM430.153 248.08C430.153 247.277 430.302 246.573 430.601 245.966C430.909 245.359 431.324 244.893 431.847 244.566C432.369 244.239 432.953 244.076 433.597 244.076C434.11 244.076 434.577 244.183 434.997 244.398C435.426 244.613 435.762 244.902 436.005 245.266V241.64H438.399V252H436.005V250.88C435.781 251.253 435.459 251.552 435.039 251.776C434.628 252 434.147 252.112 433.597 252.112C432.953 252.112 432.369 251.949 431.847 251.622C431.324 251.286 430.909 250.815 430.601 250.208C430.302 249.592 430.153 248.883 430.153 248.08ZM436.005 248.094C436.005 247.497 435.837 247.025 435.501 246.68C435.174 246.335 434.773 246.162 434.297 246.162C433.821 246.162 433.415 246.335 433.079 246.68C432.752 247.016 432.589 247.483 432.589 248.08C432.589 248.677 432.752 249.153 433.079 249.508C433.415 249.853 433.821 250.026 434.297 250.026C434.773 250.026 435.174 249.853 435.501 249.508C435.837 249.163 436.005 248.691 436.005 248.094ZM447.495 247.968C447.495 248.192 447.481 248.425 447.453 248.668H442.035C442.072 249.153 442.226 249.527 442.497 249.788C442.777 250.04 443.117 250.166 443.519 250.166C444.116 250.166 444.531 249.914 444.765 249.41H447.313C447.182 249.923 446.944 250.385 446.599 250.796C446.263 251.207 445.838 251.529 445.325 251.762C444.811 251.995 444.237 252.112 443.603 252.112C442.837 252.112 442.156 251.949 441.559 251.622C440.961 251.295 440.495 250.829 440.159 250.222C439.823 249.615 439.655 248.906 439.655 248.094C439.655 247.282 439.818 246.573 440.145 245.966C440.481 245.359 440.947 244.893 441.545 244.566C442.142 244.239 442.828 244.076 443.603 244.076C444.359 244.076 445.031 244.235 445.619 244.552C446.207 244.869 446.664 245.322 446.991 245.91C447.327 246.498 447.495 247.184 447.495 247.968ZM445.045 247.338C445.045 246.927 444.905 246.601 444.625 246.358C444.345 246.115 443.995 245.994 443.575 245.994C443.173 245.994 442.833 246.111 442.553 246.344C442.282 246.577 442.114 246.909 442.049 247.338H445.045ZM451.936 252.112C451.254 252.112 450.648 251.995 450.116 251.762C449.584 251.529 449.164 251.211 448.856 250.81C448.548 250.399 448.375 249.942 448.338 249.438H450.704C450.732 249.709 450.858 249.928 451.082 250.096C451.306 250.264 451.581 250.348 451.908 250.348C452.206 250.348 452.435 250.292 452.594 250.18C452.762 250.059 452.846 249.905 452.846 249.718C452.846 249.494 452.729 249.331 452.496 249.228C452.262 249.116 451.884 248.995 451.362 248.864C450.802 248.733 450.335 248.598 449.962 248.458C449.588 248.309 449.266 248.08 448.996 247.772C448.725 247.455 448.59 247.03 448.59 246.498C448.59 246.05 448.711 245.644 448.954 245.28C449.206 244.907 449.57 244.613 450.046 244.398C450.531 244.183 451.105 244.076 451.768 244.076C452.748 244.076 453.518 244.319 454.078 244.804C454.647 245.289 454.974 245.933 455.058 246.736H452.846C452.808 246.465 452.687 246.251 452.482 246.092C452.286 245.933 452.024 245.854 451.698 245.854C451.418 245.854 451.203 245.91 451.054 246.022C450.904 246.125 450.83 246.269 450.83 246.456C450.83 246.68 450.946 246.848 451.18 246.96C451.422 247.072 451.796 247.184 452.3 247.296C452.878 247.445 453.35 247.595 453.714 247.744C454.078 247.884 454.395 248.117 454.666 248.444C454.946 248.761 455.09 249.191 455.1 249.732C455.1 250.189 454.969 250.6 454.708 250.964C454.456 251.319 454.087 251.599 453.602 251.804C453.126 252.009 452.57 252.112 451.936 252.112ZM463.928 247.968C463.928 248.192 463.914 248.425 463.886 248.668H458.468C458.506 249.153 458.66 249.527 458.93 249.788C459.21 250.04 459.551 250.166 459.952 250.166C460.55 250.166 460.965 249.914 461.198 249.41H463.746C463.616 249.923 463.378 250.385 463.032 250.796C462.696 251.207 462.272 251.529 461.758 251.762C461.245 251.995 460.671 252.112 460.036 252.112C459.271 252.112 458.59 251.949 457.992 251.622C457.395 251.295 456.928 250.829 456.592 250.222C456.256 249.615 456.088 248.906 456.088 248.094C456.088 247.282 456.252 246.573 456.578 245.966C456.914 245.359 457.381 244.893 457.978 244.566C458.576 244.239 459.262 244.076 460.036 244.076C460.792 244.076 461.464 244.235 462.052 244.552C462.64 244.869 463.098 245.322 463.424 245.91C463.76 246.498 463.928 247.184 463.928 247.968ZM461.478 247.338C461.478 246.927 461.338 246.601 461.058 246.358C460.778 246.115 460.428 245.994 460.008 245.994C459.607 245.994 459.266 246.111 458.986 246.344C458.716 246.577 458.548 246.909 458.482 247.338H461.478ZM469.951 244.104C470.866 244.104 471.594 244.403 472.135 245C472.686 245.588 472.961 246.4 472.961 247.436V252H470.581V247.758C470.581 247.235 470.446 246.829 470.175 246.54C469.905 246.251 469.541 246.106 469.083 246.106C468.626 246.106 468.262 246.251 467.991 246.54C467.721 246.829 467.585 247.235 467.585 247.758V252H465.191V244.188H467.585V245.224C467.828 244.879 468.155 244.608 468.565 244.412C468.976 244.207 469.438 244.104 469.951 244.104ZM478.139 249.76L479.833 244.188H482.381L479.609 252H476.655L473.883 244.188H476.445L478.139 249.76ZM486.945 252.112C486.179 252.112 485.489 251.949 484.873 251.622C484.266 251.295 483.785 250.829 483.431 250.222C483.085 249.615 482.913 248.906 482.913 248.094C482.913 247.291 483.09 246.587 483.445 245.98C483.799 245.364 484.285 244.893 484.901 244.566C485.517 244.239 486.207 244.076 486.973 244.076C487.738 244.076 488.429 244.239 489.045 244.566C489.661 244.893 490.146 245.364 490.501 245.98C490.855 246.587 491.033 247.291 491.033 248.094C491.033 248.897 490.851 249.606 490.487 250.222C490.132 250.829 489.642 251.295 489.017 251.622C488.401 251.949 487.71 252.112 486.945 252.112ZM486.945 250.04C487.402 250.04 487.789 249.872 488.107 249.536C488.433 249.2 488.597 248.719 488.597 248.094C488.597 247.469 488.438 246.988 488.121 246.652C487.813 246.316 487.43 246.148 486.973 246.148C486.506 246.148 486.119 246.316 485.811 246.652C485.503 246.979 485.349 247.459 485.349 248.094C485.349 248.719 485.498 249.2 485.797 249.536C486.105 249.872 486.487 250.04 486.945 250.04ZM494.697 241.64V252H492.303V241.64H494.697ZM499.945 249.76L501.639 244.188H504.187L501.415 252H498.461L495.689 244.188H498.251L499.945 249.76ZM506.399 243.376C505.979 243.376 505.634 243.255 505.363 243.012C505.102 242.76 504.971 242.452 504.971 242.088C504.971 241.715 505.102 241.407 505.363 241.164C505.634 240.912 505.979 240.786 506.399 240.786C506.81 240.786 507.146 240.912 507.407 241.164C507.678 241.407 507.813 241.715 507.813 242.088C507.813 242.452 507.678 242.76 507.407 243.012C507.146 243.255 506.81 243.376 506.399 243.376ZM507.589 244.188V252H505.195V244.188H507.589ZM508.848 248.08C508.848 247.277 508.997 246.573 509.296 245.966C509.604 245.359 510.019 244.893 510.542 244.566C511.065 244.239 511.648 244.076 512.292 244.076C512.805 244.076 513.272 244.183 513.692 244.398C514.121 244.613 514.457 244.902 514.7 245.266V241.64H517.094V252H514.7V250.88C514.476 251.253 514.154 251.552 513.734 251.776C513.323 252 512.843 252.112 512.292 252.112C511.648 252.112 511.065 251.949 510.542 251.622C510.019 251.286 509.604 250.815 509.296 250.208C508.997 249.592 508.848 248.883 508.848 248.08ZM514.7 248.094C514.7 247.497 514.532 247.025 514.196 246.68C513.869 246.335 513.468 246.162 512.992 246.162C512.516 246.162 512.11 246.335 511.774 246.68C511.447 247.016 511.284 247.483 511.284 248.08C511.284 248.677 511.447 249.153 511.774 249.508C512.11 249.853 512.516 250.026 512.992 250.026C513.468 250.026 513.869 249.853 514.196 249.508C514.532 249.163 514.7 248.691 514.7 248.094ZM522.382 252.112C521.617 252.112 520.926 251.949 520.31 251.622C519.703 251.295 519.223 250.829 518.868 250.222C518.523 249.615 518.35 248.906 518.35 248.094C518.35 247.291 518.527 246.587 518.882 245.98C519.237 245.364 519.722 244.893 520.338 244.566C520.954 244.239 521.645 244.076 522.41 244.076C523.175 244.076 523.866 244.239 524.482 244.566C525.098 244.893 525.583 245.364 525.938 245.98C526.293 246.587 526.47 247.291 526.47 248.094C526.47 248.897 526.288 249.606 525.924 250.222C525.569 250.829 525.079 251.295 524.454 251.622C523.838 251.949 523.147 252.112 522.382 252.112ZM522.382 250.04C522.839 250.04 523.227 249.872 523.544 249.536C523.871 249.2 524.034 248.719 524.034 248.094C524.034 247.469 523.875 246.988 523.558 246.652C523.25 246.316 522.867 246.148 522.41 246.148C521.943 246.148 521.556 246.316 521.248 246.652C520.94 246.979 520.786 247.459 520.786 248.094C520.786 248.719 520.935 249.2 521.234 249.536C521.542 249.872 521.925 250.04 522.382 250.04ZM530.918 252.112C530.237 252.112 529.63 251.995 529.098 251.762C528.566 251.529 528.146 251.211 527.838 250.81C527.53 250.399 527.357 249.942 527.32 249.438H529.686C529.714 249.709 529.84 249.928 530.064 250.096C530.288 250.264 530.563 250.348 530.89 250.348C531.189 250.348 531.417 250.292 531.576 250.18C531.744 250.059 531.828 249.905 531.828 249.718C531.828 249.494 531.711 249.331 531.478 249.228C531.245 249.116 530.867 248.995 530.344 248.864C529.784 248.733 529.317 248.598 528.944 248.458C528.571 248.309 528.249 248.08 527.978 247.772C527.707 247.455 527.572 247.03 527.572 246.498C527.572 246.05 527.693 245.644 527.936 245.28C528.188 244.907 528.552 244.613 529.028 244.398C529.513 244.183 530.087 244.076 530.75 244.076C531.73 244.076 532.5 244.319 533.06 244.804C533.629 245.289 533.956 245.933 534.04 246.736H531.828C531.791 246.465 531.669 246.251 531.464 246.092C531.268 245.933 531.007 245.854 530.68 245.854C530.4 245.854 530.185 245.91 530.036 246.022C529.887 246.125 529.812 246.269 529.812 246.456C529.812 246.68 529.929 246.848 530.162 246.96C530.405 247.072 530.778 247.184 531.282 247.296C531.861 247.445 532.332 247.595 532.696 247.744C533.06 247.884 533.377 248.117 533.648 248.444C533.928 248.761 534.073 249.191 534.082 249.732C534.082 250.189 533.951 250.6 533.69 250.964C533.438 251.319 533.069 251.599 532.584 251.804C532.108 252.009 531.553 252.112 530.918 252.112ZM540.908 245.294C541.141 244.93 541.463 244.636 541.874 244.412C542.284 244.188 542.765 244.076 543.316 244.076C543.96 244.076 544.543 244.239 545.066 244.566C545.588 244.893 545.999 245.359 546.298 245.966C546.606 246.573 546.76 247.277 546.76 248.08C546.76 248.883 546.606 249.592 546.298 250.208C545.999 250.815 545.588 251.286 545.066 251.622C544.543 251.949 543.96 252.112 543.316 252.112C542.774 252.112 542.294 252 541.874 251.776C541.463 251.552 541.141 251.263 540.908 250.908V255.724H538.514V244.188H540.908V245.294ZM544.324 248.08C544.324 247.483 544.156 247.016 543.82 246.68C543.493 246.335 543.087 246.162 542.602 246.162C542.126 246.162 541.72 246.335 541.384 246.68C541.057 247.025 540.894 247.497 540.894 248.094C540.894 248.691 541.057 249.163 541.384 249.508C541.72 249.853 542.126 250.026 542.602 250.026C543.078 250.026 543.484 249.853 543.82 249.508C544.156 249.153 544.324 248.677 544.324 248.08ZM555.379 247.968C555.379 248.192 555.365 248.425 555.337 248.668H549.919C549.957 249.153 550.111 249.527 550.381 249.788C550.661 250.04 551.002 250.166 551.403 250.166C552.001 250.166 552.416 249.914 552.649 249.41H555.197C555.067 249.923 554.829 250.385 554.483 250.796C554.147 251.207 553.723 251.529 553.209 251.762C552.696 251.995 552.122 252.112 551.487 252.112C550.722 252.112 550.041 251.949 549.443 251.622C548.846 251.295 548.379 250.829 548.043 250.222C547.707 249.615 547.539 248.906 547.539 248.094C547.539 247.282 547.703 246.573 548.029 245.966C548.365 245.359 548.832 244.893 549.429 244.566C550.027 244.239 550.713 244.076 551.487 244.076C552.243 244.076 552.915 244.235 553.503 244.552C554.091 244.869 554.549 245.322 554.875 245.91C555.211 246.498 555.379 247.184 555.379 247.968ZM552.929 247.338C552.929 246.927 552.789 246.601 552.509 246.358C552.229 246.115 551.879 245.994 551.459 245.994C551.058 245.994 550.717 246.111 550.437 246.344C550.167 246.577 549.999 246.909 549.933 247.338H552.929ZM559.036 241.64V252H556.642V241.64H559.036ZM564.327 252.112C563.562 252.112 562.871 251.949 562.255 251.622C561.649 251.295 561.168 250.829 560.813 250.222C560.468 249.615 560.295 248.906 560.295 248.094C560.295 247.291 560.473 246.587 560.827 245.98C561.182 245.364 561.667 244.893 562.283 244.566C562.899 244.239 563.59 244.076 564.355 244.076C565.121 244.076 565.811 244.239 566.427 244.566C567.043 244.893 567.529 245.364 567.883 245.98C568.238 246.587 568.415 247.291 568.415 248.094C568.415 248.897 568.233 249.606 567.869 250.222C567.515 250.829 567.025 251.295 566.399 251.622C565.783 251.949 565.093 252.112 564.327 252.112ZM564.327 250.04C564.785 250.04 565.172 249.872 565.489 249.536C565.816 249.2 565.979 248.719 565.979 248.094C565.979 247.469 565.821 246.988 565.503 246.652C565.195 246.316 564.813 246.148 564.355 246.148C563.889 246.148 563.501 246.316 563.193 246.652C562.885 246.979 562.731 247.459 562.731 248.094C562.731 248.719 562.881 249.2 563.179 249.536C563.487 249.872 563.87 250.04 564.327 250.04ZM572.863 252.112C572.182 252.112 571.575 251.995 571.043 251.762C570.511 251.529 570.091 251.211 569.783 250.81C569.475 250.399 569.303 249.942 569.265 249.438H571.631C571.659 249.709 571.785 249.928 572.009 250.096C572.233 250.264 572.509 250.348 572.835 250.348C573.134 250.348 573.363 250.292 573.521 250.18C573.689 250.059 573.773 249.905 573.773 249.718C573.773 249.494 573.657 249.331 573.423 249.228C573.19 249.116 572.812 248.995 572.289 248.864C571.729 248.733 571.263 248.598 570.889 248.458C570.516 248.309 570.194 248.08 569.923 247.772C569.653 247.455 569.517 247.03 569.517 246.498C569.517 246.05 569.639 245.644 569.881 245.28C570.133 244.907 570.497 244.613 570.973 244.398C571.459 244.183 572.033 244.076 572.695 244.076C573.675 244.076 574.445 244.319 575.005 244.804C575.575 245.289 575.901 245.933 575.985 246.736H573.773C573.736 246.465 573.615 246.251 573.409 246.092C573.213 245.933 572.952 245.854 572.625 245.854C572.345 245.854 572.131 245.91 571.981 246.022C571.832 246.125 571.757 246.269 571.757 246.456C571.757 246.68 571.874 246.848 572.107 246.96C572.35 247.072 572.723 247.184 573.227 247.296C573.806 247.445 574.277 247.595 574.641 247.744C575.005 247.884 575.323 248.117 575.593 248.444C575.873 248.761 576.018 249.191 576.027 249.732C576.027 250.189 575.897 250.6 575.635 250.964C575.383 251.319 575.015 251.599 574.529 251.804C574.053 252.009 573.498 252.112 572.863 252.112ZM579.983 248.08C579.983 247.277 580.132 246.573 580.431 245.966C580.739 245.359 581.154 244.893 581.677 244.566C582.199 244.239 582.783 244.076 583.427 244.076C583.977 244.076 584.458 244.188 584.869 244.412C585.289 244.636 585.611 244.93 585.835 245.294V244.188H588.229V252H585.835V250.894C585.601 251.258 585.275 251.552 584.855 251.776C584.444 252 583.963 252.112 583.413 252.112C582.778 252.112 582.199 251.949 581.677 251.622C581.154 251.286 580.739 250.815 580.431 250.208C580.132 249.592 579.983 248.883 579.983 248.08ZM585.835 248.094C585.835 247.497 585.667 247.025 585.331 246.68C585.004 246.335 584.603 246.162 584.127 246.162C583.651 246.162 583.245 246.335 582.909 246.68C582.582 247.016 582.419 247.483 582.419 248.08C582.419 248.677 582.582 249.153 582.909 249.508C583.245 249.853 583.651 250.026 584.127 250.026C584.603 250.026 585.004 249.853 585.331 249.508C585.667 249.163 585.835 248.691 585.835 248.094ZM592.355 241.64V252H589.961V241.64H592.355ZM601.804 244.188V252H599.41V250.936C599.167 251.281 598.836 251.561 598.416 251.776C598.005 251.981 597.548 252.084 597.044 252.084C596.446 252.084 595.919 251.953 595.462 251.692C595.004 251.421 594.65 251.034 594.398 250.53C594.146 250.026 594.02 249.433 594.02 248.752V244.188H596.4V248.43C596.4 248.953 596.535 249.359 596.806 249.648C597.076 249.937 597.44 250.082 597.898 250.082C598.364 250.082 598.733 249.937 599.004 249.648C599.274 249.359 599.41 248.953 599.41 248.43V244.188H601.804ZM608.283 244.104C609.198 244.104 609.926 244.403 610.467 245C611.018 245.588 611.293 246.4 611.293 247.436V252H608.913V247.758C608.913 247.235 608.778 246.829 608.507 246.54C608.237 246.251 607.873 246.106 607.415 246.106C606.958 246.106 606.594 246.251 606.323 246.54C606.053 246.829 605.917 247.235 605.917 247.758V252H603.523V244.188H605.917V245.224C606.16 244.879 606.487 244.608 606.897 244.412C607.308 244.207 607.77 244.104 608.283 244.104ZM616.513 252.112C615.748 252.112 615.057 251.949 614.441 251.622C613.834 251.295 613.354 250.829 612.999 250.222C612.654 249.615 612.481 248.906 612.481 248.094C612.481 247.291 612.658 246.587 613.013 245.98C613.368 245.364 613.853 244.893 614.469 244.566C615.085 244.239 615.776 244.076 616.541 244.076C617.306 244.076 617.997 244.239 618.613 244.566C619.229 244.893 619.714 245.364 620.069 245.98C620.424 246.587 620.601 247.291 620.601 248.094C620.601 248.897 620.419 249.606 620.055 250.222C619.7 250.829 619.21 251.295 618.585 251.622C617.969 251.949 617.278 252.112 616.513 252.112ZM616.513 250.04C616.97 250.04 617.358 249.872 617.675 249.536C618.002 249.2 618.165 248.719 618.165 248.094C618.165 247.469 618.006 246.988 617.689 246.652C617.381 246.316 616.998 246.148 616.541 246.148C616.074 246.148 615.687 246.316 615.379 246.652C615.071 246.979 614.917 247.459 614.917 248.094C614.917 248.719 615.066 249.2 615.365 249.536C615.673 249.872 616.056 250.04 616.513 250.04ZM625.049 252.112C624.368 252.112 623.761 251.995 623.229 251.762C622.697 251.529 622.277 251.211 621.969 250.81C621.661 250.399 621.488 249.942 621.451 249.438H623.817C623.845 249.709 623.971 249.928 624.195 250.096C624.419 250.264 624.694 250.348 625.021 250.348C625.32 250.348 625.548 250.292 625.707 250.18C625.875 250.059 625.959 249.905 625.959 249.718C625.959 249.494 625.842 249.331 625.609 249.228C625.376 249.116 624.998 248.995 624.475 248.864C623.915 248.733 623.448 248.598 623.075 248.458C622.702 248.309 622.38 248.08 622.109 247.772C621.838 247.455 621.703 247.03 621.703 246.498C621.703 246.05 621.824 245.644 622.067 245.28C622.319 244.907 622.683 244.613 623.159 244.398C623.644 244.183 624.218 244.076 624.881 244.076C625.861 244.076 626.631 244.319 627.191 244.804C627.76 245.289 628.087 245.933 628.171 246.736H625.959C625.922 246.465 625.8 246.251 625.595 246.092C625.399 245.933 625.138 245.854 624.811 245.854C624.531 245.854 624.316 245.91 624.167 246.022C624.018 246.125 623.943 246.269 623.943 246.456C623.943 246.68 624.06 246.848 624.293 246.96C624.536 247.072 624.909 247.184 625.413 247.296C625.992 247.445 626.463 247.595 626.827 247.744C627.191 247.884 627.508 248.117 627.779 248.444C628.059 248.761 628.204 249.191 628.213 249.732C628.213 250.189 628.082 250.6 627.821 250.964C627.569 251.319 627.2 251.599 626.715 251.804C626.239 252.009 625.684 252.112 625.049 252.112ZM630.798 252.112C630.378 252.112 630.032 251.991 629.762 251.748C629.5 251.496 629.37 251.188 629.37 250.824C629.37 250.451 629.5 250.138 629.762 249.886C630.032 249.634 630.378 249.508 630.798 249.508C631.208 249.508 631.544 249.634 631.806 249.886C632.076 250.138 632.212 250.451 632.212 250.824C632.212 251.188 632.076 251.496 631.806 251.748C631.544 251.991 631.208 252.112 630.798 252.112Z" fill="#F3E8FF"/>
<g filter="url(#filter0_d_36_139)">
<path d="M362 198.397C490.761 198.397 619.538 197.504 748.296 198.397C760.393 198.481 772.495 198.463 784.583 199.058C790.421 199.345 796.837 197.56 802.044 201.041C804.113 202.424 799.11 206.057 797.014 207.368C789.013 212.374 780.546 216.006 772.152 219.74C690.557 256.032 604.514 279.461 526.909 329.949C514.025 338.331 483.659 354.941 494.502 367.346C504.446 378.724 560.361 377.333 561.543 377.357C625.603 378.64 689.566 371.35 753.613 373.107C760.837 373.305 800.151 372.476 811.601 383.212C822.606 393.53 803.519 412.839 801.757 415.132C789.041 431.675 685.67 547.785 672.164 563" stroke="white" stroke-width="3" stroke-linecap="round"/>
</g>
</g>
<defs>
<filter id="filter0_d_36_139" x="358.5" y="196.5" width="460" height="374" filterUnits="userSpaceOnUse" color-interpolation-filters="sRGB">
<feFlood flood-opacity="0" result="BackgroundImageFix"/>
<feColorMatrix in="SourceAlpha" type="matrix" values="0 0 0 0 0 0 0 0 0 0 0 0 0 0 0 0 0 0 127 0" result="hardAlpha"/>
<feOffset dy="4"/>
<feGaussianBlur stdDeviation="1"/>
<feComposite in2="hardAlpha" operator="out"/>
<feColorMatrix type="matrix" values="0 0 0 0 0 0 0 0 0 0 0 0 0 0 0 0 0 0 0.28 0"/>
<feBlend mode="normal" in2="BackgroundImageFix" result="effect1_dropShadow_36_139"/>
<feBlend mode="normal" in="SourceGraphic" in2="effect1_dropShadow_36_139" result="shape"/>
</filter>
<radialGradient id="paint0_radial_36_139" cx="0" cy="0" r="1" gradientUnits="userSpaceOnUse" gradientTransform="translate(576 192) rotate(90) scale(448 1344)">
<stop/>
<stop offset="1" stop-color="#202020"/>
</radialGradient>
<clipPath id="clip0_36_139">
<rect width="1000" height="384" fill="white"/>
</clipPath>
<clipPath id="clip1_36_139">
<path d="M0 -3H119V382H0V-3Z" fill="white"/>
</clipPath>
</defs>
</svg>
