<svg width="1153" height="384" viewBox="0 0 1153 384" fill="none" xmlns="http://www.w3.org/2000/svg">
<g clip-path="url(#clip0_14_261)">
<rect width="1152" height="384" fill="url(#paint0_radial_14_261)"/>
<g opacity="0.12">
<line x1="212" y1="125.5" x2="1257" y2="125.5" stroke="white"/>
<line x1="96" y1="381.5" x2="1373" y2="381.5" stroke="white"/>
<line x1="212" y1="61.5" x2="1257" y2="61.5001" stroke="white"/>
<line x1="212" y1="317.5" x2="1257" y2="317.5" stroke="white"/>
<line x1="212" y1="253.5" x2="1257" y2="253.5" stroke="white"/>
<line x1="212" y1="189.5" x2="1257" y2="189.5" stroke="white"/>
<line x1="96.5001" y1="664" x2="96.5001" y2="-267" stroke="white"/>
<line x1="676.5" y1="446" x2="676.5" y2="189" stroke="white"/>
<line x1="1024.5" y1="446" x2="1024.5" y2="189" stroke="white"/>
<line x1="444.5" y1="446" x2="444.5" y2="189" stroke="white"/>
<line x1="328.5" y1="574" x2="328.5" y2="62.9999" stroke="white"/>
<line x1="212.5" y1="664" x2="212.5" y2="-99.0001" stroke="white"/>
<line x1="792.5" y1="446" x2="792.5" y2="189" stroke="white"/>
<line x1="1140.5" y1="574" x2="1140.5" y2="63" stroke="white"/>
<g clip-path="url(#clip1_14_261)">
<mask id="path-16-inside-1_14_261" fill="white">
<path d="M-22 -3H97V382H-22V-3Z"/>
</mask>
<line x1="-82.3501" y1="42.1236" x2="113.129" y2="-49.0299" stroke="white"/>
<line x1="-82.3501" y1="273.512" x2="113.129" y2="182.359" stroke="white"/>
<line x1="-82.3501" y1="157.818" x2="113.129" y2="66.6646" stroke="white"/>
<line x1="-82.3501" y1="389.207" x2="113.129" y2="298.053" stroke="white"/>
<line x1="-82.3501" y1="58.6513" x2="113.129" y2="-32.5021" stroke="white"/>
<line x1="-82.3501" y1="290.04" x2="113.129" y2="198.887" stroke="white"/>
<line x1="-82.3501" y1="174.346" x2="113.129" y2="83.1924" stroke="white"/>
<line x1="-82.3501" y1="405.735" x2="113.129" y2="314.581" stroke="white"/>
<line x1="-82.3501" y1="75.1791" x2="113.129" y2="-15.9744" stroke="white"/>
<line x1="-82.3501" y1="306.568" x2="113.129" y2="215.414" stroke="white"/>
<line x1="-82.3501" y1="190.874" x2="113.129" y2="99.7202" stroke="white"/>
<line x1="-82.3501" y1="422.262" x2="113.129" y2="331.109" stroke="white"/>
<line x1="-82.3501" y1="91.7069" x2="113.129" y2="0.553402" stroke="white"/>
<line x1="-82.3501" y1="323.096" x2="113.129" y2="231.942" stroke="white"/>
<line x1="-82.3501" y1="207.401" x2="113.129" y2="116.248" stroke="white"/>
<line x1="-82.3501" y1="438.79" x2="113.129" y2="347.637" stroke="white"/>
<line x1="-82.3501" y1="108.235" x2="113.129" y2="17.0812" stroke="white"/>
<line x1="-82.3501" y1="339.624" x2="113.129" y2="248.47" stroke="white"/>
<line x1="-82.3501" y1="223.929" x2="113.129" y2="132.776" stroke="white"/>
<line x1="-82.3501" y1="455.318" x2="113.129" y2="364.164" stroke="white"/>
<line x1="-82.3501" y1="124.763" x2="113.129" y2="33.6091" stroke="white"/>
<line x1="-82.3501" y1="356.151" x2="113.129" y2="264.998" stroke="white"/>
<line x1="-82.3501" y1="240.457" x2="113.129" y2="149.303" stroke="white"/>
<line x1="-82.3501" y1="471.846" x2="113.129" y2="380.692" stroke="white"/>
<line x1="-82.3501" y1="141.29" x2="113.129" y2="50.1368" stroke="white"/>
<line x1="-82.3501" y1="372.679" x2="113.129" y2="281.526" stroke="white"/>
<line x1="-82.3501" y1="256.985" x2="113.129" y2="165.831" stroke="white"/>
</g>
<path d="M-22 -2H97V-4H-22V-2ZM97 381H-22V383H97V381Z" fill="white" mask="url(#path-16-inside-1_14_261)"/>
</g>
<g filter="url(#filter0_d_14_261)">
<path d="M174.695 164H155.148V133.414H174.695V137.797H160V146.234H171.461V150.617H160V159.641H174.695V164ZM202.562 164H192.203V159.641H194.125L191.148 155.07L188.219 159.641H190V164H179.734V159.641H182.898L187.797 152.914L183.133 146.539H180.203V142.156H190.047V146.539H188.5L191.148 150.758L193.844 146.539H192.109V142.156H202.047V146.539H199.211L194.547 152.914L199.445 159.641H202.562V164ZM207.555 142.156H212.406V144.125C213.328 143.297 214.258 142.68 215.195 142.273C216.148 141.852 217.234 141.641 218.453 141.641C219.859 141.641 221.164 141.93 222.367 142.508C223.57 143.07 224.602 143.859 225.461 144.875C226.32 145.875 227 147.086 227.5 148.508C228 149.914 228.25 151.445 228.25 153.102C228.25 154.773 228 156.312 227.5 157.719C227 159.125 226.32 160.336 225.461 161.352C224.602 162.352 223.57 163.133 222.367 163.695C221.164 164.258 219.859 164.539 218.453 164.539C217.234 164.539 216.148 164.32 215.195 163.883C214.258 163.445 213.328 162.812 212.406 161.984V172.742H207.555V142.156ZM212.406 158.141C212.984 158.781 213.719 159.281 214.609 159.641C215.516 159.984 216.383 160.156 217.211 160.156C219.039 160.156 220.523 159.508 221.664 158.211C222.82 156.914 223.398 155.211 223.398 153.102C223.398 150.992 222.82 149.281 221.664 147.969C220.523 146.656 219.039 146 217.211 146C216.383 146 215.516 146.172 214.609 146.516C213.719 146.844 212.984 147.328 212.406 147.969V158.141ZM250.984 164H236.312V159.641H241.094V137.797H236.312V133.414H245.945V159.641H250.984V164ZM281.219 153.102C281.219 154.805 280.945 156.352 280.398 157.742C279.867 159.133 279.094 160.336 278.078 161.352C277.078 162.352 275.875 163.133 274.469 163.695C273.062 164.258 271.492 164.539 269.758 164.539C268.055 164.539 266.5 164.258 265.094 163.695C263.688 163.133 262.477 162.352 261.461 161.352C260.461 160.336 259.688 159.133 259.141 157.742C258.609 156.352 258.344 154.805 258.344 153.102C258.344 151.445 258.609 149.914 259.141 148.508C259.688 147.086 260.461 145.867 261.461 144.852C262.477 143.82 263.688 143.031 265.094 142.484C266.5 141.922 268.055 141.641 269.758 141.641C271.492 141.641 273.062 141.922 274.469 142.484C275.875 143.031 277.078 143.82 278.078 144.852C279.094 145.867 279.867 147.086 280.398 148.508C280.945 149.914 281.219 151.445 281.219 153.102ZM276.391 153.102C276.391 152.117 276.234 151.188 275.922 150.312C275.625 149.422 275.188 148.664 274.609 148.039C274.031 147.414 273.328 146.922 272.5 146.562C271.688 146.188 270.773 146 269.758 146C268.727 146 267.805 146.188 266.992 146.562C266.18 146.922 265.492 147.414 264.93 148.039C264.367 148.664 263.93 149.422 263.617 150.312C263.32 151.188 263.172 152.117 263.172 153.102C263.172 154.133 263.32 155.07 263.617 155.914C263.93 156.758 264.367 157.5 264.93 158.141C265.492 158.781 266.18 159.281 266.992 159.641C267.805 159.984 268.727 160.156 269.758 160.156C270.773 160.156 271.688 159.984 272.5 159.641C273.328 159.281 274.031 158.781 274.609 158.141C275.188 157.5 275.625 156.758 275.922 155.914C276.234 155.07 276.391 154.133 276.391 153.102ZM306.32 147.336C305.742 147.055 305.148 146.844 304.539 146.703C303.945 146.547 303.258 146.469 302.477 146.469C301.398 146.469 300.383 146.633 299.43 146.961C298.492 147.273 297.68 147.75 296.992 148.391C296.305 149.031 295.766 149.836 295.375 150.805C295 151.758 294.812 152.891 294.812 154.203V159.641H299.711V164H285.016V159.641H289.961V146.539H285.016V142.156H294.812V147.641C295.609 145.453 296.781 143.906 298.328 143C299.891 142.094 301.742 141.641 303.883 141.641C304.555 141.641 305.258 141.711 305.992 141.852C306.727 141.992 307.445 142.242 308.148 142.602L306.32 147.336ZM315.672 154.93C315.906 156.43 316.617 157.68 317.805 158.68C319.008 159.664 320.617 160.156 322.633 160.156C324.211 160.156 325.578 159.914 326.734 159.43C327.906 158.93 328.914 158.273 329.758 157.461L332.242 160.883C330.836 162.289 329.344 163.25 327.766 163.766C326.203 164.281 324.492 164.539 322.633 164.539C320.945 164.539 319.375 164.258 317.922 163.695C316.469 163.133 315.211 162.352 314.148 161.352C313.086 160.336 312.25 159.133 311.641 157.742C311.047 156.352 310.75 154.805 310.75 153.102C310.75 151.445 311.023 149.922 311.57 148.531C312.133 147.125 312.914 145.914 313.914 144.898C314.93 143.867 316.141 143.07 317.547 142.508C318.953 141.93 320.508 141.641 322.211 141.641C323.977 141.641 325.578 141.945 327.016 142.555C328.453 143.148 329.68 144.016 330.695 145.156C331.727 146.297 332.531 147.695 333.109 149.352C333.688 150.992 333.977 152.852 333.977 154.93H315.672ZM328.492 150.664C328.242 149.258 327.516 148.133 326.312 147.289C325.109 146.43 323.742 146 322.211 146C320.68 146 319.305 146.43 318.086 147.289C316.867 148.133 316.133 149.258 315.883 150.664H328.492ZM386.031 153.102C386.031 154.805 385.758 156.352 385.211 157.742C384.68 159.133 383.906 160.336 382.891 161.352C381.891 162.352 380.688 163.133 379.281 163.695C377.875 164.258 376.305 164.539 374.57 164.539C372.867 164.539 371.312 164.258 369.906 163.695C368.5 163.133 367.289 162.352 366.273 161.352C365.273 160.336 364.5 159.133 363.953 157.742C363.422 156.352 363.156 154.805 363.156 153.102C363.156 151.445 363.422 149.914 363.953 148.508C364.5 147.086 365.273 145.867 366.273 144.852C367.289 143.82 368.5 143.031 369.906 142.484C371.312 141.922 372.867 141.641 374.57 141.641C376.305 141.641 377.875 141.922 379.281 142.484C380.688 143.031 381.891 143.82 382.891 144.852C383.906 145.867 384.68 147.086 385.211 148.508C385.758 149.914 386.031 151.445 386.031 153.102ZM381.203 153.102C381.203 152.117 381.047 151.188 380.734 150.312C380.438 149.422 380 148.664 379.422 148.039C378.844 147.414 378.141 146.922 377.312 146.562C376.5 146.188 375.586 146 374.57 146C373.539 146 372.617 146.188 371.805 146.562C370.992 146.922 370.305 147.414 369.742 148.039C369.18 148.664 368.742 149.422 368.43 150.312C368.133 151.188 367.984 152.117 367.984 153.102C367.984 154.133 368.133 155.07 368.43 155.914C368.742 156.758 369.18 157.5 369.742 158.141C370.305 158.781 370.992 159.281 371.805 159.641C372.617 159.984 373.539 160.156 374.57 160.156C375.586 160.156 376.5 159.984 377.312 159.641C378.141 159.281 378.844 158.781 379.422 158.141C380 157.5 380.438 156.758 380.734 155.914C381.047 155.07 381.203 154.133 381.203 153.102ZM411.086 157.461C411.086 158.883 410.766 160.039 410.125 160.93C409.484 161.82 408.656 162.539 407.641 163.086C406.641 163.633 405.516 164.008 404.266 164.211C403.031 164.43 401.82 164.539 400.633 164.539C398.648 164.539 396.672 164.25 394.703 163.672C392.734 163.094 391.031 162.336 389.594 161.398L391.609 157.414C393.328 158.414 394.898 159.125 396.32 159.547C397.758 159.953 399.195 160.156 400.633 160.156C402.586 160.156 404.008 159.953 404.898 159.547C405.789 159.125 406.234 158.547 406.234 157.812C406.234 157.453 406.109 157.156 405.859 156.922C405.609 156.688 405.195 156.477 404.617 156.289C404.039 156.086 403.273 155.891 402.32 155.703C401.383 155.5 400.211 155.289 398.805 155.07C397.68 154.883 396.609 154.656 395.594 154.391C394.594 154.109 393.711 153.719 392.945 153.219C392.18 152.719 391.562 152.086 391.094 151.32C390.641 150.555 390.414 149.594 390.414 148.438C390.414 147.266 390.711 146.25 391.305 145.391C391.914 144.516 392.703 143.797 393.672 143.234C394.656 142.672 395.758 142.266 396.977 142.016C398.195 141.766 399.414 141.641 400.633 141.641C402.352 141.641 404.016 141.867 405.625 142.32C407.25 142.758 408.672 143.391 409.891 144.219L407.969 147.969C406.75 147.203 405.562 146.688 404.406 146.422C403.266 146.141 402.008 146 400.633 146C400.055 146 399.453 146.031 398.828 146.094C398.203 146.156 397.625 146.281 397.094 146.469C396.562 146.641 396.117 146.883 395.758 147.195C395.414 147.492 395.242 147.859 395.242 148.297C395.242 148.875 395.75 149.352 396.766 149.727C397.797 150.086 399.547 150.445 402.016 150.805C403.359 150.992 404.586 151.234 405.695 151.531C406.805 151.812 407.758 152.203 408.555 152.703C409.352 153.188 409.969 153.82 410.406 154.602C410.859 155.367 411.086 156.32 411.086 157.461ZM464.078 142.555C464.078 145.617 463.148 147.898 461.289 149.398C459.43 150.883 456.836 151.625 453.508 151.625H448.234V164H443.383V133.414H453.461C456.82 133.414 459.43 134.188 461.289 135.734C463.148 137.266 464.078 139.539 464.078 142.555ZM459.227 142.484C459.227 140.922 458.711 139.75 457.68 138.969C456.664 138.188 455.273 137.797 453.508 137.797H448.234V147.242H453.508C455.273 147.242 456.664 146.852 457.68 146.07C458.711 145.289 459.227 144.094 459.227 142.484ZM489.742 147.336C489.164 147.055 488.57 146.844 487.961 146.703C487.367 146.547 486.68 146.469 485.898 146.469C484.82 146.469 483.805 146.633 482.852 146.961C481.914 147.273 481.102 147.75 480.414 148.391C479.727 149.031 479.188 149.836 478.797 150.805C478.422 151.758 478.234 152.891 478.234 154.203V159.641H483.133V164H468.438V159.641H473.383V146.539H468.438V142.156H478.234V147.641C479.031 145.453 480.203 143.906 481.75 143C483.312 142.094 485.164 141.641 487.305 141.641C487.977 141.641 488.68 141.711 489.414 141.852C490.148 141.992 490.867 142.242 491.57 142.602L489.742 147.336ZM517.047 153.102C517.047 154.805 516.773 156.352 516.227 157.742C515.695 159.133 514.922 160.336 513.906 161.352C512.906 162.352 511.703 163.133 510.297 163.695C508.891 164.258 507.32 164.539 505.586 164.539C503.883 164.539 502.328 164.258 500.922 163.695C499.516 163.133 498.305 162.352 497.289 161.352C496.289 160.336 495.516 159.133 494.969 157.742C494.438 156.352 494.172 154.805 494.172 153.102C494.172 151.445 494.438 149.914 494.969 148.508C495.516 147.086 496.289 145.867 497.289 144.852C498.305 143.82 499.516 143.031 500.922 142.484C502.328 141.922 503.883 141.641 505.586 141.641C507.32 141.641 508.891 141.922 510.297 142.484C511.703 143.031 512.906 143.82 513.906 144.852C514.922 145.867 515.695 147.086 516.227 148.508C516.773 149.914 517.047 151.445 517.047 153.102ZM512.219 153.102C512.219 152.117 512.062 151.188 511.75 150.312C511.453 149.422 511.016 148.664 510.438 148.039C509.859 147.414 509.156 146.922 508.328 146.562C507.516 146.188 506.602 146 505.586 146C504.555 146 503.633 146.188 502.82 146.562C502.008 146.922 501.32 147.414 500.758 148.039C500.195 148.664 499.758 149.422 499.445 150.312C499.148 151.188 499 152.117 499 153.102C499 154.133 499.148 155.07 499.445 155.914C499.758 156.758 500.195 157.5 500.758 158.141C501.32 158.781 502.008 159.281 502.82 159.641C503.633 159.984 504.555 160.156 505.586 160.156C506.602 160.156 507.516 159.984 508.328 159.641C509.156 159.281 509.859 158.781 510.438 158.141C511.016 157.5 511.453 156.758 511.75 155.914C512.062 155.07 512.219 154.133 512.219 153.102ZM528.906 173.258C525.578 173.258 522.891 172.016 520.844 169.531L523.727 166.297C524.461 167.172 525.242 167.82 526.07 168.242C526.898 168.68 527.844 168.898 528.906 168.898C530.547 168.898 531.758 168.445 532.539 167.539C533.32 166.648 533.711 165.469 533.711 164V146.539H528.766V142.156H538.562V164C538.562 165.406 538.328 166.68 537.859 167.82C537.391 168.961 536.734 169.938 535.891 170.75C535.047 171.562 534.031 172.18 532.844 172.602C531.656 173.039 530.344 173.258 528.906 173.258ZM539.078 139.32H533.172V133.414H539.078V139.32ZM551.5 154.93C551.734 156.43 552.445 157.68 553.633 158.68C554.836 159.664 556.445 160.156 558.461 160.156C560.039 160.156 561.406 159.914 562.562 159.43C563.734 158.93 564.742 158.273 565.586 157.461L568.07 160.883C566.664 162.289 565.172 163.25 563.594 163.766C562.031 164.281 560.32 164.539 558.461 164.539C556.773 164.539 555.203 164.258 553.75 163.695C552.297 163.133 551.039 162.352 549.977 161.352C548.914 160.336 548.078 159.133 547.469 157.742C546.875 156.352 546.578 154.805 546.578 153.102C546.578 151.445 546.852 149.922 547.398 148.531C547.961 147.125 548.742 145.914 549.742 144.898C550.758 143.867 551.969 143.07 553.375 142.508C554.781 141.93 556.336 141.641 558.039 141.641C559.805 141.641 561.406 141.945 562.844 142.555C564.281 143.148 565.508 144.016 566.523 145.156C567.555 146.297 568.359 147.695 568.938 149.352C569.516 150.992 569.805 152.852 569.805 154.93H551.5ZM564.32 150.664C564.07 149.258 563.344 148.133 562.141 147.289C560.938 146.43 559.57 146 558.039 146C556.508 146 555.133 146.43 553.914 147.289C552.695 148.133 551.961 149.258 551.711 150.664H564.32ZM595.328 157.039C595.078 159.336 594.172 161.164 592.609 162.523C591.062 163.867 589.125 164.539 586.797 164.539C585.516 164.539 584.344 164.328 583.281 163.906C582.219 163.484 581.312 162.898 580.562 162.148C579.812 161.398 579.227 160.5 578.805 159.453C578.398 158.391 578.195 157.234 578.195 155.984V146.539H573.25V142.156H578.195V133.414H583.047V142.156H592.211V146.539H583.047V155.984C583.047 157.391 583.391 158.438 584.078 159.125C584.766 159.812 585.672 160.156 586.797 160.156C588.172 160.156 589.195 159.758 589.867 158.961C590.539 158.164 590.938 157.203 591.062 156.078L595.328 157.039ZM621.859 153.102C621.859 154.805 621.586 156.352 621.039 157.742C620.508 159.133 619.734 160.336 618.719 161.352C617.719 162.352 616.516 163.133 615.109 163.695C613.703 164.258 612.133 164.539 610.398 164.539C608.695 164.539 607.141 164.258 605.734 163.695C604.328 163.133 603.117 162.352 602.102 161.352C601.102 160.336 600.328 159.133 599.781 157.742C599.25 156.352 598.984 154.805 598.984 153.102C598.984 151.445 599.25 149.914 599.781 148.508C600.328 147.086 601.102 145.867 602.102 144.852C603.117 143.82 604.328 143.031 605.734 142.484C607.141 141.922 608.695 141.641 610.398 141.641C612.133 141.641 613.703 141.922 615.109 142.484C616.516 143.031 617.719 143.82 618.719 144.852C619.734 145.867 620.508 147.086 621.039 148.508C621.586 149.914 621.859 151.445 621.859 153.102ZM617.031 153.102C617.031 152.117 616.875 151.188 616.562 150.312C616.266 149.422 615.828 148.664 615.25 148.039C614.672 147.414 613.969 146.922 613.141 146.562C612.328 146.188 611.414 146 610.398 146C609.367 146 608.445 146.188 607.633 146.562C606.82 146.922 606.133 147.414 605.57 148.039C605.008 148.664 604.57 149.422 604.258 150.312C603.961 151.188 603.812 152.117 603.812 153.102C603.812 154.133 603.961 155.07 604.258 155.914C604.57 156.758 605.008 157.5 605.57 158.141C606.133 158.781 606.82 159.281 607.633 159.641C608.445 159.984 609.367 160.156 610.398 160.156C611.414 160.156 612.328 159.984 613.141 159.641C613.969 159.281 614.672 158.781 615.25 158.141C615.828 157.5 616.266 156.758 616.562 155.914C616.875 155.07 617.031 154.133 617.031 153.102ZM646.914 157.461C646.914 158.883 646.594 160.039 645.953 160.93C645.312 161.82 644.484 162.539 643.469 163.086C642.469 163.633 641.344 164.008 640.094 164.211C638.859 164.43 637.648 164.539 636.461 164.539C634.477 164.539 632.5 164.25 630.531 163.672C628.562 163.094 626.859 162.336 625.422 161.398L627.438 157.414C629.156 158.414 630.727 159.125 632.148 159.547C633.586 159.953 635.023 160.156 636.461 160.156C638.414 160.156 639.836 159.953 640.727 159.547C641.617 159.125 642.062 158.547 642.062 157.812C642.062 157.453 641.938 157.156 641.688 156.922C641.438 156.688 641.023 156.477 640.445 156.289C639.867 156.086 639.102 155.891 638.148 155.703C637.211 155.5 636.039 155.289 634.633 155.07C633.508 154.883 632.438 154.656 631.422 154.391C630.422 154.109 629.539 153.719 628.773 153.219C628.008 152.719 627.391 152.086 626.922 151.32C626.469 150.555 626.242 149.594 626.242 148.438C626.242 147.266 626.539 146.25 627.133 145.391C627.742 144.516 628.531 143.797 629.5 143.234C630.484 142.672 631.586 142.266 632.805 142.016C634.023 141.766 635.242 141.641 636.461 141.641C638.18 141.641 639.844 141.867 641.453 142.32C643.078 142.758 644.5 143.391 645.719 144.219L643.797 147.969C642.578 147.203 641.391 146.688 640.234 146.422C639.094 146.141 637.836 146 636.461 146C635.883 146 635.281 146.031 634.656 146.094C634.031 146.156 633.453 146.281 632.922 146.469C632.391 146.641 631.945 146.883 631.586 147.195C631.242 147.492 631.07 147.859 631.07 148.297C631.07 148.875 631.578 149.352 632.594 149.727C633.625 150.086 635.375 150.445 637.844 150.805C639.188 150.992 640.414 151.234 641.523 151.531C642.633 151.812 643.586 152.203 644.383 152.703C645.18 153.188 645.797 153.82 646.234 154.602C646.688 155.367 646.914 156.32 646.914 157.461ZM699.133 155.609C699.133 157.016 698.891 158.273 698.406 159.383C697.938 160.477 697.289 161.406 696.461 162.172C695.648 162.938 694.672 163.523 693.531 163.93C692.406 164.336 691.203 164.539 689.922 164.539C688.484 164.539 687.188 164.281 686.031 163.766C684.875 163.25 683.883 162.398 683.055 161.211V164H678.695V154.016H683.055C683.055 155.016 683.227 155.898 683.57 156.664C683.93 157.43 684.398 158.078 684.977 158.609C685.555 159.125 686.227 159.523 686.992 159.805C687.758 160.07 688.57 160.203 689.43 160.203C690.883 160.203 692.055 159.867 692.945 159.195C693.836 158.523 694.281 157.453 694.281 155.984C694.281 155.219 694.141 154.562 693.859 154.016C693.594 153.469 693.203 152.984 692.688 152.562C692.188 152.125 691.57 151.75 690.836 151.438C690.102 151.109 689.266 150.766 688.328 150.406C687.219 150.031 686.109 149.609 685 149.141C683.891 148.672 682.898 148.094 682.023 147.406C681.148 146.719 680.438 145.875 679.891 144.875C679.344 143.859 679.07 142.586 679.07 141.055C679.07 139.711 679.312 138.539 679.797 137.539C680.297 136.523 680.953 135.672 681.766 134.984C682.594 134.297 683.547 133.781 684.625 133.438C685.719 133.078 686.875 132.898 688.094 132.898C689.5 132.898 690.703 133.195 691.703 133.789C692.719 134.383 693.5 135.172 694.047 136.156V133.414H698.406V142.93H694.047C694.047 141.133 693.57 139.734 692.617 138.734C691.68 137.719 690.414 137.211 688.82 137.211C687.414 137.211 686.242 137.539 685.305 138.195C684.383 138.852 683.922 139.773 683.922 140.961C683.922 141.57 684.039 142.094 684.273 142.531C684.523 142.953 684.875 143.344 685.328 143.703C685.797 144.047 686.383 144.375 687.086 144.688C687.789 144.984 688.602 145.312 689.523 145.672C690.68 146.078 691.828 146.539 692.969 147.055C694.109 147.57 695.133 148.203 696.039 148.953C696.945 149.703 697.688 150.617 698.266 151.695C698.844 152.758 699.133 154.062 699.133 155.609ZM705.414 142.156H710.266V155.656C710.266 157.344 710.586 158.516 711.227 159.172C711.867 159.828 712.797 160.156 714.016 160.156C715.797 160.156 717.258 159.43 718.398 157.977C719.539 156.523 720.109 154.516 720.109 151.953V142.156H724.961V164H720.109V158.539C719.625 160.414 718.727 161.883 717.414 162.945C716.102 164.008 714.484 164.539 712.562 164.539C710.328 164.539 708.578 163.812 707.312 162.359C706.047 160.891 705.414 158.656 705.414 155.656V142.156ZM751.727 157.461C751.727 158.883 751.406 160.039 750.766 160.93C750.125 161.82 749.297 162.539 748.281 163.086C747.281 163.633 746.156 164.008 744.906 164.211C743.672 164.43 742.461 164.539 741.273 164.539C739.289 164.539 737.312 164.25 735.344 163.672C733.375 163.094 731.672 162.336 730.234 161.398L732.25 157.414C733.969 158.414 735.539 159.125 736.961 159.547C738.398 159.953 739.836 160.156 741.273 160.156C743.227 160.156 744.648 159.953 745.539 159.547C746.43 159.125 746.875 158.547 746.875 157.812C746.875 157.453 746.75 157.156 746.5 156.922C746.25 156.688 745.836 156.477 745.258 156.289C744.68 156.086 743.914 155.891 742.961 155.703C742.023 155.5 740.852 155.289 739.445 155.07C738.32 154.883 737.25 154.656 736.234 154.391C735.234 154.109 734.352 153.719 733.586 153.219C732.82 152.719 732.203 152.086 731.734 151.32C731.281 150.555 731.055 149.594 731.055 148.438C731.055 147.266 731.352 146.25 731.945 145.391C732.555 144.516 733.344 143.797 734.312 143.234C735.297 142.672 736.398 142.266 737.617 142.016C738.836 141.766 740.055 141.641 741.273 141.641C742.992 141.641 744.656 141.867 746.266 142.32C747.891 142.758 749.312 143.391 750.531 144.219L748.609 147.969C747.391 147.203 746.203 146.688 745.047 146.422C743.906 146.141 742.648 146 741.273 146C740.695 146 740.094 146.031 739.469 146.094C738.844 146.156 738.266 146.281 737.734 146.469C737.203 146.641 736.758 146.883 736.398 147.195C736.055 147.492 735.883 147.859 735.883 148.297C735.883 148.875 736.391 149.352 737.406 149.727C738.438 150.086 740.188 150.445 742.656 150.805C744 150.992 745.227 151.234 746.336 151.531C747.445 151.812 748.398 152.203 749.195 152.703C749.992 153.188 750.609 153.82 751.047 154.602C751.5 155.367 751.727 156.32 751.727 157.461ZM778.75 157.039C778.5 159.336 777.594 161.164 776.031 162.523C774.484 163.867 772.547 164.539 770.219 164.539C768.938 164.539 767.766 164.328 766.703 163.906C765.641 163.484 764.734 162.898 763.984 162.148C763.234 161.398 762.648 160.5 762.227 159.453C761.82 158.391 761.617 157.234 761.617 155.984V146.539H756.672V142.156H761.617V133.414H766.469V142.156H775.633V146.539H766.469V155.984C766.469 157.391 766.812 158.438 767.5 159.125C768.188 159.812 769.094 160.156 770.219 160.156C771.594 160.156 772.617 159.758 773.289 158.961C773.961 158.164 774.359 157.203 774.484 156.078L778.75 157.039ZM787.328 154.93C787.562 156.43 788.273 157.68 789.461 158.68C790.664 159.664 792.273 160.156 794.289 160.156C795.867 160.156 797.234 159.914 798.391 159.43C799.562 158.93 800.57 158.273 801.414 157.461L803.898 160.883C802.492 162.289 801 163.25 799.422 163.766C797.859 164.281 796.148 164.539 794.289 164.539C792.602 164.539 791.031 164.258 789.578 163.695C788.125 163.133 786.867 162.352 785.805 161.352C784.742 160.336 783.906 159.133 783.297 157.742C782.703 156.352 782.406 154.805 782.406 153.102C782.406 151.445 782.68 149.922 783.227 148.531C783.789 147.125 784.57 145.914 785.57 144.898C786.586 143.867 787.797 143.07 789.203 142.508C790.609 141.93 792.164 141.641 793.867 141.641C795.633 141.641 797.234 141.945 798.672 142.555C800.109 143.148 801.336 144.016 802.352 145.156C803.383 146.297 804.188 147.695 804.766 149.352C805.344 150.992 805.633 152.852 805.633 154.93H787.328ZM800.148 150.664C799.898 149.258 799.172 148.133 797.969 147.289C796.766 146.43 795.398 146 793.867 146C792.336 146 790.961 146.43 789.742 147.289C788.523 148.133 787.789 149.258 787.539 150.664H800.148ZM829.773 164H824.922V150.523C824.922 148.82 824.602 147.641 823.961 146.984C823.32 146.328 822.391 146 821.172 146C819.375 146 817.906 146.727 816.766 148.18C815.641 149.633 815.078 151.641 815.078 154.203V164H810.227V142.156H815.078V147.641C815.562 145.75 816.461 144.281 817.773 143.234C819.086 142.172 820.703 141.641 822.625 141.641C824.859 141.641 826.609 142.367 827.875 143.82C829.141 145.273 829.773 147.508 829.773 150.523V164ZM857.359 157.039C857.109 159.336 856.203 161.164 854.641 162.523C853.094 163.867 851.156 164.539 848.828 164.539C847.547 164.539 846.375 164.328 845.312 163.906C844.25 163.484 843.344 162.898 842.594 162.148C841.844 161.398 841.258 160.5 840.836 159.453C840.43 158.391 840.227 157.234 840.227 155.984V146.539H835.281V142.156H840.227V133.414H845.078V142.156H854.242V146.539H845.078V155.984C845.078 157.391 845.422 158.438 846.109 159.125C846.797 159.812 847.703 160.156 848.828 160.156C850.203 160.156 851.227 159.758 851.898 158.961C852.57 158.164 852.969 157.203 853.094 156.078L857.359 157.039ZM861.391 157.719C861.391 156.438 861.734 155.32 862.422 154.367C863.109 153.398 864.008 152.594 865.117 151.953C866.242 151.312 867.523 150.836 868.961 150.523C870.414 150.195 871.891 150.031 873.391 150.031C874.219 150.031 874.93 150.047 875.523 150.078C876.117 150.109 876.719 150.156 877.328 150.219V149.352C877.328 148.211 876.883 147.359 875.992 146.797C875.117 146.234 873.961 145.953 872.523 145.953C871.211 145.953 869.875 146.141 868.516 146.516C867.156 146.875 865.867 147.406 864.648 148.109L862.68 144.312C864.117 143.484 865.656 142.836 867.297 142.367C868.953 141.883 870.695 141.641 872.523 141.641C873.711 141.641 874.875 141.773 876.016 142.039C877.172 142.305 878.203 142.742 879.109 143.352C880.031 143.961 880.766 144.758 881.312 145.742C881.859 146.711 882.133 147.914 882.133 149.352V164H877.328V160.789C876.562 161.977 875.43 162.898 873.93 163.555C872.445 164.211 870.844 164.539 869.125 164.539C868.062 164.539 867.055 164.391 866.102 164.094C865.164 163.812 864.352 163.383 863.664 162.805C862.977 162.227 862.422 161.516 862 160.672C861.594 159.812 861.391 158.828 861.391 157.719ZM870.367 160.203C871.32 160.203 872.211 160.086 873.039 159.852C873.883 159.602 874.625 159.266 875.266 158.844C875.906 158.406 876.406 157.883 876.766 157.273C877.141 156.664 877.328 155.992 877.328 155.258V154.438C876.562 154.312 875.844 154.242 875.172 154.227C874.5 154.211 873.906 154.203 873.391 154.203C871.016 154.203 869.219 154.516 868 155.141C866.797 155.766 866.195 156.539 866.195 157.461C866.195 159.289 867.586 160.203 870.367 160.203ZM878.148 135.289L868.023 141.008L865.938 137.797L875.406 131.07L878.148 135.289ZM909.531 142.156L901.469 164H895.75L887.688 142.156H892.867L898.633 158.68L904.352 142.156H909.531ZM918.344 154.93C918.578 156.43 919.289 157.68 920.477 158.68C921.68 159.664 923.289 160.156 925.305 160.156C926.883 160.156 928.25 159.914 929.406 159.43C930.578 158.93 931.586 158.273 932.43 157.461L934.914 160.883C933.508 162.289 932.016 163.25 930.438 163.766C928.875 164.281 927.164 164.539 925.305 164.539C923.617 164.539 922.047 164.258 920.594 163.695C919.141 163.133 917.883 162.352 916.82 161.352C915.758 160.336 914.922 159.133 914.312 157.742C913.719 156.352 913.422 154.805 913.422 153.102C913.422 151.445 913.695 149.922 914.242 148.531C914.805 147.125 915.586 145.914 916.586 144.898C917.602 143.867 918.812 143.07 920.219 142.508C921.625 141.93 923.18 141.641 924.883 141.641C926.648 141.641 928.25 141.945 929.688 142.555C931.125 143.148 932.352 144.016 933.367 145.156C934.398 146.297 935.203 147.695 935.781 149.352C936.359 150.992 936.648 152.852 936.648 154.93H918.344ZM931.164 150.664C930.914 149.258 930.188 148.133 928.984 147.289C927.781 146.43 926.414 146 924.883 146C923.352 146 921.977 146.43 920.758 147.289C919.539 148.133 918.805 149.258 918.555 150.664H931.164ZM953.969 139.32H948.062V133.414H953.969V139.32ZM958.422 164H943.75V159.641H948.578V146.539H943.75V142.156H953.43V159.641H958.422V164ZM987.555 157.461C987.555 158.883 987.234 160.039 986.594 160.93C985.953 161.82 985.125 162.539 984.109 163.086C983.109 163.633 981.984 164.008 980.734 164.211C979.5 164.43 978.289 164.539 977.102 164.539C975.117 164.539 973.141 164.25 971.172 163.672C969.203 163.094 967.5 162.336 966.062 161.398L968.078 157.414C969.797 158.414 971.367 159.125 972.789 159.547C974.227 159.953 975.664 160.156 977.102 160.156C979.055 160.156 980.477 159.953 981.367 159.547C982.258 159.125 982.703 158.547 982.703 157.812C982.703 157.453 982.578 157.156 982.328 156.922C982.078 156.688 981.664 156.477 981.086 156.289C980.508 156.086 979.742 155.891 978.789 155.703C977.852 155.5 976.68 155.289 975.273 155.07C974.148 154.883 973.078 154.656 972.062 154.391C971.062 154.109 970.18 153.719 969.414 153.219C968.648 152.719 968.031 152.086 967.562 151.32C967.109 150.555 966.883 149.594 966.883 148.438C966.883 147.266 967.18 146.25 967.773 145.391C968.383 144.516 969.172 143.797 970.141 143.234C971.125 142.672 972.227 142.266 973.445 142.016C974.664 141.766 975.883 141.641 977.102 141.641C978.82 141.641 980.484 141.867 982.094 142.32C983.719 142.758 985.141 143.391 986.359 144.219L984.438 147.969C983.219 147.203 982.031 146.688 980.875 146.422C979.734 146.141 978.477 146 977.102 146C976.523 146 975.922 146.031 975.297 146.094C974.672 146.156 974.094 146.281 973.562 146.469C973.031 146.641 972.586 146.883 972.227 147.195C971.883 147.492 971.711 147.859 971.711 148.297C971.711 148.875 972.219 149.352 973.234 149.727C974.266 150.086 976.016 150.445 978.484 150.805C979.828 150.992 981.055 151.234 982.164 151.531C983.273 151.812 984.227 152.203 985.023 152.703C985.82 153.188 986.438 153.82 986.875 154.602C987.328 155.367 987.555 156.32 987.555 157.461Z" fill="#FAF5FF"/>
<path d="M257.562 224H254.75L250.215 212.914V224H247.789V208.707H250.836L255.137 219.242V208.707H257.562V224ZM260.27 220.859C260.27 220.219 260.441 219.66 260.785 219.184C261.129 218.699 261.578 218.297 262.133 217.977C262.695 217.656 263.336 217.418 264.055 217.262C264.781 217.098 265.52 217.016 266.27 217.016C266.684 217.016 267.039 217.023 267.336 217.039C267.633 217.055 267.934 217.078 268.238 217.109V216.676C268.238 216.105 268.016 215.68 267.57 215.398C267.133 215.117 266.555 214.977 265.836 214.977C265.18 214.977 264.512 215.07 263.832 215.258C263.152 215.438 262.508 215.703 261.898 216.055L260.914 214.156C261.633 213.742 262.402 213.418 263.223 213.184C264.051 212.941 264.922 212.82 265.836 212.82C266.43 212.82 267.012 212.887 267.582 213.02C268.16 213.152 268.676 213.371 269.129 213.676C269.59 213.98 269.957 214.379 270.23 214.871C270.504 215.355 270.641 215.957 270.641 216.676V224H268.238V222.395C267.855 222.988 267.289 223.449 266.539 223.777C265.797 224.105 264.996 224.27 264.137 224.27C263.605 224.27 263.102 224.195 262.625 224.047C262.156 223.906 261.75 223.691 261.406 223.402C261.062 223.113 260.785 222.758 260.574 222.336C260.371 221.906 260.27 221.414 260.27 220.859ZM264.758 222.102C265.234 222.102 265.68 222.043 266.094 221.926C266.516 221.801 266.887 221.633 267.207 221.422C267.527 221.203 267.777 220.941 267.957 220.637C268.145 220.332 268.238 219.996 268.238 219.629V219.219C267.855 219.156 267.496 219.121 267.16 219.113C266.824 219.105 266.527 219.102 266.27 219.102C265.082 219.102 264.184 219.258 263.574 219.57C262.973 219.883 262.672 220.27 262.672 220.73C262.672 221.645 263.367 222.102 264.758 222.102ZM284.34 213.078L280.309 224H277.449L273.418 213.078H276.008L278.891 221.34L281.75 213.078H284.34ZM288.746 219.465C288.863 220.215 289.219 220.84 289.812 221.34C290.414 221.832 291.219 222.078 292.227 222.078C293.016 222.078 293.699 221.957 294.277 221.715C294.863 221.465 295.367 221.137 295.789 220.73L297.031 222.441C296.328 223.145 295.582 223.625 294.793 223.883C294.012 224.141 293.156 224.27 292.227 224.27C291.383 224.27 290.598 224.129 289.871 223.848C289.145 223.566 288.516 223.176 287.984 222.676C287.453 222.168 287.035 221.566 286.73 220.871C286.434 220.176 286.285 219.402 286.285 218.551C286.285 217.723 286.422 216.961 286.695 216.266C286.977 215.562 287.367 214.957 287.867 214.449C288.375 213.934 288.98 213.535 289.684 213.254C290.387 212.965 291.164 212.82 292.016 212.82C292.898 212.82 293.699 212.973 294.418 213.277C295.137 213.574 295.75 214.008 296.258 214.578C296.773 215.148 297.176 215.848 297.465 216.676C297.754 217.496 297.898 218.426 297.898 219.465H288.746ZM295.156 217.332C295.031 216.629 294.668 216.066 294.066 215.645C293.465 215.215 292.781 215 292.016 215C291.25 215 290.562 215.215 289.953 215.645C289.344 216.066 288.977 216.629 288.852 217.332H295.156ZM309.969 223.883C309.969 224.633 309.84 225.301 309.582 225.887C309.324 226.473 308.961 226.969 308.492 227.375C308.031 227.781 307.484 228.09 306.852 228.301C306.227 228.52 305.527 228.629 304.754 228.629C302.855 228.629 301.234 228.055 299.891 226.906L301.039 225.031C302.156 225.992 303.395 226.473 304.754 226.473C305.59 226.473 306.262 226.266 306.77 225.852C307.285 225.445 307.543 224.805 307.543 223.93V222.758C307.043 223.188 306.562 223.508 306.102 223.719C305.641 223.922 305.105 224.023 304.496 224.023C303.793 224.023 303.141 223.875 302.539 223.578C301.938 223.281 301.418 222.879 300.98 222.371C300.551 221.855 300.211 221.258 299.961 220.578C299.719 219.898 299.598 219.176 299.598 218.41C299.598 217.645 299.719 216.922 299.961 216.242C300.211 215.555 300.551 214.961 300.98 214.461C301.418 213.953 301.938 213.555 302.539 213.266C303.141 212.969 303.793 212.82 304.496 212.82C305.105 212.82 305.648 212.926 306.125 213.137C306.602 213.34 307.074 213.648 307.543 214.062V213.078H309.969V223.883ZM307.543 215.984C307.254 215.664 306.879 215.422 306.418 215.258C305.965 215.086 305.523 215 305.094 215C304.18 215 303.438 215.32 302.867 215.961C302.305 216.602 302.023 217.418 302.023 218.41C302.023 218.902 302.098 219.359 302.246 219.781C302.402 220.195 302.613 220.555 302.879 220.859C303.152 221.164 303.477 221.406 303.852 221.586C304.234 221.758 304.648 221.844 305.094 221.844C305.523 221.844 305.965 221.758 306.418 221.586C306.879 221.406 307.254 221.156 307.543 220.836V215.984ZM313.297 213.078H315.723V219.828C315.723 220.672 315.883 221.258 316.203 221.586C316.523 221.914 316.988 222.078 317.598 222.078C318.488 222.078 319.219 221.715 319.789 220.988C320.359 220.262 320.645 219.258 320.645 217.977V213.078H323.07V224H320.645V221.27C320.402 222.207 319.953 222.941 319.297 223.473C318.641 224.004 317.832 224.27 316.871 224.27C315.754 224.27 314.879 223.906 314.246 223.18C313.613 222.445 313.297 221.328 313.297 219.828V213.078ZM328.051 219.465C328.168 220.215 328.523 220.84 329.117 221.34C329.719 221.832 330.523 222.078 331.531 222.078C332.32 222.078 333.004 221.957 333.582 221.715C334.168 221.465 334.672 221.137 335.094 220.73L336.336 222.441C335.633 223.145 334.887 223.625 334.098 223.883C333.316 224.141 332.461 224.27 331.531 224.27C330.688 224.27 329.902 224.129 329.176 223.848C328.449 223.566 327.82 223.176 327.289 222.676C326.758 222.168 326.34 221.566 326.035 220.871C325.738 220.176 325.59 219.402 325.59 218.551C325.59 217.723 325.727 216.961 326 216.266C326.281 215.562 326.672 214.957 327.172 214.449C327.68 213.934 328.285 213.535 328.988 213.254C329.691 212.965 330.469 212.82 331.32 212.82C332.203 212.82 333.004 212.973 333.723 213.277C334.441 213.574 335.055 214.008 335.562 214.578C336.078 215.148 336.48 215.848 336.77 216.676C337.059 217.496 337.203 218.426 337.203 219.465H328.051ZM334.461 217.332C334.336 216.629 333.973 216.066 333.371 215.645C332.77 215.215 332.086 215 331.32 215C330.555 215 329.867 215.215 329.258 215.645C328.648 216.066 328.281 216.629 328.156 217.332H334.461ZM352.602 213.078H355.027V214.062C355.488 213.648 355.953 213.34 356.422 213.137C356.898 212.926 357.441 212.82 358.051 212.82C358.754 212.82 359.406 212.965 360.008 213.254C360.609 213.535 361.125 213.93 361.555 214.438C361.984 214.938 362.324 215.543 362.574 216.254C362.824 216.957 362.949 217.723 362.949 218.551C362.949 219.387 362.824 220.156 362.574 220.859C362.324 221.562 361.984 222.168 361.555 222.676C361.125 223.176 360.609 223.566 360.008 223.848C359.406 224.129 358.754 224.27 358.051 224.27C357.441 224.27 356.898 224.16 356.422 223.941C355.953 223.723 355.488 223.406 355.027 222.992V228.371H352.602V213.078ZM355.027 221.07C355.316 221.391 355.684 221.641 356.129 221.82C356.582 221.992 357.016 222.078 357.43 222.078C358.344 222.078 359.086 221.754 359.656 221.105C360.234 220.457 360.523 219.605 360.523 218.551C360.523 217.496 360.234 216.641 359.656 215.984C359.086 215.328 358.344 215 357.43 215C357.016 215 356.582 215.086 356.129 215.258C355.684 215.422 355.316 215.664 355.027 215.984V221.07ZM367.355 219.465C367.473 220.215 367.828 220.84 368.422 221.34C369.023 221.832 369.828 222.078 370.836 222.078C371.625 222.078 372.309 221.957 372.887 221.715C373.473 221.465 373.977 221.137 374.398 220.73L375.641 222.441C374.938 223.145 374.191 223.625 373.402 223.883C372.621 224.141 371.766 224.27 370.836 224.27C369.992 224.27 369.207 224.129 368.48 223.848C367.754 223.566 367.125 223.176 366.594 222.676C366.062 222.168 365.645 221.566 365.34 220.871C365.043 220.176 364.895 219.402 364.895 218.551C364.895 217.723 365.031 216.961 365.305 216.266C365.586 215.562 365.977 214.957 366.477 214.449C366.984 213.934 367.59 213.535 368.293 213.254C368.996 212.965 369.773 212.82 370.625 212.82C371.508 212.82 372.309 212.973 373.027 213.277C373.746 213.574 374.359 214.008 374.867 214.578C375.383 215.148 375.785 215.848 376.074 216.676C376.363 217.496 376.508 218.426 376.508 219.465H367.355ZM373.766 217.332C373.641 216.629 373.277 216.066 372.676 215.645C372.074 215.215 371.391 215 370.625 215C369.859 215 369.172 215.215 368.562 215.645C367.953 216.066 367.586 216.629 367.461 217.332H373.766ZM387.418 224H380.082V221.82H382.473V210.898H380.082V208.707H384.898V221.82H387.418V224ZM391.285 220.859C391.285 220.219 391.457 219.66 391.801 219.184C392.145 218.699 392.594 218.297 393.148 217.977C393.711 217.656 394.352 217.418 395.07 217.262C395.797 217.098 396.535 217.016 397.285 217.016C397.699 217.016 398.055 217.023 398.352 217.039C398.648 217.055 398.949 217.078 399.254 217.109V216.676C399.254 216.105 399.031 215.68 398.586 215.398C398.148 215.117 397.57 214.977 396.852 214.977C396.195 214.977 395.527 215.07 394.848 215.258C394.168 215.438 393.523 215.703 392.914 216.055L391.93 214.156C392.648 213.742 393.418 213.418 394.238 213.184C395.066 212.941 395.938 212.82 396.852 212.82C397.445 212.82 398.027 212.887 398.598 213.02C399.176 213.152 399.691 213.371 400.145 213.676C400.605 213.98 400.973 214.379 401.246 214.871C401.52 215.355 401.656 215.957 401.656 216.676V224H399.254V222.395C398.871 222.988 398.305 223.449 397.555 223.777C396.812 224.105 396.012 224.27 395.152 224.27C394.621 224.27 394.117 224.195 393.641 224.047C393.172 223.906 392.766 223.691 392.422 223.402C392.078 223.113 391.801 222.758 391.59 222.336C391.387 221.906 391.285 221.414 391.285 220.859ZM395.773 222.102C396.25 222.102 396.695 222.043 397.109 221.926C397.531 221.801 397.902 221.633 398.223 221.422C398.543 221.203 398.793 220.941 398.973 220.637C399.16 220.332 399.254 219.996 399.254 219.629V219.219C398.871 219.156 398.512 219.121 398.176 219.113C397.84 219.105 397.543 219.102 397.285 219.102C396.098 219.102 395.199 219.258 394.59 219.57C393.988 219.883 393.688 220.27 393.688 220.73C393.688 221.645 394.383 222.102 395.773 222.102ZM418.109 213.078H420.535V214.062C420.996 213.648 421.461 213.34 421.93 213.137C422.406 212.926 422.949 212.82 423.559 212.82C424.262 212.82 424.914 212.965 425.516 213.254C426.117 213.535 426.633 213.93 427.062 214.438C427.492 214.938 427.832 215.543 428.082 216.254C428.332 216.957 428.457 217.723 428.457 218.551C428.457 219.387 428.332 220.156 428.082 220.859C427.832 221.562 427.492 222.168 427.062 222.676C426.633 223.176 426.117 223.566 425.516 223.848C424.914 224.129 424.262 224.27 423.559 224.27C422.949 224.27 422.406 224.16 421.93 223.941C421.461 223.723 420.996 223.406 420.535 222.992V228.371H418.109V213.078ZM420.535 221.07C420.824 221.391 421.191 221.641 421.637 221.82C422.09 221.992 422.523 222.078 422.938 222.078C423.852 222.078 424.594 221.754 425.164 221.105C425.742 220.457 426.031 219.605 426.031 218.551C426.031 217.496 425.742 216.641 425.164 215.984C424.594 215.328 423.852 215 422.938 215C422.523 215 422.09 215.086 421.637 215.258C421.191 215.422 420.824 215.664 420.535 215.984V221.07ZM439.824 224H432.488V221.82H434.879V210.898H432.488V208.707H437.305V221.82H439.824V224ZM443.691 220.859C443.691 220.219 443.863 219.66 444.207 219.184C444.551 218.699 445 218.297 445.555 217.977C446.117 217.656 446.758 217.418 447.477 217.262C448.203 217.098 448.941 217.016 449.691 217.016C450.105 217.016 450.461 217.023 450.758 217.039C451.055 217.055 451.355 217.078 451.66 217.109V216.676C451.66 216.105 451.438 215.68 450.992 215.398C450.555 215.117 449.977 214.977 449.258 214.977C448.602 214.977 447.934 215.07 447.254 215.258C446.574 215.438 445.93 215.703 445.32 216.055L444.336 214.156C445.055 213.742 445.824 213.418 446.645 213.184C447.473 212.941 448.344 212.82 449.258 212.82C449.852 212.82 450.434 212.887 451.004 213.02C451.582 213.152 452.098 213.371 452.551 213.676C453.012 213.98 453.379 214.379 453.652 214.871C453.926 215.355 454.062 215.957 454.062 216.676V224H451.66V222.395C451.277 222.988 450.711 223.449 449.961 223.777C449.219 224.105 448.418 224.27 447.559 224.27C447.027 224.27 446.523 224.195 446.047 224.047C445.578 223.906 445.172 223.691 444.828 223.402C444.484 223.113 444.207 222.758 443.996 222.336C443.793 221.906 443.691 221.414 443.691 220.859ZM448.18 222.102C448.656 222.102 449.102 222.043 449.516 221.926C449.938 221.801 450.309 221.633 450.629 221.422C450.949 221.203 451.199 220.941 451.379 220.637C451.566 220.332 451.66 219.996 451.66 219.629V219.219C451.277 219.156 450.918 219.121 450.582 219.113C450.246 219.105 449.949 219.102 449.691 219.102C448.504 219.102 447.605 219.258 446.996 219.57C446.395 219.883 446.094 220.27 446.094 220.73C446.094 221.645 446.789 222.102 448.18 222.102ZM467.879 220.52C467.754 221.668 467.301 222.582 466.52 223.262C465.746 223.934 464.777 224.27 463.613 224.27C462.973 224.27 462.387 224.164 461.855 223.953C461.324 223.742 460.871 223.449 460.496 223.074C460.121 222.699 459.828 222.25 459.617 221.727C459.414 221.195 459.312 220.617 459.312 219.992V215.27H456.84V213.078H459.312V208.707H461.738V213.078H466.32V215.27H461.738V219.992C461.738 220.695 461.91 221.219 462.254 221.562C462.598 221.906 463.051 222.078 463.613 222.078C464.301 222.078 464.812 221.879 465.148 221.48C465.484 221.082 465.684 220.602 465.746 220.039L467.879 220.52ZM469.895 220.859C469.895 220.219 470.066 219.66 470.41 219.184C470.754 218.699 471.203 218.297 471.758 217.977C472.32 217.656 472.961 217.418 473.68 217.262C474.406 217.098 475.145 217.016 475.895 217.016C476.309 217.016 476.664 217.023 476.961 217.039C477.258 217.055 477.559 217.078 477.863 217.109V216.676C477.863 216.105 477.641 215.68 477.195 215.398C476.758 215.117 476.18 214.977 475.461 214.977C474.805 214.977 474.137 215.07 473.457 215.258C472.777 215.438 472.133 215.703 471.523 216.055L470.539 214.156C471.258 213.742 472.027 213.418 472.848 213.184C473.676 212.941 474.547 212.82 475.461 212.82C476.055 212.82 476.637 212.887 477.207 213.02C477.785 213.152 478.301 213.371 478.754 213.676C479.215 213.98 479.582 214.379 479.855 214.871C480.129 215.355 480.266 215.957 480.266 216.676V224H477.863V222.395C477.48 222.988 476.914 223.449 476.164 223.777C475.422 224.105 474.621 224.27 473.762 224.27C473.23 224.27 472.727 224.195 472.25 224.047C471.781 223.906 471.375 223.691 471.031 223.402C470.688 223.113 470.41 222.758 470.199 222.336C469.996 221.906 469.895 221.414 469.895 220.859ZM474.383 222.102C474.859 222.102 475.305 222.043 475.719 221.926C476.141 221.801 476.512 221.633 476.832 221.422C477.152 221.203 477.402 220.941 477.582 220.637C477.77 220.332 477.863 219.996 477.863 219.629V219.219C477.48 219.156 477.121 219.121 476.785 219.113C476.449 219.105 476.152 219.102 475.895 219.102C474.707 219.102 473.809 219.258 473.199 219.57C472.598 219.883 472.297 220.27 472.297 220.73C472.297 221.645 472.992 222.102 474.383 222.102ZM493.965 215.27H489.711V221.82H492.207V224H484.871V221.82H487.285V215.27H484.871V213.078H487.285C487.285 211.578 487.746 210.434 488.668 209.645C489.59 208.848 490.836 208.449 492.406 208.449C492.641 208.449 492.891 208.461 493.156 208.484C493.422 208.508 493.691 208.535 493.965 208.566V210.699C493.496 210.652 493.07 210.629 492.688 210.629C492.062 210.629 491.559 210.676 491.176 210.77C490.793 210.855 490.492 211 490.273 211.203C490.062 211.398 489.914 211.652 489.828 211.965C489.75 212.277 489.711 212.648 489.711 213.078H493.965V215.27ZM507.348 218.551C507.348 219.402 507.211 220.176 506.938 220.871C506.672 221.566 506.285 222.168 505.777 222.676C505.277 223.176 504.676 223.566 503.973 223.848C503.27 224.129 502.484 224.27 501.617 224.27C500.766 224.27 499.988 224.129 499.285 223.848C498.582 223.566 497.977 223.176 497.469 222.676C496.969 222.168 496.582 221.566 496.309 220.871C496.043 220.176 495.91 219.402 495.91 218.551C495.91 217.723 496.043 216.957 496.309 216.254C496.582 215.543 496.969 214.934 497.469 214.426C497.977 213.91 498.582 213.516 499.285 213.242C499.988 212.961 500.766 212.82 501.617 212.82C502.484 212.82 503.27 212.961 503.973 213.242C504.676 213.516 505.277 213.91 505.777 214.426C506.285 214.934 506.672 215.543 506.938 216.254C507.211 216.957 507.348 217.723 507.348 218.551ZM504.934 218.551C504.934 218.059 504.855 217.594 504.699 217.156C504.551 216.711 504.332 216.332 504.043 216.02C503.754 215.707 503.402 215.461 502.988 215.281C502.582 215.094 502.125 215 501.617 215C501.102 215 500.641 215.094 500.234 215.281C499.828 215.461 499.484 215.707 499.203 216.02C498.922 216.332 498.703 216.711 498.547 217.156C498.398 217.594 498.324 218.059 498.324 218.551C498.324 219.066 498.398 219.535 498.547 219.957C498.703 220.379 498.922 220.75 499.203 221.07C499.484 221.391 499.828 221.641 500.234 221.82C500.641 221.992 501.102 222.078 501.617 222.078C502.125 222.078 502.582 221.992 502.988 221.82C503.402 221.641 503.754 221.391 504.043 221.07C504.332 220.75 504.551 220.379 504.699 219.957C504.855 219.535 504.934 219.066 504.934 218.551ZM519.898 215.668C519.609 215.527 519.312 215.422 519.008 215.352C518.711 215.273 518.367 215.234 517.977 215.234C517.438 215.234 516.93 215.316 516.453 215.48C515.984 215.637 515.578 215.875 515.234 216.195C514.891 216.516 514.621 216.918 514.426 217.402C514.238 217.879 514.145 218.445 514.145 219.102V221.82H516.594V224H509.246V221.82H511.719V215.27H509.246V213.078H514.145V215.82C514.543 214.727 515.129 213.953 515.902 213.5C516.684 213.047 517.609 212.82 518.68 212.82C519.016 212.82 519.367 212.855 519.734 212.926C520.102 212.996 520.461 213.121 520.812 213.301L519.898 215.668ZM533.27 224H530.844V216.512C530.844 215.996 530.789 215.617 530.68 215.375C530.578 215.125 530.395 215 530.129 215C529.645 215 529.336 215.273 529.203 215.82C529.078 216.359 529.016 217.148 529.016 218.188V224H526.59V216.512C526.59 215.996 526.535 215.617 526.426 215.375C526.316 215.125 526.125 215 525.852 215C525.375 215 525.074 215.273 524.949 215.82C524.832 216.359 524.773 217.148 524.773 218.188V224H522.348V213.078H524.797V214.66C524.969 214.059 525.223 213.602 525.559 213.289C525.895 212.977 526.344 212.82 526.906 212.82C527.375 212.82 527.766 212.965 528.078 213.254C528.398 213.535 528.617 213.926 528.734 214.426C529.008 213.879 529.289 213.477 529.578 213.219C529.875 212.953 530.328 212.82 530.938 212.82C531.688 212.82 532.262 213.098 532.66 213.652C533.066 214.199 533.27 215.031 533.27 216.148V224ZM535.402 220.859C535.402 220.219 535.574 219.66 535.918 219.184C536.262 218.699 536.711 218.297 537.266 217.977C537.828 217.656 538.469 217.418 539.188 217.262C539.914 217.098 540.652 217.016 541.402 217.016C541.816 217.016 542.172 217.023 542.469 217.039C542.766 217.055 543.066 217.078 543.371 217.109V216.676C543.371 216.105 543.148 215.68 542.703 215.398C542.266 215.117 541.688 214.977 540.969 214.977C540.312 214.977 539.645 215.07 538.965 215.258C538.285 215.438 537.641 215.703 537.031 216.055L536.047 214.156C536.766 213.742 537.535 213.418 538.355 213.184C539.184 212.941 540.055 212.82 540.969 212.82C541.562 212.82 542.145 212.887 542.715 213.02C543.293 213.152 543.809 213.371 544.262 213.676C544.723 213.98 545.09 214.379 545.363 214.871C545.637 215.355 545.773 215.957 545.773 216.676V224H543.371V222.395C542.988 222.988 542.422 223.449 541.672 223.777C540.93 224.105 540.129 224.27 539.27 224.27C538.738 224.27 538.234 224.195 537.758 224.047C537.289 223.906 536.883 223.691 536.539 223.402C536.195 223.113 535.918 222.758 535.707 222.336C535.504 221.906 535.402 221.414 535.402 220.859ZM539.891 222.102C540.367 222.102 540.812 222.043 541.227 221.926C541.648 221.801 542.02 221.633 542.34 221.422C542.66 221.203 542.91 220.941 543.09 220.637C543.277 220.332 543.371 219.996 543.371 219.629V219.219C542.988 219.156 542.629 219.121 542.293 219.113C541.957 219.105 541.66 219.102 541.402 219.102C540.215 219.102 539.316 219.258 538.707 219.57C538.105 219.883 537.805 220.27 537.805 220.73C537.805 221.645 538.5 222.102 539.891 222.102ZM563.879 219.465C563.996 220.215 564.352 220.84 564.945 221.34C565.547 221.832 566.352 222.078 567.359 222.078C568.148 222.078 568.832 221.957 569.41 221.715C569.996 221.465 570.5 221.137 570.922 220.73L572.164 222.441C571.461 223.145 570.715 223.625 569.926 223.883C569.145 224.141 568.289 224.27 567.359 224.27C566.516 224.27 565.73 224.129 565.004 223.848C564.277 223.566 563.648 223.176 563.117 222.676C562.586 222.168 562.168 221.566 561.863 220.871C561.566 220.176 561.418 219.402 561.418 218.551C561.418 217.723 561.555 216.961 561.828 216.266C562.109 215.562 562.5 214.957 563 214.449C563.508 213.934 564.113 213.535 564.816 213.254C565.52 212.965 566.297 212.82 567.148 212.82C568.031 212.82 568.832 212.973 569.551 213.277C570.27 213.574 570.883 214.008 571.391 214.578C571.906 215.148 572.309 215.848 572.598 216.676C572.887 217.496 573.031 218.426 573.031 219.465H563.879ZM570.289 217.332C570.164 216.629 569.801 216.066 569.199 215.645C568.598 215.215 567.914 215 567.148 215C566.383 215 565.695 215.215 565.086 215.645C564.477 216.066 564.109 216.629 563.984 217.332H570.289ZM598.367 222.441C597.664 223.145 596.922 223.625 596.141 223.883C595.367 224.141 594.527 224.27 593.621 224.27C592.707 224.27 591.875 224.133 591.125 223.859C590.383 223.586 589.75 223.203 589.227 222.711C588.711 222.211 588.312 221.609 588.031 220.906C587.758 220.203 587.621 219.418 587.621 218.551C587.621 217.723 587.758 216.957 588.031 216.254C588.312 215.543 588.688 214.938 589.156 214.438C589.633 213.93 590.191 213.535 590.832 213.254C591.473 212.965 592.152 212.82 592.871 212.82C593.621 212.82 594.273 212.977 594.828 213.289C595.383 213.602 595.785 214.059 596.035 214.66V213.078H598.203V218.164H596.035C596.035 217.203 595.77 216.438 595.238 215.867C594.715 215.289 594.031 215 593.188 215C592.852 215 592.496 215.07 592.121 215.211C591.754 215.344 591.414 215.555 591.102 215.844C590.797 216.133 590.543 216.5 590.34 216.945C590.137 217.391 590.035 217.926 590.035 218.551C590.035 219.16 590.133 219.688 590.328 220.133C590.523 220.57 590.777 220.934 591.09 221.223C591.41 221.504 591.785 221.719 592.215 221.867C592.652 222.008 593.102 222.078 593.562 222.078C594.352 222.078 595.035 221.957 595.613 221.715C596.199 221.465 596.703 221.137 597.125 220.73L598.367 222.441ZM612.16 218.551C612.16 219.402 612.023 220.176 611.75 220.871C611.484 221.566 611.098 222.168 610.59 222.676C610.09 223.176 609.488 223.566 608.785 223.848C608.082 224.129 607.297 224.27 606.43 224.27C605.578 224.27 604.801 224.129 604.098 223.848C603.395 223.566 602.789 223.176 602.281 222.676C601.781 222.168 601.395 221.566 601.121 220.871C600.855 220.176 600.723 219.402 600.723 218.551C600.723 217.723 600.855 216.957 601.121 216.254C601.395 215.543 601.781 214.934 602.281 214.426C602.789 213.91 603.395 213.516 604.098 213.242C604.801 212.961 605.578 212.82 606.43 212.82C607.297 212.82 608.082 212.961 608.785 213.242C609.488 213.516 610.09 213.91 610.59 214.426C611.098 214.934 611.484 215.543 611.75 216.254C612.023 216.957 612.16 217.723 612.16 218.551ZM609.746 218.551C609.746 218.059 609.668 217.594 609.512 217.156C609.363 216.711 609.145 216.332 608.855 216.02C608.566 215.707 608.215 215.461 607.801 215.281C607.395 215.094 606.938 215 606.43 215C605.914 215 605.453 215.094 605.047 215.281C604.641 215.461 604.297 215.707 604.016 216.02C603.734 216.332 603.516 216.711 603.359 217.156C603.211 217.594 603.137 218.059 603.137 218.551C603.137 219.066 603.211 219.535 603.359 219.957C603.516 220.379 603.734 220.75 604.016 221.07C604.297 221.391 604.641 221.641 605.047 221.82C605.453 221.992 605.914 222.078 606.43 222.078C606.938 222.078 607.395 221.992 607.801 221.82C608.215 221.641 608.566 221.391 608.855 221.07C609.145 220.75 609.363 220.379 609.512 219.957C609.668 219.535 609.746 219.066 609.746 218.551ZM624.406 224H621.98V217.262C621.98 216.41 621.82 215.82 621.5 215.492C621.18 215.164 620.715 215 620.105 215C619.207 215 618.473 215.363 617.902 216.09C617.34 216.816 617.059 217.82 617.059 219.102V224H614.633V213.078H617.059V215.82C617.301 214.875 617.75 214.141 618.406 213.617C619.062 213.086 619.871 212.82 620.832 212.82C621.949 212.82 622.824 213.184 623.457 213.91C624.09 214.637 624.406 215.754 624.406 217.262V224ZM637.508 224H635.082V217.262C635.082 216.41 634.922 215.82 634.602 215.492C634.281 215.164 633.816 215 633.207 215C632.309 215 631.574 215.363 631.004 216.09C630.441 216.816 630.16 217.82 630.16 219.102V224H627.734V208.707H630.16V215.82C630.402 214.875 630.852 214.141 631.508 213.617C632.164 213.086 632.973 212.82 633.934 212.82C635.051 212.82 635.926 213.184 636.559 213.91C637.191 214.637 637.508 215.754 637.508 217.262V224ZM642.488 219.465C642.605 220.215 642.961 220.84 643.555 221.34C644.156 221.832 644.961 222.078 645.969 222.078C646.758 222.078 647.441 221.957 648.02 221.715C648.605 221.465 649.109 221.137 649.531 220.73L650.773 222.441C650.07 223.145 649.324 223.625 648.535 223.883C647.754 224.141 646.898 224.27 645.969 224.27C645.125 224.27 644.34 224.129 643.613 223.848C642.887 223.566 642.258 223.176 641.727 222.676C641.195 222.168 640.777 221.566 640.473 220.871C640.176 220.176 640.027 219.402 640.027 218.551C640.027 217.723 640.164 216.961 640.438 216.266C640.719 215.562 641.109 214.957 641.609 214.449C642.117 213.934 642.723 213.535 643.426 213.254C644.129 212.965 644.906 212.82 645.758 212.82C646.641 212.82 647.441 212.973 648.16 213.277C648.879 213.574 649.492 214.008 650 214.578C650.516 215.148 650.918 215.848 651.207 216.676C651.496 217.496 651.641 218.426 651.641 219.465H642.488ZM648.898 217.332C648.773 216.629 648.41 216.066 647.809 215.645C647.207 215.215 646.523 215 645.758 215C644.992 215 644.305 215.215 643.695 215.645C643.086 216.066 642.719 216.629 642.594 217.332H648.898ZM663.875 222.441C663.312 223.004 662.738 223.418 662.152 223.684C661.574 223.941 660.949 224.109 660.277 224.188V224.48C660.277 225.027 660.184 225.535 659.996 226.004C659.816 226.473 659.551 226.879 659.199 227.223C658.848 227.566 658.418 227.84 657.91 228.043C657.41 228.246 656.84 228.348 656.199 228.348V226.262C656.887 226.262 657.395 226.105 657.723 225.793C658.051 225.48 658.215 225.043 658.215 224.48V224.211C656.629 224.039 655.383 223.453 654.477 222.453C653.578 221.453 653.129 220.152 653.129 218.551C653.129 217.723 653.266 216.957 653.539 216.254C653.82 215.543 654.195 214.938 654.664 214.438C655.141 213.93 655.699 213.535 656.34 213.254C656.98 212.965 657.66 212.82 658.379 212.82C659.129 212.82 659.781 212.977 660.336 213.289C660.891 213.602 661.293 214.059 661.543 214.66V213.078H663.711V218.164H661.543C661.543 217.203 661.277 216.438 660.746 215.867C660.223 215.289 659.539 215 658.695 215C658.359 215 658.004 215.07 657.629 215.211C657.262 215.344 656.922 215.555 656.609 215.844C656.305 216.133 656.051 216.5 655.848 216.945C655.645 217.391 655.543 217.926 655.543 218.551C655.543 219.16 655.641 219.688 655.836 220.133C656.031 220.57 656.285 220.934 656.598 221.223C656.918 221.504 657.293 221.719 657.723 221.867C658.16 222.008 658.609 222.078 659.07 222.078C659.859 222.078 660.543 221.957 661.121 221.715C661.707 221.465 662.211 221.137 662.633 220.73L663.875 222.441ZM666.418 220.859C666.418 220.219 666.59 219.66 666.934 219.184C667.277 218.699 667.727 218.297 668.281 217.977C668.844 217.656 669.484 217.418 670.203 217.262C670.93 217.098 671.668 217.016 672.418 217.016C672.832 217.016 673.188 217.023 673.484 217.039C673.781 217.055 674.082 217.078 674.387 217.109V216.676C674.387 216.105 674.164 215.68 673.719 215.398C673.281 215.117 672.703 214.977 671.984 214.977C671.328 214.977 670.66 215.07 669.98 215.258C669.301 215.438 668.656 215.703 668.047 216.055L667.062 214.156C667.781 213.742 668.551 213.418 669.371 213.184C670.199 212.941 671.07 212.82 671.984 212.82C672.578 212.82 673.16 212.887 673.73 213.02C674.309 213.152 674.824 213.371 675.277 213.676C675.738 213.98 676.105 214.379 676.379 214.871C676.652 215.355 676.789 215.957 676.789 216.676V224H674.387V222.395C674.004 222.988 673.438 223.449 672.688 223.777C671.945 224.105 671.145 224.27 670.285 224.27C669.754 224.27 669.25 224.195 668.773 224.047C668.305 223.906 667.898 223.691 667.555 223.402C667.211 223.113 666.934 222.758 666.723 222.336C666.52 221.906 666.418 221.414 666.418 220.859ZM670.906 222.102C671.383 222.102 671.828 222.043 672.242 221.926C672.664 221.801 673.035 221.633 673.355 221.422C673.676 221.203 673.926 220.941 674.105 220.637C674.293 220.332 674.387 219.996 674.387 219.629V219.219C674.004 219.156 673.645 219.121 673.309 219.113C672.973 219.105 672.676 219.102 672.418 219.102C671.23 219.102 670.332 219.258 669.723 219.57C669.121 219.883 668.82 220.27 668.82 220.73C668.82 221.645 669.516 222.102 670.906 222.102ZM703.871 218.551C703.871 219.402 703.734 220.176 703.461 220.871C703.195 221.566 702.809 222.168 702.301 222.676C701.801 223.176 701.199 223.566 700.496 223.848C699.793 224.129 699.008 224.27 698.141 224.27C697.289 224.27 696.512 224.129 695.809 223.848C695.105 223.566 694.5 223.176 693.992 222.676C693.492 222.168 693.105 221.566 692.832 220.871C692.566 220.176 692.434 219.402 692.434 218.551C692.434 217.723 692.566 216.957 692.832 216.254C693.105 215.543 693.492 214.934 693.992 214.426C694.5 213.91 695.105 213.516 695.809 213.242C696.512 212.961 697.289 212.82 698.141 212.82C699.008 212.82 699.793 212.961 700.496 213.242C701.199 213.516 701.801 213.91 702.301 214.426C702.809 214.934 703.195 215.543 703.461 216.254C703.734 216.957 703.871 217.723 703.871 218.551ZM701.457 218.551C701.457 218.059 701.379 217.594 701.223 217.156C701.074 216.711 700.855 216.332 700.566 216.02C700.277 215.707 699.926 215.461 699.512 215.281C699.105 215.094 698.648 215 698.141 215C697.625 215 697.164 215.094 696.758 215.281C696.352 215.461 696.008 215.707 695.727 216.02C695.445 216.332 695.227 216.711 695.07 217.156C694.922 217.594 694.848 218.059 694.848 218.551C694.848 219.066 694.922 219.535 695.07 219.957C695.227 220.379 695.445 220.75 695.727 221.07C696.008 221.391 696.352 221.641 696.758 221.82C697.164 221.992 697.625 222.078 698.141 222.078C698.648 222.078 699.105 221.992 699.512 221.82C699.926 221.641 700.277 221.391 700.566 221.07C700.855 220.75 701.074 220.379 701.223 219.957C701.379 219.535 701.457 219.066 701.457 218.551ZM716.398 220.73C716.398 221.441 716.238 222.02 715.918 222.465C715.598 222.91 715.184 223.27 714.676 223.543C714.176 223.816 713.613 224.004 712.988 224.105C712.371 224.215 711.766 224.27 711.172 224.27C710.18 224.27 709.191 224.125 708.207 223.836C707.223 223.547 706.371 223.168 705.652 222.699L706.66 220.707C707.52 221.207 708.305 221.562 709.016 221.773C709.734 221.977 710.453 222.078 711.172 222.078C712.148 222.078 712.859 221.977 713.305 221.773C713.75 221.562 713.973 221.273 713.973 220.906C713.973 220.727 713.91 220.578 713.785 220.461C713.66 220.344 713.453 220.238 713.164 220.145C712.875 220.043 712.492 219.945 712.016 219.852C711.547 219.75 710.961 219.645 710.258 219.535C709.695 219.441 709.16 219.328 708.652 219.195C708.152 219.055 707.711 218.859 707.328 218.609C706.945 218.359 706.637 218.043 706.402 217.66C706.176 217.277 706.062 216.797 706.062 216.219C706.062 215.633 706.211 215.125 706.508 214.695C706.812 214.258 707.207 213.898 707.691 213.617C708.184 213.336 708.734 213.133 709.344 213.008C709.953 212.883 710.562 212.82 711.172 212.82C712.031 212.82 712.863 212.934 713.668 213.16C714.48 213.379 715.191 213.695 715.801 214.109L714.84 215.984C714.23 215.602 713.637 215.344 713.059 215.211C712.488 215.07 711.859 215 711.172 215C710.883 215 710.582 215.016 710.27 215.047C709.957 215.078 709.668 215.141 709.402 215.234C709.137 215.32 708.914 215.441 708.734 215.598C708.562 215.746 708.477 215.93 708.477 216.148C708.477 216.438 708.73 216.676 709.238 216.863C709.754 217.043 710.629 217.223 711.863 217.402C712.535 217.496 713.148 217.617 713.703 217.766C714.258 217.906 714.734 218.102 715.133 218.352C715.531 218.594 715.84 218.91 716.059 219.301C716.285 219.684 716.398 220.16 716.398 220.73ZM732.547 213.078H734.973V214.062C735.434 213.648 735.898 213.34 736.367 213.137C736.844 212.926 737.387 212.82 737.996 212.82C738.699 212.82 739.352 212.965 739.953 213.254C740.555 213.535 741.07 213.93 741.5 214.438C741.93 214.938 742.27 215.543 742.52 216.254C742.77 216.957 742.895 217.723 742.895 218.551C742.895 219.387 742.77 220.156 742.52 220.859C742.27 221.562 741.93 222.168 741.5 222.676C741.07 223.176 740.555 223.566 739.953 223.848C739.352 224.129 738.699 224.27 737.996 224.27C737.387 224.27 736.844 224.16 736.367 223.941C735.898 223.723 735.434 223.406 734.973 222.992V228.371H732.547V213.078ZM734.973 221.07C735.262 221.391 735.629 221.641 736.074 221.82C736.527 221.992 736.961 222.078 737.375 222.078C738.289 222.078 739.031 221.754 739.602 221.105C740.18 220.457 740.469 219.605 740.469 218.551C740.469 217.496 740.18 216.641 739.602 215.984C739.031 215.328 738.289 215 737.375 215C736.961 215 736.527 215.086 736.074 215.258C735.629 215.422 735.262 215.664 734.973 215.984V221.07ZM755.727 215.668C755.438 215.527 755.141 215.422 754.836 215.352C754.539 215.273 754.195 215.234 753.805 215.234C753.266 215.234 752.758 215.316 752.281 215.48C751.812 215.637 751.406 215.875 751.062 216.195C750.719 216.516 750.449 216.918 750.254 217.402C750.066 217.879 749.973 218.445 749.973 219.102V221.82H752.422V224H745.074V221.82H747.547V215.27H745.074V213.078H749.973V215.82C750.371 214.727 750.957 213.953 751.73 213.5C752.512 213.047 753.438 212.82 754.508 212.82C754.844 212.82 755.195 212.855 755.562 212.926C755.93 212.996 756.289 213.121 756.641 213.301L755.727 215.668ZM769.379 218.551C769.379 219.402 769.242 220.176 768.969 220.871C768.703 221.566 768.316 222.168 767.809 222.676C767.309 223.176 766.707 223.566 766.004 223.848C765.301 224.129 764.516 224.27 763.648 224.27C762.797 224.27 762.02 224.129 761.316 223.848C760.613 223.566 760.008 223.176 759.5 222.676C759 222.168 758.613 221.566 758.34 220.871C758.074 220.176 757.941 219.402 757.941 218.551C757.941 217.723 758.074 216.957 758.34 216.254C758.613 215.543 759 214.934 759.5 214.426C760.008 213.91 760.613 213.516 761.316 213.242C762.02 212.961 762.797 212.82 763.648 212.82C764.516 212.82 765.301 212.961 766.004 213.242C766.707 213.516 767.309 213.91 767.809 214.426C768.316 214.934 768.703 215.543 768.969 216.254C769.242 216.957 769.379 217.723 769.379 218.551ZM766.965 218.551C766.965 218.059 766.887 217.594 766.73 217.156C766.582 216.711 766.363 216.332 766.074 216.02C765.785 215.707 765.434 215.461 765.02 215.281C764.613 215.094 764.156 215 763.648 215C763.133 215 762.672 215.094 762.266 215.281C761.859 215.461 761.516 215.707 761.234 216.02C760.953 216.332 760.734 216.711 760.578 217.156C760.43 217.594 760.355 218.059 760.355 218.551C760.355 219.066 760.43 219.535 760.578 219.957C760.734 220.379 760.953 220.75 761.234 221.07C761.516 221.391 761.859 221.641 762.266 221.82C762.672 221.992 763.133 222.078 763.648 222.078C764.156 222.078 764.613 221.992 765.02 221.82C765.434 221.641 765.785 221.391 766.074 221.07C766.363 220.75 766.582 220.379 766.73 219.957C766.887 219.535 766.965 219.066 766.965 218.551ZM775.309 228.629C773.645 228.629 772.301 228.008 771.277 226.766L772.719 225.148C773.086 225.586 773.477 225.91 773.891 226.121C774.305 226.34 774.777 226.449 775.309 226.449C776.129 226.449 776.734 226.223 777.125 225.77C777.516 225.324 777.711 224.734 777.711 224V215.27H775.238V213.078H780.137V224C780.137 224.703 780.02 225.34 779.785 225.91C779.551 226.48 779.223 226.969 778.801 227.375C778.379 227.781 777.871 228.09 777.277 228.301C776.684 228.52 776.027 228.629 775.309 228.629ZM780.395 211.66H777.441V208.707H780.395V211.66ZM786.605 219.465C786.723 220.215 787.078 220.84 787.672 221.34C788.273 221.832 789.078 222.078 790.086 222.078C790.875 222.078 791.559 221.957 792.137 221.715C792.723 221.465 793.227 221.137 793.648 220.73L794.891 222.441C794.188 223.145 793.441 223.625 792.652 223.883C791.871 224.141 791.016 224.27 790.086 224.27C789.242 224.27 788.457 224.129 787.73 223.848C787.004 223.566 786.375 223.176 785.844 222.676C785.312 222.168 784.895 221.566 784.59 220.871C784.293 220.176 784.145 219.402 784.145 218.551C784.145 217.723 784.281 216.961 784.555 216.266C784.836 215.562 785.227 214.957 785.727 214.449C786.234 213.934 786.84 213.535 787.543 213.254C788.246 212.965 789.023 212.82 789.875 212.82C790.758 212.82 791.559 212.973 792.277 213.277C792.996 213.574 793.609 214.008 794.117 214.578C794.633 215.148 795.035 215.848 795.324 216.676C795.613 217.496 795.758 218.426 795.758 219.465H786.605ZM793.016 217.332C792.891 216.629 792.527 216.066 791.926 215.645C791.324 215.215 790.641 215 789.875 215C789.109 215 788.422 215.215 787.812 215.645C787.203 216.066 786.836 216.629 786.711 217.332H793.016ZM808.52 220.52C808.395 221.668 807.941 222.582 807.16 223.262C806.387 223.934 805.418 224.27 804.254 224.27C803.613 224.27 803.027 224.164 802.496 223.953C801.965 223.742 801.512 223.449 801.137 223.074C800.762 222.699 800.469 222.25 800.258 221.727C800.055 221.195 799.953 220.617 799.953 219.992V215.27H797.48V213.078H799.953V208.707H802.379V213.078H806.961V215.27H802.379V219.992C802.379 220.695 802.551 221.219 802.895 221.562C803.238 221.906 803.691 222.078 804.254 222.078C804.941 222.078 805.453 221.879 805.789 221.48C806.125 221.082 806.324 220.602 806.387 220.039L808.52 220.52ZM821.785 218.551C821.785 219.402 821.648 220.176 821.375 220.871C821.109 221.566 820.723 222.168 820.215 222.676C819.715 223.176 819.113 223.566 818.41 223.848C817.707 224.129 816.922 224.27 816.055 224.27C815.203 224.27 814.426 224.129 813.723 223.848C813.02 223.566 812.414 223.176 811.906 222.676C811.406 222.168 811.02 221.566 810.746 220.871C810.48 220.176 810.348 219.402 810.348 218.551C810.348 217.723 810.48 216.957 810.746 216.254C811.02 215.543 811.406 214.934 811.906 214.426C812.414 213.91 813.02 213.516 813.723 213.242C814.426 212.961 815.203 212.82 816.055 212.82C816.922 212.82 817.707 212.961 818.41 213.242C819.113 213.516 819.715 213.91 820.215 214.426C820.723 214.934 821.109 215.543 821.375 216.254C821.648 216.957 821.785 217.723 821.785 218.551ZM819.371 218.551C819.371 218.059 819.293 217.594 819.137 217.156C818.988 216.711 818.77 216.332 818.48 216.02C818.191 215.707 817.84 215.461 817.426 215.281C817.02 215.094 816.562 215 816.055 215C815.539 215 815.078 215.094 814.672 215.281C814.266 215.461 813.922 215.707 813.641 216.02C813.359 216.332 813.141 216.711 812.984 217.156C812.836 217.594 812.762 218.059 812.762 218.551C812.762 219.066 812.836 219.535 812.984 219.957C813.141 220.379 813.359 220.75 813.641 221.07C813.922 221.391 814.266 221.641 814.672 221.82C815.078 221.992 815.539 222.078 816.055 222.078C816.562 222.078 817.02 221.992 817.426 221.82C817.84 221.641 818.191 221.391 818.48 221.07C818.77 220.75 818.988 220.379 819.137 219.957C819.293 219.535 819.371 219.066 819.371 218.551ZM834.312 220.73C834.312 221.441 834.152 222.02 833.832 222.465C833.512 222.91 833.098 223.27 832.59 223.543C832.09 223.816 831.527 224.004 830.902 224.105C830.285 224.215 829.68 224.27 829.086 224.27C828.094 224.27 827.105 224.125 826.121 223.836C825.137 223.547 824.285 223.168 823.566 222.699L824.574 220.707C825.434 221.207 826.219 221.562 826.93 221.773C827.648 221.977 828.367 222.078 829.086 222.078C830.062 222.078 830.773 221.977 831.219 221.773C831.664 221.562 831.887 221.273 831.887 220.906C831.887 220.727 831.824 220.578 831.699 220.461C831.574 220.344 831.367 220.238 831.078 220.145C830.789 220.043 830.406 219.945 829.93 219.852C829.461 219.75 828.875 219.645 828.172 219.535C827.609 219.441 827.074 219.328 826.566 219.195C826.066 219.055 825.625 218.859 825.242 218.609C824.859 218.359 824.551 218.043 824.316 217.66C824.09 217.277 823.977 216.797 823.977 216.219C823.977 215.633 824.125 215.125 824.422 214.695C824.727 214.258 825.121 213.898 825.605 213.617C826.098 213.336 826.648 213.133 827.258 213.008C827.867 212.883 828.477 212.82 829.086 212.82C829.945 212.82 830.777 212.934 831.582 213.16C832.395 213.379 833.105 213.695 833.715 214.109L832.754 215.984C832.145 215.602 831.551 215.344 830.973 215.211C830.402 215.07 829.773 215 829.086 215C828.797 215 828.496 215.016 828.184 215.047C827.871 215.078 827.582 215.141 827.316 215.234C827.051 215.32 826.828 215.441 826.648 215.598C826.477 215.746 826.391 215.93 826.391 216.148C826.391 216.438 826.645 216.676 827.152 216.863C827.668 217.043 828.543 217.223 829.777 217.402C830.449 217.496 831.062 217.617 831.617 217.766C832.172 217.906 832.648 218.102 833.047 218.352C833.445 218.594 833.754 218.91 833.973 219.301C834.199 219.684 834.312 220.16 834.312 220.73ZM375.477 248H373.051V246.992C372.582 247.406 372.109 247.723 371.633 247.941C371.156 248.16 370.613 248.27 370.004 248.27C369.301 248.27 368.648 248.129 368.047 247.848C367.445 247.566 366.926 247.176 366.488 246.676C366.059 246.168 365.719 245.562 365.469 244.859C365.227 244.156 365.105 243.387 365.105 242.551C365.105 241.723 365.227 240.957 365.469 240.254C365.719 239.543 366.059 238.938 366.488 238.438C366.926 237.93 367.445 237.535 368.047 237.254C368.648 236.965 369.301 236.82 370.004 236.82C370.613 236.82 371.156 236.926 371.633 237.137C372.109 237.34 372.582 237.648 373.051 238.062V234.898H370.941V232.707H375.477V248ZM373.051 239.984C372.762 239.664 372.387 239.422 371.926 239.258C371.473 239.086 371.039 239 370.625 239C369.711 239 368.965 239.328 368.387 239.984C367.816 240.641 367.531 241.496 367.531 242.551C367.531 243.605 367.816 244.457 368.387 245.105C368.965 245.754 369.711 246.078 370.625 246.078C371.039 246.078 371.473 245.996 371.926 245.832C372.387 245.66 372.762 245.414 373.051 245.094V239.984ZM380.457 243.465C380.574 244.215 380.93 244.84 381.523 245.34C382.125 245.832 382.93 246.078 383.938 246.078C384.727 246.078 385.41 245.957 385.988 245.715C386.574 245.465 387.078 245.137 387.5 244.73L388.742 246.441C388.039 247.145 387.293 247.625 386.504 247.883C385.723 248.141 384.867 248.27 383.938 248.27C383.094 248.27 382.309 248.129 381.582 247.848C380.855 247.566 380.227 247.176 379.695 246.676C379.164 246.168 378.746 245.566 378.441 244.871C378.145 244.176 377.996 243.402 377.996 242.551C377.996 241.723 378.133 240.961 378.406 240.266C378.688 239.562 379.078 238.957 379.578 238.449C380.086 237.934 380.691 237.535 381.395 237.254C382.098 236.965 382.875 236.82 383.727 236.82C384.609 236.82 385.41 236.973 386.129 237.277C386.848 237.574 387.461 238.008 387.969 238.578C388.484 239.148 388.887 239.848 389.176 240.676C389.465 241.496 389.609 242.426 389.609 243.465H380.457ZM386.867 241.332C386.742 240.629 386.379 240.066 385.777 239.645C385.176 239.215 384.492 239 383.727 239C382.961 239 382.273 239.215 381.664 239.645C381.055 240.066 380.688 240.629 380.562 241.332H386.867ZM401.961 244.73C401.961 245.441 401.801 246.02 401.48 246.465C401.16 246.91 400.746 247.27 400.238 247.543C399.738 247.816 399.176 248.004 398.551 248.105C397.934 248.215 397.328 248.27 396.734 248.27C395.742 248.27 394.754 248.125 393.77 247.836C392.785 247.547 391.934 247.168 391.215 246.699L392.223 244.707C393.082 245.207 393.867 245.562 394.578 245.773C395.297 245.977 396.016 246.078 396.734 246.078C397.711 246.078 398.422 245.977 398.867 245.773C399.312 245.562 399.535 245.273 399.535 244.906C399.535 244.727 399.473 244.578 399.348 244.461C399.223 244.344 399.016 244.238 398.727 244.145C398.438 244.043 398.055 243.945 397.578 243.852C397.109 243.75 396.523 243.645 395.82 243.535C395.258 243.441 394.723 243.328 394.215 243.195C393.715 243.055 393.273 242.859 392.891 242.609C392.508 242.359 392.199 242.043 391.965 241.66C391.738 241.277 391.625 240.797 391.625 240.219C391.625 239.633 391.773 239.125 392.07 238.695C392.375 238.258 392.77 237.898 393.254 237.617C393.746 237.336 394.297 237.133 394.906 237.008C395.516 236.883 396.125 236.82 396.734 236.82C397.594 236.82 398.426 236.934 399.23 237.16C400.043 237.379 400.754 237.695 401.363 238.109L400.402 239.984C399.793 239.602 399.199 239.344 398.621 239.211C398.051 239.07 397.422 239 396.734 239C396.445 239 396.145 239.016 395.832 239.047C395.52 239.078 395.23 239.141 394.965 239.234C394.699 239.32 394.477 239.441 394.297 239.598C394.125 239.746 394.039 239.93 394.039 240.148C394.039 240.438 394.293 240.676 394.801 240.863C395.316 241.043 396.191 241.223 397.426 241.402C398.098 241.496 398.711 241.617 399.266 241.766C399.82 241.906 400.297 242.102 400.695 242.352C401.094 242.594 401.402 242.91 401.621 243.301C401.848 243.684 401.961 244.16 401.961 244.73ZM406.66 243.465C406.777 244.215 407.133 244.84 407.727 245.34C408.328 245.832 409.133 246.078 410.141 246.078C410.93 246.078 411.613 245.957 412.191 245.715C412.777 245.465 413.281 245.137 413.703 244.73L414.945 246.441C414.242 247.145 413.496 247.625 412.707 247.883C411.926 248.141 411.07 248.27 410.141 248.27C409.297 248.27 408.512 248.129 407.785 247.848C407.059 247.566 406.43 247.176 405.898 246.676C405.367 246.168 404.949 245.566 404.645 244.871C404.348 244.176 404.199 243.402 404.199 242.551C404.199 241.723 404.336 240.961 404.609 240.266C404.891 239.562 405.281 238.957 405.781 238.449C406.289 237.934 406.895 237.535 407.598 237.254C408.301 236.965 409.078 236.82 409.93 236.82C410.812 236.82 411.613 236.973 412.332 237.277C413.051 237.574 413.664 238.008 414.172 238.578C414.688 239.148 415.09 239.848 415.379 240.676C415.668 241.496 415.812 242.426 415.812 243.465H406.66ZM413.07 241.332C412.945 240.629 412.582 240.066 411.98 239.645C411.379 239.215 410.695 239 409.93 239C409.164 239 408.477 239.215 407.867 239.645C407.258 240.066 406.891 240.629 406.766 241.332H413.07ZM427.883 248H425.457V241.262C425.457 240.41 425.297 239.82 424.977 239.492C424.656 239.164 424.191 239 423.582 239C422.684 239 421.949 239.363 421.379 240.09C420.816 240.816 420.535 241.82 420.535 243.102V248H418.109V237.078H420.535V239.82C420.777 238.875 421.227 238.141 421.883 237.617C422.539 237.086 423.348 236.82 424.309 236.82C425.426 236.82 426.301 237.184 426.934 237.91C427.566 238.637 427.883 239.754 427.883 241.262V248ZM441.559 237.078L437.527 248H434.668L430.637 237.078H433.227L436.109 245.34L438.969 237.078H441.559ZM454.941 242.551C454.941 243.402 454.805 244.176 454.531 244.871C454.266 245.566 453.879 246.168 453.371 246.676C452.871 247.176 452.27 247.566 451.566 247.848C450.863 248.129 450.078 248.27 449.211 248.27C448.359 248.27 447.582 248.129 446.879 247.848C446.176 247.566 445.57 247.176 445.062 246.676C444.562 246.168 444.176 245.566 443.902 244.871C443.637 244.176 443.504 243.402 443.504 242.551C443.504 241.723 443.637 240.957 443.902 240.254C444.176 239.543 444.562 238.934 445.062 238.426C445.57 237.91 446.176 237.516 446.879 237.242C447.582 236.961 448.359 236.82 449.211 236.82C450.078 236.82 450.863 236.961 451.566 237.242C452.27 237.516 452.871 237.91 453.371 238.426C453.879 238.934 454.266 239.543 454.531 240.254C454.805 240.957 454.941 241.723 454.941 242.551ZM452.527 242.551C452.527 242.059 452.449 241.594 452.293 241.156C452.145 240.711 451.926 240.332 451.637 240.02C451.348 239.707 450.996 239.461 450.582 239.281C450.176 239.094 449.719 239 449.211 239C448.695 239 448.234 239.094 447.828 239.281C447.422 239.461 447.078 239.707 446.797 240.02C446.516 240.332 446.297 240.711 446.141 241.156C445.992 241.594 445.918 242.059 445.918 242.551C445.918 243.066 445.992 243.535 446.141 243.957C446.297 244.379 446.516 244.75 446.797 245.07C447.078 245.391 447.422 245.641 447.828 245.82C448.234 245.992 448.695 246.078 449.211 246.078C449.719 246.078 450.176 245.992 450.582 245.82C450.996 245.641 451.348 245.391 451.637 245.07C451.926 244.75 452.145 244.379 452.293 243.957C452.449 243.535 452.527 243.066 452.527 242.551ZM466.027 248H458.691V245.82H461.082V234.898H458.691V232.707H463.508V245.82H466.027V248ZM480.863 237.078L476.832 248H473.973L469.941 237.078H472.531L475.414 245.34L478.273 237.078H480.863ZM489.98 235.66H487.027V232.707H489.98V235.66ZM492.207 248H484.871V245.82H487.285V239.27H484.871V237.078H489.711V245.82H492.207V248ZM506.492 248H504.066V246.992C503.598 247.406 503.125 247.723 502.648 247.941C502.172 248.16 501.629 248.27 501.02 248.27C500.316 248.27 499.664 248.129 499.062 247.848C498.461 247.566 497.941 247.176 497.504 246.676C497.074 246.168 496.734 245.562 496.484 244.859C496.242 244.156 496.121 243.387 496.121 242.551C496.121 241.723 496.242 240.957 496.484 240.254C496.734 239.543 497.074 238.938 497.504 238.438C497.941 237.93 498.461 237.535 499.062 237.254C499.664 236.965 500.316 236.82 501.02 236.82C501.629 236.82 502.172 236.926 502.648 237.137C503.125 237.34 503.598 237.648 504.066 238.062V234.898H501.957V232.707H506.492V248ZM504.066 239.984C503.777 239.664 503.402 239.422 502.941 239.258C502.488 239.086 502.055 239 501.641 239C500.727 239 499.98 239.328 499.402 239.984C498.832 240.641 498.547 241.496 498.547 242.551C498.547 243.605 498.832 244.457 499.402 245.105C499.98 245.754 500.727 246.078 501.641 246.078C502.055 246.078 502.488 245.996 502.941 245.832C503.402 245.66 503.777 245.414 504.066 245.094V239.984ZM520.449 242.551C520.449 243.402 520.312 244.176 520.039 244.871C519.773 245.566 519.387 246.168 518.879 246.676C518.379 247.176 517.777 247.566 517.074 247.848C516.371 248.129 515.586 248.27 514.719 248.27C513.867 248.27 513.09 248.129 512.387 247.848C511.684 247.566 511.078 247.176 510.57 246.676C510.07 246.168 509.684 245.566 509.41 244.871C509.145 244.176 509.012 243.402 509.012 242.551C509.012 241.723 509.145 240.957 509.41 240.254C509.684 239.543 510.07 238.934 510.57 238.426C511.078 237.91 511.684 237.516 512.387 237.242C513.09 236.961 513.867 236.82 514.719 236.82C515.586 236.82 516.371 236.961 517.074 237.242C517.777 237.516 518.379 237.91 518.879 238.426C519.387 238.934 519.773 239.543 520.039 240.254C520.312 240.957 520.449 241.723 520.449 242.551ZM518.035 242.551C518.035 242.059 517.957 241.594 517.801 241.156C517.652 240.711 517.434 240.332 517.145 240.02C516.855 239.707 516.504 239.461 516.09 239.281C515.684 239.094 515.227 239 514.719 239C514.203 239 513.742 239.094 513.336 239.281C512.93 239.461 512.586 239.707 512.305 240.02C512.023 240.332 511.805 240.711 511.648 241.156C511.5 241.594 511.426 242.059 511.426 242.551C511.426 243.066 511.5 243.535 511.648 243.957C511.805 244.379 512.023 244.75 512.305 245.07C512.586 245.391 512.93 245.641 513.336 245.82C513.742 245.992 514.203 246.078 514.719 246.078C515.227 246.078 515.684 245.992 516.09 245.82C516.504 245.641 516.855 245.391 517.145 245.07C517.434 244.75 517.652 244.379 517.801 243.957C517.957 243.535 518.035 243.066 518.035 242.551ZM532.977 244.73C532.977 245.441 532.816 246.02 532.496 246.465C532.176 246.91 531.762 247.27 531.254 247.543C530.754 247.816 530.191 248.004 529.566 248.105C528.949 248.215 528.344 248.27 527.75 248.27C526.758 248.27 525.77 248.125 524.785 247.836C523.801 247.547 522.949 247.168 522.23 246.699L523.238 244.707C524.098 245.207 524.883 245.562 525.594 245.773C526.312 245.977 527.031 246.078 527.75 246.078C528.727 246.078 529.438 245.977 529.883 245.773C530.328 245.562 530.551 245.273 530.551 244.906C530.551 244.727 530.488 244.578 530.363 244.461C530.238 244.344 530.031 244.238 529.742 244.145C529.453 244.043 529.07 243.945 528.594 243.852C528.125 243.75 527.539 243.645 526.836 243.535C526.273 243.441 525.738 243.328 525.23 243.195C524.73 243.055 524.289 242.859 523.906 242.609C523.523 242.359 523.215 242.043 522.98 241.66C522.754 241.277 522.641 240.797 522.641 240.219C522.641 239.633 522.789 239.125 523.086 238.695C523.391 238.258 523.785 237.898 524.27 237.617C524.762 237.336 525.312 237.133 525.922 237.008C526.531 236.883 527.141 236.82 527.75 236.82C528.609 236.82 529.441 236.934 530.246 237.16C531.059 237.379 531.77 237.695 532.379 238.109L531.418 239.984C530.809 239.602 530.215 239.344 529.637 239.211C529.066 239.07 528.438 239 527.75 239C527.461 239 527.16 239.016 526.848 239.047C526.535 239.078 526.246 239.141 525.98 239.234C525.715 239.32 525.492 239.441 525.312 239.598C525.141 239.746 525.055 239.93 525.055 240.148C525.055 240.438 525.309 240.676 525.816 240.863C526.332 241.043 527.207 241.223 528.441 241.402C529.113 241.496 529.727 241.617 530.281 241.766C530.836 241.906 531.312 242.102 531.711 242.352C532.109 242.594 532.418 242.91 532.637 243.301C532.863 243.684 532.977 244.16 532.977 244.73ZM549.125 237.078H551.551V238.062C552.012 237.648 552.477 237.34 552.945 237.137C553.422 236.926 553.965 236.82 554.574 236.82C555.277 236.82 555.93 236.965 556.531 237.254C557.133 237.535 557.648 237.93 558.078 238.438C558.508 238.938 558.848 239.543 559.098 240.254C559.348 240.957 559.473 241.723 559.473 242.551C559.473 243.387 559.348 244.156 559.098 244.859C558.848 245.562 558.508 246.168 558.078 246.676C557.648 247.176 557.133 247.566 556.531 247.848C555.93 248.129 555.277 248.27 554.574 248.27C553.965 248.27 553.422 248.16 552.945 247.941C552.477 247.723 552.012 247.406 551.551 246.992V252.371H549.125V237.078ZM551.551 245.07C551.84 245.391 552.207 245.641 552.652 245.82C553.105 245.992 553.539 246.078 553.953 246.078C554.867 246.078 555.609 245.754 556.18 245.105C556.758 244.457 557.047 243.605 557.047 242.551C557.047 241.496 556.758 240.641 556.18 239.984C555.609 239.328 554.867 239 553.953 239C553.539 239 553.105 239.086 552.652 239.258C552.207 239.422 551.84 239.664 551.551 239.984V245.07ZM563.879 243.465C563.996 244.215 564.352 244.84 564.945 245.34C565.547 245.832 566.352 246.078 567.359 246.078C568.148 246.078 568.832 245.957 569.41 245.715C569.996 245.465 570.5 245.137 570.922 244.73L572.164 246.441C571.461 247.145 570.715 247.625 569.926 247.883C569.145 248.141 568.289 248.27 567.359 248.27C566.516 248.27 565.73 248.129 565.004 247.848C564.277 247.566 563.648 247.176 563.117 246.676C562.586 246.168 562.168 245.566 561.863 244.871C561.566 244.176 561.418 243.402 561.418 242.551C561.418 241.723 561.555 240.961 561.828 240.266C562.109 239.562 562.5 238.957 563 238.449C563.508 237.934 564.113 237.535 564.816 237.254C565.52 236.965 566.297 236.82 567.148 236.82C568.031 236.82 568.832 236.973 569.551 237.277C570.27 237.574 570.883 238.008 571.391 238.578C571.906 239.148 572.309 239.848 572.598 240.676C572.887 241.496 573.031 242.426 573.031 243.465H563.879ZM570.289 241.332C570.164 240.629 569.801 240.066 569.199 239.645C568.598 239.215 567.914 239 567.148 239C566.383 239 565.695 239.215 565.086 239.645C564.477 240.066 564.109 240.629 563.984 241.332H570.289ZM583.941 248H576.605V245.82H578.996V234.898H576.605V232.707H581.422V245.82H583.941V248ZM599.059 242.551C599.059 243.402 598.922 244.176 598.648 244.871C598.383 245.566 597.996 246.168 597.488 246.676C596.988 247.176 596.387 247.566 595.684 247.848C594.98 248.129 594.195 248.27 593.328 248.27C592.477 248.27 591.699 248.129 590.996 247.848C590.293 247.566 589.688 247.176 589.18 246.676C588.68 246.168 588.293 245.566 588.02 244.871C587.754 244.176 587.621 243.402 587.621 242.551C587.621 241.723 587.754 240.957 588.02 240.254C588.293 239.543 588.68 238.934 589.18 238.426C589.688 237.91 590.293 237.516 590.996 237.242C591.699 236.961 592.477 236.82 593.328 236.82C594.195 236.82 594.98 236.961 595.684 237.242C596.387 237.516 596.988 237.91 597.488 238.426C597.996 238.934 598.383 239.543 598.648 240.254C598.922 240.957 599.059 241.723 599.059 242.551ZM596.645 242.551C596.645 242.059 596.566 241.594 596.41 241.156C596.262 240.711 596.043 240.332 595.754 240.02C595.465 239.707 595.113 239.461 594.699 239.281C594.293 239.094 593.836 239 593.328 239C592.812 239 592.352 239.094 591.945 239.281C591.539 239.461 591.195 239.707 590.914 240.02C590.633 240.332 590.414 240.711 590.258 241.156C590.109 241.594 590.035 242.059 590.035 242.551C590.035 243.066 590.109 243.535 590.258 243.957C590.414 244.379 590.633 244.75 590.914 245.07C591.195 245.391 591.539 245.641 591.945 245.82C592.352 245.992 592.812 246.078 593.328 246.078C593.836 246.078 594.293 245.992 594.699 245.82C595.113 245.641 595.465 245.391 595.754 245.07C596.043 244.75 596.262 244.379 596.41 243.957C596.566 243.535 596.645 243.066 596.645 242.551ZM611.586 244.73C611.586 245.441 611.426 246.02 611.105 246.465C610.785 246.91 610.371 247.27 609.863 247.543C609.363 247.816 608.801 248.004 608.176 248.105C607.559 248.215 606.953 248.27 606.359 248.27C605.367 248.27 604.379 248.125 603.395 247.836C602.41 247.547 601.559 247.168 600.84 246.699L601.848 244.707C602.707 245.207 603.492 245.562 604.203 245.773C604.922 245.977 605.641 246.078 606.359 246.078C607.336 246.078 608.047 245.977 608.492 245.773C608.938 245.562 609.16 245.273 609.16 244.906C609.16 244.727 609.098 244.578 608.973 244.461C608.848 244.344 608.641 244.238 608.352 244.145C608.062 244.043 607.68 243.945 607.203 243.852C606.734 243.75 606.148 243.645 605.445 243.535C604.883 243.441 604.348 243.328 603.84 243.195C603.34 243.055 602.898 242.859 602.516 242.609C602.133 242.359 601.824 242.043 601.59 241.66C601.363 241.277 601.25 240.797 601.25 240.219C601.25 239.633 601.398 239.125 601.695 238.695C602 238.258 602.395 237.898 602.879 237.617C603.371 237.336 603.922 237.133 604.531 237.008C605.141 236.883 605.75 236.82 606.359 236.82C607.219 236.82 608.051 236.934 608.855 237.16C609.668 237.379 610.379 237.695 610.988 238.109L610.027 239.984C609.418 239.602 608.824 239.344 608.246 239.211C607.676 239.07 607.047 239 606.359 239C606.07 239 605.77 239.016 605.457 239.047C605.145 239.078 604.855 239.141 604.59 239.234C604.324 239.32 604.102 239.441 603.922 239.598C603.75 239.746 603.664 239.93 603.664 240.148C603.664 240.438 603.918 240.676 604.426 240.863C604.941 241.043 605.816 241.223 607.051 241.402C607.723 241.496 608.336 241.617 608.891 241.766C609.445 241.906 609.922 242.102 610.32 242.352C610.719 242.594 611.027 242.91 611.246 243.301C611.473 243.684 611.586 244.16 611.586 244.73ZM627.113 244.859C627.113 244.219 627.285 243.66 627.629 243.184C627.973 242.699 628.422 242.297 628.977 241.977C629.539 241.656 630.18 241.418 630.898 241.262C631.625 241.098 632.363 241.016 633.113 241.016C633.527 241.016 633.883 241.023 634.18 241.039C634.477 241.055 634.777 241.078 635.082 241.109V240.676C635.082 240.105 634.859 239.68 634.414 239.398C633.977 239.117 633.398 238.977 632.68 238.977C632.023 238.977 631.355 239.07 630.676 239.258C629.996 239.438 629.352 239.703 628.742 240.055L627.758 238.156C628.477 237.742 629.246 237.418 630.066 237.184C630.895 236.941 631.766 236.82 632.68 236.82C633.273 236.82 633.855 236.887 634.426 237.02C635.004 237.152 635.52 237.371 635.973 237.676C636.434 237.98 636.801 238.379 637.074 238.871C637.348 239.355 637.484 239.957 637.484 240.676V248H635.082V246.395C634.699 246.988 634.133 247.449 633.383 247.777C632.641 248.105 631.84 248.27 630.98 248.27C630.449 248.27 629.945 248.195 629.469 248.047C629 247.906 628.594 247.691 628.25 247.402C627.906 247.113 627.629 246.758 627.418 246.336C627.215 245.906 627.113 245.414 627.113 244.859ZM631.602 246.102C632.078 246.102 632.523 246.043 632.938 245.926C633.359 245.801 633.73 245.633 634.051 245.422C634.371 245.203 634.621 244.941 634.801 244.637C634.988 244.332 635.082 243.996 635.082 243.629V243.219C634.699 243.156 634.34 243.121 634.004 243.113C633.668 243.105 633.371 243.102 633.113 243.102C631.926 243.102 631.027 243.258 630.418 243.57C629.816 243.883 629.516 244.27 629.516 244.73C629.516 245.645 630.211 246.102 631.602 246.102ZM649.449 248H642.113V245.82H644.504V234.898H642.113V232.707H646.93V245.82H649.449V248ZM653.938 237.078H656.363V243.828C656.363 244.672 656.523 245.258 656.844 245.586C657.164 245.914 657.629 246.078 658.238 246.078C659.129 246.078 659.859 245.715 660.43 244.988C661 244.262 661.285 243.258 661.285 241.977V237.078H663.711V248H661.285V245.27C661.043 246.207 660.594 246.941 659.938 247.473C659.281 248.004 658.473 248.27 657.512 248.27C656.395 248.27 655.52 247.906 654.887 247.18C654.254 246.445 653.938 245.328 653.938 243.828V237.078ZM676.812 248H674.387V241.262C674.387 240.41 674.227 239.82 673.906 239.492C673.586 239.164 673.121 239 672.512 239C671.613 239 670.879 239.363 670.309 240.09C669.746 240.816 669.465 241.82 669.465 243.102V248H667.039V237.078H669.465V239.82C669.707 238.875 670.156 238.141 670.812 237.617C671.469 237.086 672.277 236.82 673.238 236.82C674.355 236.82 675.23 237.184 675.863 237.91C676.496 238.637 676.812 239.754 676.812 241.262V248ZM690.77 242.551C690.77 243.402 690.633 244.176 690.359 244.871C690.094 245.566 689.707 246.168 689.199 246.676C688.699 247.176 688.098 247.566 687.395 247.848C686.691 248.129 685.906 248.27 685.039 248.27C684.188 248.27 683.41 248.129 682.707 247.848C682.004 247.566 681.398 247.176 680.891 246.676C680.391 246.168 680.004 245.566 679.73 244.871C679.465 244.176 679.332 243.402 679.332 242.551C679.332 241.723 679.465 240.957 679.73 240.254C680.004 239.543 680.391 238.934 680.891 238.426C681.398 237.91 682.004 237.516 682.707 237.242C683.41 236.961 684.188 236.82 685.039 236.82C685.906 236.82 686.691 236.961 687.395 237.242C688.098 237.516 688.699 237.91 689.199 238.426C689.707 238.934 690.094 239.543 690.359 240.254C690.633 240.957 690.77 241.723 690.77 242.551ZM688.355 242.551C688.355 242.059 688.277 241.594 688.121 241.156C687.973 240.711 687.754 240.332 687.465 240.02C687.176 239.707 686.824 239.461 686.41 239.281C686.004 239.094 685.547 239 685.039 239C684.523 239 684.062 239.094 683.656 239.281C683.25 239.461 682.906 239.707 682.625 240.02C682.344 240.332 682.125 240.711 681.969 241.156C681.82 241.594 681.746 242.059 681.746 242.551C681.746 243.066 681.82 243.535 681.969 243.957C682.125 244.379 682.344 244.75 682.625 245.07C682.906 245.391 683.25 245.641 683.656 245.82C684.062 245.992 684.523 246.078 685.039 246.078C685.547 246.078 686.004 245.992 686.41 245.82C686.824 245.641 687.176 245.391 687.465 245.07C687.754 244.75 687.973 244.379 688.121 243.957C688.277 243.535 688.355 243.066 688.355 242.551ZM703.297 244.73C703.297 245.441 703.137 246.02 702.816 246.465C702.496 246.91 702.082 247.27 701.574 247.543C701.074 247.816 700.512 248.004 699.887 248.105C699.27 248.215 698.664 248.27 698.07 248.27C697.078 248.27 696.09 248.125 695.105 247.836C694.121 247.547 693.27 247.168 692.551 246.699L693.559 244.707C694.418 245.207 695.203 245.562 695.914 245.773C696.633 245.977 697.352 246.078 698.07 246.078C699.047 246.078 699.758 245.977 700.203 245.773C700.648 245.562 700.871 245.273 700.871 244.906C700.871 244.727 700.809 244.578 700.684 244.461C700.559 244.344 700.352 244.238 700.062 244.145C699.773 244.043 699.391 243.945 698.914 243.852C698.445 243.75 697.859 243.645 697.156 243.535C696.594 243.441 696.059 243.328 695.551 243.195C695.051 243.055 694.609 242.859 694.227 242.609C693.844 242.359 693.535 242.043 693.301 241.66C693.074 241.277 692.961 240.797 692.961 240.219C692.961 239.633 693.109 239.125 693.406 238.695C693.711 238.258 694.105 237.898 694.59 237.617C695.082 237.336 695.633 237.133 696.242 237.008C696.852 236.883 697.461 236.82 698.07 236.82C698.93 236.82 699.762 236.934 700.566 237.16C701.379 237.379 702.09 237.695 702.699 238.109L701.738 239.984C701.129 239.602 700.535 239.344 699.957 239.211C699.387 239.07 698.758 239 698.07 239C697.781 239 697.48 239.016 697.168 239.047C696.855 239.078 696.566 239.141 696.301 239.234C696.035 239.32 695.812 239.441 695.633 239.598C695.461 239.746 695.375 239.93 695.375 240.148C695.375 240.438 695.629 240.676 696.137 240.863C696.652 241.043 697.527 241.223 698.762 241.402C699.434 241.496 700.047 241.617 700.602 241.766C701.156 241.906 701.633 242.102 702.031 242.352C702.43 242.594 702.738 242.91 702.957 243.301C703.184 243.684 703.297 244.16 703.297 244.73ZM712.707 248H709.754V245.047H712.707V248Z" fill="#F3E8FF"/>
</g>
<g filter="url(#filter1_d_14_261)">
<path d="M699 176.233C798.218 176.233 897.449 175.709 996.664 176.233C1005.99 176.282 1015.31 176.272 1024.63 176.62C1029.12 176.789 1034.07 175.742 1038.08 177.783C1039.67 178.594 1035.82 180.724 1034.2 181.493C1028.04 184.427 1021.51 186.557 1015.05 188.746C952.173 210.025 885.872 223.76 826.072 253.362C816.145 258.276 792.746 268.015 801.101 275.288C808.763 281.958 851.849 281.143 852.76 281.157C902.122 281.91 951.409 277.636 1000.76 278.665C1006.33 278.782 1036.62 278.296 1045.44 284.59C1053.92 290.639 1039.22 301.961 1037.86 303.305C1028.06 313.004 948.407 381.079 938 390" stroke="white" stroke-width="3" stroke-linecap="round"/>
</g>
</g>
<defs>
<filter id="filter0_d_14_261" x="151.148" y="131.07" width="840.406" height="129.301" filterUnits="userSpaceOnUse" color-interpolation-filters="sRGB">
<feFlood flood-opacity="0" result="BackgroundImageFix"/>
<feColorMatrix in="SourceAlpha" type="matrix" values="0 0 0 0 0 0 0 0 0 0 0 0 0 0 0 0 0 0 127 0" result="hardAlpha"/>
<feOffset dy="4"/>
<feGaussianBlur stdDeviation="2"/>
<feComposite in2="hardAlpha" operator="out"/>
<feColorMatrix type="matrix" values="0 0 0 0 0 0 0 0 0 0 0 0 0 0 0 0 0 0 0.25 0"/>
<feBlend mode="normal" in2="BackgroundImageFix" result="effect1_dropShadow_14_261"/>
<feBlend mode="normal" in="SourceGraphic" in2="effect1_dropShadow_14_261" result="shape"/>
</filter>
<filter id="filter1_d_14_261" x="695.5" y="174.5" width="356.064" height="223" filterUnits="userSpaceOnUse" color-interpolation-filters="sRGB">
<feFlood flood-opacity="0" result="BackgroundImageFix"/>
<feColorMatrix in="SourceAlpha" type="matrix" values="0 0 0 0 0 0 0 0 0 0 0 0 0 0 0 0 0 0 127 0" result="hardAlpha"/>
<feOffset dy="4"/>
<feGaussianBlur stdDeviation="1"/>
<feComposite in2="hardAlpha" operator="out"/>
<feColorMatrix type="matrix" values="0 0 0 0 0 0 0 0 0 0 0 0 0 0 0 0 0 0 0.28 0"/>
<feBlend mode="normal" in2="BackgroundImageFix" result="effect1_dropShadow_14_261"/>
<feBlend mode="normal" in="SourceGraphic" in2="effect1_dropShadow_14_261" result="shape"/>
</filter>
<radialGradient id="paint0_radial_14_261" cx="0" cy="0" r="1" gradientUnits="userSpaceOnUse" gradientTransform="translate(576 192) rotate(90) scale(448 1344)">
<stop stop-color="#5B21B6"/>
<stop offset="1" stop-color="#280F50"/>
</radialGradient>
<clipPath id="clip0_14_261">
<rect width="1153" height="384" fill="white"/>
</clipPath>
<clipPath id="clip1_14_261">
<path d="M-22 -3H97V382H-22V-3Z" fill="white"/>
</clipPath>
</defs>
</svg>
