<svg width="1000" height="384" viewBox="0 0 1000 384" fill="none" xmlns="http://www.w3.org/2000/svg">
<g clip-path="url(#clip0_36_139)">
<rect width="1152" height="384" fill="url(#paint0_radial_36_139)"/>
<g opacity="0.12">
<line x1="234" y1="125.5" x2="1279" y2="125.5" stroke="white"/>
<line x1="118" y1="381.5" x2="1395" y2="381.5" stroke="white"/>
<line x1="234" y1="61.5" x2="1279" y2="61.5001" stroke="white"/>
<line x1="234" y1="317.5" x2="1279" y2="317.5" stroke="white"/>
<line x1="234" y1="253.5" x2="1279" y2="253.5" stroke="white"/>
<line x1="234" y1="189.5" x2="1279" y2="189.5" stroke="white"/>
<line x1="118.5" y1="664" x2="118.5" y2="-267" stroke="white"/>
<line x1="698.5" y1="446" x2="698.5" y2="189" stroke="white"/>
<line x1="466.5" y1="446" x2="466.5" y2="189" stroke="white"/>
<line x1="350.5" y1="574" x2="350.5" y2="62.9999" stroke="white"/>
<line x1="234.5" y1="664" x2="234.5" y2="-99.0001" stroke="white"/>
<line x1="814.5" y1="446" x2="814.5" y2="189" stroke="white"/>
<g clip-path="url(#clip1_36_139)">
<mask id="path-14-inside-1_36_139" fill="white">
<path d="M0 -3H119V382H0V-3Z"/>
</mask>
<line x1="-60.3501" y1="42.1236" x2="135.129" y2="-49.0299" stroke="white"/>
<line x1="-60.3501" y1="273.512" x2="135.129" y2="182.359" stroke="white"/>
<line x1="-60.3501" y1="157.818" x2="135.129" y2="66.6646" stroke="white"/>
<line x1="-60.3501" y1="389.207" x2="135.129" y2="298.053" stroke="white"/>
<line x1="-60.3501" y1="58.6513" x2="135.129" y2="-32.5021" stroke="white"/>
<line x1="-60.3501" y1="290.04" x2="135.129" y2="198.887" stroke="white"/>
<line x1="-60.3501" y1="174.346" x2="135.129" y2="83.1924" stroke="white"/>
<line x1="-60.3501" y1="405.735" x2="135.129" y2="314.581" stroke="white"/>
<line x1="-60.3501" y1="75.1791" x2="135.129" y2="-15.9744" stroke="white"/>
<line x1="-60.3501" y1="306.568" x2="135.129" y2="215.414" stroke="white"/>
<line x1="-60.3501" y1="190.874" x2="135.129" y2="99.7202" stroke="white"/>
<line x1="-60.3501" y1="422.262" x2="135.129" y2="331.109" stroke="white"/>
<line x1="-60.3501" y1="91.7069" x2="135.129" y2="0.553402" stroke="white"/>
<line x1="-60.3501" y1="323.096" x2="135.129" y2="231.942" stroke="white"/>
<line x1="-60.3501" y1="207.401" x2="135.129" y2="116.248" stroke="white"/>
<line x1="-60.3501" y1="438.79" x2="135.129" y2="347.637" stroke="white"/>
<line x1="-60.3501" y1="108.235" x2="135.129" y2="17.0812" stroke="white"/>
<line x1="-60.3501" y1="339.624" x2="135.129" y2="248.47" stroke="white"/>
<line x1="-60.3501" y1="223.929" x2="135.129" y2="132.776" stroke="white"/>
<line x1="-60.3501" y1="455.318" x2="135.129" y2="364.164" stroke="white"/>
<line x1="-60.3501" y1="124.763" x2="135.129" y2="33.6091" stroke="white"/>
<line x1="-60.3501" y1="356.151" x2="135.129" y2="264.998" stroke="white"/>
<line x1="-60.3501" y1="240.457" x2="135.129" y2="149.303" stroke="white"/>
<line x1="-60.3501" y1="471.846" x2="135.129" y2="380.692" stroke="white"/>
<line x1="-60.3501" y1="141.29" x2="135.129" y2="50.1368" stroke="white"/>
<line x1="-60.3501" y1="372.679" x2="135.129" y2="281.526" stroke="white"/>
<line x1="-60.3501" y1="256.985" x2="135.129" y2="165.831" stroke="white"/>
</g>
<path d="M0 -2H119V-4H0V-2ZM119 381H0V383H119V381Z" fill="white" mask="url(#path-14-inside-1_36_139)"/>
</g>
<path d="M357.854 148H345.637V128.884H357.854V131.623H348.669V136.896H355.832V139.636H348.669V145.275H357.854V148ZM375.271 148H368.796V145.275H369.997L368.137 142.419L366.306 145.275H367.419V148H361.003V145.275H362.98L366.042 141.071L363.127 137.087H361.296V134.348H367.448V137.087H366.481L368.137 139.724L369.821 137.087H368.737V134.348H374.948V137.087H373.176L370.261 141.071L373.322 145.275H375.271V148ZM378.391 134.348H381.423V135.578C381.999 135.061 382.58 134.675 383.166 134.421C383.762 134.157 384.44 134.025 385.202 134.025C386.081 134.025 386.896 134.206 387.648 134.567C388.4 134.919 389.045 135.412 389.582 136.047C390.119 136.672 390.544 137.429 390.856 138.317C391.169 139.196 391.325 140.153 391.325 141.188C391.325 142.233 391.169 143.195 390.856 144.074C390.544 144.953 390.119 145.71 389.582 146.345C389.045 146.97 388.4 147.458 387.648 147.81C386.896 148.161 386.081 148.337 385.202 148.337C384.44 148.337 383.762 148.2 383.166 147.927C382.58 147.653 381.999 147.258 381.423 146.74V153.464H378.391V134.348ZM381.423 144.338C381.784 144.738 382.243 145.051 382.8 145.275C383.366 145.49 383.908 145.598 384.426 145.598C385.568 145.598 386.496 145.192 387.209 144.382C387.932 143.571 388.293 142.507 388.293 141.188C388.293 139.87 387.932 138.801 387.209 137.98C386.496 137.16 385.568 136.75 384.426 136.75C383.908 136.75 383.366 136.857 382.8 137.072C382.243 137.277 381.784 137.58 381.423 137.98V144.338ZM405.534 148H396.364V145.275H399.353V131.623H396.364V128.884H402.385V145.275H405.534V148ZM424.431 141.188C424.431 142.253 424.26 143.22 423.918 144.089C423.586 144.958 423.103 145.71 422.468 146.345C421.843 146.97 421.091 147.458 420.212 147.81C419.333 148.161 418.352 148.337 417.268 148.337C416.203 148.337 415.231 148.161 414.353 147.81C413.474 147.458 412.717 146.97 412.082 146.345C411.457 145.71 410.974 144.958 410.632 144.089C410.3 143.22 410.134 142.253 410.134 141.188C410.134 140.153 410.3 139.196 410.632 138.317C410.974 137.429 411.457 136.667 412.082 136.032C412.717 135.388 413.474 134.895 414.353 134.553C415.231 134.201 416.203 134.025 417.268 134.025C418.352 134.025 419.333 134.201 420.212 134.553C421.091 134.895 421.843 135.388 422.468 136.032C423.103 136.667 423.586 137.429 423.918 138.317C424.26 139.196 424.431 140.153 424.431 141.188ZM421.413 141.188C421.413 140.573 421.315 139.992 421.12 139.445C420.935 138.889 420.661 138.415 420.3 138.024C419.938 137.634 419.499 137.326 418.981 137.102C418.474 136.867 417.902 136.75 417.268 136.75C416.623 136.75 416.047 136.867 415.539 137.102C415.031 137.326 414.602 137.634 414.25 138.024C413.898 138.415 413.625 138.889 413.43 139.445C413.244 139.992 413.151 140.573 413.151 141.188C413.151 141.833 413.244 142.419 413.43 142.946C413.625 143.474 413.898 143.938 414.25 144.338C414.602 144.738 415.031 145.051 415.539 145.275C416.047 145.49 416.623 145.598 417.268 145.598C417.902 145.598 418.474 145.49 418.981 145.275C419.499 145.051 419.938 144.738 420.3 144.338C420.661 143.938 420.935 143.474 421.12 142.946C421.315 142.419 421.413 141.833 421.413 141.188ZM440.119 137.585C439.758 137.409 439.387 137.277 439.006 137.189C438.635 137.092 438.205 137.043 437.717 137.043C437.043 137.043 436.408 137.146 435.812 137.351C435.227 137.546 434.719 137.844 434.289 138.244C433.859 138.645 433.522 139.147 433.278 139.753C433.044 140.349 432.927 141.057 432.927 141.877V145.275H435.988V148H426.804V145.275H429.895V137.087H426.804V134.348H432.927V137.775C433.425 136.408 434.157 135.441 435.124 134.875C436.101 134.309 437.258 134.025 438.596 134.025C439.016 134.025 439.455 134.069 439.914 134.157C440.373 134.245 440.822 134.401 441.262 134.626L440.119 137.585ZM445.964 142.331C446.11 143.269 446.555 144.05 447.297 144.675C448.049 145.29 449.055 145.598 450.314 145.598C451.301 145.598 452.155 145.446 452.878 145.144C453.61 144.831 454.24 144.421 454.768 143.913L456.32 146.052C455.441 146.931 454.509 147.531 453.522 147.854C452.546 148.176 451.477 148.337 450.314 148.337C449.26 148.337 448.278 148.161 447.37 147.81C446.462 147.458 445.676 146.97 445.012 146.345C444.348 145.71 443.825 144.958 443.444 144.089C443.073 143.22 442.888 142.253 442.888 141.188C442.888 140.153 443.059 139.201 443.4 138.332C443.752 137.453 444.24 136.696 444.865 136.062C445.5 135.417 446.257 134.919 447.136 134.567C448.015 134.206 448.986 134.025 450.051 134.025C451.154 134.025 452.155 134.216 453.054 134.597C453.952 134.968 454.719 135.51 455.354 136.223C455.998 136.936 456.501 137.81 456.862 138.845C457.224 139.87 457.404 141.032 457.404 142.331H445.964ZM453.977 139.665C453.82 138.786 453.366 138.083 452.614 137.556C451.862 137.019 451.008 136.75 450.051 136.75C449.094 136.75 448.234 137.019 447.473 137.556C446.711 138.083 446.252 138.786 446.096 139.665H453.977ZM489.938 141.188C489.938 142.253 489.768 143.22 489.426 144.089C489.094 144.958 488.61 145.71 487.976 146.345C487.351 146.97 486.599 147.458 485.72 147.81C484.841 148.161 483.859 148.337 482.775 148.337C481.711 148.337 480.739 148.161 479.86 147.81C478.981 147.458 478.225 146.97 477.59 146.345C476.965 145.71 476.481 144.958 476.14 144.089C475.808 143.22 475.642 142.253 475.642 141.188C475.642 140.153 475.808 139.196 476.14 138.317C476.481 137.429 476.965 136.667 477.59 136.032C478.225 135.388 478.981 134.895 479.86 134.553C480.739 134.201 481.711 134.025 482.775 134.025C483.859 134.025 484.841 134.201 485.72 134.553C486.599 134.895 487.351 135.388 487.976 136.032C488.61 136.667 489.094 137.429 489.426 138.317C489.768 139.196 489.938 140.153 489.938 141.188ZM486.921 141.188C486.921 140.573 486.823 139.992 486.628 139.445C486.442 138.889 486.169 138.415 485.808 138.024C485.446 137.634 485.007 137.326 484.489 137.102C483.981 136.867 483.41 136.75 482.775 136.75C482.131 136.75 481.555 136.867 481.047 137.102C480.539 137.326 480.109 137.634 479.758 138.024C479.406 138.415 479.133 138.889 478.938 139.445C478.752 139.992 478.659 140.573 478.659 141.188C478.659 141.833 478.752 142.419 478.938 142.946C479.133 143.474 479.406 143.938 479.758 144.338C480.109 144.738 480.539 145.051 481.047 145.275C481.555 145.49 482.131 145.598 482.775 145.598C483.41 145.598 483.981 145.49 484.489 145.275C485.007 145.051 485.446 144.738 485.808 144.338C486.169 143.938 486.442 143.474 486.628 142.946C486.823 142.419 486.921 141.833 486.921 141.188ZM505.598 143.913C505.598 144.802 505.397 145.524 504.997 146.081C504.597 146.638 504.079 147.087 503.444 147.429C502.819 147.771 502.116 148.005 501.335 148.132C500.563 148.269 499.807 148.337 499.064 148.337C497.824 148.337 496.589 148.156 495.358 147.795C494.128 147.434 493.063 146.96 492.165 146.374L493.425 143.884C494.499 144.509 495.48 144.953 496.369 145.217C497.268 145.471 498.166 145.598 499.064 145.598C500.285 145.598 501.174 145.471 501.73 145.217C502.287 144.953 502.565 144.592 502.565 144.133C502.565 143.908 502.487 143.723 502.331 143.576C502.175 143.43 501.916 143.298 501.555 143.181C501.193 143.054 500.715 142.932 500.119 142.814C499.533 142.688 498.801 142.556 497.922 142.419C497.219 142.302 496.55 142.16 495.915 141.994C495.29 141.818 494.738 141.574 494.26 141.262C493.781 140.949 493.396 140.554 493.103 140.075C492.819 139.597 492.678 138.996 492.678 138.273C492.678 137.541 492.863 136.906 493.234 136.369C493.615 135.822 494.108 135.373 494.714 135.021C495.329 134.67 496.018 134.416 496.779 134.26C497.541 134.104 498.303 134.025 499.064 134.025C500.139 134.025 501.179 134.167 502.185 134.45C503.2 134.724 504.089 135.119 504.851 135.637L503.649 137.98C502.888 137.502 502.146 137.18 501.423 137.014C500.71 136.838 499.924 136.75 499.064 136.75C498.703 136.75 498.327 136.77 497.937 136.809C497.546 136.848 497.185 136.926 496.853 137.043C496.521 137.15 496.242 137.302 496.018 137.497C495.803 137.683 495.695 137.912 495.695 138.186C495.695 138.547 496.013 138.845 496.647 139.079C497.292 139.304 498.386 139.528 499.929 139.753C500.769 139.87 501.535 140.021 502.229 140.207C502.922 140.383 503.518 140.627 504.016 140.939C504.514 141.242 504.899 141.638 505.173 142.126C505.456 142.604 505.598 143.2 505.598 143.913ZM538.718 134.597C538.718 136.511 538.137 137.937 536.975 138.874C535.812 139.802 534.191 140.266 532.111 140.266H528.815V148H525.783V128.884H532.082C534.182 128.884 535.812 129.367 536.975 130.334C538.137 131.291 538.718 132.712 538.718 134.597ZM535.686 134.553C535.686 133.576 535.363 132.844 534.719 132.355C534.084 131.867 533.215 131.623 532.111 131.623H528.815V137.526H532.111C533.215 137.526 534.084 137.282 534.719 136.794C535.363 136.306 535.686 135.559 535.686 134.553ZM554.758 137.585C554.396 137.409 554.025 137.277 553.645 137.189C553.273 137.092 552.844 137.043 552.355 137.043C551.682 137.043 551.047 137.146 550.451 137.351C549.865 137.546 549.357 137.844 548.928 138.244C548.498 138.645 548.161 139.147 547.917 139.753C547.683 140.349 547.565 141.057 547.565 141.877V145.275H550.627V148H541.442V145.275H544.533V137.087H541.442V134.348H547.565V137.775C548.063 136.408 548.796 135.441 549.763 134.875C550.739 134.309 551.896 134.025 553.234 134.025C553.654 134.025 554.094 134.069 554.553 134.157C555.012 134.245 555.461 134.401 555.9 134.626L554.758 137.585ZM571.823 141.188C571.823 142.253 571.652 143.22 571.311 144.089C570.979 144.958 570.495 145.71 569.86 146.345C569.235 146.97 568.483 147.458 567.604 147.81C566.726 148.161 565.744 148.337 564.66 148.337C563.596 148.337 562.624 148.161 561.745 147.81C560.866 147.458 560.109 146.97 559.475 146.345C558.85 145.71 558.366 144.958 558.024 144.089C557.692 143.22 557.526 142.253 557.526 141.188C557.526 140.153 557.692 139.196 558.024 138.317C558.366 137.429 558.85 136.667 559.475 136.032C560.109 135.388 560.866 134.895 561.745 134.553C562.624 134.201 563.596 134.025 564.66 134.025C565.744 134.025 566.726 134.201 567.604 134.553C568.483 134.895 569.235 135.388 569.86 136.032C570.495 136.667 570.979 137.429 571.311 138.317C571.652 139.196 571.823 140.153 571.823 141.188ZM568.806 141.188C568.806 140.573 568.708 139.992 568.513 139.445C568.327 138.889 568.054 138.415 567.692 138.024C567.331 137.634 566.892 137.326 566.374 137.102C565.866 136.867 565.295 136.75 564.66 136.75C564.016 136.75 563.439 136.867 562.932 137.102C562.424 137.326 561.994 137.634 561.643 138.024C561.291 138.415 561.018 138.889 560.822 139.445C560.637 139.992 560.544 140.573 560.544 141.188C560.544 141.833 560.637 142.419 560.822 142.946C561.018 143.474 561.291 143.938 561.643 144.338C561.994 144.738 562.424 145.051 562.932 145.275C563.439 145.49 564.016 145.598 564.66 145.598C565.295 145.598 565.866 145.49 566.374 145.275C566.892 145.051 567.331 144.738 567.692 144.338C568.054 143.938 568.327 143.474 568.513 142.946C568.708 142.419 568.806 141.833 568.806 141.188ZM579.235 153.786C577.155 153.786 575.476 153.01 574.196 151.457L575.998 149.436C576.457 149.982 576.945 150.388 577.463 150.651C577.98 150.925 578.571 151.062 579.235 151.062C580.261 151.062 581.018 150.778 581.506 150.212C581.994 149.655 582.238 148.918 582.238 148V137.087H579.147V134.348H585.271V148C585.271 148.879 585.124 149.675 584.831 150.388C584.538 151.101 584.128 151.711 583.601 152.219C583.073 152.727 582.438 153.112 581.696 153.376C580.954 153.649 580.134 153.786 579.235 153.786ZM585.593 132.575H581.901V128.884H585.593V132.575ZM593.356 142.331C593.503 143.269 593.947 144.05 594.689 144.675C595.441 145.29 596.447 145.598 597.707 145.598C598.693 145.598 599.548 145.446 600.271 145.144C601.003 144.831 601.633 144.421 602.16 143.913L603.713 146.052C602.834 146.931 601.901 147.531 600.915 147.854C599.938 148.176 598.869 148.337 597.707 148.337C596.652 148.337 595.671 148.161 594.763 147.81C593.854 147.458 593.068 146.97 592.404 146.345C591.74 145.71 591.218 144.958 590.837 144.089C590.466 143.22 590.28 142.253 590.28 141.188C590.28 140.153 590.451 139.201 590.793 138.332C591.145 137.453 591.633 136.696 592.258 136.062C592.893 135.417 593.649 134.919 594.528 134.567C595.407 134.206 596.379 134.025 597.443 134.025C598.547 134.025 599.548 134.216 600.446 134.597C601.345 134.968 602.111 135.51 602.746 136.223C603.391 136.936 603.894 137.81 604.255 138.845C604.616 139.87 604.797 141.032 604.797 142.331H593.356ZM601.369 139.665C601.213 138.786 600.759 138.083 600.007 137.556C599.255 137.019 598.4 136.75 597.443 136.75C596.486 136.75 595.627 137.019 594.865 137.556C594.104 138.083 593.645 138.786 593.488 139.665H601.369ZM620.749 143.649C620.593 145.085 620.026 146.228 619.05 147.077C618.083 147.917 616.872 148.337 615.417 148.337C614.616 148.337 613.884 148.205 613.22 147.941C612.556 147.678 611.989 147.312 611.521 146.843C611.052 146.374 610.686 145.812 610.422 145.158C610.168 144.494 610.041 143.771 610.041 142.99V137.087H606.95V134.348H610.041V128.884H613.073V134.348H618.801V137.087H613.073V142.99C613.073 143.869 613.288 144.523 613.718 144.953C614.147 145.383 614.714 145.598 615.417 145.598C616.276 145.598 616.916 145.349 617.336 144.851C617.756 144.353 618.005 143.752 618.083 143.049L620.749 143.649ZM637.331 141.188C637.331 142.253 637.16 143.22 636.818 144.089C636.486 144.958 636.003 145.71 635.368 146.345C634.743 146.97 633.991 147.458 633.112 147.81C632.233 148.161 631.252 148.337 630.168 148.337C629.104 148.337 628.132 148.161 627.253 147.81C626.374 147.458 625.617 146.97 624.982 146.345C624.357 145.71 623.874 144.958 623.532 144.089C623.2 143.22 623.034 142.253 623.034 141.188C623.034 140.153 623.2 139.196 623.532 138.317C623.874 137.429 624.357 136.667 624.982 136.032C625.617 135.388 626.374 134.895 627.253 134.553C628.132 134.201 629.104 134.025 630.168 134.025C631.252 134.025 632.233 134.201 633.112 134.553C633.991 134.895 634.743 135.388 635.368 136.032C636.003 136.667 636.486 137.429 636.818 138.317C637.16 139.196 637.331 140.153 637.331 141.188ZM634.313 141.188C634.313 140.573 634.216 139.992 634.021 139.445C633.835 138.889 633.562 138.415 633.2 138.024C632.839 137.634 632.399 137.326 631.882 137.102C631.374 136.867 630.803 136.75 630.168 136.75C629.523 136.75 628.947 136.867 628.439 137.102C627.932 137.326 627.502 137.634 627.15 138.024C626.799 138.415 626.525 138.889 626.33 139.445C626.145 139.992 626.052 140.573 626.052 141.188C626.052 141.833 626.145 142.419 626.33 142.946C626.525 143.474 626.799 143.938 627.15 144.338C627.502 144.738 627.932 145.051 628.439 145.275C628.947 145.49 629.523 145.598 630.168 145.598C630.803 145.598 631.374 145.49 631.882 145.275C632.399 145.051 632.839 144.738 633.2 144.338C633.562 143.938 633.835 143.474 634.021 142.946C634.216 142.419 634.313 141.833 634.313 141.188ZM652.99 143.913C652.99 144.802 652.79 145.524 652.39 146.081C651.989 146.638 651.472 147.087 650.837 147.429C650.212 147.771 649.509 148.005 648.728 148.132C647.956 148.269 647.199 148.337 646.457 148.337C645.217 148.337 643.981 148.156 642.751 147.795C641.521 147.434 640.456 146.96 639.558 146.374L640.817 143.884C641.892 144.509 642.873 144.953 643.762 145.217C644.66 145.471 645.559 145.598 646.457 145.598C647.678 145.598 648.566 145.471 649.123 145.217C649.68 144.953 649.958 144.592 649.958 144.133C649.958 143.908 649.88 143.723 649.724 143.576C649.567 143.43 649.309 143.298 648.947 143.181C648.586 143.054 648.107 142.932 647.512 142.814C646.926 142.688 646.193 142.556 645.314 142.419C644.611 142.302 643.942 142.16 643.308 141.994C642.683 141.818 642.131 141.574 641.652 141.262C641.174 140.949 640.788 140.554 640.495 140.075C640.212 139.597 640.07 138.996 640.07 138.273C640.07 137.541 640.256 136.906 640.627 136.369C641.008 135.822 641.501 135.373 642.106 135.021C642.722 134.67 643.41 134.416 644.172 134.26C644.934 134.104 645.695 134.025 646.457 134.025C647.531 134.025 648.571 134.167 649.577 134.45C650.593 134.724 651.481 135.119 652.243 135.637L651.042 137.98C650.28 137.502 649.538 137.18 648.815 137.014C648.103 136.838 647.316 136.75 646.457 136.75C646.096 136.75 645.72 136.77 645.329 136.809C644.938 136.848 644.577 136.926 644.245 137.043C643.913 137.15 643.635 137.302 643.41 137.497C643.195 137.683 643.088 137.912 643.088 138.186C643.088 138.547 643.405 138.845 644.04 139.079C644.685 139.304 645.778 139.528 647.321 139.753C648.161 139.87 648.928 140.021 649.621 140.207C650.314 140.383 650.91 140.627 651.408 140.939C651.906 141.242 652.292 141.638 652.565 142.126C652.849 142.604 652.99 143.2 652.99 143.913ZM415.407 172.756C415.407 173.635 415.256 174.421 414.953 175.114C414.66 175.798 414.255 176.379 413.737 176.857C413.229 177.336 412.619 177.702 411.906 177.956C411.203 178.21 410.451 178.337 409.65 178.337C408.752 178.337 407.941 178.176 407.219 177.854C406.496 177.531 405.876 176.999 405.358 176.257V178H402.634V171.76H405.358C405.358 172.385 405.466 172.937 405.681 173.415C405.905 173.894 406.198 174.299 406.56 174.631C406.921 174.953 407.341 175.202 407.819 175.378C408.298 175.544 408.806 175.627 409.343 175.627C410.251 175.627 410.983 175.417 411.54 174.997C412.097 174.577 412.375 173.908 412.375 172.99C412.375 172.512 412.287 172.102 412.111 171.76C411.945 171.418 411.701 171.115 411.379 170.852C411.066 170.578 410.681 170.344 410.222 170.148C409.763 169.943 409.24 169.729 408.654 169.504C407.961 169.27 407.268 169.006 406.574 168.713C405.881 168.42 405.261 168.059 404.714 167.629C404.167 167.199 403.723 166.672 403.381 166.047C403.039 165.412 402.868 164.616 402.868 163.659C402.868 162.819 403.02 162.087 403.322 161.462C403.635 160.827 404.045 160.295 404.553 159.865C405.07 159.436 405.666 159.113 406.34 158.898C407.023 158.674 407.746 158.562 408.508 158.562C409.387 158.562 410.139 158.747 410.764 159.118C411.398 159.489 411.887 159.982 412.229 160.598V158.884H414.953V164.831H412.229C412.229 163.708 411.931 162.834 411.335 162.209C410.749 161.574 409.958 161.257 408.962 161.257C408.083 161.257 407.351 161.462 406.765 161.872C406.188 162.282 405.9 162.858 405.9 163.601C405.9 163.981 405.974 164.309 406.12 164.582C406.276 164.846 406.496 165.09 406.779 165.314C407.072 165.529 407.438 165.734 407.878 165.93C408.317 166.115 408.825 166.32 409.401 166.545C410.124 166.799 410.842 167.087 411.555 167.409C412.268 167.731 412.907 168.127 413.474 168.596C414.04 169.064 414.504 169.636 414.865 170.31C415.227 170.974 415.407 171.789 415.407 172.756ZM419.333 164.348H422.365V172.785C422.365 173.84 422.565 174.572 422.966 174.982C423.366 175.393 423.947 175.598 424.709 175.598C425.822 175.598 426.735 175.144 427.448 174.235C428.161 173.327 428.518 172.072 428.518 170.471V164.348H431.55V178H428.518V174.587C428.215 175.759 427.653 176.677 426.833 177.341C426.013 178.005 425.002 178.337 423.801 178.337C422.404 178.337 421.311 177.883 420.52 176.975C419.729 176.057 419.333 174.66 419.333 172.785V164.348ZM448.278 173.913C448.278 174.802 448.078 175.524 447.678 176.081C447.277 176.638 446.76 177.087 446.125 177.429C445.5 177.771 444.797 178.005 444.016 178.132C443.244 178.269 442.487 178.337 441.745 178.337C440.505 178.337 439.27 178.156 438.039 177.795C436.809 177.434 435.744 176.96 434.846 176.374L436.105 173.884C437.18 174.509 438.161 174.953 439.05 175.217C439.948 175.471 440.847 175.598 441.745 175.598C442.966 175.598 443.854 175.471 444.411 175.217C444.968 174.953 445.246 174.592 445.246 174.133C445.246 173.908 445.168 173.723 445.012 173.576C444.855 173.43 444.597 173.298 444.235 173.181C443.874 173.054 443.396 172.932 442.8 172.814C442.214 172.688 441.481 172.556 440.603 172.419C439.899 172.302 439.23 172.16 438.596 171.994C437.971 171.818 437.419 171.574 436.94 171.262C436.462 170.949 436.076 170.554 435.783 170.075C435.5 169.597 435.358 168.996 435.358 168.273C435.358 167.541 435.544 166.906 435.915 166.369C436.296 165.822 436.789 165.373 437.395 165.021C438.01 164.67 438.698 164.416 439.46 164.26C440.222 164.104 440.983 164.025 441.745 164.025C442.819 164.025 443.859 164.167 444.865 164.45C445.881 164.724 446.77 165.119 447.531 165.637L446.33 167.98C445.568 167.502 444.826 167.18 444.104 167.014C443.391 166.838 442.604 166.75 441.745 166.75C441.384 166.75 441.008 166.77 440.617 166.809C440.227 166.848 439.865 166.926 439.533 167.043C439.201 167.15 438.923 167.302 438.698 167.497C438.483 167.683 438.376 167.912 438.376 168.186C438.376 168.547 438.693 168.845 439.328 169.079C439.973 169.304 441.066 169.528 442.609 169.753C443.449 169.87 444.216 170.021 444.909 170.207C445.603 170.383 446.198 170.627 446.696 170.939C447.194 171.242 447.58 171.638 447.854 172.126C448.137 172.604 448.278 173.2 448.278 173.913ZM465.168 173.649C465.012 175.085 464.445 176.228 463.469 177.077C462.502 177.917 461.291 178.337 459.836 178.337C459.035 178.337 458.303 178.205 457.639 177.941C456.975 177.678 456.408 177.312 455.939 176.843C455.471 176.374 455.104 175.812 454.841 175.158C454.587 174.494 454.46 173.771 454.46 172.99V167.087H451.369V164.348H454.46V158.884H457.492V164.348H463.22V167.087H457.492V172.99C457.492 173.869 457.707 174.523 458.137 174.953C458.566 175.383 459.133 175.598 459.836 175.598C460.695 175.598 461.335 175.349 461.755 174.851C462.175 174.353 462.424 173.752 462.502 173.049L465.168 173.649ZM470.529 172.331C470.676 173.269 471.12 174.05 471.862 174.675C472.614 175.29 473.62 175.598 474.88 175.598C475.866 175.598 476.721 175.446 477.443 175.144C478.176 174.831 478.806 174.421 479.333 173.913L480.886 176.052C480.007 176.931 479.074 177.531 478.088 177.854C477.111 178.176 476.042 178.337 474.88 178.337C473.825 178.337 472.844 178.161 471.936 177.81C471.027 177.458 470.241 176.97 469.577 176.345C468.913 175.71 468.391 174.958 468.01 174.089C467.639 173.22 467.453 172.253 467.453 171.188C467.453 170.153 467.624 169.201 467.966 168.332C468.317 167.453 468.806 166.696 469.431 166.062C470.065 165.417 470.822 164.919 471.701 164.567C472.58 164.206 473.552 164.025 474.616 164.025C475.72 164.025 476.721 164.216 477.619 164.597C478.518 164.968 479.284 165.51 479.919 166.223C480.563 166.936 481.066 167.81 481.428 168.845C481.789 169.87 481.97 171.032 481.97 172.331H470.529ZM478.542 169.665C478.386 168.786 477.932 168.083 477.18 167.556C476.428 167.019 475.573 166.75 474.616 166.75C473.659 166.75 472.8 167.019 472.038 167.556C471.276 168.083 470.817 168.786 470.661 169.665H478.542ZM497.058 178H494.025V169.577C494.025 168.513 493.825 167.775 493.425 167.365C493.024 166.955 492.443 166.75 491.682 166.75C490.559 166.75 489.641 167.204 488.928 168.112C488.225 169.021 487.873 170.275 487.873 171.877V178H484.841V164.348H487.873V167.775C488.176 166.594 488.737 165.676 489.558 165.021C490.378 164.357 491.389 164.025 492.59 164.025C493.986 164.025 495.08 164.479 495.871 165.388C496.662 166.296 497.058 167.692 497.058 169.577V178ZM514.299 173.649C514.143 175.085 513.576 176.228 512.6 177.077C511.633 177.917 510.422 178.337 508.967 178.337C508.166 178.337 507.434 178.205 506.77 177.941C506.105 177.678 505.539 177.312 505.07 176.843C504.602 176.374 504.235 175.812 503.972 175.158C503.718 174.494 503.591 173.771 503.591 172.99V167.087H500.5V164.348H503.591V158.884H506.623V164.348H512.351V167.087H506.623V172.99C506.623 173.869 506.838 174.523 507.268 174.953C507.697 175.383 508.264 175.598 508.967 175.598C509.826 175.598 510.466 175.349 510.886 174.851C511.306 174.353 511.555 173.752 511.633 173.049L514.299 173.649ZM516.818 174.074C516.818 173.273 517.033 172.575 517.463 171.979C517.893 171.374 518.454 170.871 519.147 170.471C519.851 170.07 520.651 169.772 521.55 169.577C522.458 169.372 523.381 169.27 524.318 169.27C524.836 169.27 525.28 169.279 525.651 169.299C526.022 169.318 526.398 169.348 526.779 169.387V168.845C526.779 168.132 526.501 167.6 525.944 167.248C525.397 166.896 524.675 166.721 523.776 166.721C522.956 166.721 522.121 166.838 521.271 167.072C520.422 167.297 519.616 167.629 518.854 168.068L517.624 165.695C518.522 165.178 519.484 164.772 520.51 164.479C521.545 164.177 522.634 164.025 523.776 164.025C524.519 164.025 525.246 164.108 525.959 164.274C526.682 164.44 527.326 164.714 527.893 165.095C528.469 165.476 528.928 165.974 529.27 166.589C529.611 167.194 529.782 167.946 529.782 168.845V178H526.779V175.993C526.301 176.735 525.593 177.312 524.655 177.722C523.728 178.132 522.727 178.337 521.652 178.337C520.988 178.337 520.358 178.244 519.763 178.059C519.177 177.883 518.669 177.614 518.239 177.253C517.81 176.892 517.463 176.447 517.199 175.92C516.945 175.383 516.818 174.768 516.818 174.074ZM522.429 175.627C523.024 175.627 523.581 175.554 524.099 175.407C524.626 175.251 525.09 175.041 525.49 174.777C525.891 174.504 526.203 174.177 526.428 173.796C526.662 173.415 526.779 172.995 526.779 172.536V172.023C526.301 171.945 525.852 171.901 525.432 171.892C525.012 171.882 524.641 171.877 524.318 171.877C522.834 171.877 521.711 172.072 520.949 172.463C520.197 172.854 519.821 173.337 519.821 173.913C519.821 175.056 520.69 175.627 522.429 175.627ZM527.292 160.056L520.964 163.63L519.66 161.623L525.578 157.419L527.292 160.056ZM546.906 164.348L541.867 178H538.293L533.254 164.348H536.491L540.095 174.675L543.669 164.348H546.906ZM552.414 172.331C552.561 173.269 553.005 174.05 553.747 174.675C554.499 175.29 555.505 175.598 556.765 175.598C557.751 175.598 558.605 175.446 559.328 175.144C560.061 174.831 560.69 174.421 561.218 173.913L562.771 176.052C561.892 176.931 560.959 177.531 559.973 177.854C558.996 178.176 557.927 178.337 556.765 178.337C555.71 178.337 554.729 178.161 553.82 177.81C552.912 177.458 552.126 176.97 551.462 176.345C550.798 175.71 550.275 174.958 549.895 174.089C549.523 173.22 549.338 172.253 549.338 171.188C549.338 170.153 549.509 169.201 549.851 168.332C550.202 167.453 550.69 166.696 551.315 166.062C551.95 165.417 552.707 164.919 553.586 164.567C554.465 164.206 555.437 164.025 556.501 164.025C557.604 164.025 558.605 164.216 559.504 164.597C560.402 164.968 561.169 165.51 561.804 166.223C562.448 166.936 562.951 167.81 563.312 168.845C563.674 169.87 563.854 171.032 563.854 172.331H552.414ZM560.427 169.665C560.271 168.786 559.816 168.083 559.064 167.556C558.312 167.019 557.458 166.75 556.501 166.75C555.544 166.75 554.685 167.019 553.923 167.556C553.161 168.083 552.702 168.786 552.546 169.665H560.427ZM574.68 162.575H570.988V158.884H574.68V162.575ZM577.463 178H568.293V175.275H571.311V167.087H568.293V164.348H574.343V175.275H577.463V178ZM595.671 173.913C595.671 174.802 595.471 175.524 595.07 176.081C594.67 176.638 594.152 177.087 593.518 177.429C592.893 177.771 592.189 178.005 591.408 178.132C590.637 178.269 589.88 178.337 589.138 178.337C587.897 178.337 586.662 178.156 585.432 177.795C584.201 177.434 583.137 176.96 582.238 176.374L583.498 173.884C584.572 174.509 585.554 174.953 586.442 175.217C587.341 175.471 588.239 175.598 589.138 175.598C590.358 175.598 591.247 175.471 591.804 175.217C592.36 174.953 592.639 174.592 592.639 174.133C592.639 173.908 592.561 173.723 592.404 173.576C592.248 173.43 591.989 173.298 591.628 173.181C591.267 173.054 590.788 172.932 590.192 172.814C589.606 172.688 588.874 172.556 587.995 172.419C587.292 172.302 586.623 172.16 585.988 171.994C585.363 171.818 584.812 171.574 584.333 171.262C583.854 170.949 583.469 170.554 583.176 170.075C582.893 169.597 582.751 168.996 582.751 168.273C582.751 167.541 582.937 166.906 583.308 166.369C583.688 165.822 584.182 165.373 584.787 165.021C585.402 164.67 586.091 164.416 586.853 164.26C587.614 164.104 588.376 164.025 589.138 164.025C590.212 164.025 591.252 164.167 592.258 164.45C593.273 164.724 594.162 165.119 594.924 165.637L593.723 167.98C592.961 167.502 592.219 167.18 591.496 167.014C590.783 166.838 589.997 166.75 589.138 166.75C588.776 166.75 588.4 166.77 588.01 166.809C587.619 166.848 587.258 166.926 586.926 167.043C586.594 167.15 586.315 167.302 586.091 167.497C585.876 167.683 585.769 167.912 585.769 168.186C585.769 168.547 586.086 168.845 586.721 169.079C587.365 169.304 588.459 169.528 590.002 169.753C590.842 169.87 591.608 170.021 592.302 170.207C592.995 170.383 593.591 170.627 594.089 170.939C594.587 171.242 594.973 171.638 595.246 172.126C595.529 172.604 595.671 173.2 595.671 173.913Z" fill="#FAF5FF"/>
<path d="M368.47 227H366.829L364.184 220.533V227H362.769V218.079H364.546L367.055 224.225V218.079H368.47V227ZM370.049 225.168C370.049 224.794 370.149 224.468 370.35 224.19C370.55 223.908 370.812 223.673 371.136 223.486C371.464 223.299 371.838 223.16 372.257 223.069C372.681 222.974 373.111 222.926 373.549 222.926C373.79 222.926 373.998 222.93 374.171 222.939C374.344 222.949 374.52 222.962 374.697 222.98V222.728C374.697 222.395 374.567 222.146 374.308 221.982C374.052 221.818 373.715 221.736 373.296 221.736C372.913 221.736 372.523 221.791 372.127 221.9C371.73 222.005 371.354 222.16 370.999 222.365L370.425 221.258C370.844 221.016 371.293 220.827 371.771 220.69C372.255 220.549 372.763 220.479 373.296 220.479C373.642 220.479 373.982 220.517 374.314 220.595C374.652 220.672 374.952 220.8 375.217 220.978C375.486 221.155 375.7 221.388 375.859 221.675C376.019 221.957 376.099 222.308 376.099 222.728V227H374.697V226.063C374.474 226.41 374.144 226.679 373.706 226.87C373.273 227.062 372.806 227.157 372.305 227.157C371.995 227.157 371.701 227.114 371.423 227.027C371.149 226.945 370.912 226.82 370.712 226.651C370.511 226.483 370.35 226.275 370.227 226.029C370.108 225.779 370.049 225.492 370.049 225.168ZM372.667 225.893C372.945 225.893 373.205 225.858 373.446 225.79C373.692 225.717 373.909 225.619 374.096 225.496C374.283 225.368 374.428 225.216 374.533 225.038C374.643 224.86 374.697 224.664 374.697 224.45V224.211C374.474 224.174 374.264 224.154 374.068 224.149C373.872 224.145 373.699 224.143 373.549 224.143C372.856 224.143 372.332 224.234 371.977 224.416C371.626 224.598 371.45 224.824 371.45 225.093C371.45 225.626 371.856 225.893 372.667 225.893ZM384.09 220.629L381.738 227H380.07L377.719 220.629H379.229L380.911 225.448L382.579 220.629H384.09ZM386.66 224.354C386.729 224.792 386.936 225.157 387.282 225.448C387.633 225.735 388.103 225.879 388.69 225.879C389.151 225.879 389.549 225.808 389.887 225.667C390.229 225.521 390.522 225.33 390.769 225.093L391.493 226.091C391.083 226.501 390.648 226.781 390.188 226.932C389.732 227.082 389.233 227.157 388.69 227.157C388.198 227.157 387.74 227.075 387.316 226.911C386.893 226.747 386.526 226.519 386.216 226.228C385.906 225.931 385.662 225.58 385.484 225.175C385.311 224.769 385.225 224.318 385.225 223.821C385.225 223.338 385.304 222.894 385.464 222.488C385.628 222.078 385.856 221.725 386.147 221.429C386.444 221.128 386.797 220.896 387.207 220.731C387.617 220.563 388.071 220.479 388.567 220.479C389.082 220.479 389.549 220.567 389.969 220.745C390.388 220.918 390.746 221.171 391.042 221.504C391.343 221.837 391.577 222.244 391.746 222.728C391.915 223.206 391.999 223.748 391.999 224.354H386.66ZM390.399 223.11C390.326 222.7 390.115 222.372 389.764 222.126C389.413 221.875 389.014 221.75 388.567 221.75C388.121 221.75 387.72 221.875 387.364 222.126C387.009 222.372 386.795 222.7 386.722 223.11H390.399ZM399.04 226.932C399.04 227.369 398.965 227.759 398.814 228.101C398.664 228.442 398.452 228.732 398.179 228.969C397.91 229.206 397.591 229.386 397.222 229.509C396.857 229.636 396.449 229.7 395.998 229.7C394.891 229.7 393.945 229.365 393.161 228.695L393.831 227.602C394.483 228.162 395.205 228.442 395.998 228.442C396.486 228.442 396.878 228.322 397.174 228.08C397.475 227.843 397.625 227.469 397.625 226.959V226.275C397.333 226.526 397.053 226.713 396.784 226.836C396.515 226.954 396.203 227.014 395.848 227.014C395.438 227.014 395.057 226.927 394.706 226.754C394.355 226.581 394.052 226.346 393.797 226.05C393.546 225.749 393.348 225.4 393.202 225.004C393.061 224.607 392.99 224.186 392.99 223.739C392.99 223.293 393.061 222.871 393.202 222.475C393.348 222.074 393.546 221.727 393.797 221.436C394.052 221.139 394.355 220.907 394.706 220.738C395.057 220.565 395.438 220.479 395.848 220.479C396.203 220.479 396.52 220.54 396.798 220.663C397.076 220.782 397.352 220.962 397.625 221.203V220.629H399.04V226.932ZM397.625 222.324C397.456 222.137 397.238 221.996 396.969 221.9C396.704 221.8 396.447 221.75 396.196 221.75C395.663 221.75 395.23 221.937 394.897 222.311C394.569 222.684 394.405 223.16 394.405 223.739C394.405 224.026 394.449 224.293 394.535 224.539C394.626 224.781 394.749 224.99 394.904 225.168C395.064 225.346 395.253 225.487 395.472 225.592C395.695 225.692 395.937 225.742 396.196 225.742C396.447 225.742 396.704 225.692 396.969 225.592C397.238 225.487 397.456 225.341 397.625 225.154V222.324ZM400.981 220.629H402.396V224.566C402.396 225.059 402.49 225.4 402.677 225.592C402.864 225.783 403.135 225.879 403.49 225.879C404.01 225.879 404.436 225.667 404.769 225.243C405.101 224.819 405.268 224.234 405.268 223.486V220.629H406.683V227H405.268V225.407C405.126 225.954 404.864 226.382 404.481 226.692C404.099 227.002 403.627 227.157 403.066 227.157C402.415 227.157 401.904 226.945 401.535 226.521C401.166 226.093 400.981 225.441 400.981 224.566V220.629ZM409.588 224.354C409.656 224.792 409.864 225.157 410.21 225.448C410.561 225.735 411.03 225.879 411.618 225.879C412.078 225.879 412.477 225.808 412.814 225.667C413.156 225.521 413.45 225.33 413.696 225.093L414.421 226.091C414.011 226.501 413.576 226.781 413.115 226.932C412.66 227.082 412.16 227.157 411.618 227.157C411.126 227.157 410.668 227.075 410.244 226.911C409.82 226.747 409.453 226.519 409.144 226.228C408.834 225.931 408.59 225.58 408.412 225.175C408.239 224.769 408.152 224.318 408.152 223.821C408.152 223.338 408.232 222.894 408.392 222.488C408.556 222.078 408.784 221.725 409.075 221.429C409.371 221.128 409.725 220.896 410.135 220.731C410.545 220.563 410.998 220.479 411.495 220.479C412.01 220.479 412.477 220.567 412.896 220.745C413.316 220.918 413.674 221.171 413.97 221.504C414.271 221.837 414.505 222.244 414.674 222.728C414.842 223.206 414.927 223.748 414.927 224.354H409.588ZM413.327 223.11C413.254 222.7 413.042 222.372 412.691 222.126C412.34 221.875 411.942 221.75 411.495 221.75C411.049 221.75 410.647 221.875 410.292 222.126C409.937 222.372 409.722 222.7 409.649 223.11H413.327ZM423.909 220.629H425.324V221.203C425.593 220.962 425.864 220.782 426.138 220.663C426.416 220.54 426.732 220.479 427.088 220.479C427.498 220.479 427.879 220.563 428.229 220.731C428.58 220.896 428.881 221.126 429.132 221.422C429.382 221.714 429.581 222.067 429.727 222.481C429.872 222.892 429.945 223.338 429.945 223.821C429.945 224.309 429.872 224.758 429.727 225.168C429.581 225.578 429.382 225.931 429.132 226.228C428.881 226.519 428.58 226.747 428.229 226.911C427.879 227.075 427.498 227.157 427.088 227.157C426.732 227.157 426.416 227.093 426.138 226.966C425.864 226.838 425.593 226.654 425.324 226.412V229.55H423.909V220.629ZM425.324 225.291C425.493 225.478 425.707 225.624 425.967 225.729C426.231 225.829 426.484 225.879 426.726 225.879C427.259 225.879 427.692 225.69 428.024 225.312C428.362 224.933 428.53 224.437 428.53 223.821C428.53 223.206 428.362 222.707 428.024 222.324C427.692 221.941 427.259 221.75 426.726 221.75C426.484 221.75 426.231 221.8 425.967 221.9C425.707 221.996 425.493 222.137 425.324 222.324V225.291ZM432.516 224.354C432.584 224.792 432.791 225.157 433.138 225.448C433.489 225.735 433.958 225.879 434.546 225.879C435.006 225.879 435.405 225.808 435.742 225.667C436.084 225.521 436.378 225.33 436.624 225.093L437.349 226.091C436.938 226.501 436.503 226.781 436.043 226.932C435.587 227.082 435.088 227.157 434.546 227.157C434.054 227.157 433.596 227.075 433.172 226.911C432.748 226.747 432.381 226.519 432.071 226.228C431.761 225.931 431.518 225.58 431.34 225.175C431.167 224.769 431.08 224.318 431.08 223.821C431.08 223.338 431.16 222.894 431.319 222.488C431.483 222.078 431.711 221.725 432.003 221.429C432.299 221.128 432.652 220.896 433.062 220.731C433.473 220.563 433.926 220.479 434.423 220.479C434.938 220.479 435.405 220.567 435.824 220.745C436.243 220.918 436.601 221.171 436.897 221.504C437.198 221.837 437.433 222.244 437.602 222.728C437.77 223.206 437.854 223.748 437.854 224.354H432.516ZM436.255 223.11C436.182 222.7 435.97 222.372 435.619 222.126C435.268 221.875 434.869 221.75 434.423 221.75C433.976 221.75 433.575 221.875 433.22 222.126C432.864 222.372 432.65 222.7 432.577 223.11H436.255ZM444.219 227H439.939V225.729H441.334V219.357H439.939V218.079H442.749V225.729H444.219V227ZM446.475 225.168C446.475 224.794 446.575 224.468 446.775 224.19C446.976 223.908 447.238 223.673 447.562 223.486C447.89 223.299 448.263 223.16 448.683 223.069C449.106 222.974 449.537 222.926 449.975 222.926C450.216 222.926 450.424 222.93 450.597 222.939C450.77 222.949 450.945 222.962 451.123 222.98V222.728C451.123 222.395 450.993 222.146 450.733 221.982C450.478 221.818 450.141 221.736 449.722 221.736C449.339 221.736 448.949 221.791 448.553 221.9C448.156 222.005 447.78 222.16 447.425 222.365L446.851 221.258C447.27 221.016 447.719 220.827 448.197 220.69C448.68 220.549 449.188 220.479 449.722 220.479C450.068 220.479 450.408 220.517 450.74 220.595C451.077 220.672 451.378 220.8 451.643 220.978C451.911 221.155 452.126 221.388 452.285 221.675C452.445 221.957 452.524 222.308 452.524 222.728V227H451.123V226.063C450.9 226.41 450.569 226.679 450.132 226.87C449.699 227.062 449.232 227.157 448.73 227.157C448.421 227.157 448.127 227.114 447.849 227.027C447.575 226.945 447.338 226.82 447.138 226.651C446.937 226.483 446.775 226.275 446.652 226.029C446.534 225.779 446.475 225.492 446.475 225.168ZM449.093 225.893C449.371 225.893 449.631 225.858 449.872 225.79C450.118 225.717 450.335 225.619 450.521 225.496C450.708 225.368 450.854 225.216 450.959 225.038C451.068 224.86 451.123 224.664 451.123 224.45V224.211C450.9 224.174 450.69 224.154 450.494 224.149C450.298 224.145 450.125 224.143 449.975 224.143C449.282 224.143 448.758 224.234 448.402 224.416C448.051 224.598 447.876 224.824 447.876 225.093C447.876 225.626 448.282 225.893 449.093 225.893ZM462.122 220.629H463.537V221.203C463.806 220.962 464.077 220.782 464.351 220.663C464.629 220.54 464.945 220.479 465.301 220.479C465.711 220.479 466.091 220.563 466.442 220.731C466.793 220.896 467.094 221.126 467.345 221.422C467.595 221.714 467.794 222.067 467.939 222.481C468.085 222.892 468.158 223.338 468.158 223.821C468.158 224.309 468.085 224.758 467.939 225.168C467.794 225.578 467.595 225.931 467.345 226.228C467.094 226.519 466.793 226.747 466.442 226.911C466.091 227.075 465.711 227.157 465.301 227.157C464.945 227.157 464.629 227.093 464.351 226.966C464.077 226.838 463.806 226.654 463.537 226.412V229.55H462.122V220.629ZM463.537 225.291C463.706 225.478 463.92 225.624 464.18 225.729C464.444 225.829 464.697 225.879 464.938 225.879C465.472 225.879 465.905 225.69 466.237 225.312C466.575 224.933 466.743 224.437 466.743 223.821C466.743 223.206 466.575 222.707 466.237 222.324C465.905 221.941 465.472 221.75 464.938 221.75C464.697 221.75 464.444 221.8 464.18 221.9C463.92 221.996 463.706 222.137 463.537 222.324V225.291ZM474.789 227H470.51V225.729H471.904V219.357H470.51V218.079H473.319V225.729H474.789V227ZM477.045 225.168C477.045 224.794 477.145 224.468 477.346 224.19C477.546 223.908 477.808 223.673 478.132 223.486C478.46 223.299 478.834 223.16 479.253 223.069C479.677 222.974 480.107 222.926 480.545 222.926C480.786 222.926 480.994 222.93 481.167 222.939C481.34 222.949 481.516 222.962 481.693 222.98V222.728C481.693 222.395 481.563 222.146 481.304 221.982C481.049 221.818 480.711 221.736 480.292 221.736C479.909 221.736 479.52 221.791 479.123 221.9C478.727 222.005 478.351 222.16 477.995 222.365L477.421 221.258C477.84 221.016 478.289 220.827 478.768 220.69C479.251 220.549 479.759 220.479 480.292 220.479C480.638 220.479 480.978 220.517 481.311 220.595C481.648 220.672 481.949 220.8 482.213 220.978C482.482 221.155 482.696 221.388 482.855 221.675C483.015 221.957 483.095 222.308 483.095 222.728V227H481.693V226.063C481.47 226.41 481.14 226.679 480.702 226.87C480.269 227.062 479.802 227.157 479.301 227.157C478.991 227.157 478.697 227.114 478.419 227.027C478.146 226.945 477.909 226.82 477.708 226.651C477.507 226.483 477.346 226.275 477.223 226.029C477.104 225.779 477.045 225.492 477.045 225.168ZM479.663 225.893C479.941 225.893 480.201 225.858 480.442 225.79C480.688 225.717 480.905 225.619 481.092 225.496C481.279 225.368 481.424 225.216 481.529 225.038C481.639 224.86 481.693 224.664 481.693 224.45V224.211C481.47 224.174 481.26 224.154 481.064 224.149C480.868 224.145 480.695 224.143 480.545 224.143C479.852 224.143 479.328 224.234 478.973 224.416C478.622 224.598 478.446 224.824 478.446 225.093C478.446 225.626 478.852 225.893 479.663 225.893ZM491.154 224.97C491.081 225.64 490.817 226.173 490.361 226.569C489.91 226.961 489.345 227.157 488.666 227.157C488.292 227.157 487.951 227.096 487.641 226.973C487.331 226.85 487.066 226.679 486.848 226.46C486.629 226.241 486.458 225.979 486.335 225.674C486.216 225.364 486.157 225.027 486.157 224.662V221.907H484.715V220.629H486.157V218.079H487.572V220.629H490.245V221.907H487.572V224.662C487.572 225.072 487.673 225.378 487.873 225.578C488.074 225.779 488.338 225.879 488.666 225.879C489.067 225.879 489.366 225.763 489.562 225.53C489.757 225.298 489.874 225.018 489.91 224.689L491.154 224.97ZM492.33 225.168C492.33 224.794 492.43 224.468 492.631 224.19C492.831 223.908 493.093 223.673 493.417 223.486C493.745 223.299 494.119 223.16 494.538 223.069C494.962 222.974 495.393 222.926 495.83 222.926C496.072 222.926 496.279 222.93 496.452 222.939C496.625 222.949 496.801 222.962 496.979 222.98V222.728C496.979 222.395 496.849 222.146 496.589 221.982C496.334 221.818 495.996 221.736 495.577 221.736C495.194 221.736 494.805 221.791 494.408 221.9C494.012 222.005 493.636 222.16 493.28 222.365L492.706 221.258C493.125 221.016 493.574 220.827 494.053 220.69C494.536 220.549 495.044 220.479 495.577 220.479C495.924 220.479 496.263 220.517 496.596 220.595C496.933 220.672 497.234 220.8 497.498 220.978C497.767 221.155 497.981 221.388 498.141 221.675C498.3 221.957 498.38 222.308 498.38 222.728V227H496.979V226.063C496.755 226.41 496.425 226.679 495.987 226.87C495.554 227.062 495.087 227.157 494.586 227.157C494.276 227.157 493.982 227.114 493.704 227.027C493.431 226.945 493.194 226.82 492.993 226.651C492.793 226.483 492.631 226.275 492.508 226.029C492.389 225.779 492.33 225.492 492.33 225.168ZM494.948 225.893C495.226 225.893 495.486 225.858 495.728 225.79C495.974 225.717 496.19 225.619 496.377 225.496C496.564 225.368 496.71 225.216 496.814 225.038C496.924 224.86 496.979 224.664 496.979 224.45V224.211C496.755 224.174 496.546 224.154 496.35 224.149C496.154 224.145 495.98 224.143 495.83 224.143C495.137 224.143 494.613 224.234 494.258 224.416C493.907 224.598 493.731 224.824 493.731 225.093C493.731 225.626 494.137 225.893 494.948 225.893ZM506.371 221.907H503.89V225.729H505.346V227H501.066V225.729H502.475V221.907H501.066V220.629H502.475C502.475 219.754 502.743 219.086 503.281 218.626C503.819 218.161 504.546 217.929 505.462 217.929C505.599 217.929 505.744 217.936 505.899 217.949C506.054 217.963 506.212 217.979 506.371 217.997V219.241C506.098 219.214 505.849 219.2 505.626 219.2C505.261 219.2 504.967 219.228 504.744 219.282C504.521 219.332 504.345 219.417 504.218 219.535C504.095 219.649 504.008 219.797 503.958 219.979C503.912 220.162 503.89 220.378 503.89 220.629H506.371V221.907ZM514.178 223.821C514.178 224.318 514.098 224.769 513.938 225.175C513.784 225.58 513.558 225.931 513.262 226.228C512.97 226.519 512.619 226.747 512.209 226.911C511.799 227.075 511.341 227.157 510.835 227.157C510.338 227.157 509.885 227.075 509.475 226.911C509.064 226.747 508.711 226.519 508.415 226.228C508.123 225.931 507.898 225.58 507.738 225.175C507.583 224.769 507.506 224.318 507.506 223.821C507.506 223.338 507.583 222.892 507.738 222.481C507.898 222.067 508.123 221.711 508.415 221.415C508.711 221.114 509.064 220.884 509.475 220.725C509.885 220.561 510.338 220.479 510.835 220.479C511.341 220.479 511.799 220.561 512.209 220.725C512.619 220.884 512.97 221.114 513.262 221.415C513.558 221.711 513.784 222.067 513.938 222.481C514.098 222.892 514.178 223.338 514.178 223.821ZM512.77 223.821C512.77 223.534 512.724 223.263 512.633 223.008C512.546 222.748 512.419 222.527 512.25 222.345C512.081 222.162 511.876 222.019 511.635 221.914C511.398 221.805 511.131 221.75 510.835 221.75C510.534 221.75 510.265 221.805 510.028 221.914C509.791 222.019 509.591 222.162 509.427 222.345C509.263 222.527 509.135 222.748 509.044 223.008C508.957 223.263 508.914 223.534 508.914 223.821C508.914 224.122 508.957 224.396 509.044 224.642C509.135 224.888 509.263 225.104 509.427 225.291C509.591 225.478 509.791 225.624 510.028 225.729C510.265 225.829 510.534 225.879 510.835 225.879C511.131 225.879 511.398 225.829 511.635 225.729C511.876 225.624 512.081 225.478 512.25 225.291C512.419 225.104 512.546 224.888 512.633 224.642C512.724 224.396 512.77 224.122 512.77 223.821ZM521.499 222.14C521.33 222.058 521.157 221.996 520.979 221.955C520.806 221.91 520.606 221.887 520.378 221.887C520.063 221.887 519.767 221.935 519.489 222.03C519.216 222.121 518.979 222.26 518.778 222.447C518.578 222.634 518.421 222.869 518.307 223.151C518.197 223.429 518.143 223.76 518.143 224.143V225.729H519.571V227H515.285V225.729H516.728V221.907H515.285V220.629H518.143V222.229C518.375 221.59 518.717 221.139 519.168 220.875C519.624 220.611 520.164 220.479 520.788 220.479C520.984 220.479 521.189 220.499 521.403 220.54C521.618 220.581 521.827 220.654 522.032 220.759L521.499 222.14ZM529.299 227H527.884V222.632C527.884 222.331 527.852 222.11 527.788 221.969C527.729 221.823 527.622 221.75 527.467 221.75C527.184 221.75 527.004 221.91 526.927 222.229C526.854 222.543 526.817 223.003 526.817 223.609V227H525.402V222.632C525.402 222.331 525.37 222.11 525.307 221.969C525.243 221.823 525.131 221.75 524.972 221.75C524.694 221.75 524.518 221.91 524.445 222.229C524.377 222.543 524.343 223.003 524.343 223.609V227H522.928V220.629H524.356V221.552C524.457 221.201 524.605 220.934 524.801 220.752C524.997 220.57 525.259 220.479 525.587 220.479C525.86 220.479 526.088 220.563 526.271 220.731C526.457 220.896 526.585 221.123 526.653 221.415C526.813 221.096 526.977 220.861 527.146 220.711C527.319 220.556 527.583 220.479 527.938 220.479C528.376 220.479 528.711 220.64 528.943 220.964C529.18 221.283 529.299 221.768 529.299 222.42V227ZM530.543 225.168C530.543 224.794 530.643 224.468 530.844 224.19C531.044 223.908 531.306 223.673 531.63 223.486C531.958 223.299 532.332 223.16 532.751 223.069C533.175 222.974 533.605 222.926 534.043 222.926C534.285 222.926 534.492 222.93 534.665 222.939C534.838 222.949 535.014 222.962 535.191 222.98V222.728C535.191 222.395 535.062 222.146 534.802 221.982C534.547 221.818 534.209 221.736 533.79 221.736C533.407 221.736 533.018 221.791 532.621 221.9C532.225 222.005 531.849 222.16 531.493 222.365L530.919 221.258C531.338 221.016 531.787 220.827 532.266 220.69C532.749 220.549 533.257 220.479 533.79 220.479C534.136 220.479 534.476 220.517 534.809 220.595C535.146 220.672 535.447 220.8 535.711 220.978C535.98 221.155 536.194 221.388 536.354 221.675C536.513 221.957 536.593 222.308 536.593 222.728V227H535.191V226.063C534.968 226.41 534.638 226.679 534.2 226.87C533.767 227.062 533.3 227.157 532.799 227.157C532.489 227.157 532.195 227.114 531.917 227.027C531.644 226.945 531.407 226.82 531.206 226.651C531.006 226.483 530.844 226.275 530.721 226.029C530.602 225.779 530.543 225.492 530.543 225.168ZM533.161 225.893C533.439 225.893 533.699 225.858 533.94 225.79C534.187 225.717 534.403 225.619 534.59 225.496C534.777 225.368 534.923 225.216 535.027 225.038C535.137 224.86 535.191 224.664 535.191 224.45V224.211C534.968 224.174 534.758 224.154 534.562 224.149C534.367 224.145 534.193 224.143 534.043 224.143C533.35 224.143 532.826 224.234 532.471 224.416C532.12 224.598 531.944 224.824 531.944 225.093C531.944 225.626 532.35 225.893 533.161 225.893ZM547.154 224.354C547.223 224.792 547.43 225.157 547.776 225.448C548.127 225.735 548.597 225.879 549.185 225.879C549.645 225.879 550.044 225.808 550.381 225.667C550.723 225.521 551.017 225.33 551.263 225.093L551.987 226.091C551.577 226.501 551.142 226.781 550.682 226.932C550.226 227.082 549.727 227.157 549.185 227.157C548.692 227.157 548.234 227.075 547.811 226.911C547.387 226.747 547.02 226.519 546.71 226.228C546.4 225.931 546.156 225.58 545.979 225.175C545.805 224.769 545.719 224.318 545.719 223.821C545.719 223.338 545.799 222.894 545.958 222.488C546.122 222.078 546.35 221.725 546.642 221.429C546.938 221.128 547.291 220.896 547.701 220.731C548.111 220.563 548.565 220.479 549.062 220.479C549.576 220.479 550.044 220.567 550.463 220.745C550.882 220.918 551.24 221.171 551.536 221.504C551.837 221.837 552.072 222.244 552.24 222.728C552.409 223.206 552.493 223.748 552.493 224.354H547.154ZM550.894 223.11C550.821 222.7 550.609 222.372 550.258 222.126C549.907 221.875 549.508 221.75 549.062 221.75C548.615 221.75 548.214 221.875 547.858 222.126C547.503 222.372 547.289 222.7 547.216 223.11H550.894ZM567.272 226.091C566.862 226.501 566.429 226.781 565.974 226.932C565.522 227.082 565.033 227.157 564.504 227.157C563.971 227.157 563.485 227.077 563.048 226.918C562.615 226.758 562.246 226.535 561.94 226.248C561.64 225.956 561.407 225.605 561.243 225.195C561.084 224.785 561.004 224.327 561.004 223.821C561.004 223.338 561.084 222.892 561.243 222.481C561.407 222.067 561.626 221.714 561.899 221.422C562.177 221.126 562.503 220.896 562.877 220.731C563.251 220.563 563.647 220.479 564.066 220.479C564.504 220.479 564.884 220.57 565.208 220.752C565.532 220.934 565.766 221.201 565.912 221.552V220.629H567.177V223.596H565.912C565.912 223.035 565.757 222.589 565.447 222.256C565.142 221.919 564.743 221.75 564.251 221.75C564.055 221.75 563.848 221.791 563.629 221.873C563.415 221.951 563.216 222.074 563.034 222.242C562.856 222.411 562.708 222.625 562.59 222.885C562.471 223.145 562.412 223.457 562.412 223.821C562.412 224.177 562.469 224.484 562.583 224.744C562.697 224.999 562.845 225.211 563.027 225.38C563.214 225.544 563.433 225.669 563.684 225.756C563.939 225.838 564.201 225.879 564.47 225.879C564.93 225.879 565.329 225.808 565.666 225.667C566.008 225.521 566.302 225.33 566.548 225.093L567.272 226.091ZM575.318 223.821C575.318 224.318 575.239 224.769 575.079 225.175C574.924 225.58 574.699 225.931 574.402 226.228C574.111 226.519 573.76 226.747 573.35 226.911C572.939 227.075 572.481 227.157 571.976 227.157C571.479 227.157 571.025 227.075 570.615 226.911C570.205 226.747 569.852 226.519 569.556 226.228C569.264 225.931 569.038 225.58 568.879 225.175C568.724 224.769 568.646 224.318 568.646 223.821C568.646 223.338 568.724 222.892 568.879 222.481C569.038 222.067 569.264 221.711 569.556 221.415C569.852 221.114 570.205 220.884 570.615 220.725C571.025 220.561 571.479 220.479 571.976 220.479C572.481 220.479 572.939 220.561 573.35 220.725C573.76 220.884 574.111 221.114 574.402 221.415C574.699 221.711 574.924 222.067 575.079 222.481C575.239 222.892 575.318 223.338 575.318 223.821ZM573.91 223.821C573.91 223.534 573.865 223.263 573.773 223.008C573.687 222.748 573.559 222.527 573.391 222.345C573.222 222.162 573.017 222.019 572.775 221.914C572.538 221.805 572.272 221.75 571.976 221.75C571.675 221.75 571.406 221.805 571.169 221.914C570.932 222.019 570.731 222.162 570.567 222.345C570.403 222.527 570.276 222.748 570.185 223.008C570.098 223.263 570.055 223.534 570.055 223.821C570.055 224.122 570.098 224.396 570.185 224.642C570.276 224.888 570.403 225.104 570.567 225.291C570.731 225.478 570.932 225.624 571.169 225.729C571.406 225.829 571.675 225.879 571.976 225.879C572.272 225.879 572.538 225.829 572.775 225.729C573.017 225.624 573.222 225.478 573.391 225.291C573.559 225.104 573.687 224.888 573.773 224.642C573.865 224.396 573.91 224.122 573.91 223.821ZM582.462 227H581.047V223.069C581.047 222.573 580.953 222.229 580.767 222.037C580.58 221.846 580.309 221.75 579.953 221.75C579.429 221.75 579.001 221.962 578.668 222.386C578.34 222.81 578.176 223.395 578.176 224.143V227H576.761V220.629H578.176V222.229C578.317 221.677 578.579 221.249 578.962 220.943C579.345 220.633 579.816 220.479 580.377 220.479C581.029 220.479 581.539 220.69 581.908 221.114C582.277 221.538 582.462 222.19 582.462 223.069V227ZM590.104 227H588.689V223.069C588.689 222.573 588.596 222.229 588.409 222.037C588.222 221.846 587.951 221.75 587.596 221.75C587.072 221.75 586.643 221.962 586.311 222.386C585.982 222.81 585.818 223.395 585.818 224.143V227H584.403V218.079H585.818V222.229C585.96 221.677 586.222 221.249 586.604 220.943C586.987 220.633 587.459 220.479 588.02 220.479C588.671 220.479 589.182 220.69 589.551 221.114C589.92 221.538 590.104 222.19 590.104 223.069V227ZM593.01 224.354C593.078 224.792 593.285 225.157 593.632 225.448C593.983 225.735 594.452 225.879 595.04 225.879C595.5 225.879 595.899 225.808 596.236 225.667C596.578 225.521 596.872 225.33 597.118 225.093L597.843 226.091C597.433 226.501 596.997 226.781 596.537 226.932C596.081 227.082 595.582 227.157 595.04 227.157C594.548 227.157 594.09 227.075 593.666 226.911C593.242 226.747 592.875 226.519 592.565 226.228C592.256 225.931 592.012 225.58 591.834 225.175C591.661 224.769 591.574 224.318 591.574 223.821C591.574 223.338 591.654 222.894 591.813 222.488C591.978 222.078 592.205 221.725 592.497 221.429C592.793 221.128 593.146 220.896 593.557 220.731C593.967 220.563 594.42 220.479 594.917 220.479C595.432 220.479 595.899 220.567 596.318 220.745C596.738 220.918 597.095 221.171 597.392 221.504C597.692 221.837 597.927 222.244 598.096 222.728C598.264 223.206 598.349 223.748 598.349 224.354H593.01ZM596.749 223.11C596.676 222.7 596.464 222.372 596.113 222.126C595.762 221.875 595.364 221.75 594.917 221.75C594.47 221.75 594.069 221.875 593.714 222.126C593.358 222.372 593.144 222.7 593.071 223.11H596.749ZM605.485 226.091C605.157 226.419 604.822 226.66 604.48 226.815C604.143 226.966 603.779 227.064 603.387 227.109V227.28C603.387 227.599 603.332 227.896 603.223 228.169C603.118 228.442 602.963 228.679 602.758 228.88C602.553 229.08 602.302 229.24 602.006 229.358C601.714 229.477 601.382 229.536 601.008 229.536V228.319C601.409 228.319 601.705 228.228 601.896 228.046C602.088 227.864 602.184 227.608 602.184 227.28V227.123C601.258 227.023 600.532 226.681 600.003 226.098C599.479 225.514 599.217 224.756 599.217 223.821C599.217 223.338 599.297 222.892 599.456 222.481C599.62 222.067 599.839 221.714 600.112 221.422C600.39 221.126 600.716 220.896 601.09 220.731C601.464 220.563 601.86 220.479 602.279 220.479C602.717 220.479 603.097 220.57 603.421 220.752C603.744 220.934 603.979 221.201 604.125 221.552V220.629H605.39V223.596H604.125C604.125 223.035 603.97 222.589 603.66 222.256C603.355 221.919 602.956 221.75 602.464 221.75C602.268 221.75 602.061 221.791 601.842 221.873C601.628 221.951 601.429 222.074 601.247 222.242C601.069 222.411 600.921 222.625 600.803 222.885C600.684 223.145 600.625 223.457 600.625 223.821C600.625 224.177 600.682 224.484 600.796 224.744C600.91 224.999 601.058 225.211 601.24 225.38C601.427 225.544 601.646 225.669 601.896 225.756C602.152 225.838 602.414 225.879 602.683 225.879C603.143 225.879 603.542 225.808 603.879 225.667C604.221 225.521 604.515 225.33 604.761 225.093L605.485 226.091ZM606.969 225.168C606.969 224.794 607.069 224.468 607.27 224.19C607.47 223.908 607.732 223.673 608.056 223.486C608.384 223.299 608.757 223.16 609.177 223.069C609.601 222.974 610.031 222.926 610.469 222.926C610.71 222.926 610.918 222.93 611.091 222.939C611.264 222.949 611.439 222.962 611.617 222.98V222.728C611.617 222.395 611.487 222.146 611.228 221.982C610.972 221.818 610.635 221.736 610.216 221.736C609.833 221.736 609.443 221.791 609.047 221.9C608.65 222.005 608.274 222.16 607.919 222.365L607.345 221.258C607.764 221.016 608.213 220.827 608.691 220.69C609.174 220.549 609.683 220.479 610.216 220.479C610.562 220.479 610.902 220.517 611.234 220.595C611.572 220.672 611.872 220.8 612.137 220.978C612.406 221.155 612.62 221.388 612.779 221.675C612.939 221.957 613.019 222.308 613.019 222.728V227H611.617V226.063C611.394 226.41 611.063 226.679 610.626 226.87C610.193 227.062 609.726 227.157 609.225 227.157C608.915 227.157 608.621 227.114 608.343 227.027C608.069 226.945 607.832 226.82 607.632 226.651C607.431 226.483 607.27 226.275 607.146 226.029C607.028 225.779 606.969 225.492 606.969 225.168ZM609.587 225.893C609.865 225.893 610.125 225.858 610.366 225.79C610.612 225.717 610.829 225.619 611.016 225.496C611.202 225.368 611.348 225.216 611.453 225.038C611.562 224.86 611.617 224.664 611.617 224.45V224.211C611.394 224.174 611.184 224.154 610.988 224.149C610.792 224.145 610.619 224.143 610.469 224.143C609.776 224.143 609.252 224.234 608.896 224.416C608.546 224.598 608.37 224.824 608.37 225.093C608.37 225.626 608.776 225.893 609.587 225.893ZM628.816 223.821C628.816 224.318 628.737 224.769 628.577 225.175C628.422 225.58 628.197 225.931 627.9 226.228C627.609 226.519 627.258 226.747 626.848 226.911C626.438 227.075 625.979 227.157 625.474 227.157C624.977 227.157 624.523 227.075 624.113 226.911C623.703 226.747 623.35 226.519 623.054 226.228C622.762 225.931 622.536 225.58 622.377 225.175C622.222 224.769 622.145 224.318 622.145 223.821C622.145 223.338 622.222 222.892 622.377 222.481C622.536 222.067 622.762 221.711 623.054 221.415C623.35 221.114 623.703 220.884 624.113 220.725C624.523 220.561 624.977 220.479 625.474 220.479C625.979 220.479 626.438 220.561 626.848 220.725C627.258 220.884 627.609 221.114 627.9 221.415C628.197 221.711 628.422 222.067 628.577 222.481C628.737 222.892 628.816 223.338 628.816 223.821ZM627.408 223.821C627.408 223.534 627.363 223.263 627.271 223.008C627.185 222.748 627.057 222.527 626.889 222.345C626.72 222.162 626.515 222.019 626.273 221.914C626.036 221.805 625.77 221.75 625.474 221.75C625.173 221.75 624.904 221.805 624.667 221.914C624.43 222.019 624.229 222.162 624.065 222.345C623.901 222.527 623.774 222.748 623.683 223.008C623.596 223.263 623.553 223.534 623.553 223.821C623.553 224.122 623.596 224.396 623.683 224.642C623.774 224.888 623.901 225.104 624.065 225.291C624.229 225.478 624.43 225.624 624.667 225.729C624.904 225.829 625.173 225.879 625.474 225.879C625.77 225.879 626.036 225.829 626.273 225.729C626.515 225.624 626.72 225.478 626.889 225.291C627.057 225.104 627.185 224.888 627.271 224.642C627.363 224.396 627.408 224.122 627.408 223.821ZM636.124 225.093C636.124 225.507 636.031 225.845 635.844 226.104C635.657 226.364 635.415 226.574 635.119 226.733C634.827 226.893 634.499 227.002 634.135 227.062C633.775 227.125 633.422 227.157 633.075 227.157C632.496 227.157 631.92 227.073 631.346 226.904C630.771 226.736 630.275 226.515 629.855 226.241L630.443 225.079C630.945 225.371 631.403 225.578 631.817 225.701C632.237 225.82 632.656 225.879 633.075 225.879C633.645 225.879 634.06 225.82 634.319 225.701C634.579 225.578 634.709 225.41 634.709 225.195C634.709 225.09 634.673 225.004 634.6 224.936C634.527 224.867 634.406 224.806 634.237 224.751C634.069 224.692 633.845 224.635 633.567 224.58C633.294 224.521 632.952 224.459 632.542 224.396C632.214 224.341 631.902 224.275 631.605 224.197C631.314 224.115 631.056 224.001 630.833 223.855C630.61 223.71 630.43 223.525 630.293 223.302C630.161 223.078 630.095 222.798 630.095 222.461C630.095 222.119 630.181 221.823 630.354 221.572C630.532 221.317 630.762 221.107 631.045 220.943C631.332 220.779 631.653 220.661 632.009 220.588C632.364 220.515 632.72 220.479 633.075 220.479C633.576 220.479 634.062 220.545 634.531 220.677C635.005 220.804 635.42 220.989 635.775 221.23L635.215 222.324C634.859 222.101 634.513 221.951 634.176 221.873C633.843 221.791 633.476 221.75 633.075 221.75C632.907 221.75 632.731 221.759 632.549 221.777C632.367 221.796 632.198 221.832 632.043 221.887C631.888 221.937 631.758 222.007 631.653 222.099C631.553 222.185 631.503 222.292 631.503 222.42C631.503 222.589 631.651 222.728 631.947 222.837C632.248 222.942 632.758 223.047 633.479 223.151C633.87 223.206 634.228 223.277 634.552 223.363C634.875 223.445 635.153 223.559 635.386 223.705C635.618 223.846 635.798 224.031 635.926 224.259C636.058 224.482 636.124 224.76 636.124 225.093ZM362.769 234.629H364.184V235.203C364.452 234.962 364.724 234.782 364.997 234.663C365.275 234.54 365.592 234.479 365.947 234.479C366.357 234.479 366.738 234.563 367.089 234.731C367.44 234.896 367.741 235.126 367.991 235.422C368.242 235.714 368.44 236.067 368.586 236.481C368.732 236.892 368.805 237.338 368.805 237.821C368.805 238.309 368.732 238.758 368.586 239.168C368.44 239.578 368.242 239.931 367.991 240.228C367.741 240.519 367.44 240.747 367.089 240.911C366.738 241.075 366.357 241.157 365.947 241.157C365.592 241.157 365.275 241.093 364.997 240.966C364.724 240.838 364.452 240.654 364.184 240.412V243.55H362.769V234.629ZM364.184 239.291C364.352 239.478 364.566 239.624 364.826 239.729C365.09 239.829 365.343 239.879 365.585 239.879C366.118 239.879 366.551 239.69 366.884 239.312C367.221 238.933 367.39 238.437 367.39 237.821C367.39 237.206 367.221 236.707 366.884 236.324C366.551 235.941 366.118 235.75 365.585 235.75C365.343 235.75 365.09 235.8 364.826 235.9C364.566 235.996 364.352 236.137 364.184 236.324V239.291ZM376.29 236.14C376.121 236.058 375.948 235.996 375.771 235.955C375.597 235.91 375.397 235.887 375.169 235.887C374.854 235.887 374.558 235.935 374.28 236.03C374.007 236.121 373.77 236.26 373.569 236.447C373.369 236.634 373.212 236.869 373.098 237.151C372.988 237.429 372.934 237.76 372.934 238.143V239.729H374.362V241H370.076V239.729H371.519V235.907H370.076V234.629H372.934V236.229C373.166 235.59 373.508 235.139 373.959 234.875C374.415 234.611 374.955 234.479 375.579 234.479C375.775 234.479 375.98 234.499 376.194 234.54C376.409 234.581 376.618 234.654 376.823 234.759L376.29 236.14ZM384.254 237.821C384.254 238.318 384.174 238.769 384.015 239.175C383.86 239.58 383.634 239.931 383.338 240.228C383.046 240.519 382.695 240.747 382.285 240.911C381.875 241.075 381.417 241.157 380.911 241.157C380.414 241.157 379.961 241.075 379.551 240.911C379.141 240.747 378.787 240.519 378.491 240.228C378.2 239.931 377.974 239.58 377.814 239.175C377.66 238.769 377.582 238.318 377.582 237.821C377.582 237.338 377.66 236.892 377.814 236.481C377.974 236.067 378.2 235.711 378.491 235.415C378.787 235.114 379.141 234.884 379.551 234.725C379.961 234.561 380.414 234.479 380.911 234.479C381.417 234.479 381.875 234.561 382.285 234.725C382.695 234.884 383.046 235.114 383.338 235.415C383.634 235.711 383.86 236.067 384.015 236.481C384.174 236.892 384.254 237.338 384.254 237.821ZM382.846 237.821C382.846 237.534 382.8 237.263 382.709 237.008C382.622 236.748 382.495 236.527 382.326 236.345C382.158 236.162 381.952 236.019 381.711 235.914C381.474 235.805 381.207 235.75 380.911 235.75C380.61 235.75 380.341 235.805 380.104 235.914C379.868 236.019 379.667 236.162 379.503 236.345C379.339 236.527 379.211 236.748 379.12 237.008C379.034 237.263 378.99 237.534 378.99 237.821C378.99 238.122 379.034 238.396 379.12 238.642C379.211 238.888 379.339 239.104 379.503 239.291C379.667 239.478 379.868 239.624 380.104 239.729C380.341 239.829 380.61 239.879 380.911 239.879C381.207 239.879 381.474 239.829 381.711 239.729C381.952 239.624 382.158 239.478 382.326 239.291C382.495 239.104 382.622 238.888 382.709 238.642C382.8 238.396 382.846 238.122 382.846 237.821ZM387.713 243.7C386.742 243.7 385.958 243.338 385.361 242.613L386.202 241.67C386.416 241.925 386.644 242.114 386.886 242.237C387.127 242.365 387.403 242.429 387.713 242.429C388.191 242.429 388.545 242.297 388.772 242.032C389 241.772 389.114 241.428 389.114 241V235.907H387.672V234.629H390.529V241C390.529 241.41 390.461 241.782 390.324 242.114C390.188 242.447 389.996 242.732 389.75 242.969C389.504 243.206 389.208 243.386 388.861 243.509C388.515 243.636 388.132 243.7 387.713 243.7ZM390.68 233.802H388.957V232.079H390.68V233.802ZM394.303 238.354C394.371 238.792 394.578 239.157 394.925 239.448C395.276 239.735 395.745 239.879 396.333 239.879C396.793 239.879 397.192 239.808 397.529 239.667C397.871 239.521 398.165 239.33 398.411 239.093L399.136 240.091C398.726 240.501 398.29 240.781 397.83 240.932C397.374 241.082 396.875 241.157 396.333 241.157C395.841 241.157 395.383 241.075 394.959 240.911C394.535 240.747 394.168 240.519 393.858 240.228C393.549 239.931 393.305 239.58 393.127 239.175C392.954 238.769 392.867 238.318 392.867 237.821C392.867 237.338 392.947 236.894 393.106 236.488C393.271 236.078 393.498 235.725 393.79 235.429C394.086 235.128 394.439 234.896 394.85 234.731C395.26 234.563 395.713 234.479 396.21 234.479C396.725 234.479 397.192 234.567 397.611 234.745C398.031 234.918 398.388 235.171 398.685 235.504C398.985 235.837 399.22 236.244 399.389 236.728C399.557 237.206 399.642 237.748 399.642 238.354H394.303ZM398.042 237.11C397.969 236.7 397.757 236.372 397.406 236.126C397.055 235.875 396.657 235.75 396.21 235.75C395.763 235.75 395.362 235.875 395.007 236.126C394.651 236.372 394.437 236.7 394.364 237.11H398.042ZM407.086 238.97C407.013 239.64 406.749 240.173 406.293 240.569C405.842 240.961 405.277 241.157 404.598 241.157C404.224 241.157 403.882 241.096 403.572 240.973C403.262 240.85 402.998 240.679 402.779 240.46C402.561 240.241 402.39 239.979 402.267 239.674C402.148 239.364 402.089 239.027 402.089 238.662V235.907H400.646V234.629H402.089V232.079H403.504V234.629H406.177V235.907H403.504V238.662C403.504 239.072 403.604 239.378 403.805 239.578C404.005 239.779 404.27 239.879 404.598 239.879C404.999 239.879 405.297 239.763 405.493 239.53C405.689 239.298 405.805 239.018 405.842 238.689L407.086 238.97ZM414.824 237.821C414.824 238.318 414.744 238.769 414.585 239.175C414.43 239.58 414.204 239.931 413.908 240.228C413.617 240.519 413.266 240.747 412.855 240.911C412.445 241.075 411.987 241.157 411.481 241.157C410.985 241.157 410.531 241.075 410.121 240.911C409.711 240.747 409.358 240.519 409.062 240.228C408.77 239.931 408.544 239.58 408.385 239.175C408.23 238.769 408.152 238.318 408.152 237.821C408.152 237.338 408.23 236.892 408.385 236.481C408.544 236.067 408.77 235.711 409.062 235.415C409.358 235.114 409.711 234.884 410.121 234.725C410.531 234.561 410.985 234.479 411.481 234.479C411.987 234.479 412.445 234.561 412.855 234.725C413.266 234.884 413.617 235.114 413.908 235.415C414.204 235.711 414.43 236.067 414.585 236.481C414.744 236.892 414.824 237.338 414.824 237.821ZM413.416 237.821C413.416 237.534 413.37 237.263 413.279 237.008C413.193 236.748 413.065 236.527 412.896 236.345C412.728 236.162 412.523 236.019 412.281 235.914C412.044 235.805 411.778 235.75 411.481 235.75C411.181 235.75 410.912 235.805 410.675 235.914C410.438 236.019 410.237 236.162 410.073 236.345C409.909 236.527 409.782 236.748 409.69 237.008C409.604 237.263 409.561 237.534 409.561 237.821C409.561 238.122 409.604 238.396 409.69 238.642C409.782 238.888 409.909 239.104 410.073 239.291C410.237 239.478 410.438 239.624 410.675 239.729C410.912 239.829 411.181 239.879 411.481 239.879C411.778 239.879 412.044 239.829 412.281 239.729C412.523 239.624 412.728 239.478 412.896 239.291C413.065 239.104 413.193 238.888 413.279 238.642C413.37 238.396 413.416 238.122 413.416 237.821ZM422.132 239.093C422.132 239.507 422.038 239.845 421.852 240.104C421.665 240.364 421.423 240.574 421.127 240.733C420.835 240.893 420.507 241.002 420.143 241.062C419.783 241.125 419.429 241.157 419.083 241.157C418.504 241.157 417.928 241.073 417.354 240.904C416.779 240.736 416.283 240.515 415.863 240.241L416.451 239.079C416.952 239.371 417.41 239.578 417.825 239.701C418.244 239.82 418.664 239.879 419.083 239.879C419.653 239.879 420.067 239.82 420.327 239.701C420.587 239.578 420.717 239.41 420.717 239.195C420.717 239.09 420.68 239.004 420.607 238.936C420.535 238.867 420.414 238.806 420.245 238.751C420.076 238.692 419.853 238.635 419.575 238.58C419.302 238.521 418.96 238.459 418.55 238.396C418.222 238.341 417.91 238.275 417.613 238.197C417.322 238.115 417.064 238.001 416.841 237.855C416.618 237.71 416.438 237.525 416.301 237.302C416.169 237.078 416.103 236.798 416.103 236.461C416.103 236.119 416.189 235.823 416.362 235.572C416.54 235.317 416.77 235.107 417.053 234.943C417.34 234.779 417.661 234.661 418.017 234.588C418.372 234.515 418.728 234.479 419.083 234.479C419.584 234.479 420.07 234.545 420.539 234.677C421.013 234.804 421.428 234.989 421.783 235.23L421.223 236.324C420.867 236.101 420.521 235.951 420.184 235.873C419.851 235.791 419.484 235.75 419.083 235.75C418.914 235.75 418.739 235.759 418.557 235.777C418.374 235.796 418.206 235.832 418.051 235.887C417.896 235.937 417.766 236.007 417.661 236.099C417.561 236.185 417.511 236.292 417.511 236.42C417.511 236.589 417.659 236.728 417.955 236.837C418.256 236.942 418.766 237.047 419.486 237.151C419.878 237.206 420.236 237.277 420.56 237.363C420.883 237.445 421.161 237.559 421.394 237.705C421.626 237.846 421.806 238.031 421.934 238.259C422.066 238.482 422.132 238.76 422.132 239.093ZM437.253 241H435.838V240.412C435.564 240.654 435.289 240.838 435.011 240.966C434.733 241.093 434.416 241.157 434.061 241.157C433.65 241.157 433.27 241.075 432.919 240.911C432.568 240.747 432.265 240.519 432.01 240.228C431.759 239.931 431.561 239.578 431.415 239.168C431.274 238.758 431.203 238.309 431.203 237.821C431.203 237.338 431.274 236.892 431.415 236.481C431.561 236.067 431.759 235.714 432.01 235.422C432.265 235.126 432.568 234.896 432.919 234.731C433.27 234.563 433.65 234.479 434.061 234.479C434.416 234.479 434.733 234.54 435.011 234.663C435.289 234.782 435.564 234.962 435.838 235.203V233.357H434.607V232.079H437.253V241ZM435.838 236.324C435.669 236.137 435.451 235.996 435.182 235.9C434.917 235.8 434.664 235.75 434.423 235.75C433.89 235.75 433.454 235.941 433.117 236.324C432.785 236.707 432.618 237.206 432.618 237.821C432.618 238.437 432.785 238.933 433.117 239.312C433.454 239.69 433.89 239.879 434.423 239.879C434.664 239.879 434.917 239.831 435.182 239.735C435.451 239.635 435.669 239.492 435.838 239.305V236.324ZM440.158 238.354C440.227 238.792 440.434 239.157 440.78 239.448C441.131 239.735 441.601 239.879 442.188 239.879C442.649 239.879 443.048 239.808 443.385 239.667C443.727 239.521 444.021 239.33 444.267 239.093L444.991 240.091C444.581 240.501 444.146 240.781 443.686 240.932C443.23 241.082 442.731 241.157 442.188 241.157C441.696 241.157 441.238 241.075 440.814 240.911C440.391 240.747 440.024 240.519 439.714 240.228C439.404 239.931 439.16 239.58 438.982 239.175C438.809 238.769 438.723 238.318 438.723 237.821C438.723 237.338 438.802 236.894 438.962 236.488C439.126 236.078 439.354 235.725 439.646 235.429C439.942 235.128 440.295 234.896 440.705 234.731C441.115 234.563 441.569 234.479 442.065 234.479C442.58 234.479 443.048 234.567 443.467 234.745C443.886 234.918 444.244 235.171 444.54 235.504C444.841 235.837 445.076 236.244 445.244 236.728C445.413 237.206 445.497 237.748 445.497 238.354H440.158ZM443.897 237.11C443.825 236.7 443.613 236.372 443.262 236.126C442.911 235.875 442.512 235.75 442.065 235.75C441.619 235.75 441.218 235.875 440.862 236.126C440.507 236.372 440.293 236.7 440.22 237.11H443.897ZM452.702 239.093C452.702 239.507 452.609 239.845 452.422 240.104C452.235 240.364 451.993 240.574 451.697 240.733C451.406 240.893 451.077 241.002 450.713 241.062C450.353 241.125 450 241.157 449.653 241.157C449.075 241.157 448.498 241.073 447.924 240.904C447.35 240.736 446.853 240.515 446.434 240.241L447.021 239.079C447.523 239.371 447.981 239.578 448.396 239.701C448.815 239.82 449.234 239.879 449.653 239.879C450.223 239.879 450.638 239.82 450.897 239.701C451.157 239.578 451.287 239.41 451.287 239.195C451.287 239.09 451.251 239.004 451.178 238.936C451.105 238.867 450.984 238.806 450.815 238.751C450.647 238.692 450.424 238.635 450.146 238.58C449.872 238.521 449.53 238.459 449.12 238.396C448.792 238.341 448.48 238.275 448.184 238.197C447.892 238.115 447.634 238.001 447.411 237.855C447.188 237.71 447.008 237.525 446.871 237.302C446.739 237.078 446.673 236.798 446.673 236.461C446.673 236.119 446.759 235.823 446.933 235.572C447.11 235.317 447.34 235.107 447.623 234.943C447.91 234.779 448.231 234.661 448.587 234.588C448.942 234.515 449.298 234.479 449.653 234.479C450.155 234.479 450.64 234.545 451.109 234.677C451.583 234.804 451.998 234.989 452.354 235.23L451.793 236.324C451.438 236.101 451.091 235.951 450.754 235.873C450.421 235.791 450.054 235.75 449.653 235.75C449.485 235.75 449.309 235.759 449.127 235.777C448.945 235.796 448.776 235.832 448.621 235.887C448.466 235.937 448.336 236.007 448.231 236.099C448.131 236.185 448.081 236.292 448.081 236.42C448.081 236.589 448.229 236.728 448.525 236.837C448.826 236.942 449.337 237.047 450.057 237.151C450.449 237.206 450.806 237.277 451.13 237.363C451.453 237.445 451.731 237.559 451.964 237.705C452.196 237.846 452.376 238.031 452.504 238.259C452.636 238.482 452.702 238.76 452.702 239.093ZM455.443 238.354C455.512 238.792 455.719 239.157 456.065 239.448C456.416 239.735 456.886 239.879 457.474 239.879C457.934 239.879 458.333 239.808 458.67 239.667C459.012 239.521 459.306 239.33 459.552 239.093L460.276 240.091C459.866 240.501 459.431 240.781 458.971 240.932C458.515 241.082 458.016 241.157 457.474 241.157C456.981 241.157 456.523 241.075 456.1 240.911C455.676 240.747 455.309 240.519 454.999 240.228C454.689 239.931 454.445 239.58 454.268 239.175C454.094 238.769 454.008 238.318 454.008 237.821C454.008 237.338 454.088 236.894 454.247 236.488C454.411 236.078 454.639 235.725 454.931 235.429C455.227 235.128 455.58 234.896 455.99 234.731C456.4 234.563 456.854 234.479 457.351 234.479C457.866 234.479 458.333 234.567 458.752 234.745C459.171 234.918 459.529 235.171 459.825 235.504C460.126 235.837 460.361 236.244 460.529 236.728C460.698 237.206 460.782 237.748 460.782 238.354H455.443ZM459.183 237.11C459.11 236.7 458.898 236.372 458.547 236.126C458.196 235.875 457.797 235.75 457.351 235.75C456.904 235.75 456.503 235.875 456.147 236.126C455.792 236.372 455.578 236.7 455.505 237.11H459.183ZM467.823 241H466.408V237.069C466.408 236.573 466.315 236.229 466.128 236.037C465.941 235.846 465.67 235.75 465.314 235.75C464.79 235.75 464.362 235.962 464.029 236.386C463.701 236.81 463.537 237.395 463.537 238.143V241H462.122V234.629H463.537V236.229C463.678 235.677 463.94 235.249 464.323 234.943C464.706 234.633 465.178 234.479 465.738 234.479C466.39 234.479 466.9 234.69 467.27 235.114C467.639 235.538 467.823 236.19 467.823 237.069V241ZM475.801 234.629L473.449 241H471.781L469.43 234.629H470.94L472.622 239.448L474.29 234.629H475.801ZM483.607 237.821C483.607 238.318 483.528 238.769 483.368 239.175C483.213 239.58 482.988 239.931 482.691 240.228C482.4 240.519 482.049 240.747 481.639 240.911C481.229 241.075 480.771 241.157 480.265 241.157C479.768 241.157 479.314 241.075 478.904 240.911C478.494 240.747 478.141 240.519 477.845 240.228C477.553 239.931 477.327 239.58 477.168 239.175C477.013 238.769 476.936 238.318 476.936 237.821C476.936 237.338 477.013 236.892 477.168 236.481C477.327 236.067 477.553 235.711 477.845 235.415C478.141 235.114 478.494 234.884 478.904 234.725C479.314 234.561 479.768 234.479 480.265 234.479C480.771 234.479 481.229 234.561 481.639 234.725C482.049 234.884 482.4 235.114 482.691 235.415C482.988 235.711 483.213 236.067 483.368 236.481C483.528 236.892 483.607 237.338 483.607 237.821ZM482.199 237.821C482.199 237.534 482.154 237.263 482.062 237.008C481.976 236.748 481.848 236.527 481.68 236.345C481.511 236.162 481.306 236.019 481.064 235.914C480.827 235.805 480.561 235.75 480.265 235.75C479.964 235.75 479.695 235.805 479.458 235.914C479.221 236.019 479.021 236.162 478.856 236.345C478.692 236.527 478.565 236.748 478.474 237.008C478.387 237.263 478.344 237.534 478.344 237.821C478.344 238.122 478.387 238.396 478.474 238.642C478.565 238.888 478.692 239.104 478.856 239.291C479.021 239.478 479.221 239.624 479.458 239.729C479.695 239.829 479.964 239.879 480.265 239.879C480.561 239.879 480.827 239.829 481.064 239.729C481.306 239.624 481.511 239.478 481.68 239.291C481.848 239.104 481.976 238.888 482.062 238.642C482.154 238.396 482.199 238.122 482.199 237.821ZM490.074 241H485.795V239.729H487.189V233.357H485.795V232.079H488.604V239.729H490.074V241ZM498.729 234.629L496.377 241H494.709L492.357 234.629H493.868L495.55 239.448L497.218 234.629H498.729ZM504.047 233.802H502.324V232.079H504.047V233.802ZM505.346 241H501.066V239.729H502.475V235.907H501.066V234.629H503.89V239.729H505.346V241ZM513.679 241H512.264V240.412C511.99 240.654 511.715 240.838 511.437 240.966C511.159 241.093 510.842 241.157 510.486 241.157C510.076 241.157 509.696 241.075 509.345 240.911C508.994 240.747 508.691 240.519 508.436 240.228C508.185 239.931 507.987 239.578 507.841 239.168C507.7 238.758 507.629 238.309 507.629 237.821C507.629 237.338 507.7 236.892 507.841 236.481C507.987 236.067 508.185 235.714 508.436 235.422C508.691 235.126 508.994 234.896 509.345 234.731C509.696 234.563 510.076 234.479 510.486 234.479C510.842 234.479 511.159 234.54 511.437 234.663C511.715 234.782 511.99 234.962 512.264 235.203V233.357H511.033V232.079H513.679V241ZM512.264 236.324C512.095 236.137 511.876 235.996 511.607 235.9C511.343 235.8 511.09 235.75 510.849 235.75C510.315 235.75 509.88 235.941 509.543 236.324C509.21 236.707 509.044 237.206 509.044 237.821C509.044 238.437 509.21 238.933 509.543 239.312C509.88 239.69 510.315 239.879 510.849 239.879C511.09 239.879 511.343 239.831 511.607 239.735C511.876 239.635 512.095 239.492 512.264 239.305V236.324ZM521.82 237.821C521.82 238.318 521.741 238.769 521.581 239.175C521.426 239.58 521.201 239.931 520.904 240.228C520.613 240.519 520.262 240.747 519.852 240.911C519.441 241.075 518.983 241.157 518.478 241.157C517.981 241.157 517.527 241.075 517.117 240.911C516.707 240.747 516.354 240.519 516.058 240.228C515.766 239.931 515.54 239.58 515.381 239.175C515.226 238.769 515.148 238.318 515.148 237.821C515.148 237.338 515.226 236.892 515.381 236.481C515.54 236.067 515.766 235.711 516.058 235.415C516.354 235.114 516.707 234.884 517.117 234.725C517.527 234.561 517.981 234.479 518.478 234.479C518.983 234.479 519.441 234.561 519.852 234.725C520.262 234.884 520.613 235.114 520.904 235.415C521.201 235.711 521.426 236.067 521.581 236.481C521.741 236.892 521.82 237.338 521.82 237.821ZM520.412 237.821C520.412 237.534 520.367 237.263 520.275 237.008C520.189 236.748 520.061 236.527 519.893 236.345C519.724 236.162 519.519 236.019 519.277 235.914C519.04 235.805 518.774 235.75 518.478 235.75C518.177 235.75 517.908 235.805 517.671 235.914C517.434 236.019 517.233 236.162 517.069 236.345C516.905 236.527 516.778 236.748 516.687 237.008C516.6 237.263 516.557 237.534 516.557 237.821C516.557 238.122 516.6 238.396 516.687 238.642C516.778 238.888 516.905 239.104 517.069 239.291C517.233 239.478 517.434 239.624 517.671 239.729C517.908 239.829 518.177 239.879 518.478 239.879C518.774 239.879 519.04 239.829 519.277 239.729C519.519 239.624 519.724 239.478 519.893 239.291C520.061 239.104 520.189 238.888 520.275 238.642C520.367 238.396 520.412 238.122 520.412 237.821ZM529.128 239.093C529.128 239.507 529.035 239.845 528.848 240.104C528.661 240.364 528.419 240.574 528.123 240.733C527.831 240.893 527.503 241.002 527.139 241.062C526.779 241.125 526.425 241.157 526.079 241.157C525.5 241.157 524.924 241.073 524.35 240.904C523.775 240.736 523.279 240.515 522.859 240.241L523.447 239.079C523.949 239.371 524.407 239.578 524.821 239.701C525.241 239.82 525.66 239.879 526.079 239.879C526.649 239.879 527.063 239.82 527.323 239.701C527.583 239.578 527.713 239.41 527.713 239.195C527.713 239.09 527.676 239.004 527.604 238.936C527.531 238.867 527.41 238.806 527.241 238.751C527.073 238.692 526.849 238.635 526.571 238.58C526.298 238.521 525.956 238.459 525.546 238.396C525.218 238.341 524.906 238.275 524.609 238.197C524.318 238.115 524.06 238.001 523.837 237.855C523.614 237.71 523.434 237.525 523.297 237.302C523.165 237.078 523.099 236.798 523.099 236.461C523.099 236.119 523.185 235.823 523.358 235.572C523.536 235.317 523.766 235.107 524.049 234.943C524.336 234.779 524.657 234.661 525.013 234.588C525.368 234.515 525.724 234.479 526.079 234.479C526.58 234.479 527.066 234.545 527.535 234.677C528.009 234.804 528.424 234.989 528.779 235.23L528.219 236.324C527.863 236.101 527.517 235.951 527.18 235.873C526.847 235.791 526.48 235.75 526.079 235.75C525.91 235.75 525.735 235.759 525.553 235.777C525.37 235.796 525.202 235.832 525.047 235.887C524.892 235.937 524.762 236.007 524.657 236.099C524.557 236.185 524.507 236.292 524.507 236.42C524.507 236.589 524.655 236.728 524.951 236.837C525.252 236.942 525.762 237.047 526.482 237.151C526.874 237.206 527.232 237.277 527.556 237.363C527.879 237.445 528.157 237.559 528.39 237.705C528.622 237.846 528.802 238.031 528.93 238.259C529.062 238.482 529.128 238.76 529.128 239.093ZM538.548 234.629H539.963V235.203C540.232 234.962 540.503 234.782 540.776 234.663C541.054 234.54 541.371 234.479 541.727 234.479C542.137 234.479 542.517 234.563 542.868 234.731C543.219 234.896 543.52 235.126 543.771 235.422C544.021 235.714 544.219 236.067 544.365 236.481C544.511 236.892 544.584 237.338 544.584 237.821C544.584 238.309 544.511 238.758 544.365 239.168C544.219 239.578 544.021 239.931 543.771 240.228C543.52 240.519 543.219 240.747 542.868 240.911C542.517 241.075 542.137 241.157 541.727 241.157C541.371 241.157 541.054 241.093 540.776 240.966C540.503 240.838 540.232 240.654 539.963 240.412V243.55H538.548V234.629ZM539.963 239.291C540.132 239.478 540.346 239.624 540.605 239.729C540.87 239.829 541.123 239.879 541.364 239.879C541.897 239.879 542.33 239.69 542.663 239.312C543 238.933 543.169 238.437 543.169 237.821C543.169 237.206 543 236.707 542.663 236.324C542.33 235.941 541.897 235.75 541.364 235.75C541.123 235.75 540.87 235.8 540.605 235.9C540.346 235.996 540.132 236.137 539.963 236.324V239.291ZM547.154 238.354C547.223 238.792 547.43 239.157 547.776 239.448C548.127 239.735 548.597 239.879 549.185 239.879C549.645 239.879 550.044 239.808 550.381 239.667C550.723 239.521 551.017 239.33 551.263 239.093L551.987 240.091C551.577 240.501 551.142 240.781 550.682 240.932C550.226 241.082 549.727 241.157 549.185 241.157C548.692 241.157 548.234 241.075 547.811 240.911C547.387 240.747 547.02 240.519 546.71 240.228C546.4 239.931 546.156 239.58 545.979 239.175C545.805 238.769 545.719 238.318 545.719 237.821C545.719 237.338 545.799 236.894 545.958 236.488C546.122 236.078 546.35 235.725 546.642 235.429C546.938 235.128 547.291 234.896 547.701 234.731C548.111 234.563 548.565 234.479 549.062 234.479C549.576 234.479 550.044 234.567 550.463 234.745C550.882 234.918 551.24 235.171 551.536 235.504C551.837 235.837 552.072 236.244 552.24 236.728C552.409 237.206 552.493 237.748 552.493 238.354H547.154ZM550.894 237.11C550.821 236.7 550.609 236.372 550.258 236.126C549.907 235.875 549.508 235.75 549.062 235.75C548.615 235.75 548.214 235.875 547.858 236.126C547.503 236.372 547.289 236.7 547.216 237.11H550.894ZM558.857 241H554.578V239.729H555.973V233.357H554.578V232.079H557.388V239.729H558.857V241ZM567.676 237.821C567.676 238.318 567.596 238.769 567.437 239.175C567.282 239.58 567.056 239.931 566.76 240.228C566.468 240.519 566.117 240.747 565.707 240.911C565.297 241.075 564.839 241.157 564.333 241.157C563.836 241.157 563.383 241.075 562.973 240.911C562.562 240.747 562.209 240.519 561.913 240.228C561.621 239.931 561.396 239.58 561.236 239.175C561.081 238.769 561.004 238.318 561.004 237.821C561.004 237.338 561.081 236.892 561.236 236.481C561.396 236.067 561.621 235.711 561.913 235.415C562.209 235.114 562.562 234.884 562.973 234.725C563.383 234.561 563.836 234.479 564.333 234.479C564.839 234.479 565.297 234.561 565.707 234.725C566.117 234.884 566.468 235.114 566.76 235.415C567.056 235.711 567.282 236.067 567.437 236.481C567.596 236.892 567.676 237.338 567.676 237.821ZM566.268 237.821C566.268 237.534 566.222 237.263 566.131 237.008C566.044 236.748 565.917 236.527 565.748 236.345C565.579 236.162 565.374 236.019 565.133 235.914C564.896 235.805 564.629 235.75 564.333 235.75C564.032 235.75 563.763 235.805 563.526 235.914C563.289 236.019 563.089 236.162 562.925 236.345C562.761 236.527 562.633 236.748 562.542 237.008C562.455 237.263 562.412 237.534 562.412 237.821C562.412 238.122 562.455 238.396 562.542 238.642C562.633 238.888 562.761 239.104 562.925 239.291C563.089 239.478 563.289 239.624 563.526 239.729C563.763 239.829 564.032 239.879 564.333 239.879C564.629 239.879 564.896 239.829 565.133 239.729C565.374 239.624 565.579 239.478 565.748 239.291C565.917 239.104 566.044 238.888 566.131 238.642C566.222 238.396 566.268 238.122 566.268 237.821ZM574.983 239.093C574.983 239.507 574.89 239.845 574.703 240.104C574.516 240.364 574.275 240.574 573.979 240.733C573.687 240.893 573.359 241.002 572.994 241.062C572.634 241.125 572.281 241.157 571.935 241.157C571.356 241.157 570.779 241.073 570.205 240.904C569.631 240.736 569.134 240.515 568.715 240.241L569.303 239.079C569.804 239.371 570.262 239.578 570.677 239.701C571.096 239.82 571.515 239.879 571.935 239.879C572.504 239.879 572.919 239.82 573.179 239.701C573.438 239.578 573.568 239.41 573.568 239.195C573.568 239.09 573.532 239.004 573.459 238.936C573.386 238.867 573.265 238.806 573.097 238.751C572.928 238.692 572.705 238.635 572.427 238.58C572.153 238.521 571.812 238.459 571.401 238.396C571.073 238.341 570.761 238.275 570.465 238.197C570.173 238.115 569.916 238.001 569.692 237.855C569.469 237.71 569.289 237.525 569.152 237.302C569.02 237.078 568.954 236.798 568.954 236.461C568.954 236.119 569.041 235.823 569.214 235.572C569.392 235.317 569.622 235.107 569.904 234.943C570.191 234.779 570.513 234.661 570.868 234.588C571.224 234.515 571.579 234.479 571.935 234.479C572.436 234.479 572.921 234.545 573.391 234.677C573.865 234.804 574.279 234.989 574.635 235.23L574.074 236.324C573.719 236.101 573.372 235.951 573.035 235.873C572.702 235.791 572.336 235.75 571.935 235.75C571.766 235.75 571.59 235.759 571.408 235.777C571.226 235.796 571.057 235.832 570.902 235.887C570.747 235.937 570.618 236.007 570.513 236.099C570.412 236.185 570.362 236.292 570.362 236.42C570.362 236.589 570.51 236.728 570.807 236.837C571.107 236.942 571.618 237.047 572.338 237.151C572.73 237.206 573.088 237.277 573.411 237.363C573.735 237.445 574.013 237.559 574.245 237.705C574.478 237.846 574.658 238.031 574.785 238.259C574.917 238.482 574.983 238.76 574.983 239.093ZM584.041 239.168C584.041 238.794 584.141 238.468 584.342 238.19C584.542 237.908 584.804 237.673 585.128 237.486C585.456 237.299 585.83 237.16 586.249 237.069C586.673 236.974 587.104 236.926 587.541 236.926C587.783 236.926 587.99 236.93 588.163 236.939C588.336 236.949 588.512 236.962 588.689 236.98V236.728C588.689 236.395 588.56 236.146 588.3 235.982C588.045 235.818 587.707 235.736 587.288 235.736C586.905 235.736 586.516 235.791 586.119 235.9C585.723 236.005 585.347 236.16 584.991 236.365L584.417 235.258C584.836 235.016 585.285 234.827 585.764 234.69C586.247 234.549 586.755 234.479 587.288 234.479C587.634 234.479 587.974 234.517 588.307 234.595C588.644 234.672 588.945 234.8 589.209 234.978C589.478 235.155 589.692 235.388 589.852 235.675C590.011 235.957 590.091 236.308 590.091 236.728V241H588.689V240.063C588.466 240.41 588.136 240.679 587.698 240.87C587.265 241.062 586.798 241.157 586.297 241.157C585.987 241.157 585.693 241.114 585.415 241.027C585.142 240.945 584.905 240.82 584.704 240.651C584.504 240.483 584.342 240.275 584.219 240.029C584.1 239.779 584.041 239.492 584.041 239.168ZM586.659 239.893C586.937 239.893 587.197 239.858 587.438 239.79C587.685 239.717 587.901 239.619 588.088 239.496C588.275 239.368 588.421 239.216 588.525 239.038C588.635 238.86 588.689 238.664 588.689 238.45V238.211C588.466 238.174 588.257 238.154 588.061 238.149C587.865 238.145 587.691 238.143 587.541 238.143C586.848 238.143 586.324 238.234 585.969 238.416C585.618 238.598 585.442 238.824 585.442 239.093C585.442 239.626 585.848 239.893 586.659 239.893ZM597.07 241H592.791V239.729H594.186V233.357H592.791V232.079H595.601V239.729H597.07V241ZM599.688 234.629H601.104V238.566C601.104 239.059 601.197 239.4 601.384 239.592C601.571 239.783 601.842 239.879 602.197 239.879C602.717 239.879 603.143 239.667 603.476 239.243C603.808 238.819 603.975 238.234 603.975 237.486V234.629H605.39V241H603.975V239.407C603.833 239.954 603.571 240.382 603.188 240.692C602.806 241.002 602.334 241.157 601.773 241.157C601.122 241.157 600.611 240.945 600.242 240.521C599.873 240.093 599.688 239.441 599.688 238.566V234.629ZM613.032 241H611.617V237.069C611.617 236.573 611.524 236.229 611.337 236.037C611.15 235.846 610.879 235.75 610.523 235.75C609.999 235.75 609.571 235.962 609.238 236.386C608.91 236.81 608.746 237.395 608.746 238.143V241H607.331V234.629H608.746V236.229C608.887 235.677 609.149 235.249 609.532 234.943C609.915 234.633 610.387 234.479 610.947 234.479C611.599 234.479 612.109 234.69 612.479 235.114C612.848 235.538 613.032 236.19 613.032 237.069V241ZM621.174 237.821C621.174 238.318 621.094 238.769 620.935 239.175C620.78 239.58 620.554 239.931 620.258 240.228C619.966 240.519 619.615 240.747 619.205 240.911C618.795 241.075 618.337 241.157 617.831 241.157C617.334 241.157 616.881 241.075 616.471 240.911C616.061 240.747 615.707 240.519 615.411 240.228C615.119 239.931 614.894 239.58 614.734 239.175C614.579 238.769 614.502 238.318 614.502 237.821C614.502 237.338 614.579 236.892 614.734 236.481C614.894 236.067 615.119 235.711 615.411 235.415C615.707 235.114 616.061 234.884 616.471 234.725C616.881 234.561 617.334 234.479 617.831 234.479C618.337 234.479 618.795 234.561 619.205 234.725C619.615 234.884 619.966 235.114 620.258 235.415C620.554 235.711 620.78 236.067 620.935 236.481C621.094 236.892 621.174 237.338 621.174 237.821ZM619.766 237.821C619.766 237.534 619.72 237.263 619.629 237.008C619.542 236.748 619.415 236.527 619.246 236.345C619.077 236.162 618.872 236.019 618.631 235.914C618.394 235.805 618.127 235.75 617.831 235.75C617.53 235.75 617.261 235.805 617.024 235.914C616.787 236.019 616.587 236.162 616.423 236.345C616.259 236.527 616.131 236.748 616.04 237.008C615.953 237.263 615.91 237.534 615.91 237.821C615.91 238.122 615.953 238.396 616.04 238.642C616.131 238.888 616.259 239.104 616.423 239.291C616.587 239.478 616.787 239.624 617.024 239.729C617.261 239.829 617.53 239.879 617.831 239.879C618.127 239.879 618.394 239.829 618.631 239.729C618.872 239.624 619.077 239.478 619.246 239.291C619.415 239.104 619.542 238.888 619.629 238.642C619.72 238.396 619.766 238.122 619.766 237.821ZM628.481 239.093C628.481 239.507 628.388 239.845 628.201 240.104C628.014 240.364 627.773 240.574 627.477 240.733C627.185 240.893 626.857 241.002 626.492 241.062C626.132 241.125 625.779 241.157 625.433 241.157C624.854 241.157 624.277 241.073 623.703 240.904C623.129 240.736 622.632 240.515 622.213 240.241L622.801 239.079C623.302 239.371 623.76 239.578 624.175 239.701C624.594 239.82 625.013 239.879 625.433 239.879C626.002 239.879 626.417 239.82 626.677 239.701C626.937 239.578 627.066 239.41 627.066 239.195C627.066 239.09 627.03 239.004 626.957 238.936C626.884 238.867 626.763 238.806 626.595 238.751C626.426 238.692 626.203 238.635 625.925 238.58C625.651 238.521 625.31 238.459 624.899 238.396C624.571 238.341 624.259 238.275 623.963 238.197C623.671 238.115 623.414 238.001 623.19 237.855C622.967 237.71 622.787 237.525 622.65 237.302C622.518 237.078 622.452 236.798 622.452 236.461C622.452 236.119 622.539 235.823 622.712 235.572C622.89 235.317 623.12 235.107 623.402 234.943C623.689 234.779 624.011 234.661 624.366 234.588C624.722 234.515 625.077 234.479 625.433 234.479C625.934 234.479 626.419 234.545 626.889 234.677C627.363 234.804 627.777 234.989 628.133 235.23L627.572 236.324C627.217 236.101 626.87 235.951 626.533 235.873C626.201 235.791 625.834 235.75 625.433 235.75C625.264 235.75 625.089 235.759 624.906 235.777C624.724 235.796 624.555 235.832 624.4 235.887C624.245 235.937 624.116 236.007 624.011 236.099C623.91 236.185 623.86 236.292 623.86 236.42C623.86 236.589 624.008 236.728 624.305 236.837C624.605 236.942 625.116 237.047 625.836 237.151C626.228 237.206 626.586 237.277 626.909 237.363C627.233 237.445 627.511 237.559 627.743 237.705C627.976 237.846 628.156 238.031 628.283 238.259C628.415 238.482 628.481 238.76 628.481 239.093ZM633.971 241H632.248V239.277H633.971V241Z" fill="#F3E8FF"/>
<g filter="url(#filter0_d_36_139)">
<path d="M362 198.397C490.761 198.397 619.538 197.504 748.296 198.397C760.393 198.481 772.495 198.463 784.583 199.058C790.421 199.345 796.837 197.56 802.044 201.041C804.113 202.424 799.11 206.057 797.014 207.368C789.013 212.374 780.546 216.006 772.152 219.74C690.557 256.032 604.514 279.461 526.909 329.949C514.025 338.331 483.659 354.941 494.502 367.346C504.446 378.724 560.361 377.333 561.543 377.357C625.603 378.64 689.566 371.35 753.613 373.107C760.837 373.305 800.151 372.476 811.601 383.212C822.606 393.53 803.519 412.839 801.757 415.132C789.041 431.675 685.67 547.785 672.164 563" stroke="white" stroke-width="3" stroke-linecap="round"/>
</g>
</g>
<defs>
<filter id="filter0_d_36_139" x="358.5" y="196.5" width="460" height="374" filterUnits="userSpaceOnUse" color-interpolation-filters="sRGB">
<feFlood flood-opacity="0" result="BackgroundImageFix"/>
<feColorMatrix in="SourceAlpha" type="matrix" values="0 0 0 0 0 0 0 0 0 0 0 0 0 0 0 0 0 0 127 0" result="hardAlpha"/>
<feOffset dy="4"/>
<feGaussianBlur stdDeviation="1"/>
<feComposite in2="hardAlpha" operator="out"/>
<feColorMatrix type="matrix" values="0 0 0 0 0 0 0 0 0 0 0 0 0 0 0 0 0 0 0.28 0"/>
<feBlend mode="normal" in2="BackgroundImageFix" result="effect1_dropShadow_36_139"/>
<feBlend mode="normal" in="SourceGraphic" in2="effect1_dropShadow_36_139" result="shape"/>
</filter>
<radialGradient id="paint0_radial_36_139" cx="0" cy="0" r="1" gradientUnits="userSpaceOnUse" gradientTransform="translate(576 192) rotate(90) scale(448 1344)">
<stop stop-color="#5B21B6"/>
<stop offset="1" stop-color="#280F50"/>
</radialGradient>
<clipPath id="clip0_36_139">
<rect width="1000" height="384" fill="white"/>
</clipPath>
<clipPath id="clip1_36_139">
<path d="M0 -3H119V382H0V-3Z" fill="white"/>
</clipPath>
</defs>
</svg>
